<?xml version="1.0" encoding="UTF-8"?>
<svg version="1.1" xmlns="http://www.w3.org/2000/svg" width="150" height="148">
<path d="M0 0 C1.9375 0.375 1.9375 0.375 4 1 C4.33 1.66 4.66 2.32 5 3 C5.886875 2.690625 6.77375 2.38125 7.6875 2.0625 C10.47589021 1.16811069 13.10435391 0.41366373 16 0 C18.23810254 2.23810254 17.902506 7.08254526 18.3046875 10.1171875 C19.03543061 13.14689771 19.39157 14.32732964 22 16 C24.49462323 16.60937779 24.49462323 16.60937779 27 16 C28.80174539 14.14970683 28.80174539 14.14970683 30.125 11.6875 C31.87188774 8.75556139 33.47311704 6.31007939 36 4 C36.99 4.33 37.98 4.66 39 5 C38.67 8.63 38.34 12.26 38 16 C41.03291299 13.32174125 41.03291299 13.32174125 42.125 10.5 C44.62335692 7.16885744 47.00387402 6.92086146 50.90234375 5.82421875 C53.29681707 5.09150586 53.29681707 5.09150586 55.0625 2.3125 C55.5265625 1.1678125 55.5265625 1.1678125 56 0 C56.99 0.33 57.98 0.66 59 1 C59 1.99 59 2.98 59 4 C59.99 3.34 60.98 2.68 62 2 C62.99 2 63.98 2 65 2 C65.2475 3.27875 65.495 4.5575 65.75 5.875 C66.23891114 8.07448022 66.23891114 8.07448022 67 10 C69.00016466 11.20882096 69.00016466 11.20882096 71 12 C71.75 14.625 71.75 14.625 72 17 C69 19 69 19 66 19 C65.01 17.515 65.01 17.515 64 16 C60.87442041 15.63469768 60.87442041 15.63469768 57.375 15.8125 C56.18648438 15.83957031 54.99796875 15.86664063 53.7734375 15.89453125 C52.85820313 15.92933594 51.94296875 15.96414062 51 16 C50.25595257 17.83245022 50.25595257 17.83245022 50 20 C52.15143276 23.45361575 55.01577787 25.70045414 58.875 26.875 C59.926875 26.936875 59.926875 26.936875 61 27 C60.34 28.65 59.68 30.3 59 32 C60.65 32 62.3 32 64 32 C64.66 30.02 65.32 28.04 66 26 C67.485 26.495 67.485 26.495 69 27 C69 27.99 69 28.98 69 30 C70.11375 29.95875 71.2275 29.9175 72.375 29.875 C76 30 76 30 78 32 C78.55743243 37.23986486 78.55743243 37.23986486 76.625 39.875 C75 41 75 41 73 41 C73.33 41.66 73.66 42.32 74 43 C74.13357453 46.67329964 74.1671568 49.49852959 73 53 C72.96045766 55.33299825 72.95598268 57.66708189 73 60 C71.02 60.99 69.04 61.98 67 63 C66.96261719 64.16917969 66.92523438 65.33835937 66.88671875 66.54296875 C66.8210372 68.09117675 66.75459061 69.63935242 66.6875 71.1875 C66.66494141 71.95642578 66.64238281 72.72535156 66.61914062 73.51757812 C66.40096696 78.13889307 65.91054022 81.21837173 63 85 C62.47535156 85.45503906 61.95070313 85.91007812 61.41015625 86.37890625 C59.20212057 88.91722982 59.03717474 91.67184271 58.4375 94.9375 C56.89637671 103.21777257 56.89637671 103.21777257 55 106 C52.68191636 107.03485877 50.34824702 108.0355414 48 109 C47.34 109.99 46.68 110.98 46 112 C37.18587062 113.46423648 26.76929735 111.79054632 19.0625 107.28125 C15.55119945 104.66568938 12.46981636 101.83758548 9.375 98.75 C8.53582031 97.94755859 8.53582031 97.94755859 7.6796875 97.12890625 C3.67745131 93.15498776 1.22925105 89.15991343 -1 84 C-1.45503906 82.98035156 -1.91007812 81.96070312 -2.37890625 80.91015625 C-2.76949219 79.97042969 -3.16007812 79.03070313 -3.5625 78.0625 C-3.95566406 77.12535156 -4.34882812 76.18820313 -4.75390625 75.22265625 C-5.16511719 74.15917969 -5.57632813 73.09570312 -6 72 C-6.26619141 71.33025146 -6.53238281 70.66050293 -6.80664062 69.97045898 C-8.94324973 64.20072625 -9.45935315 59.06247621 -9.375 52.9375 C-9.38660156 52.09123047 -9.39820313 51.24496094 -9.41015625 50.37304688 C-9.37406413 42.57113341 -7.2477228 36.59635647 -3.125 30 C-2.34769531 28.74703125 -2.34769531 28.74703125 -1.5546875 27.46875 C-1.04164062 26.6540625 -0.52859375 25.839375 0 25 C0.47179688 24.2265625 0.94359375 23.453125 1.4296875 22.65625 C4.72429907 17.27570093 4.72429907 17.27570093 7 15 C4.69 14.67 2.38 14.34 0 14 C-0.99 15.485 -0.99 15.485 -2 17 C-5.625 17.6875 -5.625 17.6875 -9 18 C-9.43702768 13.54231767 -9.51445113 11.65349198 -6.6875 8.0625 C-4 6 -4 6 -1 6 C-0.67 4.02 -0.34 2.04 0 0 Z " fill="#EF6861" transform="translate(46,22)"/>
<path d="M0 0 C1.9375 0.375 1.9375 0.375 4 1 C4.33 1.66 4.66 2.32 5 3 C5.886875 2.690625 6.77375 2.38125 7.6875 2.0625 C10.47589021 1.16811069 13.10435391 0.41366373 16 0 C18.23810254 2.23810254 17.902506 7.08254526 18.3046875 10.1171875 C19.03543061 13.14689771 19.39157 14.32732964 22 16 C24.49462323 16.60937779 24.49462323 16.60937779 27 16 C28.80174539 14.14970683 28.80174539 14.14970683 30.125 11.6875 C31.87188774 8.75556139 33.47311704 6.31007939 36 4 C36.99 4.33 37.98 4.66 39 5 C38.67 8.63 38.34 12.26 38 16 C41.03291299 13.32174125 41.03291299 13.32174125 42.125 10.5 C44.62335692 7.16885744 47.00387402 6.92086146 50.90234375 5.82421875 C53.29681707 5.09150586 53.29681707 5.09150586 55.0625 2.3125 C55.5265625 1.1678125 55.5265625 1.1678125 56 0 C56.99 0.33 57.98 0.66 59 1 C59 1.99 59 2.98 59 4 C59.99 3.34 60.98 2.68 62 2 C62.99 2 63.98 2 65 2 C65.2475 3.27875 65.495 4.5575 65.75 5.875 C66.23891114 8.07448022 66.23891114 8.07448022 67 10 C69.00016466 11.20882096 69.00016466 11.20882096 71 12 C71.75 14.625 71.75 14.625 72 17 C69 19 69 19 66 19 C65.01 17.515 65.01 17.515 64 16 C60.87442041 15.63469768 60.87442041 15.63469768 57.375 15.8125 C56.18648438 15.83957031 54.99796875 15.86664063 53.7734375 15.89453125 C52.85820313 15.92933594 51.94296875 15.96414062 51 16 C50.25595257 17.83245022 50.25595257 17.83245022 50 20 C52.15143276 23.45361575 55.01577787 25.70045414 58.875 26.875 C59.926875 26.936875 59.926875 26.936875 61 27 C60.34 28.65 59.68 30.3 59 32 C60.65 32 62.3 32 64 32 C64.66 30.02 65.32 28.04 66 26 C67.485 26.495 67.485 26.495 69 27 C69 27.99 69 28.98 69 30 C70.11375 29.95875 71.2275 29.9175 72.375 29.875 C76 30 76 30 78 32 C78.55743243 37.23986486 78.55743243 37.23986486 76.625 39.875 C75 41 75 41 73 41 C73.33 41.66 73.66 42.32 74 43 C74.13357453 46.67329964 74.1671568 49.49852959 73 53 C72.96045766 55.33299825 72.95598268 57.66708189 73 60 C71.02 60.99 69.04 61.98 67 63 C66.96261719 64.16917969 66.92523438 65.33835937 66.88671875 66.54296875 C66.8210372 68.09117675 66.75459061 69.63935242 66.6875 71.1875 C66.66494141 71.95642578 66.64238281 72.72535156 66.61914062 73.51757812 C66.40096696 78.13889307 65.91054022 81.21837173 63 85 C62.47535156 85.45503906 61.95070313 85.91007812 61.41015625 86.37890625 C59.20212057 88.91722982 59.03717474 91.67184271 58.4375 94.9375 C56.89637671 103.21777257 56.89637671 103.21777257 55 106 C52.68191636 107.03485877 50.34824702 108.0355414 48 109 C47.34 109.99 46.68 110.98 46 112 C43.390625 112.328125 43.390625 112.328125 40.25 112.25 C39.1775 112.22421875 38.105 112.1984375 37 112.171875 C33.93991379 111.99655756 30.9943551 111.66541225 28 111 C28 110.67 28 110.34 28 110 C29.19496094 109.94392578 29.19496094 109.94392578 30.4140625 109.88671875 C38.63672471 109.44482665 38.63672471 109.44482665 46 106 C46.99 104.515 46.99 104.515 48 103 C48.66 103 49.32 103 50 103 C50.18175781 102.41992188 50.36351562 101.83984375 50.55078125 101.2421875 C54.40613133 89.26094571 54.40613133 89.26094571 57.49609375 86.81640625 C59.80503856 84.0276807 60.02112819 80.79116092 60.5625 77.3125 C60.80784787 75.85642427 61.055218 74.40068774 61.3046875 72.9453125 C61.42166992 72.25469727 61.53865234 71.56408203 61.65917969 70.85253906 C62.04508053 68.75496341 62.58034391 66.73130711 63.1875 64.6875 C64.69260302 57.85664784 64.9225764 51.4366266 62 45 C55.28849638 44.38111135 51.08202341 44.85752372 45.59375 48.90625 C44 50 44 50 42 50 C42 51.65 42 53.3 42 55 C39.23382437 56.38308781 36.98982 56.11210196 33.8984375 56.09765625 C32.08085938 56.09282227 32.08085938 56.09282227 30.2265625 56.08789062 C28.95554688 56.07951172 27.68453125 56.07113281 26.375 56.0625 C25.09625 56.05798828 23.8175 56.05347656 22.5 56.04882812 C19.33328708 56.03701203 16.16666644 56.02053815 13 56 C13.66 54.35 14.32 52.7 15 51 C15.66 51 16.32 51 17 51 C17.09087891 49.95199219 17.09087891 49.95199219 17.18359375 48.8828125 C17.26738281 47.97273438 17.35117187 47.06265625 17.4375 46.125 C17.51871094 45.22007813 17.59992187 44.31515625 17.68359375 43.3828125 C18 41 18 41 19 39 C13.05966059 35.47979887 7.94724649 33.48782332 1 35 C-1.99575427 36.67723459 -4.50084038 38.65442002 -7 41 C-7.37158319 36.66486278 -6.41597708 34.56618029 -4 31 C-3.44441406 30.1028125 -2.88882813 29.205625 -2.31640625 28.28125 C-1.73761719 27.3634375 -1.15882812 26.445625 -0.5625 25.5 C0.01371094 24.5821875 0.58992188 23.664375 1.18359375 22.71875 C2.98913604 20.01626089 4.933668 17.50684674 7 15 C4.69 14.67 2.38 14.34 0 14 C-0.99 15.485 -0.99 15.485 -2 17 C-5.625 17.6875 -5.625 17.6875 -9 18 C-9.43702768 13.54231767 -9.51445113 11.65349198 -6.6875 8.0625 C-4 6 -4 6 -1 6 C-0.67 4.02 -0.34 2.04 0 0 Z " fill="#F4C5C6" transform="translate(46,22)"/>
<path d="M0 0 C0.99 0.33 1.98 0.66 3 1 C3 1.99 3 2.98 3 4 C4.11375 3.95875 5.2275 3.9175 6.375 3.875 C10 4 10 4 12 6 C12.55743243 11.23986486 12.55743243 11.23986486 10.625 13.875 C9 15 9 15 7 15 C7.495 15.99 7.495 15.99 8 17 C8.13357453 20.67329964 8.1671568 23.49852959 7 27 C6.96045766 29.33299825 6.95598268 31.66708189 7 34 C5.02 34.99 3.04 35.98 1 37 C0.96261719 38.16917969 0.92523438 39.33835938 0.88671875 40.54296875 C0.8210372 42.09117675 0.75459061 43.63935242 0.6875 45.1875 C0.66494141 45.95642578 0.64238281 46.72535156 0.61914062 47.51757812 C0.40096696 52.13889307 -0.08945978 55.21837173 -3 59 C-3.52464844 59.45503906 -4.04929688 59.91007812 -4.58984375 60.37890625 C-6.79787943 62.91722982 -6.96282526 65.67184271 -7.5625 68.9375 C-9.10362329 77.21777257 -9.10362329 77.21777257 -11 80 C-13.31808364 81.03485877 -15.65175298 82.0355414 -18 83 C-18.66 83.99 -19.32 84.98 -20 86 C-22.609375 86.328125 -22.609375 86.328125 -25.75 86.25 C-26.8225 86.22421875 -27.895 86.1984375 -29 86.171875 C-32.06008621 85.99655756 -35.0056449 85.66541225 -38 85 C-38 84.67 -38 84.34 -38 84 C-36.80503906 83.94392578 -36.80503906 83.94392578 -35.5859375 83.88671875 C-27.36327529 83.44482665 -27.36327529 83.44482665 -20 80 C-19.01 78.515 -19.01 78.515 -18 77 C-17.34 77 -16.68 77 -16 77 C-15.81824219 76.41992188 -15.63648438 75.83984375 -15.44921875 75.2421875 C-11.59386867 63.26094571 -11.59386867 63.26094571 -8.50390625 60.81640625 C-6.19496144 58.0276807 -5.97887181 54.79116092 -5.4375 51.3125 C-5.19215213 49.85642427 -4.944782 48.40068774 -4.6953125 46.9453125 C-4.57833008 46.25469727 -4.46134766 45.56408203 -4.34082031 44.85253906 C-3.95491947 42.75496341 -3.41965609 40.73130711 -2.8125 38.6875 C-1.30739698 31.85664784 -1.0774236 25.4366266 -4 19 C-10.71150362 18.38111135 -14.91797659 18.85752372 -20.40625 22.90625 C-22 24 -22 24 -24 24 C-24 25.65 -24 27.3 -24 29 C-26.76617563 30.38308781 -29.01018 30.11210196 -32.1015625 30.09765625 C-33.31328125 30.09443359 -34.525 30.09121094 -35.7734375 30.08789062 C-37.04445313 30.07951172 -38.31546875 30.07113281 -39.625 30.0625 C-40.90375 30.05798828 -42.1825 30.05347656 -43.5 30.04882812 C-46.66671292 30.03701203 -49.83333356 30.02053815 -53 30 C-51.26171875 25.1484375 -51.26171875 25.1484375 -48.90625 23.8125 C-48.1121875 23.544375 -47.318125 23.27625 -46.5 23 C-42.93659917 21.61212263 -42.93659917 21.61212263 -40.4375 18.8125 C-39.92555985 15.52145619 -39.94362415 12.40738277 -40.125 9.0859375 C-40 7 -40 7 -38 4 C-31.04672897 3.21495327 -31.04672897 3.21495327 -27.5 5.875 C-26 8 -26 8 -26 10 C-24.35328588 9.69217504 -22.70764424 9.37860766 -21.0625 9.0625 C-20.14597656 8.88847656 -19.22945312 8.71445312 -18.28515625 8.53515625 C-16.04710156 8.22285012 -16.04710156 8.22285012 -15 7 C-12.81707226 6.76518307 -10.62796826 6.58636677 -8.4375 6.4375 C-7.23996094 6.35371094 -6.04242188 6.26992188 -4.80859375 6.18359375 C-3.88175781 6.12300781 -2.95492187 6.06242187 -2 6 C-1.34 4.02 -0.68 2.04 0 0 Z " fill="#7EA5D8" transform="translate(112,48)"/>
<path d="M0 0 C2.4326314 1.70284198 3.31803673 3.4770551 5 6 C6.14512374 13.28351963 4.45513193 20.19240434 2.51123047 27.16479492 C1.56982785 30.55700228 0.86046491 33.79400918 0.49609375 37.30078125 C0 41 0 41 -2 44 C-2.66 44 -3.32 44 -4 44 C-4.2475 44.804375 -4.495 45.60875 -4.75 46.4375 C-7.73022092 54.93112962 -9.96956283 60.1562754 -17.734375 65.10546875 C-23.47261005 67.37108224 -31.92420928 67.00061084 -37.76171875 65.1015625 C-39.9375 64 -39.9375 64 -43 62 C-42.67 60.35 -42.34 58.7 -42 57 C-40.72125 56.938125 -39.4425 56.87625 -38.125 56.8125 C-31.96777145 56.10242467 -25.4889811 54.09043155 -21.48046875 49.11328125 C-20.2335505 47.02554196 -20.2335505 47.02554196 -19 44 C-19.7425 44.495 -20.485 44.99 -21.25 45.5 C-24 47 -24 47 -28 47 C-28 46.34 -28 45.68 -28 45 C-27.01 45 -26.02 45 -25 45 C-24.67 44.01 -24.34 43.02 -24 42 C-22.576875 41.071875 -22.576875 41.071875 -21.125 40.125 C-17.89485039 37.92849827 -16.48467451 36.58068557 -15 33 C-15.17295995 30.46823091 -15.17295995 30.46823091 -16 28 C-16.5 25.5 -16.5 25.5 -17 23 C-16.01 23 -15.02 23 -14 23 C-14.66 17.06 -15.32 11.12 -16 5 C-10.32140444 0.94386032 -7.01050937 -0.95057754 0 0 Z " fill="#CD3B3D" transform="translate(106,66)"/>
<path d="M0 0 C0.66 0 1.32 0 2 0 C3.52106634 3.04213267 3.37429338 6.28047572 3.5625 9.625 C3.60568359 10.33140625 3.64886719 11.0378125 3.69335938 11.765625 C3.79944751 13.51018537 3.90022889 15.25506697 4 17 C3.01 17 2.02 17 1 17 C1.515625 18.0725 2.03125 19.145 2.5625 20.25 C3.50267548 22.46899237 4.01761238 23.70058955 3.875 26.125 C1.39375581 31.44195183 -0.99058581 33.84189105 -6 37 C-6.33 37.66 -6.66 38.32 -7 39 C-11.74342624 42.00802639 -15.55059704 42.62836058 -21 42 C-24.4375 41.1875 -24.4375 41.1875 -27 40 C-27.495 38.515 -27.495 38.515 -28 37 C-28.99 36.34 -29.98 35.68 -31 35 C-31.98515378 32.37643538 -32.42238929 29.75475877 -33 27 C-31.68 27 -30.36 27 -29 27 C-29 26.34 -29 25.68 -29 25 C-30.65 25 -32.3 25 -34 25 C-34.25 22.6875 -34.25 22.6875 -34 20 C-32.1875 18.125 -32.1875 18.125 -30 17 C-29.01 17.33 -28.02 17.66 -27 18 C-24.66700175 18.03954234 -22.33291811 18.04401732 -20 18 C-21.32 17.67 -22.64 17.34 -24 17 C-24 15.68 -24 14.36 -24 13 C-22.68 12.34 -21.36 11.68 -20 11 C-23.09875672 11 -25.24421515 11.58261252 -28.1875 12.5 C-29.08855469 12.7784375 -29.98960938 13.056875 -30.91796875 13.34375 C-31.60503906 13.5603125 -32.29210938 13.776875 -33 14 C-32.46986963 10.18306135 -31.76802518 7.73950373 -29 5 C-25.99731445 4.54589844 -25.99731445 4.54589844 -22.36328125 4.609375 C-21.06455078 4.62226562 -19.76582031 4.63515625 -18.42773438 4.6484375 C-17.05597897 4.68185899 -15.68423419 4.71571877 -14.3125 4.75 C-12.92906188 4.77006624 -11.54559616 4.78831681 -10.16210938 4.8046875 C-6.77404351 4.85190793 -3.38736759 4.91775931 0 5 C0 3.35 0 1.7 0 0 Z " fill="#F1776E" transform="translate(88,72)"/>
<path d="M0 0 C3.15258716 1.07876139 6.07151652 2.41550653 9 4 C8.60190889 6.08696247 8.1807572 8.1695344 7.75 10.25 C7.51796875 11.41015625 7.2859375 12.5703125 7.046875 13.765625 C5.89863729 17.3131654 4.70944697 18.53501441 2 21 C1.54753906 21.85335937 1.09507813 22.70671875 0.62890625 23.5859375 C-1.51418658 26.76203191 -3.49115121 27.34920833 -7.0625 28.625 C-11.83597604 30.22607727 -11.83597604 30.22607727 -15 34 C-16.32 33.67 -17.64 33.34 -19 33 C-20.30548929 28.36874703 -20.29943908 23.84687997 -20.375 19.0625 C-20.41238281 18.16853516 -20.44976562 17.27457031 -20.48828125 16.35351562 C-20.54976864 11.75220891 -20.57054622 9.71341622 -17.61328125 6.015625 C-16.75089844 5.35046875 -15.88851562 4.6853125 -15 4 C-14.278125 3.236875 -13.55625 2.47375 -12.8125 1.6875 C-8.57979355 -0.85212387 -4.81379014 -0.73839849 0 0 Z " fill="#BE3644" transform="translate(57,56)"/>
<path d="M0 0 C1.9375 0.375 1.9375 0.375 4 1 C4.33 1.66 4.66 2.32 5 3 C5.886875 2.690625 6.77375 2.38125 7.6875 2.0625 C10.47589021 1.16811069 13.10435391 0.41366373 16 0 C18.28818165 2.28818165 18.03268321 7.21652629 18.5 10.3125 C18.72095208 12.90956624 18.72095208 12.90956624 20 14 C20.28726222 16.92049922 20.50448442 19.15807108 20 22 C17.75 24 17.75 24 15 26 C14.39409637 27.37754772 13.8346076 28.7760608 13.3125 30.1875 C12.34765625 32.31640625 12.34765625 32.31640625 11 34 C8.491219 34.60371735 6.19393479 34.62574865 3.6171875 34.66015625 C-0.84766352 35.23992049 -3.76046627 38.04098455 -7 41 C-7.37158319 36.66486278 -6.41597708 34.56618029 -4 31 C-3.44441406 30.1028125 -2.88882813 29.205625 -2.31640625 28.28125 C-1.73761719 27.3634375 -1.15882812 26.445625 -0.5625 25.5 C0.01371094 24.5821875 0.58992188 23.664375 1.18359375 22.71875 C2.98913604 20.01626089 4.933668 17.50684674 7 15 C4.69 14.67 2.38 14.34 0 14 C-0.99 15.485 -0.99 15.485 -2 17 C-5.625 17.6875 -5.625 17.6875 -9 18 C-9.43702768 13.54231767 -9.51445113 11.65349198 -6.6875 8.0625 C-4 6 -4 6 -1 6 C-0.67 4.02 -0.34 2.04 0 0 Z " fill="#8AA7D3" transform="translate(46,22)"/>
<path d="M0 0 C1.49498913 2.98997825 1.11577446 5.70042775 1 9 C0.67 9.99 0.34 10.98 0 12 C-0.03954234 14.33299825 -0.04401732 16.66708189 0 19 C-1.98 19.99 -3.96 20.98 -6 22 C-6.03738281 23.16917969 -6.07476562 24.33835937 -6.11328125 25.54296875 C-6.1789628 27.09117675 -6.24540939 28.63935242 -6.3125 30.1875 C-6.33505859 30.95642578 -6.35761719 31.72535156 -6.38085938 32.51757812 C-6.59903304 37.13889307 -7.08945978 40.21837173 -10 44 C-10.52464844 44.45503906 -11.04929688 44.91007812 -11.58984375 45.37890625 C-13.79787943 47.91722982 -13.96282526 50.67184271 -14.5625 53.9375 C-16.10362329 62.21777257 -16.10362329 62.21777257 -18 65 C-20.31808364 66.03485877 -22.65175298 67.0355414 -25 68 C-25.66 68.99 -26.32 69.98 -27 71 C-29.609375 71.328125 -29.609375 71.328125 -32.75 71.25 C-33.8225 71.22421875 -34.895 71.1984375 -36 71.171875 C-39.06008621 70.99655756 -42.0056449 70.66541225 -45 70 C-45 69.67 -45 69.34 -45 69 C-43.80503906 68.94392578 -43.80503906 68.94392578 -42.5859375 68.88671875 C-34.36327529 68.44482665 -34.36327529 68.44482665 -27 65 C-26.34 64.01 -25.68 63.02 -25 62 C-24.34 62 -23.68 62 -23 62 C-22.81824219 61.41992188 -22.63648437 60.83984375 -22.44921875 60.2421875 C-18.59386867 48.26094571 -18.59386867 48.26094571 -15.50390625 45.81640625 C-13.19496144 43.0276807 -12.97887181 39.79116092 -12.4375 36.3125 C-12.19215213 34.85642427 -11.944782 33.40068774 -11.6953125 31.9453125 C-11.57833008 31.25469727 -11.46134766 30.56408203 -11.34082031 29.85253906 C-10.95491947 27.75496341 -10.41965609 25.73130711 -9.8125 23.6875 C-8.30739698 16.85664784 -8.0774236 10.4366266 -11 4 C-11.66 4 -12.32 4 -13 4 C-13 3.34 -13 2.68 -13 2 C-11.20873548 1.66451233 -9.41697413 1.33167645 -7.625 1 C-6.62726563 0.814375 -5.62953125 0.62875 -4.6015625 0.4375 C-2 0 -2 0 0 0 Z " fill="#F5E4E1" transform="translate(119,63)"/>
<path d="M0 0 C0.99 0.33 1.98 0.66 3 1 C3 1.99 3 2.98 3 4 C2.34 4 1.68 4 1 4 C1 5.32 1 6.64 1 8 C2.051875 7.67 3.10375 7.34 4.1875 7 C10.6535868 5.39502488 18.69230979 4.33449167 24.76953125 7.39453125 C27 9 27 9 29 11 C29.125 13.625 29.125 13.625 29 16 C25.64639677 16.64640062 22.42067885 17.15203017 19 17 C16.875 14.5625 16.875 14.5625 15 12 C12.20617385 11.53255049 9.85390832 11.76217431 7 12 C5.69485845 14.61028309 6.04201341 16.40670021 6.1875 19.3125 C6.21207966 23.06335578 6.13610557 24.73825851 4.375 28.125 C1.55347244 30.35252176 -0.44832707 30.75784048 -4 31 C-3.85892253 29.54119891 -3.71197585 28.08296449 -3.5625 26.625 C-3.44068359 25.40683594 -3.44068359 25.40683594 -3.31640625 24.1640625 C-3 22 -3 22 -2 20 C-4.64 18.68 -7.28 17.36 -10 16 C-9.18391622 9.06328787 -4.91399044 4.64099097 0 0 Z " fill="#F5A6A9" transform="translate(67,41)"/>
<path d="M0 0 C0.99 0.33 1.98 0.66 3 1 C3 1.99 3 2.98 3 4 C3.99 3.34 4.98 2.68 6 2 C6.99 2 7.98 2 9 2 C9.2475 3.27875 9.495 4.5575 9.75 5.875 C10.23891114 8.07448022 10.23891114 8.07448022 11 10 C13.00016466 11.20882096 13.00016466 11.20882096 15 12 C15.75 14.625 15.75 14.625 16 17 C13 19 13 19 10 19 C9.34 18.01 8.68 17.02 8 16 C4.87442041 15.63469768 4.87442041 15.63469768 1.375 15.8125 C0.18648437 15.83957031 -1.00203125 15.86664063 -2.2265625 15.89453125 C-3.14179687 15.92933594 -4.05703125 15.96414062 -5 16 C-5.66 17.32 -6.32 18.64 -7 20 C-7.66 20 -8.32 20 -9 20 C-9 20.66 -9 21.32 -9 22 C-10.98 21.67 -12.96 21.34 -15 21 C-16.31369355 16.97793824 -15.5781291 14.65697026 -14.015625 10.8359375 C-12.50932214 8.11300541 -10.84962449 7.15341944 -8 6 C-6.700625 5.814375 -6.700625 5.814375 -5.375 5.625 C-2.7304661 5.2010366 -2.7304661 5.2010366 -1.1875 2.4375 C-0.795625 1.633125 -0.40375 0.82875 0 0 Z " fill="#F3B2B2" transform="translate(102,22)"/>
<path d="M0 0 C0.66 0 1.32 0 2 0 C3.61584574 5.41783572 4.69403056 9.44734429 3 15 C1.09345111 17.92865934 -0.94187955 20.69311949 -3.08984375 23.44921875 C-4.69810726 25.59685898 -5.9097357 27.56260285 -7 30 C-22.74487472 30.738041 -22.74487472 30.738041 -30 26 C-29.67 24.35 -29.34 22.7 -29 21 C-28.443125 20.97421875 -27.88625 20.9484375 -27.3125 20.921875 C-22.01683618 20.52827837 -18.2165321 19.42988749 -13.62890625 16.7421875 C-13.09136719 16.49726562 -12.55382812 16.25234375 -12 16 C-11.34 16.33 -10.68 16.66 -10 17 C-10.99 18.98 -11.98 20.96 -13 23 C-13.99 23 -14.98 23 -16 23 C-15.67 23.99 -15.34 24.98 -15 26 C-14.54625 25.34 -14.0925 24.68 -13.625 24 C-13.08875 23.34 -12.5525 22.68 -12 22 C-11.34 22 -10.68 22 -10 22 C-9.731875 21.46375 -9.46375 20.9275 -9.1875 20.375 C-8.37079082 18.74158163 -7.53638768 17.11692892 -6.6875 15.5 C-4.24033347 10.42439534 -2.13430482 5.21344024 0 0 Z " fill="#E14844" transform="translate(93,102)"/>
<path d="M0 0 C2.4326314 1.70284198 3.31803673 3.4770551 5 6 C5.75691701 12.26176803 5.50664076 17.59392883 2 23 C-1.42222677 22.35637019 -3.84953515 21.0302073 -6.75 19.125 C-7.94882813 18.35542969 -7.94882813 18.35542969 -9.171875 17.5703125 C-9.77515625 17.05210938 -10.3784375 16.53390625 -11 16 C-11 15.01 -11 14.02 -11 13 C-11.99 12.67 -12.98 12.34 -14 12 C-15.43543036 9.91862598 -15.98344762 8.52967612 -16.0625 6 C-12.81569309 -0.11163653 -6.12464045 -0.71454139 0 0 Z " fill="#A51E24" transform="translate(106,66)"/>
<path d="M0 0 C0.66 0 1.32 0 2 0 C3.52106634 3.04213267 3.37429338 6.28047572 3.5625 9.625 C3.60568359 10.33140625 3.64886719 11.0378125 3.69335938 11.765625 C3.79944751 13.51018537 3.90022889 15.25506697 4 17 C3.01 17 2.02 17 1 17 C1.515625 18.0725 2.03125 19.145 2.5625 20.25 C3.50267548 22.46899237 4.01761238 23.70058955 3.875 26.125 C1.39375581 31.44195183 -0.99058581 33.84189105 -6 37 C-6.33 37.66 -6.66 38.32 -7 39 C-7.99 39 -8.98 39 -10 39 C-10 37.68 -10 36.36 -10 35 C-9.34 35 -8.68 35 -8 35 C-8.0309375 33.3603125 -8.0309375 33.3603125 -8.0625 31.6875 C-8 28 -8 28 -7 25 C-6.58706955 18.95178341 -7.23881428 12.99433752 -8 7 C-5.36 6.34 -2.72 5.68 0 5 C0 3.35 0 1.7 0 0 Z " fill="#EB615C" transform="translate(88,72)"/>
<path d="M0 0 C0.99 0.33 1.98 0.66 3 1 C3 1.99 3 2.98 3 4 C4.11375 3.95875 5.2275 3.9175 6.375 3.875 C10 4 10 4 12 6 C12.55845388 11.24946645 12.55845388 11.24946645 10.7734375 13.6484375 C8.55754545 15.33720105 7.07107468 15.48760328 4.3125 15.6875 C3.10013672 15.78611328 3.10013672 15.78611328 1.86328125 15.88671875 C1.24839844 15.92410156 0.63351563 15.96148437 0 16 C0.99 15.34 1.98 14.68 3 14 C-3.27 14 -9.54 14 -16 14 C-16 13.34 -16 12.68 -16 12 C-19.63 12 -23.26 12 -27 12 C-27.33 11.34 -27.66 10.68 -28 10 C-28.845625 9.525625 -29.69125 9.05125 -30.5625 8.5625 C-31.366875 8.046875 -32.17125 7.53125 -33 7 C-33 6.01 -33 5.02 -33 4 C-29.75728494 4.5590888 -28.06942576 5.4132178 -26 8 C-26 8.66 -26 9.32 -26 10 C-24.35328588 9.69217504 -22.70764424 9.37860766 -21.0625 9.0625 C-20.14597656 8.88847656 -19.22945312 8.71445312 -18.28515625 8.53515625 C-16.04710156 8.22285012 -16.04710156 8.22285012 -15 7 C-12.81707226 6.76518307 -10.62796826 6.58636677 -8.4375 6.4375 C-7.23996094 6.35371094 -6.04242188 6.26992188 -4.80859375 6.18359375 C-3.41833984 6.09271484 -3.41833984 6.09271484 -2 6 C-1.34 4.02 -0.68 2.04 0 0 Z M4 11 C5 13 5 13 5 13 Z " fill="#87AAD9" transform="translate(112,48)"/>
<path d="M0 0 C1.49498913 2.98997825 1.11577446 5.70042775 1 9 C0.67 9.99 0.34 10.98 0 12 C0.04125 13.175625 0.0825 14.35125 0.125 15.5625 C0.08375 16.696875 0.0425 17.83125 0 19 C-3.22791555 21.1519437 -4.28400809 21.20086443 -8 21 C-7.97679688 21.67546875 -7.95359375 22.3509375 -7.9296875 23.046875 C-7.91164063 23.93890625 -7.89359375 24.8309375 -7.875 25.75 C-7.85179688 26.63171875 -7.82859375 27.5134375 -7.8046875 28.421875 C-8.00860498 31.1135858 -8.63448279 32.69904974 -10 35 C-10.66 35 -11.32 35 -12 35 C-11.53299437 31.26395495 -10.96767865 27.88592464 -9.9375 24.25 C-8.15969964 17.39277005 -8.05429578 10.48756287 -11 4 C-11.66 4 -12.32 4 -13 4 C-13 3.34 -13 2.68 -13 2 C-11.20873548 1.66451233 -9.41697413 1.33167645 -7.625 1 C-6.62726563 0.814375 -5.62953125 0.62875 -4.6015625 0.4375 C-2 0 -2 0 0 0 Z " fill="#F0A1A5" transform="translate(119,63)"/>
<path d="M0 0 C2.97 0.495 2.97 0.495 6 1 C5.86722656 1.70125 5.73445313 2.4025 5.59765625 3.125 C4.76882337 7.57770801 3.96249714 11.99275516 3.5 16.5 C3 20 3 20 1 23 C0.34 23 -0.32 23 -1 23 C-1.2475 23.804375 -1.495 24.60875 -1.75 25.4375 C-6.43891403 38.80090498 -6.43891403 38.80090498 -13 43 C-16.375 43.8125 -16.375 43.8125 -19 44 C-18.43732422 43.36384766 -18.43732422 43.36384766 -17.86328125 42.71484375 C-11.81606978 35.78416058 -7.50015119 29.96395672 -5 21 C-4.34 21 -3.68 21 -3 21 C-3.061875 19.1128125 -3.061875 19.1128125 -3.125 17.1875 C-3.2390374 13.70935927 -3.05925681 13.08888522 -1 10 C-0.54398739 7.49103314 -0.54398739 7.49103314 -0.375 4.8125 C-0.30023438 3.91144531 -0.22546875 3.01039062 -0.1484375 2.08203125 C-0.09945312 1.39496094 -0.05046875 0.70789063 0 0 Z " fill="#C92F30" transform="translate(103,87)"/>
<path d="M0 0 C0.4375 3.125 0.4375 3.125 0 7 C-1.60679521 8.75797217 -3.33965619 10.08289463 -5.2421875 11.51171875 C-7.7131731 13.60381989 -8.80070107 16.03702618 -10 19 C-11.32 19 -12.64 19 -14 19 C-14.09152344 19.60328125 -14.18304688 20.2065625 -14.27734375 20.828125 C-15.17720492 23.53257263 -16.20702019 24.2082314 -18.5625 25.75 C-19.20316406 26.17796875 -19.84382813 26.6059375 -20.50390625 27.046875 C-20.99761719 27.36140625 -21.49132813 27.6759375 -22 28 C-22.37506343 23.62425995 -21.32803351 21.64689652 -19 18 C-18.44441406 17.1028125 -17.88882813 16.205625 -17.31640625 15.28125 C-16.73761719 14.3634375 -16.15882812 13.445625 -15.5625 12.5 C-14.98628906 11.5821875 -14.41007812 10.664375 -13.81640625 9.71875 C-12.01184378 7.01772747 -10.02940605 4.53341238 -8 2 C-8 1.67 -8 1.34 -8 1 C-5.23735711 0.40267181 -2.83967231 0 0 0 Z " fill="#ABC6E5" transform="translate(61,35)"/>
<path d="M0 0 C0.33 0 0.66 0 1 0 C1.32101946 5.06497365 -0.04013036 7.74917903 -2.875 11.8515625 C-6.17768586 15.19067504 -9.99763314 16.45442904 -14.390625 17.9296875 C-17.29523015 18.83693547 -17.29523015 18.83693547 -19 22 C-20.32 21.67 -21.64 21.34 -23 21 C-23.89109922 17.92748989 -24.16339724 15.13352607 -24.1875 11.9375 C-24.20167969 11.08027344 -24.21585938 10.22304687 -24.23046875 9.33984375 C-24 7 -24 7 -22 4 C-21.01 6.31 -20.02 8.62 -19 11 C-16.87101673 10.60418903 -14.7468044 10.18264558 -12.625 9.75 C-11.44164062 9.51796875 -10.25828125 9.2859375 -9.0390625 9.046875 C-5.90007715 8.32326263 -5.90007715 8.32326263 -4.71875 5.9375 C-4.4815625 5.298125 -4.244375 4.65875 -4 4 C-1.875 3.25 -1.875 3.25 0 3 C0 2.01 0 1.02 0 0 Z " fill="#B62F3A" transform="translate(61,68)"/>
<path d="M0 0 C-5.02828476 2.20388651 -9.81678631 4.091712 -15.25 5 C-19.76251438 5.78046632 -22.36373557 7.27280168 -26 10 C-26.66 10 -27.32 10 -28 10 C-28 11.65 -28 13.3 -28 15 C-30.40545638 16.20272819 -31.94996953 16.10071472 -34.625 16.0625 C-35.85089844 16.04896484 -35.85089844 16.04896484 -37.1015625 16.03515625 C-37.72804688 16.02355469 -38.35453125 16.01195313 -39 16 C-39 15.01 -39 14.02 -39 13 C-38.01 13 -37.02 13 -36 13 C-36 12.34 -36 11.68 -36 11 C-35.34 11 -34.68 11 -34 11 C-33.7525 10.360625 -33.505 9.72125 -33.25 9.0625 C-32 7 -32 7 -29.875 6.25 C-29.25625 6.1675 -28.6375 6.085 -28 6 C-28 5.34 -28 4.68 -28 4 C-26.68 4 -25.36 4 -24 4 C-24 3.34 -24 2.68 -24 2 C-19.57069061 0.34070214 -15.58934615 -0.37694372 -10.875 -0.6875 C-9.07675781 -0.81705078 -9.07675781 -0.81705078 -7.2421875 -0.94921875 C-4.52279579 -0.99181163 -2.55367391 -0.84487221 0 0 Z " fill="#6789C1" transform="translate(116,62)"/>
<path d="M0 0 C2.0625 1.375 2.0625 1.375 2.875 4.5 C2.936875 5.44875 2.99875 6.3975 3.0625 7.375 C-1.63018293 6.74085366 -1.63018293 6.74085366 -3.25 4.8125 C-6.10344554 2.38178714 -9.3033808 3.19627283 -12.9375 3.375 C-14.24264155 5.98528309 -13.89548659 7.78170021 -13.75 10.6875 C-13.72542034 14.43835578 -13.80139443 16.11325851 -15.5625 19.5 C-18.38402756 21.72752176 -20.38582707 22.13284048 -23.9375 22.375 C-23.4425 17.92 -23.4425 17.92 -22.9375 13.375 C-21.9475 13.705 -20.9575 14.035 -19.9375 14.375 C-19.9375 15.035 -19.9375 15.695 -19.9375 16.375 C-19.2775 16.375 -18.6175 16.375 -17.9375 16.375 C-18.164375 15.735625 -18.39125 15.09625 -18.625 14.4375 C-19.08165847 9.96224701 -17.92161129 6.38182397 -15.9375 2.375 C-11.39432945 -1.90856081 -5.73587628 -1.22039921 0 0 Z " fill="#F29999" transform="translate(86.9375,49.625)"/>
<path d="M0 0 C2 1.5 2 1.5 3 3 C2.68289062 3.56203125 2.36578125 4.1240625 2.0390625 4.703125 C0.93125475 7.15196317 0.61024601 9.08387855 0.375 11.75 C0.30023438 12.54921875 0.22546875 13.3484375 0.1484375 14.171875 C0.09945312 14.77515625 0.05046875 15.3784375 0 16 C-0.99 15.34 -1.98 14.68 -3 14 C-4.32 14 -5.64 14 -7 14 C-8.35439668 11.29120665 -8.06501451 8.99066732 -8 6 C-10.31 6 -12.62 6 -15 6 C-15.33 6.66 -15.66 7.32 -16 8 C-15.9375 6.25 -15.9375 6.25 -15 4 C-9.8583249 0.22244278 -6.33847407 -0.73948864 0 0 Z " fill="#BD3240" transform="translate(106,66)"/>
<path d="M0 0 C0.66 0.66 1.32 1.32 2 2 C1.34 2.66 0.68 3.32 0 4 C-0.99 4 -1.98 4 -3 4 C-3 5.32 -3 6.64 -3 8 C-0.03 8.495 -0.03 8.495 3 9 C3 9.33 3 9.66 3 10 C1.56260487 10.02712066 0.12506137 10.04645067 -1.3125 10.0625 C-2.51326172 10.07990234 -2.51326172 10.07990234 -3.73828125 10.09765625 C-6 10 -6 10 -9 9 C-13.75612527 12.60809503 -14.60804595 17.47436423 -16 23 C-16.33 23 -16.66 23 -17 23 C-16.67 16.73 -16.34 10.46 -16 4 C-16.66 3.67 -17.32 3.34 -18 3 C-16.02 2.34 -14.04 1.68 -12 1 C-11.67 1.99 -11.34 2.98 -11 4 C-5.555 2.02 -5.555 2.02 0 0 Z " fill="#E35C56" transform="translate(67,81)"/>
<path d="M0 0 C1.32 0 2.64 0 4 0 C4.43548387 5.22580645 4.43548387 5.22580645 4 8 C1.75 10 1.75 10 -1 12 C-2.57314505 14.59342762 -3.75135227 17.22522728 -5 20 C-8.3 20 -11.6 20 -15 20 C-15 19.34 -15 18.68 -15 18 C-13.68 18 -12.36 18 -11 18 C-10.814375 17.13375 -10.62875 16.2675 -10.4375 15.375 C-8.76158567 11.44024462 -6.89640697 10.09738428 -3.62109375 7.5234375 C-1.30712402 5.34886354 -0.65386098 3.05135126 0 0 Z " fill="#8BA3D0" transform="translate(62,36)"/>
<path d="M0 0 C3.24271506 0.5590888 4.93057424 1.4132178 7 4 C7 4.66 7 5.32 7 6 C8.64671412 5.69217504 10.29235576 5.37860766 11.9375 5.0625 C12.85402344 4.88847656 13.77054688 4.71445312 14.71484375 4.53515625 C16.95289844 4.22285012 16.95289844 4.22285012 18 3 C20.18292774 2.76518307 22.37203174 2.58636677 24.5625 2.4375 C25.76003906 2.35371094 26.95757812 2.26992188 28.19140625 2.18359375 C29.58166016 2.09271484 29.58166016 2.09271484 31 2 C30.67 2.99 30.34 3.98 30 5 C27.71484375 5.94921875 27.71484375 5.94921875 24.9375 6.6875 C23.55884766 7.06455078 23.55884766 7.06455078 22.15234375 7.44921875 C21.44207031 7.63097656 20.73179688 7.81273437 20 8 C20 8.66 20 9.32 20 10 C19.01 10 18.02 10 17 10 C17 9.34 17 8.68 17 8 C13.37 8 9.74 8 6 8 C5.67 7.34 5.34 6.68 5 6 C4.154375 5.525625 3.30875 5.05125 2.4375 4.5625 C1.633125 4.046875 0.82875 3.53125 0 3 C0 2.01 0 1.02 0 0 Z " fill="#A2BEE2" transform="translate(79,52)"/>
<path d="M0 0 C1.32 0.33 2.64 0.66 4 1 C4.33 2.65 4.66 4.3 5 6 C1.04504575 8.61537297 -3.16827373 8.44264274 -7.75 8.625 C-8.93916016 8.68300781 -8.93916016 8.68300781 -10.15234375 8.7421875 C-12.10119416 8.836108 -14.05056451 8.91912822 -16 9 C-15.2265625 6.58203125 -15.2265625 6.58203125 -14 4 C-10.375 2.6875 -10.375 2.6875 -7 2 C-7 2.66 -7 3.32 -7 4 C-5.68 4.33 -4.36 4.66 -3 5 C-3 4.34 -3 3.68 -3 3 C-2.34 3 -1.68 3 -1 3 C-0.67 2.01 -0.34 1.02 0 0 Z " fill="#8B9DC7" transform="translate(75,69)"/>
<path d="M0 0 C6 2 6 2 8 3 C8 6.63 8 10.26 8 14 C4 15 4 15 0 14 C0 9.38 0 4.76 0 0 Z " fill="#E0433D" transform="translate(95,83)"/>
<path d="M0 0 C1.49106457 2.98212913 1.11941467 5.71609658 1 9 C0.67 9.33 0.34 9.66 0 10 C-1.52519276 9.91062197 -3.04681929 9.75462854 -4.5625 9.5625 C-5.38878906 9.46066406 -6.21507813 9.35882813 -7.06640625 9.25390625 C-7.70449219 9.17011719 -8.34257813 9.08632812 -9 9 C-9.66 7.35 -10.32 5.7 -11 4 C-11.66 4 -12.32 4 -13 4 C-13 3.34 -13 2.68 -13 2 C-11.20873548 1.66451233 -9.41697413 1.33167645 -7.625 1 C-6.62726563 0.814375 -5.62953125 0.62875 -4.6015625 0.4375 C-2 0 -2 0 0 0 Z " fill="#EAA5AA" transform="translate(119,63)"/>
<path d="M0 0 C0.99 0.33 1.98 0.66 3 1 C3 1.99 3 2.98 3 4 C2.01 4.33 1.02 4.66 0 5 C-2.08845462 8.07044321 -2.22107559 10.59912751 -2.125 14.25 C-2.10695313 15.14203125 -2.08890625 16.0340625 -2.0703125 16.953125 C-2.04710938 17.62859375 -2.02390625 18.3040625 -2 19 C-7.75 17.125 -7.75 17.125 -10 16 C-9.18391622 9.06328787 -4.91399044 4.64099097 0 0 Z " fill="#EB898C" transform="translate(67,41)"/>
<path d="M0 0 C0.66 0.33 1.32 0.66 2 1 C1.91269147 3.73064947 1.80577876 6.4581619 1.6875 9.1875 C1.65366211 10.34088867 1.65366211 10.34088867 1.61914062 11.51757812 C1.40096696 16.13889307 0.91054022 19.21837173 -2 23 C-2.78697266 23.680625 -2.78697266 23.680625 -3.58984375 24.375 C-5.80612982 26.92894738 -5.9642615 29.7182345 -6.5625 33 C-7.79697624 39.69546436 -7.79697624 39.69546436 -10 43 C-9.43445208 37.11830168 -8.18598619 31.636864 -6.69921875 25.921875 C-5.82754532 22.27935139 -5.35815283 18.72478946 -5 15 C-4.01 14.67 -3.02 14.34 -2 14 C-1.34 9.38 -0.68 4.76 0 0 Z " fill="#F8EDEC" transform="translate(111,84)"/>
<path d="M0 0 C4 3 4 3 4.75756836 4.94433594 C5.16385532 8.38938749 4.82727005 11.80494608 4.5625 15.25 C4.51029297 15.99507812 4.45808594 16.74015625 4.40429688 17.5078125 C4.2751783 19.33894861 4.13834886 21.16953813 4 23 C3.01 23 2.02 23 1 23 C-1.03435531 19.27034861 -2 17.33094958 -2 13 C-1.01 13 -0.02 13 1 13 C0.67 8.71 0.34 4.42 0 0 Z " fill="#C1343C" transform="translate(91,76)"/>
<path d="M0 0 C0.99 0.33 1.98 0.66 3 1 C2.49289581 5.36109605 1.63658349 8.45075299 -1 12 C-1.99 12.33 -2.98 12.66 -4 13 C-5.68711423 14.6459651 -7.3545622 16.31237149 -9 18 C-9.66 18.33 -10.32 18.66 -11 19 C-9.5810861 15.10508136 -7.74229459 11.79470749 -5.5 8.3125 C-4.8915625 7.35988281 -4.283125 6.40726563 -3.65625 5.42578125 C-2 3 -2 3 0 1 C0 0.67 0 0.34 0 0 Z " fill="#D8E6F3" transform="translate(53,36)"/>
<path d="M0 0 C0.99 0.66 1.98 1.32 3 2 C3.328125 4.49609375 3.328125 4.49609375 3.25 7.4375 C3.23453125 8.40558594 3.2190625 9.37367187 3.203125 10.37109375 C3 13 3 13 2 16 C1.34 16 0.68 16 0 16 C0 15.34 0 14.68 0 14 C-0.66 14 -1.32 14 -2 14 C-2.05410687 12.22950311 -2.09284119 10.45853151 -2.125 8.6875 C-2.14820312 7.70136719 -2.17140625 6.71523437 -2.1953125 5.69921875 C-2 3 -2 3 0 0 Z " fill="#AD2330" transform="translate(108,70)"/>
<path d="M0 0 C0.77968484 2.2736616 1.12281003 3.58896236 0.42578125 5.921875 C-0.89434406 8.08965971 -1.94693966 9.48106918 -4 11 C-9.93153523 12.02724912 -16.14889481 11.3002456 -22 10 C-22 9.67 -22 9.34 -22 9 C-21.20335938 8.96261719 -20.40671875 8.92523438 -19.5859375 8.88671875 C-11.36327529 8.44482665 -11.36327529 8.44482665 -4 5 C-3.34 4.01 -2.68 3.02 -2 2 C-1.34 2 -0.68 2 0 2 C0 1.34 0 0.68 0 0 Z " fill="#F0D2D0" transform="translate(96,123)"/>
<path d="M0 0 C-0.99 0.495 -0.99 0.495 -2 1 C-2.33 2.65 -2.66 4.3 -3 6 C-6.96 6 -10.92 6 -15 6 C-15.33 6.66 -15.66 7.32 -16 8 C-15.9375 6.25 -15.9375 6.25 -15 4 C-9.78709162 0.17010813 -6.39220288 -0.44857564 0 0 Z " fill="#B04053" transform="translate(106,66)"/>
<path d="M0 0 C1.32 0 2.64 0 4 0 C4 4.62 4 9.24 4 14 C3.01 14.495 3.01 14.495 2 15 C2 14.34 2 13.68 2 13 C1.34 13 0.68 13 0 13 C0 8.71 0 4.42 0 0 Z " fill="#F3776D" transform="translate(47,85)"/>
<path d="M0 0 C0.99 0.33 1.98 0.66 3 1 C3 2.65 3 4.3 3 6 C2.34 6 1.68 6 1 6 C1 8.64 1 11.28 1 14 C0.01 13.67 -0.98 13.34 -2 13 C-2.7518819 8.73933592 -3.35024359 5.1734802 -2 1 C-1.34 0.67 -0.68 0.34 0 0 Z " fill="#F4B5BA" transform="translate(82,26)"/>
<path d="M0 0 C3.3 0.33 6.6 0.66 10 1 C10.33 2.65 10.66 4.3 11 6 C8.03 5.67 5.06 5.34 2 5 C1.34 3.35 0.68 1.7 0 0 Z " fill="#EB888E" transform="translate(108,67)"/>
<path d="M0 0 C1.32 0.33 2.64 0.66 4 1 C4.33 2.98 4.66 4.96 5 7 C4.39671875 7.13277344 3.7934375 7.26554687 3.171875 7.40234375 C2.37265625 7.57894531 1.5734375 7.75554688 0.75 7.9375 C-0.03890625 8.11152344 -0.8278125 8.28554688 -1.640625 8.46484375 C-3.76878703 8.947556 -5.88532842 9.46163178 -8 10 C-6.1875 8 -6.1875 8 -4 6 C-3.01 6 -2.02 6 -1 6 C-0.67 4.02 -0.34 2.04 0 0 Z " fill="#A7BEDD" transform="translate(46,22)"/>
<path d="M0 0 C0.33 0.66 0.66 1.32 1 2 C1.66 2.268125 2.32 2.53625 3 2.8125 C5 4 5 4 5.75 6.625 C5.8325 7.40875 5.915 8.1925 6 9 C3 11 3 11 0 11 C-1.125 6.25 -1.125 6.25 0 4 C0 2.68 0 1.36 0 0 Z " fill="#F0B7B5" transform="translate(112,30)"/>
<path d="M0 0 C1.21236328 0.01353516 1.21236328 0.01353516 2.44921875 0.02734375 C3.37154297 0.04474609 3.37154297 0.04474609 4.3125 0.0625 C4.6425 0.7225 4.9725 1.3825 5.3125 2.0625 C1.43565913 3.25537411 -1.60371923 4.0625 -5.6875 4.0625 C-5.6875 4.7225 -5.6875 5.3825 -5.6875 6.0625 C-6.6775 6.0625 -7.6675 6.0625 -8.6875 6.0625 C-8.3575 4.4125 -8.0275 2.7625 -7.6875 1.0625 C-4.80538698 0.10179566 -2.98899956 -0.04331883 0 0 Z " fill="#F29495" transform="translate(101.6875,31.9375)"/>
<path d="M0 0 C0.66 0.99 1.32 1.98 2 3 C1.34 3 0.68 3 0 3 C-0.09152344 3.60328125 -0.18304688 4.2065625 -0.27734375 4.828125 C-1.17720492 7.53257263 -2.20702019 8.2082314 -4.5625 9.75 C-5.20316406 10.17796875 -5.84382813 10.6059375 -6.50390625 11.046875 C-7.24447266 11.51867187 -7.24447266 11.51867187 -8 12 C-8.25 9.73828125 -8.25 9.73828125 -8 7 C-6.25 4.98046875 -6.25 4.98046875 -4 3.1875 C-3.2575 2.58292969 -2.515 1.97835937 -1.75 1.35546875 C-1.1725 0.90816406 -0.595 0.46085937 0 0 Z " fill="#C5CFE1" transform="translate(47,51)"/>
<path d="M0 0 C0.33 1.32 0.66 2.64 1 4 C2.98 3.67 4.96 3.34 7 3 C5.625 4.5 5.625 4.5 4 6 C3.34 6 2.68 6 2 6 C1.731875 6.639375 1.46375 7.27875 1.1875 7.9375 C0 10 0 10 -3 11 C-3.32613618 6.32538149 -2.70582788 3.83325617 0 0 Z " fill="#F6B3B4" transform="translate(67,45)"/>
<path d="M0 0 C1.32 0 2.64 0 4 0 C2.32534787 3.73576244 2.32534787 3.73576244 0.5234375 5.19921875 C-1.74156572 7.87656872 -1.93955687 10.58271199 -2.5625 14 C-3.79697624 20.69546436 -3.79697624 20.69546436 -6 24 C-5.22012352 15.88928457 -3.96727031 7.21321875 0 0 Z " fill="#FDF9F9" transform="translate(107,103)"/>
<path d="M0 0 C0.98226562 0.08765625 1.96453125 0.1753125 2.9765625 0.265625 C4.16378906 0.50539063 4.16378906 0.50539063 5.375 0.75 C5.705 1.41 6.035 2.07 6.375 2.75 C-1.05 4.235 -1.05 4.235 -8.625 5.75 C-8.625 4.43 -8.625 3.11 -8.625 1.75 C-5.11920619 -0.58719587 -4.0720154 -0.40827595 0 0 Z " fill="#577ABC" transform="translate(46.625,30.25)"/>
<path d="M0 0 C2.5 1.3125 2.5 1.3125 5 3 C5 3.99 5 4.98 5 6 C5.99 6 6.98 6 8 6 C8 7.32 8 8.64 8 10 C8.66 10.33 9.32 10.66 10 11 C9.01 11.495 9.01 11.495 8 12 C5.875 11.0625 5.875 11.0625 4 10 C4 8.68 4 7.36 4 6 C3.01 6 2.02 6 1 6 C0.67 4.02 0.34 2.04 0 0 Z " fill="#E1504D" transform="translate(56,106)"/>
<path d="M0 0 C2.64 0 5.28 0 8 0 C7.875 1.875 7.875 1.875 7 4 C3.9375 5.25 3.9375 5.25 1 6 C-0.0625 4.125 -0.0625 4.125 -1 2 C-0.67 1.34 -0.34 0.68 0 0 Z " fill="#EB6C61" transform="translate(68,77)"/>
<path d="M0 0 C1.4540625 0.0309375 1.4540625 0.0309375 2.9375 0.0625 C3.5975 2.3725 4.2575 4.6825 4.9375 7.0625 C1.26329134 6.75631595 0.15614487 6.30478216 -2.375 3.5 C-2.931875 2.695625 -3.48875 1.89125 -4.0625 1.0625 C-3.0625 0.0625 -3.0625 0.0625 0 0 Z " fill="#EC8689" transform="translate(85.0625,49.9375)"/>
<path d="M0 0 C0.66 0.66 1.32 1.32 2 2 C3.9931567 2.02375926 3.9931567 2.02375926 6.125 1.625 C7.40375 1.41875 8.6825 1.2125 10 1 C8.9375 3.4375 8.9375 3.4375 7 6 C3.3125 6.8125 3.3125 6.8125 0 7 C0 4.69 0 2.38 0 0 Z " fill="#E8ECF4" transform="translate(37,33)"/>
<path d="M0 0 C1.65 0.33 3.3 0.66 5 1 C5 1.33 5 1.66 5 2 C3.35 2 1.7 2 0 2 C0.02320312 2.67546875 0.04640625 3.3509375 0.0703125 4.046875 C0.08835937 4.93890625 0.10640625 5.8309375 0.125 6.75 C0.14820312 7.63171875 0.17140625 8.5134375 0.1953125 9.421875 C-0.00860498 12.1135858 -0.63448279 13.69904974 -2 16 C-2.66 16 -3.32 16 -4 16 C-3.39891424 10.34979382 -1.92471317 5.33835539 0 0 Z " fill="#EFD2CC" transform="translate(111,82)"/>
<path d="M0 0 C0.99 0.33 1.98 0.66 3 1 C3 1.66 3 2.32 3 3 C3.66 3.33 4.32 3.66 5 4 C3.6875 6.5 3.6875 6.5 2 9 C1.01 9 0.02 9 -1 9 C-0.67 6.03 -0.34 3.06 0 0 Z " fill="#EC8182" transform="translate(64,63)"/>
<path d="M0 0 C0.99 0.33 1.98 0.66 3 1 C3 1.99 3 2.98 3 4 C2.01 4.33 1.02 4.66 0 5 C-1.20882096 7.00016466 -1.20882096 7.00016466 -2 9 C-2.99 8.67 -3.98 8.34 -5 8 C-5.99 8.495 -5.99 8.495 -7 9 C-5.44499019 5.18315774 -2.96404505 2.80804268 0 0 Z " fill="#DE9397" transform="translate(67,41)"/>
<path d="M0 0 C2.31 0.33 4.62 0.66 7 1 C7.33 2.32 7.66 3.64 8 5 C6.25 5.6875 6.25 5.6875 4 6 C1.75 4.75 1.75 4.75 0 3 C0 2.01 0 1.02 0 0 Z " fill="#96191E" transform="translate(101,83)"/>
<path d="M0 0 C1.65 0 3.3 0 5 0 C5 1.98 5 3.96 5 6 C3.0625 6.5625 3.0625 6.5625 1 7 C0 6 0 6 -0.0625 2.9375 C-0.041875 1.968125 -0.02125 0.99875 0 0 Z " fill="#7F90B9" transform="translate(119,54)"/>
<path d="M0 0 C0.99 0.33 1.98 0.66 3 1 C2.54663921 5.87362847 1.2910841 8.39042389 -2 12 C-2.6875 9.8125 -2.6875 9.8125 -3 7 C-1.5625 4.3125 -1.5625 4.3125 0 2 C0 1.34 0 0.68 0 0 Z " fill="#CCDDF1" transform="translate(53,36)"/>
<path d="M0 0 C0.99 0 1.98 0 3 0 C2.01 3.96 1.02 7.92 0 12 C-0.66 12 -1.32 12 -2 12 C-2.05422947 10.5629191 -2.09289723 9.12524538 -2.125 7.6875 C-2.14820312 6.88699219 -2.17140625 6.08648437 -2.1953125 5.26171875 C-2 3 -2 3 0 0 Z " fill="#848CB6" transform="translate(74,52)"/>
<path d="M0 0 C2.31 0.66 4.62 1.32 7 2 C7 2.99 7 3.98 7 5 C3.7 5.33 0.4 5.66 -3 6 C-1.68 5.67 -0.36 5.34 1 5 C0.67 3.35 0.34 1.7 0 0 Z " fill="#DB9CA8" transform="translate(89,52)"/>
<path d="M0 0 C0.33 0 0.66 0 1 0 C2.61050328 9.01531729 2.61050328 9.01531729 0.0625 13.125 C-0.618125 13.74375 -1.29875 14.3625 -2 15 C-2.66 14.67 -3.32 14.34 -4 14 C-3.34 12.02 -2.68 10.04 -2 8 C-1.34 8 -0.68 8 0 8 C0 5.36 0 2.72 0 0 Z " fill="#E4939D" transform="translate(71,56)"/>
<path d="M0 0 C0.33 1.32 0.66 2.64 1 4 C-5.625 4.125 -5.625 4.125 -9 3 C-9 2.34 -9 1.68 -9 1 C-5.94152152 0.45627049 -3.11227195 0 0 0 Z " fill="#6D8BBE" transform="translate(56,32)"/>
<path d="M0 0 C1.9375 0.3125 1.9375 0.3125 4 1 C5.1577506 4.47325181 5.06866652 7.36067448 5 11 C1.7089159 7.39042389 0.45336079 4.87362847 0 0 Z " fill="#F08F8A" transform="translate(43,99)"/>
<path d="M0 0 C0.99 0 1.98 0 3 0 C4.4783226 2.95664519 4.06032783 5.74229737 4 9 C3.01 9.33 2.02 9.66 1 10 C0.67 8.68 0.34 7.36 0 6 C0.66 6 1.32 6 2 6 C1.34 4.02 0.68 2.04 0 0 Z " fill="#F0D1D3" transform="translate(115,73)"/>
<path d="M0 0 C1.4783226 2.95664519 1.06032783 5.74229737 1 9 C0.67 9 0.34 9 0 9 C-0.33 7.35 -0.66 5.7 -1 4 C-3.31 3.34 -5.62 2.68 -8 2 C-8 1.67 -8 1.34 -8 1 C-2.25 0 -2.25 0 0 0 Z " fill="#E9CFD4" transform="translate(119,63)"/>
<path d="M0 0 C1.32 0 2.64 0 4 0 C4 2.31 4 4.62 4 7 C2.0625 6.25 2.0625 6.25 0 5 C-0.8125 2.9375 -0.8125 2.9375 -1 1 C-0.67 0.67 -0.34 0.34 0 0 Z " fill="#725E71" transform="translate(62,36)"/>
<path d="M0 0 C0.66 0.33 1.32 0.66 2 1 C2 1.66 2 2.32 2 3 C4.97 3.495 4.97 3.495 8 4 C8 4.33 8 4.66 8 5 C5.03 5 2.06 5 -1 5 C-1 1 -1 1 0 0 Z " fill="#E6655C" transform="translate(62,86)"/>
<path d="M0 0 C3.24271506 0.5590888 4.93057424 1.4132178 7 4 C7 4.66 7 5.32 7 6 C4.0625 5.25 4.0625 5.25 1 4 C0.125 1.875 0.125 1.875 0 0 Z " fill="#E2D7E0" transform="translate(79,52)"/>
<path d="M0 0 C1.22589844 0.15275391 1.22589844 0.15275391 2.4765625 0.30859375 C3.41628906 0.43427734 3.41628906 0.43427734 4.375 0.5625 C4.045 1.2225 3.715 1.8825 3.375 2.5625 C-3.25 2.8125 -3.25 2.8125 -6.625 0.5625 C-4.10446405 -0.69776798 -2.7707902 -0.35624445 0 0 Z " fill="#AD3948" transform="translate(99.625,69.4375)"/>
<path d="M0 0 C1.32 0.33 2.64 0.66 4 1 C4 3.31 4 5.62 4 8 C3.34 8 2.68 8 2 8 C1.34 5.36 0.68 2.72 0 0 Z " fill="#E04543" transform="translate(96,99)"/>
<path d="M0 0 C0.99 0.33 1.98 0.66 3 1 C3 1.99 3 2.98 3 4 C3.66 4.66 4.32 5.32 5 6 C2.69 6 0.38 6 -2 6 C-1.34 4.02 -0.68 2.04 0 0 Z " fill="#C1CEE6" transform="translate(112,48)"/>
<path d="M0 0 C1.32 0 2.64 0 4 0 C3.67 1.65 3.34 3.3 3 5 C1.68 5 0.36 5 -1 5 C-0.67 3.35 -0.34 1.7 0 0 Z " fill="#F19DA0" transform="translate(90,39)"/>
<path d="M0 0 C0.99 0 1.98 0 3 0 C3 2.31 3 4.62 3 7 C2.01 7.495 2.01 7.495 1 8 C-0.35439668 5.29120665 -0.06501451 2.99066732 0 0 Z " fill="#EE7A75" transform="translate(48,106)"/>
<path d="M0 0 C0.99 0 1.98 0 3 0 C3 1.32 3 2.64 3 4 C3.66 4.33 4.32 4.66 5 5 C4.01 5.495 4.01 5.495 3 6 C0.875 5.0625 0.875 5.0625 -1 4 C-0.67 2.68 -0.34 1.36 0 0 Z " fill="#E95753" transform="translate(61,112)"/>
<path d="M0 0 C1.0828125 0.37125 1.0828125 0.37125 2.1875 0.75 C1.8575 1.41 1.5275 2.07 1.1875 2.75 C-0.87890625 3.1640625 -0.87890625 3.1640625 -3.375 3.375 C-4.20128906 3.44976562 -5.02757813 3.52453125 -5.87890625 3.6015625 C-6.83603516 3.67503906 -6.83603516 3.67503906 -7.8125 3.75 C-3.50480769 -0.31153846 -3.50480769 -0.31153846 0 0 Z " fill="#8C9EC9" transform="translate(119.8125,60.25)"/>
<path d="M0 0 C2.97 0.495 2.97 0.495 6 1 C6 2.32 6 3.64 6 5 C3.5625 4.1875 3.5625 4.1875 1 3 C0.67 2.01 0.34 1.02 0 0 Z " fill="#B22626" transform="translate(95,80)"/>
<path d="M0 0 C0.66 0 1.32 0 2 0 C0.50163895 3.11198065 -1.19933758 6.0534615 -3 9 C-3.66 8.67 -4.32 8.34 -5 8 C-4.21718695 6.66144944 -3.42348123 5.32926356 -2.625 4 C-2.18414062 3.2575 -1.74328125 2.515 -1.2890625 1.75 C-0.86367188 1.1725 -0.43828125 0.595 0 0 Z " fill="#E2ECF7" transform="translate(51,39)"/>
<path d="M0 0 C0.99 0 1.98 0 3 0 C3 0.66 3 1.32 3 2 C2.34 2 1.68 2 1 2 C0.67 2.99 0.34 3.98 0 5 C-0.99 5 -1.98 5 -3 5 C-1.125 1.125 -1.125 1.125 0 0 Z " fill="#7390CA" transform="translate(85,68)"/>
<path d="M0 0 C2.97 0.495 2.97 0.495 6 1 C6.33 1.99 6.66 2.98 7 4 C4.625 3.6875 4.625 3.6875 2 3 C1.34 2.01 0.68 1.02 0 0 Z " fill="#C34755" transform="translate(83,53)"/>
</svg>
