<?xml version="1.0" encoding="UTF-8"?>
<svg version="1.1" xmlns="http://www.w3.org/2000/svg" width="414" height="981">
<path d="M0 0 C10.39835181 7.78644354 15.70241454 17.19155788 18.47265625 29.8515625 C19.49024752 38.14493132 19.64945154 46.50289586 19.47265625 54.8515625 C20.27703125 55.1403125 21.08140625 55.4290625 21.91015625 55.7265625 C24.47265625 56.8515625 24.47265625 56.8515625 25.47265625 58.8515625 C26.07217566 64.84675664 24.74380554 68.92895919 21.47265625 73.8515625 C20.64765625 74.5734375 19.82265625 75.2953125 18.97265625 76.0390625 C15.5645015 79.87323659 14.80654304 83.86720541 13.4453125 88.75 C12.28326552 92.45548315 10.82015084 94.79981953 8.47265625 97.8515625 C6.15903059 101.48243488 5.95666192 105.21723232 5.72265625 109.4140625 C5.68245361 110.12425537 5.64225098 110.83444824 5.60083008 111.56616211 C5.20522781 120.7543104 6.49956278 128.06038273 11.47265625 135.8515625 C11.47265625 136.5115625 11.47265625 137.1715625 11.47265625 137.8515625 C12.00761719 138.11324219 12.54257813 138.37492188 13.09375 138.64453125 C14.83399731 139.52751388 16.55284994 140.45301677 18.2578125 141.40234375 C29.95273218 147.68888579 42.16254335 150.93002181 55.25073242 152.95483398 C68.8127061 155.05391165 79.87122052 160.31637287 88.40625 171.3515625 C97.519436 184.83515813 100.67821019 198.9798441 101.078125 214.96484375 C101.11576462 216.22831131 101.15340424 217.49177887 101.19218445 218.79353333 C101.44685357 227.97203736 101.56799481 237.1503417 101.6484375 246.33203125 C101.66654984 248.2675737 101.66654984 248.2675737 101.68502808 250.24221802 C101.78096461 260.80451041 101.78096461 260.80451041 101.79858398 265.99389648 C101.92230198 296.78445121 104.99581728 328.13117879 119.06396484 356.01831055 C127.301228 372.63669019 129.01734434 390.25104201 130.55567932 408.51216125 C131.29774094 417.28312879 132.25290205 425.99961685 133.41015625 434.7265625 C133.62877319 436.4890332 133.62877319 436.4890332 133.85180664 438.28710938 C135.18707925 448.05221909 137.80995227 456.10185492 143.59765625 464.1640625 C144.17688843 464.97943481 144.17688843 464.97943481 144.76782227 465.8112793 C147.15087779 469.13454898 149.6393895 472.36635584 152.16674805 475.58154297 C176.2600213 506.24570892 176.2600213 506.24570892 175.16015625 519.6640625 C174.47265625 522.8515625 174.47265625 522.8515625 173.47265625 523.8515625 C169.5087338 523.93245888 167.46800906 523.64857261 164.3359375 521.140625 C161.0781739 517.90092663 158.2098802 514.53699088 155.47265625 510.8515625 C155.69928955 511.57110107 155.92592285 512.29063965 156.15942383 513.03198242 C157.20639301 516.3661109 158.24579666 519.70255438 159.28515625 523.0390625 C159.64158203 524.17021484 159.99800781 525.30136719 160.36523438 526.46679688 C162.15319023 532.22434281 163.85473597 538.00137958 165.359375 543.83984375 C165.62322998 544.85216064 165.88708496 545.86447754 166.15893555 546.9074707 C166.5303995 550.39345034 165.78400132 552.63411258 164.47265625 555.8515625 C160.07703373 555.36316 158.32727447 554.18926996 155.47265625 550.8515625 C153.24374625 546.61867837 151.398669 542.22886419 149.47265625 537.8515625 C149.45807373 538.68405518 149.44349121 539.51654785 149.4284668 540.37426758 C149.36736995 543.46645903 149.29321069 546.55798332 149.21020508 549.6496582 C149.16064306 551.6444688 149.12614492 553.63963507 149.09179688 555.63476562 C149.03862305 557.51518555 149.03862305 557.51518555 148.984375 559.43359375 C148.95819092 560.59093018 148.93200684 561.7482666 148.9050293 562.94067383 C148.44211447 566.05718059 147.95017027 566.99703222 145.47265625 568.8515625 C142.29791579 567.86629822 141.52053757 566.94159888 139.9375 563.96484375 C137.93139748 559.02229995 137.4586601 553.86452752 136.84765625 548.6015625 C136.60791453 546.63772071 136.36583187 544.67416289 136.12109375 542.7109375 C136.01974121 541.84952148 135.91838867 540.98810547 135.81396484 540.10058594 C135.51346902 537.69015587 135.51346902 537.69015587 134.47265625 534.8515625 C134.39748779 536.09244629 134.39748779 536.09244629 134.32080078 537.35839844 C134.13013035 540.43766113 133.9316912 543.51629809 133.72802734 546.59472656 C133.5991612 548.57839648 133.47921498 550.56263932 133.359375 552.546875 C133.27558594 553.79726563 133.19179688 555.04765625 133.10546875 556.3359375 C132.99549561 558.06408691 132.99549561 558.06408691 132.88330078 559.82714844 C132.50025836 562.64827185 131.92862042 564.4370454 130.47265625 566.8515625 C128.82265625 566.8515625 127.17265625 566.8515625 125.47265625 566.8515625 C122.87791369 561.49857305 121.83615177 556.81325309 121.28515625 550.9140625 C121.20330078 550.13482422 121.12144531 549.35558594 121.03710938 548.55273438 C120.83901454 546.65335453 120.65441784 544.75257488 120.47265625 542.8515625 C120.21871094 543.53863281 119.96476562 544.22570312 119.703125 544.93359375 C119.35894531 545.83464844 119.01476562 546.73570312 118.66015625 547.6640625 C118.32371094 548.55738281 117.98726563 549.45070313 117.640625 550.37109375 C116.51068306 552.77080322 115.46203332 554.13579603 113.47265625 555.8515625 C112.48265625 555.5215625 111.49265625 555.1915625 110.47265625 554.8515625 C109.28254881 551.28124018 109.26167094 547.97394718 109.19140625 544.25390625 C109.17299683 543.50500626 109.1545874 542.75610626 109.13562012 541.98451233 C109.07693442 539.58610828 109.02418657 537.18763024 108.97265625 534.7890625 C108.90420678 531.65222174 108.83207493 528.5155205 108.75390625 525.37890625 C108.73511917 524.61729187 108.71633209 523.85567749 108.69697571 523.07098389 C108.58966787 519.27553821 108.3871174 515.53755768 107.921875 511.76953125 C107.42493208 507.50083712 107.47647609 503.28832822 107.5859375 499 C108.40618652 477.20727287 108.40618652 477.20727287 101.47265625 456.8515625 C100.83237534 455.52179944 100.19984892 454.18828099 99.57421875 452.8515625 C96.54163325 446.46239085 93.19394373 440.31704935 89.59765625 434.2265625 C73.68470418 406.60466723 63.94257547 376.97448267 62.94848633 345.13842773 C62.69443392 338.66722763 61.92410186 332.45254362 60.66015625 326.1015625 C60.50683838 325.316604 60.35352051 324.53164551 60.19555664 323.72290039 C58.92868293 317.82317568 56.84624942 312.39018858 54.47265625 306.8515625 C51.45442515 345.34611844 51.45442515 345.34611844 50.2984314 383.92932129 C50.28973284 385.51649758 50.27829775 387.10366177 50.26382446 388.6907959 C50.14456113 403.47471803 51.99438078 416.4204278 56.98294067 430.39413452 C65.65585497 454.80989642 71.87913854 479.94689414 71.85546875 505.99609375 C71.85550022 506.69701456 71.85553169 507.39793537 71.85556412 508.12009621 C71.81069266 524.6515606 69.88101874 540.86744367 67.65942764 557.22642517 C67.23393501 560.38261641 66.82363807 563.54071941 66.41292286 566.69886208 C62.3867604 597.633975 58.19085759 628.46844616 51.04174805 658.86254883 C49.66414784 666.09805264 49.27669415 673.39569889 48.97265625 680.7421875 C48.88935614 682.60416815 48.80602181 684.46614728 48.72265625 686.328125 C48.59649662 689.22683955 48.47162803 692.12560514 48.34765625 695.02441406 C48.22587965 697.84715764 48.09946309 700.66966611 47.97265625 703.4921875 C47.93720703 704.35684631 47.90175781 705.22150513 47.86523438 706.11236572 C47.68312192 710.13471465 47.36014434 713.91204674 46.47265625 717.8515625 C46.05441929 724.28701506 47.24529832 729.17413538 49.34765625 735.2265625 C49.9043159 736.91949981 50.45774752 738.61350224 51.0078125 740.30859375 C51.39670654 741.50282959 51.39670654 741.50282959 51.79345703 742.72119141 C63.9060286 780.7133911 46.47822672 824.39555341 34.67578125 860.48828125 C34.44795959 861.18622299 34.22013794 861.88416473 33.9854126 862.60325623 C32.90398966 865.90845129 31.80988741 869.20811293 30.69628906 872.50268555 C26.78105023 884.29409587 25.13173847 895.1912849 25.22265625 907.6015625 C25.21492188 908.67277344 25.2071875 909.74398437 25.19921875 910.84765625 C25.22267455 920.38243705 27.34170806 927.84880695 30.97265625 936.6015625 C37.73882616 953.49870973 37.73882616 953.49870973 35.6875 960.55078125 C33.76505015 964.1916911 30.88423088 965.18556811 27.16015625 966.4140625 C26.42152344 966.66285156 25.68289063 966.91164063 24.921875 967.16796875 C20.05764615 968.52560838 15.1850385 969.00798081 10.16015625 969.3515625 C6.45253092 969.61490004 2.78083434 969.91784686 -0.90234375 970.4140625 C-5.04020473 970.88409885 -9.17861913 971.02930171 -13.33984375 971.1015625 C-14.60441406 971.12734375 -15.86898437 971.153125 -17.171875 971.1796875 C-20.73931245 970.83083448 -22.17170116 970.53212131 -24.52734375 967.8515625 C-27.06764667 957.44508019 -21.8784089 945.77457452 -18.56616211 936.02124023 C-15.62767099 927.04232335 -14.04833361 918.09083956 -12.58984375 908.7890625 C-9.74138576 890.93565693 -9.74138576 890.93565693 -7.32421875 883.296875 C-3.95683861 872.60740085 -4.07635674 861.89459416 -4.08984375 850.7890625 C-4.08962219 849.94574371 -4.08940063 849.10242493 -4.08917236 848.23355103 C-4.11677614 838.37144241 -4.66932387 828.70893836 -5.81097412 818.9151001 C-6.77758955 810.29051686 -6.87520055 801.70976412 -6.83984375 793.0390625 C-6.83968262 792.21661041 -6.83952148 791.39415833 -6.83935547 790.54678345 C-6.82369156 778.9883544 -6.04852792 767.87628791 -4.2109375 756.453125 C-1.51991127 739.42999721 -5.2112318 723.02024145 -8.66015625 706.359375 C-18.90300698 656.24641063 -25.28447088 603.96545478 -27.52734375 552.8515625 C-29.83734375 552.8515625 -32.14734375 552.8515625 -34.52734375 552.8515625 C-34.63691406 554.09687744 -34.74648437 555.34219238 -34.859375 556.62524414 C-39.86618718 613.0078897 -46.50617708 669.19830932 -57.546875 724.74609375 C-60.18416574 738.22218503 -59.61998525 750.14062737 -57.67163086 763.61987305 C-55.0661899 781.77726715 -54.97225437 799.58584704 -57.02734375 817.7890625 C-58.23807919 829.3577319 -58.85817288 840.84506817 -58.90234375 852.4765625 C-58.90983643 853.15081268 -58.9173291 853.82506287 -58.92504883 854.51974487 C-59.0125199 864.03441027 -57.79624941 872.63035631 -55.52734375 881.8515625 C-55.10488657 883.76276895 -54.68913184 885.67547374 -54.28125 887.58984375 C-54.08619873 888.49863281 -53.89114746 889.40742187 -53.69018555 890.34375 C-53.49207275 891.27445313 -53.29395996 892.20515625 -53.08984375 893.1640625 C-52.87303955 894.18113281 -52.65623535 895.19820312 -52.43286133 896.24609375 C-51.11986959 902.55541289 -50.0574371 908.85454628 -49.15722656 915.23486328 C-47.59955889 926.20902745 -45.11450731 936.30491251 -41.2565918 946.7109375 C-36.06973586 960.88281043 -36.06973586 960.88281043 -38.32348633 967.01928711 C-39.9153121 969.44205175 -41.86942802 970.42119288 -44.53515625 971.4609375 C-47.49756263 972.0418015 -49.7189609 971.23455703 -52.546875 970.33203125 C-55.62950499 969.58417427 -58.43768799 970.32690398 -61.52734375 970.8515625 C-63.20157361 970.55857227 -64.86912602 970.22466149 -66.52734375 969.8515625 C-67.68234375 969.8515625 -68.83734375 969.8515625 -70.02734375 969.8515625 C-73.1114789 969.8515625 -75.54388005 969.52284183 -78.52734375 968.8515625 C-79.55859375 968.7484375 -80.58984375 968.6453125 -81.65234375 968.5390625 C-87.39033587 967.52103164 -94.31246554 966.06644071 -98.52734375 961.8515625 C-100.69047738 951.36868413 -95.53040416 939.83087849 -91.44702148 930.34082031 C-88.29612686 922.68654098 -87.95559679 915.82094069 -88.08984375 907.6015625 C-88.08275391 906.39371094 -88.07566406 905.18585937 -88.06835938 903.94140625 C-88.1672903 889.64969209 -91.6277856 876.74688432 -96.31152344 863.3921814 C-111.26573762 820.58234248 -125.69504827 776.64943012 -111.27734375 731.8515625 C-109.3348434 725.7498261 -108.81506655 720.58113001 -110.01538086 714.29614258 C-110.64332147 710.07124314 -110.80847571 705.905251 -110.95703125 701.640625 C-111.03078135 699.81899138 -111.10501635 697.99737734 -111.1796875 696.17578125 C-111.29215172 693.34178025 -111.40123915 690.50780142 -111.50146484 687.67333984 C-111.93053704 675.76187714 -112.95919195 664.50170433 -115.52734375 652.8515625 C-115.98312708 650.65680037 -116.43632525 648.46149953 -116.88671875 646.265625 C-117.11166016 645.17781738 -117.33660156 644.09000977 -117.56835938 642.96923828 C-122.12483647 620.52262624 -125.09081262 597.84582534 -128.08868408 575.14831543 C-128.52588423 571.86253151 -128.97223132 568.57811472 -129.42138672 565.29394531 C-133.92888179 532.24486265 -137.55022041 500.86883679 -130.52734375 467.8515625 C-130.32367188 466.88653809 -130.12 465.92151367 -129.91015625 464.92724609 C-126.87112519 450.96317977 -122.59403008 437.46968247 -117.86669922 424.0012207 C-117.4492041 422.7968335 -117.03170898 421.59244629 -116.6015625 420.3515625 C-116.03828247 418.75828125 -116.03828247 418.75828125 -115.46362305 417.1328125 C-113.62556425 410.69121921 -113.36460851 404.2688035 -113.32421875 397.60546875 C-113.31738571 396.81694519 -113.31055267 396.02842163 -113.30351257 395.21600342 C-113.28631524 392.61531324 -113.28015786 390.01480655 -113.27734375 387.4140625 C-113.27533966 386.51626068 -113.27333557 385.61845886 -113.27127075 384.69345093 C-113.26273109 368.81404564 -113.9620568 353.00948831 -114.96484375 337.1640625 C-115.03223755 336.09568146 -115.09963135 335.02730042 -115.16906738 333.92654419 C-115.36472997 330.87639032 -115.56685575 327.8267763 -115.7734375 324.77734375 C-115.83391769 323.87489929 -115.89439789 322.97245483 -115.95671082 322.04266357 C-116.29478577 317.270836 -116.78407256 312.57764533 -117.52734375 307.8515625 C-123.63366357 321.51234123 -125.51613648 334.99556954 -126.02734375 349.8515625 C-126.98083624 375.73843811 -134.81445558 398.97679509 -146.08984375 422.1640625 C-146.55324158 423.11724869 -146.55324158 423.11724869 -147.02600098 424.08969116 C-150.36463832 430.90923103 -153.89530169 437.57434738 -157.71484375 444.13671875 C-160.89198251 449.59912052 -163.60709688 455.11405676 -165.96484375 460.9765625 C-166.30193359 461.78609375 -166.63902344 462.595625 -166.98632812 463.4296875 C-169.62462205 469.83772806 -170.66805231 474.84557276 -170.58984375 481.8359375 C-170.58605713 482.61036194 -170.58227051 483.38478638 -170.57836914 484.18267822 C-170.56209384 487.48415708 -170.53407738 490.78551031 -170.50683594 494.08691406 C-170.4886103 496.50324924 -170.47660074 498.91956351 -170.46484375 501.3359375 C-170.45239624 502.43636383 -170.45239624 502.43636383 -170.43969727 503.559021 C-170.42020194 507.73304092 -170.7194672 511.72102812 -171.29129028 515.85342407 C-171.69722348 519.28955547 -171.72296573 522.72699588 -171.7734375 526.18359375 C-171.80632694 527.73893896 -171.83953927 529.29427736 -171.87304688 530.84960938 C-171.92068092 533.27006077 -171.96526802 535.69047539 -172.00415039 538.11108398 C-172.04377459 540.46884253 -172.09527674 542.82610704 -172.1484375 545.18359375 C-172.15685165 545.90859573 -172.16526581 546.63359772 -172.17393494 547.38056946 C-172.26484957 551.06631211 -172.4289561 552.70398102 -174.52734375 555.8515625 C-176.8828125 555.203125 -176.8828125 555.203125 -179.52734375 553.8515625 C-180.890625 551.25 -180.890625 551.25 -181.83984375 548.2265625 C-182.16597656 547.22367188 -182.49210937 546.22078125 -182.828125 545.1875 C-183.05886719 544.41664063 -183.28960937 543.64578125 -183.52734375 542.8515625 C-183.63691406 544.08132813 -183.74648437 545.31109375 -183.859375 546.578125 C-184.01890861 548.21099845 -184.17909968 549.84380776 -184.33984375 551.4765625 C-184.41009766 552.28480469 -184.48035156 553.09304688 -184.55273438 553.92578125 C-185.05236674 558.84216368 -185.96630237 562.51533353 -188.52734375 566.8515625 C-190.17734375 566.8515625 -191.82734375 566.8515625 -193.52734375 566.8515625 C-195.67853012 563.31473651 -195.90874588 560.21158501 -196.16015625 556.1171875 C-196.24394531 554.82167969 -196.32773438 553.52617188 -196.4140625 552.19140625 C-196.4936767 550.82813591 -196.57310139 549.4648545 -196.65234375 548.1015625 C-196.73879157 546.72260639 -196.8260226 545.34369913 -196.9140625 543.96484375 C-197.12620398 540.59415141 -197.3303184 537.22316667 -197.52734375 533.8515625 C-197.63280518 534.63281494 -197.7382666 535.41406738 -197.84692383 536.21899414 C-198.33428831 539.78550786 -198.83692086 543.34971083 -199.33984375 546.9140625 C-199.50548828 548.14318359 -199.67113281 549.37230469 -199.84179688 550.63867188 C-201.52216046 562.40121695 -201.52216046 562.40121695 -204.52734375 567.8515625 C-206.52734375 568.9765625 -206.52734375 568.9765625 -208.52734375 568.8515625 C-210.12036133 567.73120117 -210.12036133 567.73120117 -211.52734375 565.8515625 C-211.9597168 563.0324707 -211.9597168 563.0324707 -212.0390625 559.65234375 C-212.09223633 557.83959961 -212.09223633 557.83959961 -212.14648438 555.99023438 C-212.18032227 554.0962793 -212.18032227 554.0962793 -212.21484375 552.1640625 C-212.24900391 550.88982422 -212.28316406 549.61558594 -212.31835938 548.30273438 C-212.40095159 545.15243147 -212.4700671 542.00241093 -212.52734375 538.8515625 C-213.21570313 540.31529297 -213.21570313 540.31529297 -213.91796875 541.80859375 C-214.53722049 543.09401025 -215.15704225 544.37915225 -215.77734375 545.6640625 C-216.22787109 546.62795898 -216.22787109 546.62795898 -216.6875 547.61132812 C-219.84886178 554.10220923 -219.84886178 554.10220923 -223.52734375 555.8515625 C-225.20389945 555.57218843 -226.87349167 555.2435602 -228.52734375 554.8515625 C-229.48016072 544.96476311 -226.61640533 536.50545395 -223.52734375 527.2890625 C-222.81033531 525.10218675 -222.0978264 522.91390751 -221.38745117 520.72486877 C-220.94715702 519.37329159 -220.50218338 518.02322768 -220.05200195 516.6749115 C-218.90526232 513.33481194 -218.90526232 513.33481194 -218.52734375 509.8515625 C-219.10484375 510.7384375 -219.68234375 511.6253125 -220.27734375 512.5390625 C-226.23171024 521.39748843 -226.23171024 521.39748843 -231.52734375 523.8515625 C-234.33984375 524.0390625 -234.33984375 524.0390625 -236.52734375 523.8515625 C-238.78918685 519.95616605 -238.66194048 516.91559409 -237.53125 512.61328125 C-232.12134797 497.73078811 -222.01395514 484.55629133 -212.37329102 472.18652344 C-195.73357279 450.81856637 -194.90226083 427.39296184 -192.8112793 401.02880859 C-191.42425589 383.8676436 -188.25392173 367.74474084 -180.15234375 352.4140625 C-163.81860514 320.66396563 -164.75086129 283.25175748 -164.46484375 248.5390625 C-164.40234267 241.44062483 -164.3238109 234.34279118 -164.21652412 227.24488258 C-164.18088922 224.45728765 -164.16816519 221.67027556 -164.1572113 218.88249207 C-163.96332978 199.64480317 -160.5000073 180.21082148 -146.52734375 165.8515625 C-136.88679041 157.78040156 -127.14454106 154.47078734 -114.90234375 152.4140625 C-92.69480085 148.49239515 -92.69480085 148.49239515 -74.08984375 136.4140625 C-67.75211337 126.02018468 -67.68064527 114.64385088 -68.77734375 102.7890625 C-69.3308163 99.76206424 -69.3308163 99.76206424 -71.41015625 97.54296875 C-73.63061985 94.72027609 -74.83589408 92.18090618 -76.15234375 88.8515625 C-76.55710938 87.8409375 -76.961875 86.8303125 -77.37890625 85.7890625 C-78.10494861 83.93197455 -78.81083764 82.06676843 -79.48828125 80.19140625 C-80.56177972 77.77401684 -81.70717317 76.31159033 -83.52734375 74.4140625 C-86.71360318 70.79933297 -88.67760199 67.70646913 -88.4140625 62.69921875 C-88.18351019 60.74124461 -87.86231544 58.79439833 -87.52734375 56.8515625 C-84.55734375 56.3565625 -84.55734375 56.3565625 -81.52734375 55.8515625 C-81.54829102 55.16231689 -81.56923828 54.47307129 -81.59082031 53.76293945 C-82.08840756 34.90973673 -81.83104194 18.70766549 -68.27734375 4.1015625 C-49.43390203 -13.42242597 -20.83337427 -14.0887567 0 0 Z M-211.52734375 532.8515625 C-210.52734375 535.8515625 -210.52734375 535.8515625 -210.52734375 535.8515625 Z " fill="#030303" transform="translate(238.52734375,9.1484375)"/>
<path d="M0 0 C0.66 0.33 1.32 0.66 2 1 C-2.62 5.62 -7.24 10.24 -12 15 C-12 10.09687565 -8.29800369 7.38658643 -5 4 C-3.37458956 2.61667196 -1.72614587 1.25537882 0 0 Z " fill="#5F5F5F" transform="translate(177,8)"/>
<path d="M0 0 C0.66 0.33 1.32 0.66 2 1 C-0.64 3.64 -3.28 6.28 -6 9 C-6.66 8.67 -7.32 8.34 -8 8 C-5.33333333 5.33333333 -2.66666667 2.66666667 0 0 Z " fill="#676767" transform="translate(97,171)"/>
</svg>
