<?xml version="1.0" encoding="UTF-8"?>
<svg version="1.1" xmlns="http://www.w3.org/2000/svg" width="275" height="183">
<path d="M0 0 C90.75 0 181.5 0 275 0 C275 60.39 275 120.78 275 183 C184.25 183 93.5 183 0 183 C0 122.61 0 62.22 0 0 Z " fill="#DBAE95" transform="translate(0,0)"/>
<path d="M0 0 C0.66 0 1.32 0 2 0 C2 1.32 2 2.64 2 4 C0.68 4.33 -0.64 4.66 -2 5 C-1.125 1.125 -1.125 1.125 0 0 Z M-3 5 C-1.66667905 7.6666419 -2.32897967 9.16680303 -3 12 C-2.01 12 -1.02 12 0 12 C0.495 13.485 0.495 13.485 1 15 C3.21713508 11.74820188 5.34832443 8.5786304 7 5 C7 6.32 7 7.64 7 9 C7.99 9 8.98 9 10 9 C10.33 8.01 10.66 7.02 11 6 C11.495 8.475 11.495 8.475 12 11 C11.01 11 10.02 11 9 11 C9 11.99 9 12.98 9 14 C8.0409375 14.433125 8.0409375 14.433125 7.0625 14.875 C4.84793921 15.82823451 4.84793921 15.82823451 4 18 C4.66 18 5.32 18 6 18 C6.66 19.32 7.32 20.64 8 22 C6.35 22 4.7 22 3 22 C2.67 22.66 2.34 23.32 2 24 C2.66 24 3.32 24 4 24 C3.67 25.32 3.34 26.64 3 28 C2.01 28 1.02 28 0 28 C-0.495 25.03 -0.495 25.03 -1 22 C-1.99 22 -2.98 22 -4 22 C-4 22.66 -4 23.32 -4 24 C-5.32 24 -6.64 24 -8 24 C-8 24.66 -8 25.32 -8 26 C-5.69 25.67 -3.38 25.34 -1 25 C-3 27 -3 27 -5.625 27.125 C-6.40875 27.08375 -7.1925 27.0425 -8 27 C-8 28.65 -8 30.3 -8 32 C-7.34 32 -6.68 32 -6 32 C-6 33.65 -6 35.3 -6 37 C-7.98 37.495 -7.98 37.495 -10 38 C-10.495 35.525 -10.495 35.525 -11 33 C-11 37.29 -11 41.58 -11 46 C-10.34 46 -9.68 46 -9 46 C-8.67 44.68 -8.34 43.36 -8 42 C-8 43.98 -8 45.96 -8 48 C-5.69 48.33 -3.38 48.66 -1 49 C-0.67 48.01 -0.34 47.02 0 46 C1.5625 44.3125 1.5625 44.3125 3 43 C2.01 42.67 1.02 42.34 0 42 C0.165 41.401875 0.33 40.80375 0.5 40.1875 C1.1114124 37.88655664 1.1114124 37.88655664 1 35 C1.99 35 2.98 35 4 35 C4.495 36.485 4.495 36.485 5 38 C6.65 38.33 8.3 38.66 10 39 C10 40.32 10 41.64 10 43 C9.34 43 8.68 43 8 43 C8 43.66 8 44.32 8 45 C10.475 44.505 10.475 44.505 13 44 C13.66 44.99 14.32 45.98 15 47 C15.33 45.68 15.66 44.36 16 43 C14.35 42.67 12.7 42.34 11 42 C11.495 41.01 11.495 41.01 12 40 C12.66 40 13.32 40 14 40 C13.71125 39.22914063 13.4225 38.45828125 13.125 37.6640625 C12.75375 36.66117188 12.3825 35.65828125 12 34.625 C11.62875 33.62726563 11.2575 32.62953125 10.875 31.6015625 C10 29 10 29 10 27 C10.66 27 11.32 27 12 27 C12.495 29.475 12.495 29.475 13 32 C13.66 32 14.32 32 15 32 C15.144375 31.030625 15.28875 30.06125 15.4375 29.0625 C16 26 16 26 17 25 C18.99958364 24.95919217 21.00045254 24.95745644 23 25 C23.33 23.68 23.66 22.36 24 21 C24.99 21.66 25.98 22.32 27 23 C26.67 24.98 26.34 26.96 26 29 C29.3 29 32.6 29 36 29 C36 28.01 36 27.02 36 26 C35.01 26 34.02 26 33 26 C33 25.01 33 24.02 33 23 C31.515 22.505 31.515 22.505 30 22 C30.99 20.515 30.99 20.515 32 19 C33.9453125 18.70703125 33.9453125 18.70703125 36.125 18.8125 C37.40375 18.874375 38.6825 18.93625 40 19 C40.33 18.34 40.66 17.68 41 17 C42.32 17.33 43.64 17.66 45 18 C44.34 18.99 43.68 19.98 43 21 C43.66 21 44.32 21 45 21 C45 21.99 45 22.98 45 24 C45.66 24 46.32 24 47 24 C47.93423645 20.98968256 48.04449911 20.13349732 47 17 C47.66 17 48.32 17 49 17 C49.33 16.01 49.66 15.02 50 14 C50 15.65 50 17.3 50 19 C50.99 19 51.98 19 53 19 C51.25 23.875 51.25 23.875 49 25 C48.08968728 27.34386809 48.08968728 27.34386809 47.375 30.0625 C47.11460938 30.98160156 46.85421875 31.90070313 46.5859375 32.84765625 C46.39257812 33.55792969 46.19921875 34.26820313 46 35 C46.99 34.505 46.99 34.505 48 34 C50.6723621 33.86584528 53.32250488 33.95681459 56 34 C56 33.34 56 32.68 56 32 C56.66 32 57.32 32 58 32 C58 33.32 58 34.64 58 36 C55.03 36 52.06 36 49 36 C49 36.66 49 37.32 49 38 C51.64 38 54.28 38 57 38 C57 38.99 57 39.98 57 41 C57.66 41 58.32 41 59 41 C59.33 39.68 59.66 38.36 60 37 C60.33 37.33 60.66 37.66 61 38 C61.2236068 35.0745356 61.2236068 35.0745356 60 33 C62.64 33.33 65.28 33.66 68 34 C68 33.34 68 32.68 68 32 C69.485 32.495 69.485 32.495 71 33 C71.33 31.02 71.66 29.04 72 27 C73.98 27.495 73.98 27.495 76 28 C76 27.01 76 26.02 76 25 C74.02 25 72.04 25 70 25 C69.505 23.515 69.505 23.515 69 22 C68.01 21.01 68.01 21.01 67 20 C69.31 20.33 71.62 20.66 74 21 C74 21.66 74 22.32 74 23 C74.61875 23.2475 75.2375 23.495 75.875 23.75 C78.35068687 25.20628639 78.95125002 26.37812506 80 29 C80.66 29 81.32 29 82 29 C82.66 27.68 83.32 26.36 84 25 C84.99 25 85.98 25 87 25 C87 26.65 87 28.3 87 30 C85.02 30.99 83.04 31.98 81 33 C85.46726453 36.31442207 89.62007164 36.66009167 95 37 C94.67 35.68 94.34 34.36 94 33 C95.175625 33.0928125 95.175625 33.0928125 96.375 33.1875 C97.674375 33.0946875 97.674375 33.0946875 99 33 C99.99 31.515 99.99 31.515 101 30 C100.34 29.67 99.68 29.34 99 29 C99 29.66 99 30.32 99 31 C98.34 30.67 97.68 30.34 97 30 C97.33 29.34 97.66 28.68 98 28 C97.34 28 96.68 28 96 28 C96 26.68 96 25.36 96 24 C96.66 24 97.32 24 98 24 C98.33 23.34 98.66 22.68 99 22 C99.66 22 100.32 22 101 22 C101.66 21.34 102.32 20.68 103 20 C103.33 21.32 103.66 22.64 104 24 C103.01 24 102.02 24 101 24 C101 25.32 101 26.64 101 28 C103.64 28.33 106.28 28.66 109 29 C109 28.34 109 27.68 109 27 C109.66 27 110.32 27 111 27 C113 30 113 30 113 33 C112.34 33 111.68 33 111 33 C111 33.66 111 34.32 111 35 C111.66 35 112.32 35 113 35 C113 35.66 113 36.32 113 37 C112.01 37.495 112.01 37.495 111 38 C110.34786708 40.02463255 110.34786708 40.02463255 110 42 C110.66 42 111.32 42 112 42 C112.33 40.68 112.66 39.36 113 38 C114.32 37.67 115.64 37.34 117 37 C117 36.34 117 35.68 117 35 C116.34 35 115.68 35 115 35 C115 34.34 115 33.68 115 33 C117.475 32.01 117.475 32.01 120 31 C119.95875 29.783125 119.9175 28.56625 119.875 27.3125 C119.86870779 23.74481659 120.46308625 21.25464089 122 18 C122.35858516 16.67323492 122.7018576 15.34164079 123 14 C125.31 14.33 127.62 14.66 130 15 C129.49396008 17.16874252 129.00016187 18.99967627 128 21 C129.051875 21.12375 130.10375 21.2475 131.1875 21.375 C135 22 135 22 137.6875 23.125 C140.29973109 24.11341176 141.42423842 23.95398577 144 23 C144 23.66 144 24.32 144 25 C146.475 24.01 146.475 24.01 149 23 C149 22.01 149 21.02 149 20 C149.99 19.67 150.98 19.34 152 19 C152 17.02 152 15.04 152 13 C152.66 13 153.32 13 154 13 C154 11.68 154 10.36 154 9 C153.01 8.67 152.02 8.34 151 8 C152.65 7.67 154.3 7.34 156 7 C156 8.98 156 10.96 156 13 C157.98 13.33 159.96 13.66 162 14 C161.46375 14.9075 160.9275 15.815 160.375 16.75 C158.64661496 19.82880601 158.64661496 19.82880601 159.8125 22.375 C160.4003125 23.179375 160.4003125 23.179375 161 24 C161.99 24 162.98 24 164 24 C163.505 23.38125 163.01 22.7625 162.5 22.125 C161 20 161 20 161 18 C161.94875 17.731875 162.8975 17.46375 163.875 17.1875 C167.25267273 16.25013412 167.25267273 16.25013412 169 13 C170.65 13.33 172.3 13.66 174 14 C174.33 13.34 174.66 12.68 175 12 C175.99 13.485 175.99 13.485 177 15 C177.928125 14.79375 178.85625 14.5875 179.8125 14.375 C183 14 183 14 186 16 C185.67 16.99 185.34 17.98 185 19 C185.33 19.66 185.66 20.32 186 21 C186.515625 20.79375 187.03125 20.5875 187.5625 20.375 C191.01690489 19.84355309 193.66889627 21.02364201 197 22 C200.29219428 22.16847091 200.29219428 22.16847091 203 22 C202.67 22.66 202.34 23.32 202 24 C200.68 24 199.36 24 198 24 C198 24.66 198 25.32 198 26 C197.21625 26.2475 196.4325 26.495 195.625 26.75 C192.52407715 28.22662993 192.34540831 28.96198124 191 32 C189.66666667 34.66666667 188.33333333 37.33333333 187 40 C186.01 39.67 185.02 39.34 184 39 C184 38.34 184 37.68 184 37 C179.545 37.495 179.545 37.495 175 38 C175 37.34 175 36.68 175 36 C171.51694985 37.53254207 168.67937373 39.66801044 165.68359375 41.9765625 C164 43 164 43 161 43 C161 43.66 161 44.32 161 45 C162.65 45 164.3 45 166 45 C166.99 47.475 166.99 47.475 168 50 C162.7265625 53.22265625 162.7265625 53.22265625 161 54 C160.34 53.67 159.68 53.34 159 53 C158.67 53.33 158.34 53.66 158 54 C157.01 54 156.02 54 155 54 C155 52 155 52 157 49.875 C157.66 49.25625 158.32 48.6375 159 48 C155.98968256 47.06576355 155.13349732 46.95550089 152 48 C152.99 50.97 152.99 50.97 154 54 C153.34 54 152.68 54 152 54 C151.34 55.32 150.68 56.64 150 58 C147.03 57.01 147.03 57.01 144 56 C144 54.68 144 53.36 144 52 C143.67 51.34 143.34 50.68 143 50 C142.87625 49.195625 142.7525 48.39125 142.625 47.5625 C141.92868219 44.70759696 141.06108289 43.97147059 139 42 C139 41.01 139 40.02 139 39 C136.69 38.67 134.38 38.34 132 38 C131.67 35.69 131.34 33.38 131 31 C130.360625 31.185625 129.72125 31.37125 129.0625 31.5625 C128.381875 31.706875 127.70125 31.85125 127 32 C126.67 31.67 126.34 31.34 126 31 C123.525 31.99 123.525 31.99 121 33 C121 33.66 121 34.32 121 35 C120.68521554 36.33783393 120.35412344 37.67203709 120 39 C119.01 39 118.02 39 117 39 C117 39.66 117 40.32 117 41 C117.99 41 118.98 41 120 41 C119.67 42.32 119.34 43.64 119 45 C120.65 45.33 122.3 45.66 124 46 C124 47.65 124 49.3 124 51 C123.01 51 122.02 51 121 51 C120.63743142 52.4562672 120.28520207 53.91511185 119.9375 55.375 C119.74027344 56.18710938 119.54304687 56.99921875 119.33984375 57.8359375 C118.77890681 60.04161284 118.77890681 60.04161284 120 62 C119.01 62.495 119.01 62.495 118 63 C118.66 63.33 119.32 63.66 120 64 C119.67 65.98 119.34 67.96 119 70 C116.03 70.99 116.03 70.99 113 72 C112.9175 71.21625 112.835 70.4325 112.75 69.625 C112.27193661 66.85250896 112.27193661 66.85250896 109.9375 65.6875 C109.298125 65.460625 108.65875 65.23375 108 65 C107.34 66.65 106.68 68.3 106 70 C105.34 70 104.68 70 104 70 C104.33 72.64 104.66 75.28 105 78 C105.33 77.67 105.66 77.34 106 77 C110.70588235 77.70588235 110.70588235 77.70588235 112 79 C113.34747084 79.23075082 114.70377565 79.41153063 116.0625 79.5625 C117.361875 79.706875 118.66125 79.85125 120 80 C119.814375 79.46375 119.62875 78.9275 119.4375 78.375 C118.88580676 75.38009386 119.39402556 72.96254171 120 70 C120.53625 69.87625 121.0725 69.7525 121.625 69.625 C124.4638286 68.87793984 127.22223202 67.94696636 130 67 C130.33 67.99 130.66 68.98 131 70 C132.62507196 67.1668838 132.62507196 67.1668838 134 64 C133.67 63.01 133.34 62.02 133 61 C134.98 61 136.96 61 139 61 C139 62.98 139 64.96 139 67 C139.66 67.33 140.32 67.66 141 68 C141.185625 67.1028125 141.185625 67.1028125 141.375 66.1875 C142 64 142 64 144 61 C148.81221774 60.53728676 152.52029862 61.25182385 157 63 C157 63.66 157 64.32 157 65 C157.99 65 158.98 65 160 65 C160.12375 65.639375 160.2475 66.27875 160.375 66.9375 C160.58125 67.618125 160.7875 68.29875 161 69 C161.66 69.33 162.32 69.66 163 70 C162.67 71.65 162.34 73.3 162 75 C161.34 75 160.68 75 160 75 C160.33 75.99 160.66 76.98 161 78 C163.475 77.505 163.475 77.505 166 77 C166 77.66 166 78.32 166 79 C167.32 78.67 168.64 78.34 170 78 C169.34 80.31 168.68 82.62 168 85 C99.36 85 30.72 85 -40 85 C-40 77.41 -40 69.82 -40 62 C-39.01 62 -38.02 62 -37 62 C-36.67 61.01 -36.34 60.02 -36 59 C-35.34 59 -34.68 59 -34 59 C-33.34 59.99 -32.68 60.98 -32 62 C-31.67 61.34 -31.34 60.68 -31 60 C-30.34 60 -29.68 60 -29 60 C-28.83126522 58.56274129 -28.66509263 57.12518162 -28.5 55.6875 C-28.4071875 54.88699219 -28.314375 54.08648437 -28.21875 53.26171875 C-27.95186537 50.88103445 -27.95186537 50.88103445 -28 48 C-27.34 48 -26.68 48 -26 48 C-26 48.66 -26 49.32 -26 50 C-25.34 50 -24.68 50 -24 50 C-24.33 48.68 -24.66 47.36 -25 46 C-27.475 46.495 -27.475 46.495 -30 47 C-30.495 45.515 -30.495 45.515 -31 44 C-30.34 44 -29.68 44 -29 44 C-29.99 41.03 -30.98 38.06 -32 35 C-31.01 35 -30.02 35 -29 35 C-29 36.32 -29 37.64 -29 39 C-28.34 39 -27.68 39 -27 39 C-27.99 36.03 -28.98 33.06 -30 30 C-29.01 29.67 -28.02 29.34 -27 29 C-27 29.99 -27 30.98 -27 32 C-26.401875 31.649375 -25.80375 31.29875 -25.1875 30.9375 C-23 30 -23 30 -20 31 C-20 32.66666667 -20 34.33333333 -20 36 C-20.66 36 -21.32 36 -22 36 C-22 35.34 -22 34.68 -22 34 C-22.66 34 -23.32 34 -24 34 C-23.67 35.32 -23.34 36.64 -23 38 C-22.05125 37.505 -21.1025 37.01 -20.125 36.5 C-17 35 -17 35 -15 35 C-15 33.35 -15 31.7 -15 30 C-13.33333333 30 -11.66666667 30 -10 30 C-9.67 27.36 -9.34 24.72 -9 22 C-7.02 21.34 -5.04 20.68 -3 20 C-3.66 18.02 -4.32 16.04 -5 14 C-7.475 13.505 -7.475 13.505 -10 13 C-9.67 12.34 -9.34 11.68 -9 11 C-8.34 11 -7.68 11 -7 11 C-7 10.01 -7 9.02 -7 8 C-6.01 8 -5.02 8 -4 8 C-3.67 7.01 -3.34 6.02 -3 5 Z M36 21 C35.67 21.66 35.34 22.32 35 23 C35.66868314 26.11332248 35.66868314 26.11332248 38.0625 27.1875 C38.701875 27.455625 39.34125 27.72375 40 28 C40 26.68 40 25.36 40 24 C40.99 24 41.98 24 43 24 C43 23.34 43 22.68 43 22 C40.69 21.67 38.38 21.34 36 21 Z M167 43 C167.33 43.66 167.66 44.32 168 45 C167.34 44.67 166.68 44.34 166 44 C166.33 43.67 166.66 43.34 167 43 Z " fill="#DBAE94" transform="translate(40,98)"/>
<path d="M0 0 C0.33 0.66 0.66 1.32 1 2 C6.7974423 2.24428343 6.7974423 2.24428343 12 0 C13 3 13 3 12.0625 5.1875 C11.711875 5.785625 11.36125 6.38375 11 7 C9.35 7 7.7 7 6 7 C5.67 7.99 5.34 8.98 5 10 C4.67 10.99 4.34 11.98 4 13 C3.34 13 2.68 13 2 13 C2.99 13.928125 2.99 13.928125 4 14.875 C6 17 6 17 6 19 C6.99 19.33 7.98 19.66 9 20 C9.99 20.66 10.98 21.32 12 22 C13.32567199 22.68177416 14.65753688 23.35191436 16 24 C15.34 25.32 14.68 26.64 14 28 C13.01 27.67 12.02 27.34 11 27 C7.94729537 26.84188612 7.94729537 26.84188612 5 28 C5.20625 28.7425 5.4125 29.485 5.625 30.25 C6.05320737 33.3901874 5.59182706 34.3469549 4 37 C3.67 37.99 3.34 38.98 3 40 C3.66 40.33 4.32 40.66 5 41 C3.25 43 3.25 43 1 45 C-0.32 45 -1.64 45 -3 45 C-3 45.66 -3 46.32 -3 47 C-1.35 47 0.3 47 2 47 C2 47.99 2 48.98 2 50 C-0.31 50 -2.62 50 -5 50 C-3.93354885 51.29633621 -3.93354885 51.29633621 -1.4375 51.0625 C-0.633125 51.041875 0.17125 51.02125 1 51 C0.67 51.66 0.34 52.32 0 53 C-1.98 53 -3.96 53 -6 53 C-5.67 55.64 -5.34 58.28 -5 61 C-5.99 60.67 -6.98 60.34 -8 60 C-8 58.02 -8 56.04 -8 54 C-9.65 54 -11.3 54 -13 54 C-13.33 52.68 -13.66 51.36 -14 50 C-14.33 51.65 -14.66 53.3 -15 55 C-16.32 54.67 -17.64 54.34 -19 54 C-19.33 54.99 -19.66 55.98 -20 57 C-20.66 57 -21.32 57 -22 57 C-22 55.68 -22 54.36 -22 53 C-21.34 53 -20.68 53 -20 53 C-20.33 52.01 -20.66 51.02 -21 50 C-21.33 50 -21.66 50 -22 50 C-22.33 50.99 -22.66 51.98 -23 53 C-23.99 53.33 -24.98 53.66 -26 54 C-26 54.66 -26 55.32 -26 56 C-26.66 56 -27.32 56 -28 56 C-28 55.34 -28 54.68 -28 54 C-28.7425 53.87625 -29.485 53.7525 -30.25 53.625 C-32.80141485 53.04513299 -34.7267573 52.26291261 -37 51 C-37 51.66 -37 52.32 -37 53 C-36.34 53 -35.68 53 -35 53 C-35 53.66 -35 54.32 -35 55 C-35.99 54.67 -36.98 54.34 -38 54 C-38.45375 54.495 -38.9075 54.99 -39.375 55.5 C-41 57 -41 57 -43 57 C-43.33 56.01 -43.66 55.02 -44 54 C-44.99 54.99 -44.99 54.99 -46 56 C-45.01 56.66 -44.02 57.32 -43 58 C-43 58.99 -43 59.98 -43 61 C-42.34 60.67 -41.68 60.34 -41 60 C-41 59.34 -41 58.68 -41 58 C-38.03 57.34 -35.06 56.68 -32 56 C-32 56.66 -32 57.32 -32 58 C-31.01 57.67 -30.02 57.34 -29 57 C-29 57.99 -29 58.98 -29 60 C-26.03 59.505 -26.03 59.505 -23 59 C-22.33164813 62.0911274 -22 64.83229329 -22 68 C-24.97 68.495 -24.97 68.495 -28 69 C-26.68 69.66 -25.36 70.32 -24 71 C-24.33 71.66 -24.66 72.32 -25 73 C-26.32 73 -27.64 73 -29 73 C-29 73.66 -29 74.32 -29 75 C-31.66666667 74.33333333 -34.33333333 73.66666667 -37 73 C-37 71.68 -37 70.36 -37 69 C-36.34 69 -35.68 69 -35 69 C-35 68.34 -35 67.68 -35 67 C-36.98 67.99 -36.98 67.99 -39 69 C-38.67 69.86625 -38.34 70.7325 -38 71.625 C-37.01268659 74.95718275 -36.83579026 77.55159538 -37 81 C-38.32 81 -39.64 81 -41 81 C-41.66 80.01 -42.32 79.02 -43 78 C-43.74957157 81.47147842 -43.74957157 81.47147842 -44 85 C-43.01 84.01 -42.02 83.02 -41 82 C-41.54723683 85.37462715 -42.0549 87.08235 -44 90 C-44.99 90.33 -45.98 90.66 -47 91 C-46.34 91.66 -45.68 92.32 -45 93 C-46.75 94.125 -46.75 94.125 -49 95 C-51.25 94.125 -51.25 94.125 -53 93 C-53 93.66 -53 94.32 -53 95 C-52.34 95 -51.68 95 -51 95 C-51 96.65 -51 98.3 -51 100 C-51.66 100 -52.32 100 -53 100 C-53 101.32 -53 102.64 -53 104 C-52.34 104 -51.68 104 -51 104 C-50.67 104.33 -50.34 104.66 -50 105 C-49.01 105.33 -48.02 105.66 -47 106 C-47.99 107.32 -48.98 108.64 -50 110 C-51.65 109.67 -53.3 109.34 -55 109 C-54.67 110.32 -54.34 111.64 -54 113 C-59.841744 113.35050464 -63.8531808 113.16727335 -69 110 C-67.1875 108 -67.1875 108 -65 106 C-64.01 106 -63.02 106 -62 106 C-62 104.35 -62 102.7 -62 101 C-65.12197478 102.3089572 -65.12197478 102.3089572 -67 105 C-67.66 105 -68.32 105 -69 105 C-70.35386936 103.34997172 -71.68678142 101.6825613 -73 100 C-73.66 99.67 -74.32 99.34 -75 99 C-75 98.34 -75 97.68 -75 97 C-76.65 97 -78.3 97 -80 97 C-78.33045181 100.22404978 -78.33045181 100.22404978 -75.375 100.6875 C-74.59125 100.790625 -73.8075 100.89375 -73 101 C-73 101.99 -73 102.98 -73 104 C-73.99 104 -74.98 104 -76 104 C-76.33 105.98 -76.66 107.96 -77 110 C-78.98 109.01 -78.98 109.01 -81 108 C-81 108.66 -81 109.32 -81 110 C-83.31 110 -85.62 110 -88 110 C-86.515 110.99 -86.515 110.99 -85 112 C-85.66 112.66 -86.32 113.32 -87 114 C-87.495 114.53625 -87.99 115.0725 -88.5 115.625 C-90 117 -90 117 -92 117 C-92 116.01 -92 115.02 -92 114 C-93.423125 114.2784375 -93.423125 114.2784375 -94.875 114.5625 C-98 115 -98 115 -100 114 C-100 113.34 -100 112.68 -100 112 C-97.03 112 -94.06 112 -91 112 C-91 110.68 -91 109.36 -91 108 C-91.66 108.99 -92.32 109.98 -93 111 C-95.3828125 111.29296875 -95.3828125 111.29296875 -98.125 111.1875 C-99.03507812 111.16042969 -99.94515625 111.13335937 -100.8828125 111.10546875 C-101.58148438 111.07066406 -102.28015625 111.03585938 -103 111 C-102 103.57142857 -102 103.57142857 -101 100 C-100.01 100 -99.02 100 -98 100 C-97.34 98.35 -96.68 96.7 -96 95 C-96.99 95 -97.98 95 -99 95 C-99.33 94.34 -99.66 93.68 -100 93 C-100.66 93 -101.32 93 -102 93 C-102 93.66 -102 94.32 -102 95 C-101.34 95.33 -100.68 95.66 -100 96 C-100.99 97.98 -100.99 97.98 -102 100 C-102.66 100 -103.32 100 -104 100 C-104 99.01 -104 98.02 -104 97 C-104.66 97 -105.32 97 -106 97 C-105.505 95.515 -105.505 95.515 -105 94 C-106.485 94.495 -106.485 94.495 -108 95 C-111.47823115 96.15941038 -113.45895578 95.70820884 -117 95 C-117.495 96.485 -117.495 96.485 -118 98 C-117.34 98.33 -116.68 98.66 -116 99 C-116 99.99 -116 100.98 -116 102 C-115.01 102 -114.02 102 -113 102 C-113 102.99 -113 103.98 -113 105 C-117.95 105.495 -117.95 105.495 -123 106 C-124 102 -124 102 -123 99 C-123.66 98.67 -124.32 98.34 -125 98 C-125.495 99.485 -125.495 99.485 -126 101 C-128.97 101.495 -128.97 101.495 -132 102 C-132.66 103.98 -133.32 105.96 -134 108 C-134.66 108 -135.32 108 -136 108 C-136.33 106.35 -136.66 104.7 -137 103 C-137.66 103 -138.32 103 -139 103 C-138.71125 103.77085938 -138.4225 104.54171875 -138.125 105.3359375 C-137.75375 106.33882813 -137.3825 107.34171875 -137 108.375 C-136.62875 109.37273437 -136.2575 110.37046875 -135.875 111.3984375 C-135 114 -135 114 -135 116 C-135.99 116.495 -135.99 116.495 -137 117 C-135.68 117.66 -134.36 118.32 -133 119 C-133.33 120.65 -133.66 122.3 -134 124 C-134.99 123.505 -134.99 123.505 -136 123 C-136 122.01 -136 121.02 -136 120 C-138.475 120.495 -138.475 120.495 -141 121 C-141 120.34 -141 119.68 -141 119 C-140.34 119 -139.68 119 -139 119 C-139 117.68 -139 116.36 -139 115 C-140.65 115 -142.3 115 -144 115 C-144.33 113.68 -144.66 112.36 -145 111 C-145.99 111.33 -146.98 111.66 -148 112 C-147.01 112.99 -147.01 112.99 -146 114 C-146.66 115.32 -147.32 116.64 -148 118 C-147.01 118.495 -147.01 118.495 -146 119 C-147.39130435 123.17391304 -147.39130435 123.17391304 -150 125 C-153.6875 125.1875 -153.6875 125.1875 -157 125 C-157.33 124.01 -157.66 123.02 -158 122 C-158.66 122 -159.32 122 -160 122 C-160.495 115.565 -160.495 115.565 -161 109 C-160.01 108.505 -160.01 108.505 -159 108 C-158.566875 108.9590625 -158.566875 108.9590625 -158.125 109.9375 C-157.17176549 112.15206079 -157.17176549 112.15206079 -155 113 C-155 111.35 -155 109.7 -155 108 C-155.66 108 -156.32 108 -157 108 C-157 106.35 -157 104.7 -157 103 C-156.01 102.67 -155.02 102.34 -154 102 C-154.99 102 -155.98 102 -157 102 C-157 101.34 -157 100.68 -157 100 C-155.68 100 -154.36 100 -153 100 C-153 99.34 -153 98.68 -153 98 C-151.02 97.505 -151.02 97.505 -149 97 C-147.875 101.75 -147.875 101.75 -149 104 C-148.01 103.67 -147.02 103.34 -146 103 C-145.505 101.515 -145.505 101.515 -145 100 C-145.66 100 -146.32 100 -147 100 C-146.505 98.515 -146.505 98.515 -146 97 C-144.68 97 -143.36 97 -142 97 C-142.33 96.01 -142.66 95.02 -143 94 C-143.66 94 -144.32 94 -145 94 C-144.34 92.68 -143.68 91.36 -143 90 C-142.01 90 -141.02 90 -140 90 C-140 89.01 -140 88.02 -140 87 C-139.01 87 -138.02 87 -137 87 C-137.99 86.01 -137.99 86.01 -139 85 C-141.60280568 85.32041397 -141.60280568 85.32041397 -144 86 C-144.0825 86.61875 -144.165 87.2375 -144.25 87.875 C-145 90 -145 90 -147.0625 91.25 C-147.701875 91.4975 -148.34125 91.745 -149 92 C-149.33 91.34 -149.66 90.68 -150 90 C-149.67 89.34 -149.34 88.68 -149 88 C-149.99 88 -150.98 88 -152 88 C-152 86.02 -152 84.04 -152 82 C-152.33 82.66 -152.66 83.32 -153 84 C-153.99 84 -154.98 84 -156 84 C-156 84.99 -156 85.98 -156 87 C-156.99 87.495 -156.99 87.495 -158 88 C-156.35 88.33 -154.7 88.66 -153 89 C-152.34 91.31 -151.68 93.62 -151 96 C-152.175625 96.4021875 -152.175625 96.4021875 -153.375 96.8125 C-156.28114923 97.84814432 -156.28114923 97.84814432 -158 101 C-158.12375 101.845625 -158.2475 102.69125 -158.375 103.5625 C-158.58125 104.366875 -158.7875 105.17125 -159 106 C-161 107.125 -161 107.125 -163 108 C-163.33 108.99 -163.66 109.98 -164 111 C-166.92079805 113.07530387 -168.37546731 114 -172 114 C-172.33 112.68 -172.66 111.36 -173 110 C-172.34 110 -171.68 110 -171 110 C-171 110.66 -171 111.32 -171 112 C-170.01 111.01 -170.01 111.01 -169 110 C-169.66 109.34 -170.32 108.68 -171 108 C-171.99 108 -172.98 108 -174 108 C-174.66 108 -175.32 108 -176 108 C-176.33 107.34 -176.66 106.68 -177 106 C-177 109.04200046 -176.44513658 111.99532806 -176 115 C-176.66 115 -177.32 115 -178 115 C-178 113.68 -178 112.36 -178 111 C-178.99 111.495 -178.99 111.495 -180 112 C-179.505 113.1446875 -179.505 113.1446875 -179 114.3125 C-178 117 -178 117 -178 120 C-178.66 120 -179.32 120 -180 120 C-179.34 120.66 -178.68 121.32 -178 122 C-175.89179203 121.6814823 -175.89179203 121.6814823 -174 121 C-173.67 122.65 -173.34 124.3 -173 126 C-173.66 126 -174.32 126 -175 126 C-175 125.34 -175 124.68 -175 124 C-175.99 124.99 -175.99 124.99 -177 126 C-176.34 126.66 -175.68 127.32 -175 128 C-175.99 130.64 -176.98 133.28 -178 136 C-178.66 136 -179.32 136 -180 136 C-180.33 136.99 -180.66 137.98 -181 139 C-181.66 138.67 -182.32 138.34 -183 138 C-183 137.01 -183 136.02 -183 135 C-183.433125 135.495 -183.86625 135.99 -184.3125 136.5 C-186 138 -186 138 -189 138 C-189 117.21 -189 96.42 -189 75 C-183.23076923 73.84615385 -183.23076923 73.84615385 -180 75 C-179.67 75.33 -179.34 75.66 -179 76 C-178.505 75.01 -178.505 75.01 -178 74 C-176.35 74 -174.7 74 -173 74 C-172.505 72.515 -172.505 72.515 -172 71 C-170.515 71.99 -170.515 71.99 -169 73 C-168.505 71.515 -168.505 71.515 -168 70 C-167.34 70 -166.68 70 -166 70 C-165.67 68.68 -165.34 67.36 -165 66 C-165 66.66 -165 67.32 -165 68 C-159.71813138 69.62519034 -156.83989822 68.30185048 -152.125 65.9921875 C-149.77961535 64.89709981 -147.56525748 64.33100097 -145 64 C-145 64.66 -145 65.32 -145 66 C-141.71185401 63.27393696 -141.71185401 63.27393696 -140.75 59.25 C-140.8325 58.5075 -140.915 57.765 -141 57 C-139.02 56.505 -139.02 56.505 -137 56 C-137 56.99 -137 57.98 -137 59 C-134.525 58.505 -134.525 58.505 -132 58 C-132 60.64 -132 63.28 -132 66 C-131.195625 65.979375 -130.39125 65.95875 -129.5625 65.9375 C-127 66 -127 66 -126 67 C-125.67 66.34 -125.34 65.68 -125 65 C-123.515 65.495 -123.515 65.495 -122 66 C-122.33 66.33 -122.66 66.66 -123 67 C-122.34 67.66 -121.68 68.32 -121 69 C-121.33 69.66 -121.66 70.32 -122 71 C-120.02 71.495 -120.02 71.495 -118 72 C-119.485 72.495 -119.485 72.495 -121 73 C-121 73.66 -121 74.32 -121 75 C-119.35 74.67 -117.7 74.34 -116 74 C-116 74.66 -116 75.32 -116 76 C-115.34 76 -114.68 76 -114 76 C-114 74.68 -114 73.36 -114 72 C-112.515 72.495 -112.515 72.495 -111 73 C-111 73.66 -111 74.32 -111 75 C-109.68 74.67 -108.36 74.34 -107 74 C-106.67 71.03 -106.34 68.06 -106 65 C-106.66 65 -107.32 65 -108 65 C-108.33 63.35 -108.66 61.7 -109 60 C-106.32521756 58.3372974 -104.0004856 57.00016187 -101 56 C-100.67 53.69 -100.34 51.38 -100 49 C-99.01 49 -98.02 49 -97 49 C-96.01 48.67 -95.02 48.34 -94 48 C-93.814375 46.6696875 -93.814375 46.6696875 -93.625 45.3125 C-93.05587264 42.29612498 -92.23385564 39.79673946 -91 37 C-89.35 37 -87.7 37 -86 37 C-86 37.66 -86 38.32 -86 39 C-82.16865501 39.218934 -79.41557141 38.80266269 -76 37 C-74.99065538 33.97196614 -74.15204087 31.03387789 -73.6875 27.875 C-73 26 -73 26 -71.1875 24.6875 C-68.63437412 23.88508901 -67.52019146 24.26833151 -65 25 C-64.01 24.67 -63.02 24.34 -62 24 C-61 25 -61 25 -60.9375 28.0625 C-60.958125 29.031875 -60.97875 30.00125 -61 31 C-62.485 30.505 -62.485 30.505 -64 30 C-64.495 31.485 -64.495 31.485 -65 33 C-66.32 33 -67.64 33 -69 33 C-65.82460444 36.42578949 -65.82460444 36.42578949 -62 39 C-61.01 38.01 -61.01 38.01 -60 37 C-60 37.66 -60 38.32 -60 39 C-59.34 39 -58.68 39 -58 39 C-58 39.66 -58 40.32 -58 41 C-57.34 41 -56.68 41 -56 41 C-55.67 40.34 -55.34 39.68 -55 39 C-54.34 39 -53.68 39 -53 39 C-53 34.71 -53 30.42 -53 26 C-53.99 25.67 -54.98 25.34 -56 25 C-54.25 24.375 -54.25 24.375 -52 24 C-50.65863633 24.65035814 -49.32467746 25.3162955 -48 26 C-47.01 25.67 -46.02 25.34 -45 25 C-44.67 24.34 -44.34 23.68 -44 23 C-42.02 23 -40.04 23 -38 23 C-38 22.34 -38 21.68 -38 21 C-37.79375 20.401875 -37.5875 19.80375 -37.375 19.1875 C-36.77882047 16.89420557 -36.77882047 16.89420557 -38.0625 14.5 C-39 12 -39 12 -38.125 9.6875 C-37.568125 8.8521875 -37.568125 8.8521875 -37 8 C-35.35 8.33 -33.7 8.66 -32 9 C-32.66 9.99 -33.32 10.98 -34 12 C-34.99 12 -35.98 12 -37 12 C-37 12.66 -37 13.32 -37 14 C-36.01 14 -35.02 14 -34 14 C-34 14.66 -34 15.32 -34 16 C-33.34 16 -32.68 16 -32 16 C-32 14.68 -32 13.36 -32 12 C-31.01 12 -30.02 12 -29 12 C-28.375 13.875 -28.375 13.875 -28 16 C-28.66 16.66 -29.32 17.32 -30 18 C-29.01 18.33 -28.02 18.66 -27 19 C-27 20.98 -27 22.96 -27 25 C-27.66 25 -28.32 25 -29 25 C-29 25.66 -29 26.32 -29 27 C-27.02 26.505 -27.02 26.505 -25 26 C-25 27.65 -25 29.3 -25 31 C-24.236875 30.814375 -23.47375 30.62875 -22.6875 30.4375 C-20 30 -20 30 -17 31 C-17 31.66 -17 32.32 -17 33 C-14.7522025 30.94766315 -13.9977758 29.99332739 -13 27 C-14.28725907 25.29749607 -15.62131719 23.62935241 -17 22 C-17 21.34 -17 20.68 -17 20 C-17.66 20 -18.32 20 -19 20 C-19.433125 18.329375 -19.433125 18.329375 -19.875 16.625 C-20.69241329 12.99708908 -20.69241329 12.99708908 -23 11 C-21.68 10.34 -20.36 9.68 -19 9 C-18 10 -18 10 -17.90234375 11.84765625 C-17.93489583 13.8984375 -17.96744792 15.94921875 -18 18 C-13.94393835 17.53199289 -10.53411321 17.12046792 -7 15 C-7.33 14.34 -7.66 13.68 -8 13 C-8 12.01 -8 11.02 -8 10 C-7.01 9.34 -6.02 8.68 -5 8 C-4.67 7.01 -4.34 6.02 -4 5 C-3.34 4.67 -2.68 4.34 -2 4 C-0.86649466 1.98330173 -0.86649466 1.98330173 0 0 Z M-30 27 C-29 29 -29 29 -29 29 Z M-104 62 C-103.67 62.66 -103.34 63.32 -103 64 C-102.67 63.34 -102.34 62.68 -102 62 C-102.66 62 -103.32 62 -104 62 Z M-149 76 C-149.66 76.66 -150.32 77.32 -151 78 C-151 78.99 -151 79.98 -151 81 C-149.68 80.67 -148.36 80.34 -147 80 C-147 78.68 -147 77.36 -147 76 C-147.66 76 -148.32 76 -149 76 Z M-141 95 C-140 97 -140 97 -140 97 Z M-104 95 C-103 97 -103 97 -103 97 Z M-88 31 C-86.35 31 -84.7 31 -83 31 C-82.67 31.66 -82.34 32.32 -82 33 C-82.9375 35.125 -82.9375 35.125 -84 37 C-84.66 37 -85.32 37 -86 37 C-86 35.68 -86 34.36 -86 33 C-86.66 33 -87.32 33 -88 33 C-88 32.34 -88 31.68 -88 31 Z M-113 97 C-110.66055264 97.28730055 -108.3260857 97.61936779 -106 98 C-106 98.66 -106 99.32 -106 100 C-106.99 100.33 -107.98 100.66 -109 101 C-109.33 101.99 -109.66 102.98 -110 104 C-113 102 -113 102 -113.75 99.9375 C-113.8325 99.298125 -113.915 98.65875 -114 98 C-113.67 97.67 -113.34 97.34 -113 97 Z M-125 106 C-123 107 -123 107 -123 107 Z " fill="#E1B59B" transform="translate(189,22)"/>
<path d="M0 0 C1.32 0 2.64 0 4 0 C4 1.98 4 3.96 4 6 C6.97 6.495 6.97 6.495 10 7 C9.46375 7.9075 8.9275 8.815 8.375 9.75 C6.64661496 12.82880601 6.64661496 12.82880601 7.8125 15.375 C8.4003125 16.179375 8.4003125 16.179375 9 17 C9.99 17 10.98 17 12 17 C11.505 16.38125 11.01 15.7625 10.5 15.125 C9 13 9 13 9 11 C9.94875 10.731875 10.8975 10.46375 11.875 10.1875 C15.25267273 9.25013412 15.25267273 9.25013412 17 6 C18.65 6.33 20.3 6.66 22 7 C22.33 6.34 22.66 5.68 23 5 C23.99 6.485 23.99 6.485 25 8 C25.928125 7.79375 26.85625 7.5875 27.8125 7.375 C31 7 31 7 34 9 C33.67 9.99 33.34 10.98 33 12 C33.33 12.66 33.66 13.32 34 14 C34.515625 13.79375 35.03125 13.5875 35.5625 13.375 C39.01690489 12.84355309 41.66889627 14.02364201 45 15 C48.29219428 15.16847091 48.29219428 15.16847091 51 15 C50.67 15.66 50.34 16.32 50 17 C48.68 17 47.36 17 46 17 C46 17.66 46 18.32 46 19 C45.21625 19.2475 44.4325 19.495 43.625 19.75 C40.52407715 21.22662993 40.34540831 21.96198124 39 25 C37.66666667 27.66666667 36.33333333 30.33333333 35 33 C34.01 32.67 33.02 32.34 32 32 C32 31.34 32 30.68 32 30 C29.03 30.33 26.06 30.66 23 31 C23 30.34 23 29.68 23 29 C19.51694985 30.53254207 16.67937373 32.66801044 13.68359375 34.9765625 C12 36 12 36 9 36 C9 36.66 9 37.32 9 38 C10.65 38 12.3 38 14 38 C14.99 40.475 14.99 40.475 16 43 C10.7265625 46.22265625 10.7265625 46.22265625 9 47 C8.34 46.67 7.68 46.34 7 46 C6.67 46.33 6.34 46.66 6 47 C5.01 47 4.02 47 3 47 C3 45 3 45 5 42.875 C5.66 42.25625 6.32 41.6375 7 41 C3.98968256 40.06576355 3.13349732 39.95550089 0 41 C0.99 43.97 0.99 43.97 2 47 C1.34 47 0.68 47 0 47 C-0.66 48.32 -1.32 49.64 -2 51 C-3.98 50.34 -5.96 49.68 -8 49 C-8 47.68 -8 46.36 -8 45 C-8.33 44.34 -8.66 43.68 -9 43 C-9.12375 42.195625 -9.2475 41.39125 -9.375 40.5625 C-10.07131781 37.70759696 -10.93891711 36.97147059 -13 35 C-13 34.01 -13 33.02 -13 32 C-15.31 31.67 -17.62 31.34 -20 31 C-20.495 27.535 -20.495 27.535 -21 24 C-21.639375 24.185625 -22.27875 24.37125 -22.9375 24.5625 C-23.618125 24.706875 -24.29875 24.85125 -25 25 C-25.33 24.67 -25.66 24.34 -26 24 C-27.65 24.66 -29.3 25.32 -31 26 C-31 26.66 -31 27.32 -31 28 C-31.31478446 29.33783393 -31.64587656 30.67203709 -32 32 C-32.99 32 -33.98 32 -35 32 C-35 32.66 -35 33.32 -35 34 C-34.01 34 -33.02 34 -32 34 C-32.33 35.32 -32.66 36.64 -33 38 C-31.35 38.33 -29.7 38.66 -28 39 C-28 40.65 -28 42.3 -28 44 C-28.99 44 -29.98 44 -31 44 C-31.36256858 45.4562672 -31.71479793 46.91511185 -32.0625 48.375 C-32.25972656 49.18710938 -32.45695312 49.99921875 -32.66015625 50.8359375 C-33.22109319 53.04161284 -33.22109319 53.04161284 -32 55 C-32.99 55.495 -32.99 55.495 -34 56 C-33.34 56.33 -32.68 56.66 -32 57 C-32.33 58.98 -32.66 60.96 -33 63 C-35.97 63.99 -35.97 63.99 -39 65 C-39.0825 64.21625 -39.165 63.4325 -39.25 62.625 C-39.72806339 59.85250896 -39.72806339 59.85250896 -42.0625 58.6875 C-42.701875 58.460625 -43.34125 58.23375 -44 58 C-44.66 59.65 -45.32 61.3 -46 63 C-46.66 63 -47.32 63 -48 63 C-47.505 66.96 -47.505 66.96 -47 71 C-46.67 70.67 -46.34 70.34 -46 70 C-41.29411765 70.70588235 -41.29411765 70.70588235 -40 72 C-38.65252916 72.23075082 -37.29622435 72.41153063 -35.9375 72.5625 C-34.638125 72.706875 -33.33875 72.85125 -32 73 C-32.185625 72.46375 -32.37125 71.9275 -32.5625 71.375 C-33.11419324 68.38009386 -32.60597444 65.96254171 -32 63 C-31.46375 62.87625 -30.9275 62.7525 -30.375 62.625 C-27.5361714 61.87793984 -24.77776798 60.94696636 -22 60 C-21.67 60.99 -21.34 61.98 -21 63 C-19.37492804 60.1668838 -19.37492804 60.1668838 -18 57 C-18.33 56.01 -18.66 55.02 -19 54 C-17.02 54 -15.04 54 -13 54 C-13 55.98 -13 57.96 -13 60 C-12.34 60.33 -11.68 60.66 -11 61 C-10.814375 60.1028125 -10.814375 60.1028125 -10.625 59.1875 C-10 57 -10 57 -8 54 C-3.18778226 53.53728676 0.52029862 54.25182385 5 56 C5 56.66 5 57.32 5 58 C5.99 58 6.98 58 8 58 C8.12375 58.639375 8.2475 59.27875 8.375 59.9375 C8.684375 60.9584375 8.684375 60.9584375 9 62 C9.66 62.33 10.32 62.66 11 63 C10.67 64.65 10.34 66.3 10 68 C9.34 68 8.68 68 8 68 C8.33 68.99 8.66 69.98 9 71 C10.65 70.67 12.3 70.34 14 70 C14 70.66 14 71.32 14 72 C15.32 71.67 16.64 71.34 18 71 C17.34 73.31 16.68 75.62 16 78 C2.73539664 78.023131 -10.52920195 78.04091897 -23.79382133 78.05181217 C-29.95256129 78.05703933 -36.11128749 78.06413398 -42.27001953 78.07543945 C-48.20924134 78.08627422 -54.14844989 78.0922781 -60.08768082 78.09487724 C-62.35797459 78.09673042 -64.6282676 78.100349 -66.89855576 78.10573006 C-70.06894268 78.11294828 -73.2392742 78.11399061 -76.40966797 78.11352539 C-77.35625275 78.11712067 -78.30283752 78.12071594 -79.27810669 78.12442017 C-80.13909973 78.1230455 -81.00009277 78.12167084 -81.88717651 78.12025452 C-83.01268575 78.12163721 -83.01268575 78.12163721 -84.16093254 78.12304783 C-86 78 -86 78 -88 77 C-88 76.34 -88 75.68 -88 75 C-88.99 75 -89.98 75 -91 75 C-91.66 74.01 -92.32 73.02 -93 72 C-93.99 71.67 -94.98 71.34 -96 71 C-95.34 69.68 -94.68 68.36 -94 67 C-92.35 67 -90.7 67 -89 67 C-89 66.01 -89 65.02 -89 64 C-91.60582371 63.06934867 -92.64198224 62.85082593 -95.25 63.9375 C-95.8275 64.288125 -96.405 64.63875 -97 65 C-96.625 63.0625 -96.625 63.0625 -96 61 C-95.01 60.505 -95.01 60.505 -94 60 C-92.86649466 57.98330173 -92.86649466 57.98330173 -92 56 C-92.99 55.01 -93.98 54.02 -95 53 C-92.64561267 51.57055055 -91.51967567 50.91338739 -88.75 51.375 C-88.1725 51.58125 -87.595 51.7875 -87 52 C-87.33 52.99 -87.66 53.98 -88 55 C-87.01 55.33 -86.02 55.66 -85 56 C-84.67 55.34 -84.34 54.68 -84 54 C-82 53.3125 -82 53.3125 -80 53 C-79.505 53.495 -79.505 53.495 -79 54 C-77.68 53.01 -76.36 52.02 -75 51 C-75.57584432 53.38564077 -76.22227595 55.66682784 -77 58 C-80.0625 59.1875 -80.0625 59.1875 -83 60 C-83 59.34 -83 58.68 -83 58 C-83.66 58 -84.32 58 -85 58 C-85 58.99 -85 59.98 -85 61 C-82.36 61 -79.72 61 -77 61 C-77 61.66 -77 62.32 -77 63 C-75.35 63.33 -73.7 63.66 -72 64 C-72 63.34 -72 62.68 -72 62 C-72.99 62 -73.98 62 -75 62 C-75 61.34 -75 60.68 -75 60 C-69.25 60.875 -69.25 60.875 -67 62 C-66.67 60.35 -66.34 58.7 -66 57 C-65.34 57.66 -64.68 58.32 -64 59 C-63.505 58.01 -63.505 58.01 -63 57 C-61.68 57 -60.36 57 -59 57 C-59 56.34 -59 55.68 -59 55 C-59.928125 55.04125 -60.85625 55.0825 -61.8125 55.125 C-65 55 -65 55 -68 53 C-66.9375 50.5625 -66.9375 50.5625 -65 48 C-61.4375 47.3125 -61.4375 47.3125 -58 47 C-57.34 46.34 -56.68 45.68 -56 45 C-55.67 45.66 -55.34 46.32 -55 47 C-55.495 47.99 -55.495 47.99 -56 49 C-55.05125 48.814375 -54.1025 48.62875 -53.125 48.4375 C-50 48 -50 48 -48 49 C-48.1141866 47.06183265 -48.24173423 45.12444901 -48.375 43.1875 C-48.47941406 41.56908203 -48.47941406 41.56908203 -48.5859375 39.91796875 C-48.81195733 36.81373814 -48.81195733 36.81373814 -51 34 C-48.525 33.505 -48.525 33.505 -46 33 C-46.99 31.35 -47.98 29.7 -49 28 C-48.34 28 -47.68 28 -47 28 C-47.495 26.02 -47.495 26.02 -48 24 C-44.846632 23.29925156 -42.27275026 23 -39 23 C-39 23.99 -39 24.98 -39 26 C-39.66 26 -40.32 26 -41 26 C-41 26.66 -41 27.32 -41 28 C-40.34 28 -39.68 28 -39 28 C-39 28.66 -39 29.32 -39 30 C-39.99 30.495 -39.99 30.495 -41 31 C-41.65213292 33.02463255 -41.65213292 33.02463255 -42 35 C-41.34 35 -40.68 35 -40 35 C-39.67 33.68 -39.34 32.36 -39 31 C-37.68 30.67 -36.36 30.34 -35 30 C-35 29.34 -35 28.68 -35 28 C-35.66 28 -36.32 28 -37 28 C-37 27.34 -37 26.68 -37 26 C-35.35 25.34 -33.7 24.68 -32 24 C-32.04125 22.783125 -32.0825 21.56625 -32.125 20.3125 C-32.13129221 16.74481659 -31.53691375 14.25464089 -30 11 C-29.64141484 9.67323492 -29.2981424 8.34164079 -29 7 C-26.69 7.33 -24.38 7.66 -22 8 C-22.50603992 10.16874252 -22.99983813 11.99967627 -24 14 C-22.948125 14.12375 -21.89625 14.2475 -20.8125 14.375 C-17 15 -17 15 -14.3125 16.125 C-11.70026891 17.11341176 -10.57576158 16.95398577 -8 16 C-8 16.66 -8 17.32 -8 18 C-6.35 17.34 -4.7 16.68 -3 16 C-3 15.01 -3 14.02 -3 13 C-2.01 12.67 -1.02 12.34 0 12 C0 10.02 0 8.04 0 6 C0.66 6 1.32 6 2 6 C2 4.68 2 3.36 2 2 C1.01 1.67 0.02 1.34 -1 1 C-0.67 0.67 -0.34 0.34 0 0 Z M15 36 C15.33 36.66 15.66 37.32 16 38 C15.34 37.67 14.68 37.34 14 37 C14.33 36.67 14.66 36.34 15 36 Z " fill="#CC9E83" transform="translate(192,105)"/>
<path d="M0 0 C0.33 0 0.66 0 1 0 C1 1.65 1 3.3 1 5 C1.99 5 2.98 5 4 5 C2.25 9.875 2.25 9.875 0 11 C-0.91031272 13.34386809 -0.91031272 13.34386809 -1.625 16.0625 C-1.88539062 16.98160156 -2.14578125 17.90070313 -2.4140625 18.84765625 C-2.60742188 19.55792969 -2.80078125 20.26820313 -3 21 C-2.34 20.67 -1.68 20.34 -1 20 C1.6723621 19.86584528 4.32250488 19.95681459 7 20 C7 19.34 7 18.68 7 18 C7.66 18 8.32 18 9 18 C9 19.32 9 20.64 9 22 C6.03 22 3.06 22 0 22 C0 22.66 0 23.32 0 24 C2.64 24 5.28 24 8 24 C8 24.99 8 25.98 8 27 C8.66 27 9.32 27 10 27 C10.33 25.68 10.66 24.36 11 23 C11.33 23.33 11.66 23.66 12 24 C12.2236068 21.0745356 12.2236068 21.0745356 11 19 C13.64 19.33 16.28 19.66 19 20 C19 19.34 19 18.68 19 18 C19.99 18.33 20.98 18.66 22 19 C22.33 17.02 22.66 15.04 23 13 C24.32 13.33 25.64 13.66 27 14 C27 13.01 27 12.02 27 11 C25.02 11 23.04 11 21 11 C20.505 9.515 20.505 9.515 20 8 C19.34 7.34 18.68 6.68 18 6 C20.31 6.33 22.62 6.66 25 7 C25 7.66 25 8.32 25 9 C25.61875 9.2475 26.2375 9.495 26.875 9.75 C29.35068687 11.20628639 29.95125002 12.37812506 31 15 C31.66 15 32.32 15 33 15 C33.66 13.68 34.32 12.36 35 11 C35.99 11 36.98 11 38 11 C38 12.65 38 14.3 38 16 C36.02 16.99 34.04 17.98 32 19 C36.46726453 22.31442207 40.62007164 22.66009167 46 23 C45.505 21.02 45.505 21.02 45 19 C46.175625 19.0928125 46.175625 19.0928125 47.375 19.1875 C48.24125 19.125625 49.1075 19.06375 50 19 C50.99 17.515 50.99 17.515 52 16 C51.01 15.505 51.01 15.505 50 15 C50 15.66 50 16.32 50 17 C49.34 16.67 48.68 16.34 48 16 C48.33 15.34 48.66 14.68 49 14 C48.34 14 47.68 14 47 14 C47 12.68 47 11.36 47 10 C47.66 10 48.32 10 49 10 C49.33 9.34 49.66 8.68 50 8 C50.66 8 51.32 8 52 8 C52.66 7.34 53.32 6.68 54 6 C54.495 7.98 54.495 7.98 55 10 C54.01 10 53.02 10 52 10 C52 11.32 52 12.64 52 14 C54.64 14.33 57.28 14.66 60 15 C60 14.34 60 13.68 60 13 C60.66 13 61.32 13 62 13 C62.495 14.98 62.495 14.98 63 17 C60.69 17 58.38 17 56 17 C55.19032562 19.91482778 54.78154007 21.46113217 55.9375 24.3125 C56.288125 24.869375 56.63875 25.42625 57 26 C55.68 26.66 54.36 27.32 53 28 C53.99 28.99 53.99 28.99 55 30 C55.1953125 32.8203125 55.1953125 32.8203125 55.125 36.125 C55.10695313 37.22070312 55.08890625 38.31640625 55.0703125 39.4453125 C55.04710937 40.28835937 55.02390625 41.13140625 55 42 C52.36 42 49.72 42 47 42 C46.67 41.01 46.34 40.02 46 39 C46 39.66 46 40.32 46 41 C43.36 41 40.72 41 38 41 C37.34 42.65 36.68 44.3 36 46 C38.6739124 46.89130413 41.23723823 47.47731534 44 48 C44 48.66 44 49.32 44 50 C42.68 50 41.36 50 40 50 C39.67 50.99 39.34 51.98 39 53 C38.34 52.34 37.68 51.68 37 51 C36.67 52.32 36.34 53.64 36 55 C33.36 54.34 30.72 53.68 28 53 C28 53.66 28 54.32 28 55 C28.99 55 29.98 55 31 55 C31 55.66 31 56.32 31 57 C29.35 56.67 27.7 56.34 26 56 C26 55.34 26 54.68 26 54 C24.576875 54.2784375 24.576875 54.2784375 23.125 54.5625 C20 55 20 55 18 54 C18 53.01 18 52.02 18 51 C18.66 51 19.32 51 20 51 C20 51.66 20 52.32 20 53 C21.98 52.34 23.96 51.68 26 51 C26.33 49.02 26.66 47.04 27 45 C25.68 46.32 24.36 47.64 23 49 C22.34 48.34 21.68 47.68 21 47 C20.01 47.66 19.02 48.32 18 49 C15.8125 48.625 15.8125 48.625 14 48 C14.66 47.67 15.32 47.34 16 47 C16 46.34 16 45.68 16 45 C14.02 45 12.04 45 10 45 C9.505 45.99 9.505 45.99 9 47 C9.99 47.66 10.98 48.32 12 49 C10.625 51.5 10.625 51.5 9 54 C8.34 54 7.68 54 7 54 C7 54.99 7 55.98 7 57 C8.32 56.34 9.64 55.68 11 55 C11 55.66 11 56.32 11 57 C12.98 56.505 12.98 56.505 15 56 C14.67 57.65 14.34 59.3 14 61 C13.21625 60.938125 12.4325 60.87625 11.625 60.8125 C10.325625 60.9053125 10.325625 60.9053125 9 61 C8.34 61.99 7.68 62.98 7 64 C7.639375 64.103125 8.27875 64.20625 8.9375 64.3125 C9.618125 64.539375 10.29875 64.76625 11 65 C11.33 65.99 11.66 66.98 12 68 C12.99 68 13.98 68 15 68 C15 68.66 15 69.32 15 70 C15.99 70.495 15.99 70.495 17 71 C0.5 71 -16 71 -33 71 C-33.33 70.34 -33.66 69.68 -34 69 C-34.639375 68.896875 -35.27875 68.79375 -35.9375 68.6875 C-36.618125 68.460625 -37.29875 68.23375 -38 68 C-39.25 65.4375 -39.25 65.4375 -40 63 C-38.02 63 -36.04 63 -34 63 C-34 63.66 -34 64.32 -34 65 C-32.68 65.33 -31.36 65.66 -30 66 C-30 65.34 -30 64.68 -30 64 C-27 65 -27 65 -25 66 C-25 65.01 -25 64.02 -25 63 C-25.66 63 -26.32 63 -27 63 C-27 62.34 -27 61.68 -27 61 C-26.21625 60.71125 -25.4325 60.4225 -24.625 60.125 C-21.90328368 59.15087746 -21.90328368 59.15087746 -20 57 C-19.01 57.66 -18.02 58.32 -17 59 C-15.515 58.505 -15.515 58.505 -14 58 C-13.34 58.33 -12.68 58.66 -12 59 C-11.67 58.01 -11.34 57.02 -11 56 C-10.34 56 -9.68 56 -9 56 C-9.33 57.32 -9.66 58.64 -10 60 C-10.66 60 -11.32 60 -12 60 C-11.67 60.99 -11.34 61.98 -11 63 C-10.34 62.34 -9.68 61.68 -9 61 C-6.34462628 60.43479997 -3.70855287 60.26211802 -1 60 C-1 56.7 -1 53.4 -1 50 C-2.65 50 -4.3 50 -6 50 C-6 49.01 -6 48.02 -6 47 C-6.99 46.67 -7.98 46.34 -9 46 C-8.42655063 43.13275314 -8.1385485 42.1385485 -6 40 C-3.375 39.375 -3.375 39.375 -1 39 C-1 37.68 -1 36.36 -1 35 C0.32 35.33 1.64 35.66 3 36 C2.67 35.01 2.34 34.02 2 33 C2.763125 33.020625 3.52625 33.04125 4.3125 33.0625 C7.10185786 33.12942841 7.10185786 33.12942841 10 32 C10 30.68 10 29.36 10 28 C9.51015625 28.65484375 9.0203125 29.3096875 8.515625 29.984375 C5.04964249 32.76146657 1.98242189 32.44442221 -2.25 32.25 C-2.99507812 32.23195312 -3.74015625 32.21390625 -4.5078125 32.1953125 C-6.33909701 32.14835649 -8.16971649 32.07661652 -10 32 C-9.67 30.68 -9.34 29.36 -9 28 C-8.01 28 -7.02 28 -6 28 C-6.495 26.02 -6.495 26.02 -7 24 C-6.34 24 -5.68 24 -5 24 C-4.83322718 20.58343976 -4.83322718 20.58343976 -5 17 C-5.66 16.34 -6.32 15.68 -7 15 C-6.01 15 -5.02 15 -4 15 C-3.46809459 13.56656 -2.94984742 12.12804633 -2.4375 10.6875 C-2.00244141 9.48673828 -2.00244141 9.48673828 -1.55859375 8.26171875 C-0.75084375 5.8566826 -0.75084375 5.8566826 -2 3 C-1.34 3 -0.68 3 0 3 C0 2.01 0 1.02 0 0 Z " fill="#D5A98E" transform="translate(89,112)"/>
<path d="M0 0 C0.495 0.99 0.495 0.99 1 2 C6.7974423 2.24428343 6.7974423 2.24428343 12 0 C13 3 13 3 12.0625 5.1875 C11.711875 5.785625 11.36125 6.38375 11 7 C9.35 7 7.7 7 6 7 C5.67 7.99 5.34 8.98 5 10 C4.67 10.99 4.34 11.98 4 13 C3.34 13 2.68 13 2 13 C2.66 13.61875 3.32 14.2375 4 14.875 C6 17 6 17 6 19 C6.99 19.33 7.98 19.66 9 20 C9.99 20.66 10.98 21.32 12 22 C13.32567199 22.68177416 14.65753688 23.35191436 16 24 C15.34 25.32 14.68 26.64 14 28 C12.515 27.505 12.515 27.505 11 27 C7.94729537 26.84188612 7.94729537 26.84188612 5 28 C5.20625 28.7425 5.4125 29.485 5.625 30.25 C6.05320737 33.3901874 5.59182706 34.3469549 4 37 C3.67 37.99 3.34 38.98 3 40 C3.99 40.495 3.99 40.495 5 41 C3.25 43 3.25 43 1 45 C-0.32 45 -1.64 45 -3 45 C-3 45.66 -3 46.32 -3 47 C-1.35 47 0.3 47 2 47 C2 47.99 2 48.98 2 50 C-0.31 50 -2.62 50 -5 50 C-3.93354885 51.29633621 -3.93354885 51.29633621 -1.4375 51.0625 C-0.633125 51.041875 0.17125 51.02125 1 51 C0.505 51.99 0.505 51.99 0 53 C-1.98 53 -3.96 53 -6 53 C-5.505 56.96 -5.505 56.96 -5 61 C-5.99 60.67 -6.98 60.34 -8 60 C-8 58.02 -8 56.04 -8 54 C-9.65 54 -11.3 54 -13 54 C-13.495 52.02 -13.495 52.02 -14 50 C-14.33 51.65 -14.66 53.3 -15 55 C-16.32 54.67 -17.64 54.34 -19 54 C-19.33 54.99 -19.66 55.98 -20 57 C-20.66 57 -21.32 57 -22 57 C-22 55.68 -22 54.36 -22 53 C-21.34 53 -20.68 53 -20 53 C-20.33 52.01 -20.66 51.02 -21 50 C-21.33 50 -21.66 50 -22 50 C-22.33 50.99 -22.66 51.98 -23 53 C-24.485 53.495 -24.485 53.495 -26 54 C-26 54.66 -26 55.32 -26 56 C-26.66 56 -27.32 56 -28 56 C-28 55.34 -28 54.68 -28 54 C-29.11375 53.814375 -29.11375 53.814375 -30.25 53.625 C-32.80141485 53.04513299 -34.7267573 52.26291261 -37 51 C-37 51.66 -37 52.32 -37 53 C-36.34 53 -35.68 53 -35 53 C-35 53.66 -35 54.32 -35 55 C-36.485 54.505 -36.485 54.505 -38 54 C-38.45375 54.495 -38.9075 54.99 -39.375 55.5 C-41 57 -41 57 -43 57 C-43.495 55.515 -43.495 55.515 -44 54 C-46.31 53.67 -48.62 53.34 -51 53 C-51 52.34 -51 51.68 -51 51 C-52.485 51.495 -52.485 51.495 -54 52 C-54 51.34 -54 50.68 -54 50 C-49.545 49.505 -49.545 49.505 -45 49 C-45 48.01 -45 47.02 -45 46 C-46.32 46 -47.64 46 -49 46 C-49.5625 44.0625 -49.5625 44.0625 -50 42 C-49.505 41.505 -49.505 41.505 -49 41 C-49 40.34 -49 39.68 -49 39 C-47.35 38.34 -45.7 37.68 -44 37 C-44 37.66 -44 38.32 -44 39 C-43.34 39 -42.68 39 -42 39 C-41.67 39.99 -41.34 40.98 -41 42 C-41 40.68 -41 39.36 -41 38 C-40.01 38.33 -39.02 38.66 -38 39 C-37.67 40.65 -37.34 42.3 -37 44 C-38.32 44.66 -39.64 45.32 -41 46 C-37.75784173 47.08557659 -35.97678191 46.94015194 -32.8125 45.6875 C-31.77029297 45.29111328 -31.77029297 45.29111328 -30.70703125 44.88671875 C-28.81265597 44.1149599 -28.81265597 44.1149599 -28 42 C-30.97 42.495 -30.97 42.495 -34 43 C-34.495 40.525 -34.495 40.525 -35 38 C-34.01 38 -33.02 38 -32 38 C-32.33 37.34 -32.66 36.68 -33 36 C-33.99 36 -34.98 36 -36 36 C-36.33 36.99 -36.66 37.98 -37 39 C-37.495 36.525 -37.495 36.525 -38 34 C-40.64 34.66 -43.28 35.32 -46 36 C-46 35.34 -46 34.68 -46 34 C-46.99 34 -47.98 34 -49 34 C-49.33 34.99 -49.66 35.98 -50 37 C-50.33 36.34 -50.66 35.68 -51 35 C-51.66 34.67 -52.32 34.34 -53 34 C-53 31.36 -53 28.72 -53 26 C-53.99 25.67 -54.98 25.34 -56 25 C-54.25 24.375 -54.25 24.375 -52 24 C-50.65863633 24.65035814 -49.32467746 25.3162955 -48 26 C-47.01 25.67 -46.02 25.34 -45 25 C-44.67 24.34 -44.34 23.68 -44 23 C-42.02 23 -40.04 23 -38 23 C-38 22.34 -38 21.68 -38 21 C-37.690625 20.1028125 -37.690625 20.1028125 -37.375 19.1875 C-36.77882047 16.89420557 -36.77882047 16.89420557 -38.0625 14.5 C-39 12 -39 12 -38.125 9.6875 C-37.75375 9.130625 -37.3825 8.57375 -37 8 C-34.525 8.495 -34.525 8.495 -32 9 C-32.99 10.485 -32.99 10.485 -34 12 C-34.99 12 -35.98 12 -37 12 C-37 12.66 -37 13.32 -37 14 C-36.01 14 -35.02 14 -34 14 C-34 14.66 -34 15.32 -34 16 C-33.34 16 -32.68 16 -32 16 C-32 14.68 -32 13.36 -32 12 C-31.01 12 -30.02 12 -29 12 C-28.375 13.875 -28.375 13.875 -28 16 C-28.66 16.66 -29.32 17.32 -30 18 C-29.01 18.33 -28.02 18.66 -27 19 C-27 20.98 -27 22.96 -27 25 C-27.66 25 -28.32 25 -29 25 C-29 25.66 -29 26.32 -29 27 C-27.68 26.67 -26.36 26.34 -25 26 C-25 27.65 -25 29.3 -25 31 C-24.236875 30.814375 -23.47375 30.62875 -22.6875 30.4375 C-20 30 -20 30 -17 31 C-17 31.66 -17 32.32 -17 33 C-14.7522025 30.94766315 -13.9977758 29.99332739 -13 27 C-14.28725907 25.29749607 -15.62131719 23.62935241 -17 22 C-17 21.34 -17 20.68 -17 20 C-17.66 20 -18.32 20 -19 20 C-19.28875 18.88625 -19.5775 17.7725 -19.875 16.625 C-20.69241329 12.99708908 -20.69241329 12.99708908 -23 11 C-21.68 10.34 -20.36 9.68 -19 9 C-18 10 -18 10 -17.90234375 11.84765625 C-17.93489583 13.8984375 -17.96744792 15.94921875 -18 18 C-13.94393835 17.53199289 -10.53411321 17.12046792 -7 15 C-7.495 14.01 -7.495 14.01 -8 13 C-8 12.01 -8 11.02 -8 10 C-7.01 9.34 -6.02 8.68 -5 8 C-4.67 7.01 -4.34 6.02 -4 5 C-3.34 4.67 -2.68 4.34 -2 4 C-0.86649466 1.98330173 -0.86649466 1.98330173 0 0 Z M-30 27 C-29 29 -29 29 -29 29 Z " fill="#E6BBA3" transform="translate(189,22)"/>
<path d="M0 0 C0.825 0.185625 1.65 0.37125 2.5 0.5625 C3.49 0.2325 4.48 -0.0975 5.5 -0.4375 C6.5 0.5625 6.5 0.5625 6.5625 3.625 C6.541875 4.594375 6.52125 5.56375 6.5 6.5625 C5.51 6.2325 4.52 5.9025 3.5 5.5625 C3.17 6.5525 2.84 7.5425 2.5 8.5625 C1.18 8.5625 -0.14 8.5625 -1.5 8.5625 C1.67539556 11.98828949 1.67539556 11.98828949 5.5 14.5625 C6.16 13.9025 6.82 13.2425 7.5 12.5625 C7.5 13.2225 7.5 13.8825 7.5 14.5625 C8.16 14.5625 8.82 14.5625 9.5 14.5625 C9.5 15.2225 9.5 15.8825 9.5 16.5625 C11.81 16.5625 14.12 16.5625 16.5 16.5625 C16.5 18.5425 16.5 20.5225 16.5 22.5625 C16.17 22.5625 15.84 22.5625 15.5 22.5625 C15.5 20.9125 15.5 19.2625 15.5 17.5625 C13.19 17.8925 10.88 18.2225 8.5 18.5625 C8.355625 19.34625 8.21125 20.13 8.0625 20.9375 C7.5 23.5625 7.5 23.5625 6.5 25.5625 C7.985 26.0575 7.985 26.0575 9.5 26.5625 C9.995 29.0375 9.995 29.0375 10.5 31.5625 C9.015 32.0575 9.015 32.0575 7.5 32.5625 C9.48 33.0575 9.48 33.0575 11.5 33.5625 C11.5 34.2225 11.5 34.8825 11.5 35.5625 C12.49 35.5625 13.48 35.5625 14.5 35.5625 C14.5 34.5725 14.5 33.5825 14.5 32.5625 C15.16 32.5625 15.82 32.5625 16.5 32.5625 C16.1875 34.5 16.1875 34.5 15.5 36.5625 C14.015 37.0575 14.015 37.0575 12.5 37.5625 C12.5 38.2225 12.5 38.8825 12.5 39.5625 C13.16 39.8925 13.82 40.2225 14.5 40.5625 C14.17 41.8825 13.84 43.2025 13.5 44.5625 C11.85 44.2325 10.2 43.9025 8.5 43.5625 C8.5 42.5725 8.5 41.5825 8.5 40.5625 C7.3553125 40.9028125 7.3553125 40.9028125 6.1875 41.25 C3.5 41.5625 3.5 41.5625 1.6875 40.25 C0.5 38.5625 0.5 38.5625 0.5 36.5625 C1.49 36.5625 2.48 36.5625 3.5 36.5625 C3.23323796 34.57758358 3.23323796 34.57758358 2.5 32.5625 C1.015 32.0675 1.015 32.0675 -0.5 31.5625 C-0.83 29.9125 -1.16 28.2625 -1.5 26.5625 C-2.82 26.2325 -4.14 25.9025 -5.5 25.5625 C-5.5 23.5825 -5.5 21.6025 -5.5 19.5625 C-6.16 19.5625 -6.82 19.5625 -7.5 19.5625 C-7.5 20.8825 -7.5 22.2025 -7.5 23.5625 C-9.15 23.2325 -10.8 22.9025 -12.5 22.5625 C-12.5 23.2225 -12.5 23.8825 -12.5 24.5625 C-11.18 25.2225 -9.86 25.8825 -8.5 26.5625 C-8.995 27.0575 -8.995 27.0575 -9.5 27.5625 C-8.84 27.8925 -8.18 28.2225 -7.5 28.5625 C-7.5 29.5525 -7.5 30.5425 -7.5 31.5625 C-6.84 31.5625 -6.18 31.5625 -5.5 31.5625 C-5.5 30.9025 -5.5 30.2425 -5.5 29.5625 C-4.51 29.5625 -3.52 29.5625 -2.5 29.5625 C-2.5 30.5525 -2.5 31.5425 -2.5 32.5625 C-1.51 32.8925 -0.52 33.2225 0.5 33.5625 C-2.5 35.5625 -2.5 35.5625 -4.5 35.5625 C-4.83 34.9025 -5.16 34.2425 -5.5 33.5625 C-6.015625 34.0575 -6.53125 34.5525 -7.0625 35.0625 C-10.30680017 37.05899241 -12.76217334 36.77814385 -16.5 36.5625 C-16.83 35.9025 -17.16 35.2425 -17.5 34.5625 C-18.49 35.8825 -19.48 37.2025 -20.5 38.5625 C-20.5825 37.94375 -20.665 37.325 -20.75 36.6875 C-21.31258459 34.37812433 -21.31258459 34.37812433 -23.5625 33.3125 C-24.201875 33.065 -24.84125 32.8175 -25.5 32.5625 C-25.5 34.2125 -25.5 35.8625 -25.5 37.5625 C-26.49 37.5625 -27.48 37.5625 -28.5 37.5625 C-28.5 38.2225 -28.5 38.8825 -28.5 39.5625 C-27.51 39.8925 -26.52 40.2225 -25.5 40.5625 C-24.2018576 39.4134288 -24.2018576 39.4134288 -23.5 36.5625 C-21.09185923 40.07437196 -20.13370592 42.28906908 -20.5 46.5625 C-21.16 46.5625 -21.82 46.5625 -22.5 46.5625 C-22.83 47.8825 -23.16 49.2025 -23.5 50.5625 C-24.16 50.5625 -24.82 50.5625 -25.5 50.5625 C-25.995 51.5525 -25.995 51.5525 -26.5 52.5625 C-26.83 52.8925 -27.16 53.2225 -27.5 53.5625 C-27.86442233 55.22264616 -28.19972883 56.88956064 -28.5 58.5625 C-29.49 58.5625 -30.48 58.5625 -31.5 58.5625 C-31.5 57.9025 -31.5 57.2425 -31.5 56.5625 C-30.51 56.5625 -29.52 56.5625 -28.5 56.5625 C-29.49 55.2425 -30.48 53.9225 -31.5 52.5625 C-31.83 53.5525 -32.16 54.5425 -32.5 55.5625 C-33.49 55.2325 -34.48 54.9025 -35.5 54.5625 C-34.84 53.5725 -34.18 52.5825 -33.5 51.5625 C-34.16 51.5625 -34.82 51.5625 -35.5 51.5625 C-35.5 52.2225 -35.5 52.8825 -35.5 53.5625 C-36.82 53.5625 -38.14 53.5625 -39.5 53.5625 C-39.5 52.9025 -39.5 52.2425 -39.5 51.5625 C-41.48 52.5525 -43.46 53.5425 -45.5 54.5625 C-45.5 55.2225 -45.5 55.8825 -45.5 56.5625 C-44.84 56.8925 -44.18 57.2225 -43.5 57.5625 C-43.5 56.5725 -43.5 55.5825 -43.5 54.5625 C-42.84 54.5625 -42.18 54.5625 -41.5 54.5625 C-42.25 60.3125 -42.25 60.3125 -44.5 62.5625 C-42.94098818 64.70829161 -42.94098818 64.70829161 -40.5 66.5625 C-36.8324787 66.89667929 -36.8324787 66.89667929 -33.5 66.5625 C-33.83 67.8825 -34.16 69.2025 -34.5 70.5625 C-33.84 70.8925 -33.18 71.2225 -32.5 71.5625 C-33.16 72.8825 -33.82 74.2025 -34.5 75.5625 C-35.16 75.5625 -35.82 75.5625 -36.5 75.5625 C-36.5 74.5725 -36.5 73.5825 -36.5 72.5625 C-37.16 72.5625 -37.82 72.5625 -38.5 72.5625 C-38.005 71.0775 -38.005 71.0775 -37.5 69.5625 C-38.985 70.0575 -38.985 70.0575 -40.5 70.5625 C-41.985 71.0575 -41.985 71.0575 -43.5 71.5625 C-43.5 70.2425 -43.5 68.9225 -43.5 67.5625 C-44.49 68.5525 -44.49 68.5525 -45.5 69.5625 C-47.625 69.1875 -47.625 69.1875 -49.5 68.5625 C-49.5 67.2425 -49.5 65.9225 -49.5 64.5625 C-48.51 64.0675 -48.51 64.0675 -47.5 63.5625 C-48.16 62.9025 -48.82 62.2425 -49.5 61.5625 C-48.51 60.9025 -47.52 60.2425 -46.5 59.5625 C-48.81 58.9025 -51.12 58.2425 -53.5 57.5625 C-53.5 57.2325 -53.5 56.9025 -53.5 56.5625 C-51.025 56.0675 -51.025 56.0675 -48.5 55.5625 C-49.68424326 54.14672523 -49.68424326 54.14672523 -53.0625 54.5 C-54.7640625 54.5309375 -54.7640625 54.5309375 -56.5 54.5625 C-56.17 57.5325 -55.84 60.5025 -55.5 63.5625 C-57.48 63.2325 -59.46 62.9025 -61.5 62.5625 C-61.5 61.5725 -61.5 60.5825 -61.5 59.5625 C-60.18 59.5625 -58.86 59.5625 -57.5 59.5625 C-57.83 58.9025 -58.16 58.2425 -58.5 57.5625 C-60.82156597 57.15520772 -63.1568787 56.81811323 -65.5 56.5625 C-65.17 55.5725 -64.84 54.5825 -64.5 53.5625 C-63.51 53.0675 -63.51 53.0675 -62.5 52.5625 C-62.83 49.5925 -63.16 46.6225 -63.5 43.5625 C-62.695625 43.43875 -61.89125 43.315 -61.0625 43.1875 C-60.216875 42.98125 -59.37125 42.775 -58.5 42.5625 C-58.17 41.9025 -57.84 41.2425 -57.5 40.5625 C-56.51 40.8925 -55.52 41.2225 -54.5 41.5625 C-54.995 42.0575 -54.995 42.0575 -55.5 42.5625 C-54.84 43.2225 -54.18 43.8825 -53.5 44.5625 C-53.83 45.2225 -54.16 45.8825 -54.5 46.5625 C-53.18 46.8925 -51.86 47.2225 -50.5 47.5625 C-51.985 48.0575 -51.985 48.0575 -53.5 48.5625 C-53.5 49.2225 -53.5 49.8825 -53.5 50.5625 C-51.025 50.0675 -51.025 50.0675 -48.5 49.5625 C-48.5 50.2225 -48.5 50.8825 -48.5 51.5625 C-47.84 51.5625 -47.18 51.5625 -46.5 51.5625 C-46.5 50.2425 -46.5 48.9225 -46.5 47.5625 C-45.015 48.0575 -45.015 48.0575 -43.5 48.5625 C-43.5 49.2225 -43.5 49.8825 -43.5 50.5625 C-41.52 50.0675 -41.52 50.0675 -39.5 49.5625 C-39.17 46.5925 -38.84 43.6225 -38.5 40.5625 C-39.16 40.5625 -39.82 40.5625 -40.5 40.5625 C-40.995 38.0875 -40.995 38.0875 -41.5 35.5625 C-38.82521756 33.8997974 -36.5004856 32.56266187 -33.5 31.5625 C-33.17 29.2525 -32.84 26.9425 -32.5 24.5625 C-31.51 24.5625 -30.52 24.5625 -29.5 24.5625 C-28.51 24.2325 -27.52 23.9025 -26.5 23.5625 C-26.314375 22.2321875 -26.314375 22.2321875 -26.125 20.875 C-25.55587264 17.85862498 -24.73385564 15.35923946 -23.5 12.5625 C-21.85 12.5625 -20.2 12.5625 -18.5 12.5625 C-18.5 13.2225 -18.5 13.8825 -18.5 14.5625 C-14.66865501 14.781434 -11.91557141 14.36516269 -8.5 12.5625 C-7.49187079 9.53811237 -6.6789341 6.5764599 -6.125 3.4375 C-5.03653454 0.17210362 -3.25669883 -0.5699223 0 0 Z M-36.5 37.5625 C-36.17 38.2225 -35.84 38.8825 -35.5 39.5625 C-35.17 38.9025 -34.84 38.2425 -34.5 37.5625 C-35.16 37.5625 -35.82 37.5625 -36.5 37.5625 Z M-36.5 70.5625 C-35.5 72.5625 -35.5 72.5625 -35.5 72.5625 Z M-20.5 6.5625 C-18.85 6.5625 -17.2 6.5625 -15.5 6.5625 C-15.17 7.2225 -14.84 7.8825 -14.5 8.5625 C-15.4375 10.6875 -15.4375 10.6875 -16.5 12.5625 C-17.16 12.5625 -17.82 12.5625 -18.5 12.5625 C-18.5 11.2425 -18.5 9.9225 -18.5 8.5625 C-19.16 8.5625 -19.82 8.5625 -20.5 8.5625 C-20.5 7.9025 -20.5 7.2425 -20.5 6.5625 Z M-38.5 55.5625 C-37.51 55.8925 -36.52 56.2225 -35.5 56.5625 C-36.49 56.8925 -37.48 57.2225 -38.5 57.5625 C-38.5 56.9025 -38.5 56.2425 -38.5 55.5625 Z " fill="#E9BEA4" transform="translate(121.5,46.4375)"/>
<path d="M0 0 C1.98 0 3.96 0 6 0 C6 1.98 6 3.96 6 6 C6.66 6.33 7.32 6.66 8 7 C8.185625 6.1028125 8.185625 6.1028125 8.375 5.1875 C9 3 9 3 11 0 C15.81221774 -0.46271324 19.52029862 0.25182385 24 2 C24 2.66 24 3.32 24 4 C24.99 4 25.98 4 27 4 C27.12375 4.639375 27.2475 5.27875 27.375 5.9375 C27.684375 6.9584375 27.684375 6.9584375 28 8 C28.99 8.495 28.99 8.495 30 9 C29.67 10.65 29.34 12.3 29 14 C28.34 14 27.68 14 27 14 C27.495 15.485 27.495 15.485 28 17 C29.65 16.67 31.3 16.34 33 16 C33 16.66 33 17.32 33 18 C34.32 17.67 35.64 17.34 37 17 C36.01 20.465 36.01 20.465 35 24 C9.92 24 -15.16 24 -41 24 C-41 23.01 -41 22.02 -41 21 C-42.32 20.67 -43.64 20.34 -45 20 C-42.33333333 17.33333333 -39.66666667 14.66666667 -37 12 C-37.33 13.65 -37.66 15.3 -38 17 C-36.9275 16.814375 -35.855 16.62875 -34.75 16.4375 C-31.4461133 16.05204655 -30.03949376 16.16151896 -27 17 C-26.29875 16.814375 -25.5975 16.62875 -24.875 16.4375 C-24.25625 16.293125 -23.6375 16.14875 -23 16 C-22.34 16.66 -21.68 17.32 -21 18 C-18.34462628 18.56520003 -15.70855287 18.73788198 -13 19 C-13.185625 18.46375 -13.37125 17.9275 -13.5625 17.375 C-14.11419324 14.38009386 -13.60597444 11.96254171 -13 9 C-12.46375 8.87625 -11.9275 8.7525 -11.375 8.625 C-8.5361714 7.87793984 -5.77776798 6.94696636 -3 6 C-2.505 7.485 -2.505 7.485 -2 9 C-0.37492804 6.1668838 -0.37492804 6.1668838 1 3 C0.505 1.515 0.505 1.515 0 0 Z " fill="#BE9075" transform="translate(173,159)"/>
<path d="M0 0 C0.66 0 1.32 0 2 0 C2 1.98 2 3.96 2 6 C3.65 6 5.3 6 7 6 C7 7.98 7 9.96 7 12 C8.32 12.33 9.64 12.66 11 13 C11 14.32 11 15.64 11 17 C10.01 17 9.02 17 8 17 C8.5053125 17.61488281 9.010625 18.22976562 9.53125 18.86328125 C10.1809375 19.67152344 10.830625 20.47976562 11.5 21.3125 C12.1496875 22.11300781 12.799375 22.91351563 13.46875 23.73828125 C15 26 15 26 15 29 C15.99 29.33 16.98 29.66 18 30 C18 30.66 18 31.32 18 32 C14.535 32.495 14.535 32.495 11 33 C11 34.32 11 35.64 11 37 C5.25 37.125 5.25 37.125 3 36 C3.12375 37.11375 3.12375 37.11375 3.25 38.25 C2.92655478 41.80789745 1.62196358 42.69585019 -1 45 C-1.33 45.66 -1.66 46.32 -2 47 C-3.65 47 -5.3 47 -7 47 C-7 46.34 -7 45.68 -7 45 C-5 43.375 -5 43.375 -3 42 C-3.66 41.67 -4.32 41.34 -5 41 C-5 41.66 -5 42.32 -5 43 C-6.32 42.67 -7.64 42.34 -9 42 C-8.67 40.68 -8.34 39.36 -8 38 C-9.32 37.34 -10.64 36.68 -12 36 C-12 36.99 -12 37.98 -12 39 C-12.66 39 -13.32 39 -14 39 C-14.33 38.34 -14.66 37.68 -15 37 C-15.99 37 -16.98 37 -18 37 C-18 37.66 -18 38.32 -18 39 C-17.34 39 -16.68 39 -16 39 C-15.67 39.99 -15.34 40.98 -15 42 C-17.07553648 42.5534764 -18.84365964 43 -21 43 C-21 42.01 -21 41.02 -21 40 C-20.34 40 -19.68 40 -19 40 C-18.95101562 39.36191406 -18.90203125 38.72382812 -18.8515625 38.06640625 C-18.77679688 37.24011719 -18.70203125 36.41382813 -18.625 35.5625 C-18.55539063 34.73878906 -18.48578125 33.91507813 -18.4140625 33.06640625 C-18.20910156 32.04353516 -18.20910156 32.04353516 -18 31 C-17.34 30.67 -16.68 30.34 -16 30 C-15.67 29.01 -15.34 28.02 -15 27 C-14.34 27 -13.68 27 -13 27 C-13.96776098 23.20452079 -13.96776098 23.20452079 -16 20 C-16.66 21.32 -17.32 22.64 -18 24 C-18 23.34 -18 22.68 -18 22 C-18.99 21.67 -19.98 21.34 -21 21 C-21 20.01 -21 19.02 -21 18 C-20.01 18 -19.02 18 -18 18 C-18.33 17.01 -18.66 16.02 -19 15 C-18.67 14.34 -18.34 13.68 -18 13 C-16.824375 13.495 -16.824375 13.495 -15.625 14 C-12.23006412 15.29330891 -10.42677022 14.91380539 -7 14 C-7.99 14.495 -7.99 14.495 -9 15 C-9 15.66 -9 16.32 -9 17 C-4.44262737 16.56179109 -1.42346555 16.14958831 2 13 C2.66 13.33 3.32 13.66 4 14 C3.67 14.66 3.34 15.32 3 16 C4.32 15.34 5.64 14.68 7 14 C6.34 13.67 5.68 13.34 5 13 C5 12.01 5 11.02 5 10 C4.01 10 3.02 10 2 10 C2 10.66 2 11.32 2 12 C1.34 12 0.68 12 0 12 C0 11.01 0 10.02 0 9 C-0.99 8.67 -1.98 8.34 -3 8 C-2.67 7.67 -2.34 7.34 -2 7 C-3.32 6.34 -4.64 5.68 -6 5 C-5.67 4.01 -5.34 3.02 -5 2 C-4.67 2.66 -4.34 3.32 -4 4 C-2.68 4 -1.36 4 0 4 C0 2.68 0 1.36 0 0 Z " fill="#E3B79E" transform="translate(114,66)"/>
<path d="M0 0 C0.8971875 0.309375 0.8971875 0.309375 1.8125 0.625 C1.8125 1.285 1.8125 1.945 1.8125 2.625 C0.8225 2.625 -0.1675 2.625 -1.1875 2.625 C-1.1875 3.285 -1.1875 3.945 -1.1875 4.625 C2.43778568 4.82640476 4.67751708 4.48276765 7.8125 2.625 C8.1425 3.615 8.4725 4.605 8.8125 5.625 C8.8125 3.645 8.8125 1.665 8.8125 -0.375 C9.1425 -0.375 9.4725 -0.375 9.8125 -0.375 C10.1425 1.935 10.4725 4.245 10.8125 6.625 C11.43898438 6.4084375 12.06546875 6.191875 12.7109375 5.96875 C13.52820313 5.6903125 14.34546875 5.411875 15.1875 5.125 C15.99960938 4.8465625 16.81171875 4.568125 17.6484375 4.28125 C19.8125 3.625 19.8125 3.625 21.8125 3.625 C24.10263653 7.0602048 23.99092973 8.610331 23.8125 12.625 C24.4725 11.965 25.1325 11.305 25.8125 10.625 C25.8125 11.285 25.8125 11.945 25.8125 12.625 C26.8025 12.955 27.7925 13.285 28.8125 13.625 C28.19375 14.058125 27.575 14.49125 26.9375 14.9375 C24.5927755 16.62240483 24.5927755 16.62240483 22.8125 19.625 C22.1525 19.295 21.4925 18.965 20.8125 18.625 C21.1425 17.305 21.4725 15.985 21.8125 14.625 C20.8225 15.12 20.8225 15.12 19.8125 15.625 C19.15477572 18.65434491 19.15477572 18.65434491 18.8125 21.625 C17.1625 21.625 15.5125 21.625 13.8125 21.625 C14.1425 20.305 14.4725 18.985 14.8125 17.625 C15.8025 17.625 16.7925 17.625 17.8125 17.625 C16.8225 16.305 15.8325 14.985 14.8125 13.625 C14.4825 14.285 14.1525 14.945 13.8125 15.625 C12.1625 15.625 10.5125 15.625 8.8125 15.625 C9.1425 17.935 9.4725 20.245 9.8125 22.625 C8.8225 22.295 7.8325 21.965 6.8125 21.625 C6.8125 25.255 6.8125 28.885 6.8125 32.625 C5.8225 33.12 5.8225 33.12 4.8125 33.625 C4.8125 32.965 4.8125 32.305 4.8125 31.625 C3.8225 32.285 2.8325 32.945 1.8125 33.625 C2.16036708 35.60036745 2.16036708 35.60036745 2.8125 37.625 C3.4725 37.955 4.1325 38.285 4.8125 38.625 C2.4375 39.6875 2.4375 39.6875 -0.1875 40.625 C-0.8475 40.295 -1.5075 39.965 -2.1875 39.625 C-2.1875 38.965 -2.1875 38.305 -2.1875 37.625 C-2.8475 37.625 -3.5075 37.625 -4.1875 37.625 C-4.6825 40.1 -4.6825 40.1 -5.1875 42.625 C-5.5175 42.625 -5.8475 42.625 -6.1875 42.625 C-6.1875 40.645 -6.1875 38.665 -6.1875 36.625 C-7.6725 37.12 -7.6725 37.12 -9.1875 37.625 C-9.1875 36.635 -9.1875 35.645 -9.1875 34.625 C-8.1975 34.625 -7.2075 34.625 -6.1875 34.625 C-5.6925 31.655 -5.6925 31.655 -5.1875 28.625 C-3.8675 28.955 -2.5475 29.285 -1.1875 29.625 C-1.5175 25.335 -1.8475 21.045 -2.1875 16.625 C-1.1975 16.295 -0.2075 15.965 0.8125 15.625 C0.4825 14.965 0.1525 14.305 -0.1875 13.625 C-1.1775 13.295 -2.1675 12.965 -3.1875 12.625 C-3.1875 11.635 -3.1875 10.645 -3.1875 9.625 C-2.5275 9.625 -1.8675 9.625 -1.1875 9.625 C-2.06964887 6.74285113 -2.06964887 6.74285113 -3.1875 4.625 C-4.1775 4.625 -5.1675 4.625 -6.1875 4.625 C-5.03076352 1.15479057 -3.91311293 -0.67081936 0 0 Z " fill="#EBBFA6" transform="translate(70.1875,42.375)"/>
<path d="M0 0 C0.66 0.99 1.32 1.98 2 3 C2.66 2.34 3.32 1.68 4 1 C7 2 7 2 8 4 C11.465 3.505 11.465 3.505 15 3 C14.67 3.99 14.34 4.98 14 6 C13.34 6 12.68 6 12 6 C11.566875 6.928125 11.566875 6.928125 11.125 7.875 C10 10 10 10 8 12 C7.01 13.98 6.02 15.96 5 18 C-8.86 18 -22.72 18 -37 18 C-37 17.01 -37 16.02 -37 15 C-38.32 14.67 -39.64 14.34 -41 14 C-38.33333333 11.33333333 -35.66666667 8.66666667 -33 6 C-33.33 7.65 -33.66 9.3 -34 11 C-32.9275 10.814375 -31.855 10.62875 -30.75 10.4375 C-27.4461133 10.05204655 -26.03949376 10.16151896 -23 11 C-22.29875 10.814375 -21.5975 10.62875 -20.875 10.4375 C-20.25625 10.293125 -19.6375 10.14875 -19 10 C-18.34 10.66 -17.68 11.32 -17 12 C-14.34462628 12.56520003 -11.70855287 12.73788198 -9 13 C-9.185625 12.46375 -9.37125 11.9275 -9.5625 11.375 C-10.11419324 8.38009386 -9.60597444 5.96254171 -9 3 C-8.443125 2.87625 -7.88625 2.7525 -7.3125 2.625 C-4.77885636 1.94023145 -2.42078968 1.00866237 0 0 Z " fill="#C5997D" transform="translate(169,165)"/>
<path d="M0 0 C0.33 0.66 0.66 1.32 1 2 C6.7974423 2.24428343 6.7974423 2.24428343 12 0 C13 3 13 3 12.0625 5.1875 C11.711875 5.785625 11.36125 6.38375 11 7 C9.35 7 7.7 7 6 7 C5.67 7.99 5.34 8.98 5 10 C4.67 10.99 4.34 11.98 4 13 C3.34 13 2.68 13 2 13 C2.66 13.61875 3.32 14.2375 4 14.875 C6 17 6 17 6 19 C6.66 19.33 7.32 19.66 8 20 C7.34 20.33 6.68 20.66 6 21 C6 21.99 6 22.98 6 24 C4.02 23.67 2.04 23.34 0 23 C-0.37125 23.825 -0.7425 24.65 -1.125 25.5 C-3 28 -3 28 -5.875 28.4375 C-10.10372353 27.84547871 -12.89263402 27.22192108 -15.8125 24 C-17 22 -17 22 -17 20 C-17.66 20 -18.32 20 -19 20 C-19.28875 18.88625 -19.5775 17.7725 -19.875 16.625 C-20.69241329 12.99708908 -20.69241329 12.99708908 -23 11 C-21.68 10.34 -20.36 9.68 -19 9 C-18 10 -18 10 -17.90234375 11.84765625 C-17.93489583 13.8984375 -17.96744792 15.94921875 -18 18 C-13.94393835 17.53199289 -10.53411321 17.12046792 -7 15 C-7.33 14.34 -7.66 13.68 -8 13 C-8 12.01 -8 11.02 -8 10 C-7.01 9.34 -6.02 8.68 -5 8 C-4.67 7.01 -4.34 6.02 -4 5 C-3.34 4.67 -2.68 4.34 -2 4 C-0.86649466 1.98330173 -0.86649466 1.98330173 0 0 Z " fill="#E6BCA4" transform="translate(189,22)"/>
<path d="M0 0 C1.32 0 2.64 0 4 0 C4.268125 0.969375 4.53625 1.93875 4.8125 2.9375 C5.204375 3.948125 5.59625 4.95875 6 6 C6.99 6.33 7.98 6.66 9 7 C9 7.99 9 8.98 9 10 C4.70834738 10.02891949 0.41671964 10.04677118 -3.875 10.0625 C-5.09832031 10.07087891 -6.32164063 10.07925781 -7.58203125 10.08789062 C-9.33193359 10.09272461 -9.33193359 10.09272461 -11.1171875 10.09765625 C-12.73536377 10.10551147 -12.73536377 10.10551147 -14.38623047 10.11352539 C-17 10 -17 10 -19 9 C-19 8.34 -19 7.68 -19 7 C-19.99 7 -20.98 7 -22 7 C-22 5.68 -22 4.36 -22 3 C-19.525 3.99 -19.525 3.99 -17 5 C-17 3.68 -17 2.36 -17 1 C-16.34 1 -15.68 1 -15 1 C-15 1.66 -15 2.32 -15 3 C-12.03 3.495 -12.03 3.495 -9 4 C-9 3.67 -9 3.34 -9 3 C-5.94152152 2.45627049 -3.11227195 2 0 2 C0 1.34 0 0.68 0 0 Z " fill="#CB9E82" transform="translate(123,173)"/>
<path d="M0 0 C0.66 0 1.32 0 2 0 C2 0.66 2 1.32 2 2 C2.66 2 3.32 2 4 2 C4 2.99 4 3.98 4 5 C1 5 -2 5 -5 5 C-5.99 5.33 -6.98 5.66 -8 6 C-7.34 6.66 -6.68 7.32 -6 8 C-5.34 8 -4.68 8 -4 8 C-4 8.66 -4 9.32 -4 10 C-4.99 10.33 -5.98 10.66 -7 11 C-6.01 12.485 -6.01 12.485 -5 14 C-6.65 14.33 -8.3 14.66 -10 15 C-10 14.01 -10 13.02 -10 12 C-10.66 12 -11.32 12 -12 12 C-12 13.98 -12 15.96 -12 18 C-12.99 17.67 -13.98 17.34 -15 17 C-15 18.32 -15 19.64 -15 21 C-15.99 21.33 -16.98 21.66 -18 22 C-18.33 21.67 -18.66 21.34 -19 21 C-19.66 21.66 -20.32 22.32 -21 23 C-21 21.68 -21 20.36 -21 19 C-19.68 18.67 -18.36 18.34 -17 18 C-17 17.34 -17 16.68 -17 16 C-18.32 15.67 -19.64 15.34 -21 15 C-21 14.34 -21 13.68 -21 13 C-18.5 11.375 -18.5 11.375 -16 10 C-16 10.66 -16 11.32 -16 12 C-14.68 11.01 -13.36 10.02 -12 9 C-12.33 7.02 -12.66 5.04 -13 3 C-10.92446352 2.4465236 -9.15634036 2 -7 2 C-6.360625 1.814375 -5.72125 1.62875 -5.0625 1.4375 C-3 1 -3 1 0 2 C0 1.34 0 0.68 0 0 Z " fill="#E2B59A" transform="translate(40,147)"/>
<path d="M0 0 C0.66 0.33 1.32 0.66 2 1 C1.814375 1.9075 1.62875 2.815 1.4375 3.75 C1.04265379 6.68314324 1.05308428 8.2644657 2 11 C1.195625 11.28875 0.39125 11.5775 -0.4375 11.875 C-3.1326468 12.73262568 -3.1326468 12.73262568 -4 15 C-4.680625 14.649375 -5.36125 14.29875 -6.0625 13.9375 C-9.7087789 12.77379397 -12.28489978 13.27154898 -16 14 C-15.67 13.01 -15.34 12.02 -15 11 C-12.9375 10.3125 -12.9375 10.3125 -11 10 C-13.475 9.01 -13.475 9.01 -16 8 C-16 7.34 -16 6.68 -16 6 C-14.68 5.34 -13.36 4.68 -12 4 C-11.67 4.99 -11.34 5.98 -11 7 C-9.05925139 6.72382467 -9.05925139 6.72382467 -7 6 C-6.34 5.01 -5.68 4.02 -5 3 C-2.9375 1.875 -2.9375 1.875 -1 1 C-0.67 0.67 -0.34 0.34 0 0 Z " fill="#BD8F75" transform="translate(224,154)"/>
<path d="M0 0 C-0.33 1.32 -0.66 2.64 -1 4 C-1.99 4 -2.98 4 -4 4 C-4 4.99 -4 5.98 -4 7 C-2.68 6.67 -1.36 6.34 0 6 C0 6.66 0 7.32 0 8 C0.66 8.33 1.32 8.66 2 9 C1.67 10.32 1.34 11.64 1 13 C-4.28 13 -9.56 13 -15 13 C-15.33 13.66 -15.66 14.32 -16 15 C-16 14.34 -16 13.68 -16 13 C-17.65 13.33 -19.3 13.66 -21 14 C-21.66 13.01 -22.32 12.02 -23 11 C-18.25 8 -18.25 8 -16 8 C-16 8.66 -16 9.32 -16 10 C-13.03 10 -10.06 10 -7 10 C-6.67 7.03 -6.34 4.06 -6 1 C-2 0 -2 0 0 0 Z " fill="#CFA084" transform="translate(231,80)"/>
<path d="M0 0 C2 2 2 2 2 4 C2.99 4.33 3.98 4.66 5 5 C4.67 5.99 4.34 6.98 4 8 C1.525 7.505 1.525 7.505 -1 7 C-1.33 7.99 -1.66 8.98 -2 10 C-3.65 10.33 -5.3 10.66 -7 11 C-7 10.01 -7 9.02 -7 8 C-7.598125 8.66 -8.19625 9.32 -8.8125 10 C-11 12 -11 12 -14 12 C-13.125 5.125 -13.125 5.125 -12 4 C-9.66702567 3.95907063 -7.33294775 3.95758277 -5 4 C-5 3.34 -5 2.68 -5 2 C-4.34 2 -3.68 2 -3 2 C-3.33 2.99 -3.66 3.98 -4 5 C-1.48916886 3.74458443 -1.12874554 2.49936512 0 0 Z " fill="#EABFA6" transform="translate(38,76)"/>
<path d="M0 0 C0.66 0.33 1.32 0.66 2 1 C2 3.64 2 6.28 2 9 C4.31 9 6.62 9 9 9 C9.33 10.32 9.66 11.64 10 13 C10.99 12.67 11.98 12.34 13 12 C13 13.98 13 15.96 13 18 C10.25 18.3125 10.25 18.3125 7 18 C4.625 15.625 4.625 15.625 3 13 C3 12.34 3 11.68 3 11 C2.34 11 1.68 11 1 11 C0.71125 9.88625 0.4225 8.7725 0.125 7.625 C-0.69241329 3.99708908 -0.69241329 3.99708908 -3 2 C-2.01 1.34 -1.02 0.68 0 0 Z " fill="#EEC5AC" transform="translate(169,31)"/>
<path d="M0 0 C1.8125 0.05078125 1.8125 0.05078125 4 0.3125 C4.721875 0.39113281 5.44375 0.46976562 6.1875 0.55078125 C7.0846875 0.77314453 7.0846875 0.77314453 8 1 C8.33 1.66 8.66 2.32 9 3 C9.66 3.66 10.32 4.32 11 5 C11 5.99 11 6.98 11 8 C10.34 8 9.68 8 9 8 C9 8.66 9 9.32 9 10 C8.01 10 7.02 10 6 10 C5.67 9.01 5.34 8.02 5 7 C3.68 8.32 2.36 9.64 1 11 C-1 9 -1 9 -1.23046875 7.08984375 C-1.11111111 1.11111111 -1.11111111 1.11111111 0 0 Z " fill="#E5BCA0" transform="translate(1,96)"/>
<path d="M0 0 C0.33 1.32 0.66 2.64 1 4 C2.65 4 4.3 4 6 4 C6.66 5.65 7.32 7.3 8 9 C2.7265625 12.22265625 2.7265625 12.22265625 1 13 C0.34 12.67 -0.32 12.34 -1 12 C-1.33 12.33 -1.66 12.66 -2 13 C-2.99 13 -3.98 13 -5 13 C-5 11 -5 11 -3 8.875 C-2.34 8.25625 -1.68 7.6375 -1 7 C-1.66 6.01 -2.32 5.02 -3 4 C-3 3.01 -3 2.02 -3 1 C-2.01 0.67 -1.02 0.34 0 0 Z M7 2 C7.33 2.66 7.66 3.32 8 4 C7.34 3.67 6.68 3.34 6 3 C6.33 2.67 6.66 2.34 7 2 Z " fill="#C5967C" transform="translate(200,139)"/>
<path d="M0 0 C3.96 0 7.92 0 12 0 C11.67 0.66 11.34 1.32 11 2 C9.68 2 8.36 2 7 2 C7 2.66 7 3.32 7 4 C5.824375 4.37125 5.824375 4.37125 4.625 4.75 C1.67682892 6.15389099 1.0975223 7.00675737 0 10 C-1.9375 9.625 -1.9375 9.625 -4 9 C-4.33 8.34 -4.66 7.68 -5 7 C-4.0625 4.875 -4.0625 4.875 -3 3 C-2.01 3 -1.02 3 0 3 C0 2.01 0 1.02 0 0 Z " fill="#C99B81" transform="translate(231,120)"/>
<path d="M0 0 C1.98 0.495 1.98 0.495 4 1 C4 1.99 4 2.98 4 4 C4.99 3.34 5.98 2.68 7 2 C9.26171875 1.8046875 9.26171875 1.8046875 11.6875 1.875 C12.89986328 1.90207031 12.89986328 1.90207031 14.13671875 1.9296875 C15.05904297 1.96449219 15.05904297 1.96449219 16 2 C16 2.66 16 3.32 16 4 C15.37351563 4.15855469 14.74703125 4.31710938 14.1015625 4.48046875 C8.84375314 5.7905977 8.84375314 5.7905977 5.4375 9.6875 C5.293125 10.450625 5.14875 11.21375 5 12 C5.66 12.33 6.32 12.66 7 13 C5.02 13 3.04 13 1 13 C1.495 12.1028125 1.495 12.1028125 2 11.1875 C3.20787988 8.94613529 3.20787988 8.94613529 3 6 C2.01 6.99 1.02 7.98 0 9 C-0.33 7.68 -0.66 6.36 -1 5 C-0.34 5 0.32 5 1 5 C1.33 3.68 1.66 2.36 2 1 C1.34 0.67 0.68 0.34 0 0 Z M-2 13 C-1.01 13.33 -0.02 13.66 1 14 C-0.65 14.33 -2.3 14.66 -4 15 C-3.34 14.34 -2.68 13.68 -2 13 Z " fill="#D5A88E" transform="translate(144,99)"/>
<path d="M0 0 C0.66 0 1.32 0 2 0 C2.33 0.99 2.66 1.98 3 3 C2.34 3.66 1.68 4.32 1 5 C1.66 5.33 2.32 5.66 3 6 C3.33 5.34 3.66 4.68 4 4 C4.66 4 5.32 4 6 4 C6.33 4.99 6.66 5.98 7 7 C-3.88888889 10.55555556 -3.88888889 10.55555556 -9 8 C-9 7.34 -9 6.68 -9 6 C-9.66 6 -10.32 6 -11 6 C-10.67 5.01 -10.34 4.02 -10 3 C-9.34 3 -8.68 3 -8 3 C-8 3.66 -8 4.32 -8 5 C-3.18877153 3.47444034 -3.18877153 3.47444034 0 0 Z " fill="#E2B59B" transform="translate(208,59)"/>
<path d="M0 0 C0.66 0 1.32 0 2 0 C2 0.99 2 1.98 2 3 C2.99 3.33 3.98 3.66 5 4 C4.01 4.495 4.01 4.495 3 5 C3.185625 6.11375 3.37125 7.2275 3.5625 8.375 C4 12 4 12 3 14 C3.66 14.33 4.32 14.66 5 15 C4.79375 15.598125 4.5875 16.19625 4.375 16.8125 C3.69328085 19.28450846 3.69328085 19.28450846 6 22 C6 22.99 6 23.98 6 25 C5.34 25 4.68 25 4 25 C3.731875 24.030625 3.46375 23.06125 3.1875 22.0625 C2.795625 21.051875 2.40375 20.04125 2 19 C1.01 18.67 0.02 18.34 -1 18 C-0.484375 17.5875 0.03125 17.175 0.5625 16.75 C1.036875 16.1725 1.51125 15.595 2 15 C1.77242269 12.83700789 1.77242269 12.83700789 1 11 C0.34 11 -0.32 11 -1 11 C-1 11.66 -1 12.32 -1 13 C-1.66 13 -2.32 13 -3 13 C-3.33 11.68 -3.66 10.36 -4 9 C-3.01 8.67 -2.02 8.34 -1 8 C-0.67 5.36 -0.34 2.72 0 0 Z " fill="#D3A58B" transform="translate(45,149)"/>
<path d="M0 0 C-0.33 2.31 -0.66 4.62 -1 7 C-0.34 7 0.32 7 1 7 C0.34 9.97 -0.32 12.94 -1 16 C-2.32 15.67 -3.64 15.34 -5 15 C-5 14.34 -5 13.68 -5 13 C-4.01 13 -3.02 13 -2 13 C-2 12.34 -2 11.68 -2 11 C-3.32 11 -4.64 11 -6 11 C-6 10.34 -6 9.68 -6 9 C-6.66 8.67 -7.32 8.34 -8 8 C-8 6.02 -8 4.04 -8 2 C-1.125 0 -1.125 0 0 0 Z " fill="#ECC0A6" transform="translate(56,88)"/>
<path d="M0 0 C1.32 0.99 2.64 1.98 4 3 C3.67 4.65 3.34 6.3 3 8 C2.34 8 1.68 8 1 8 C1 9.65 1 11.3 1 13 C-2.75 14.125 -2.75 14.125 -5 13 C-5 12.34 -5 11.68 -5 11 C-4.01 10.67 -3.02 10.34 -2 10 C-2 9.01 -2 8.02 -2 7 C-2.99 7 -3.98 7 -5 7 C-4.67 6.01 -4.34 5.02 -4 4 C-3.67 4.66 -3.34 5.32 -3 6 C-2.01 4.02 -1.02 2.04 0 0 Z M-9 5 C-8.34 5 -7.68 5 -7 5 C-7 5.66 -7 6.32 -7 7 C-6.34 7.33 -5.68 7.66 -5 8 C-6.32 8 -7.64 8 -9 8 C-9 7.01 -9 6.02 -9 5 Z " fill="#D3A58B" transform="translate(25,163)"/>
<path d="M0 0 C0.66 0 1.32 0 2 0 C2.33 2.31 2.66 4.62 3 7 C1.68 7 0.36 7 -1 7 C-1 7.66 -1 8.32 -1 9 C0.65 9 2.3 9 4 9 C4 9.66 4 10.32 4 11 C3.01 11 2.02 11 1 11 C1 11.66 1 12.32 1 13 C-1 12 -3 11 -5 10 C-5 8.68 -5 7.36 -5 6 C-5.66 5.67 -6.32 5.34 -7 5 C-6.01 3.68 -5.02 2.36 -4 1 C-4 1.99 -4 2.98 -4 4 C-3.34 4 -2.68 4 -2 4 C-1.34 2.68 -0.68 1.36 0 0 Z " fill="#E0B69E" transform="translate(165,52)"/>
<path d="M0 0 C1.32 0 2.64 0 4 0 C4.28875 0.969375 4.5775 1.93875 4.875 2.9375 C5.64214682 6.10664203 5.64214682 6.10664203 8 7 C6.02 7.99 6.02 7.99 4 9 C4 10.65 4 12.3 4 14 C2.35 13.67 0.7 13.34 -1 13 C-1 12.34 -1 11.68 -1 11 C-1.66 11 -2.32 11 -3 11 C-3 10.34 -3 9.68 -3 9 C-2.0409375 8.5978125 -2.0409375 8.5978125 -1.0625 8.1875 C1.33131686 7.11332248 1.33131686 7.11332248 2 4 C1.01 3.67 0.02 3.34 -1 3 C-0.67 2.01 -0.34 1.02 0 0 Z " fill="#DFB39A" transform="translate(134,83)"/>
<path d="M0 0 C-0.33 1.32 -0.66 2.64 -1 4 C-1 3.34 -1 2.68 -1 2 C-1.99 2 -2.98 2 -4 2 C-4 2.66 -4 3.32 -4 4 C-4.763125 3.95875 -5.52625 3.9175 -6.3125 3.875 C-9.22718416 3.77919176 -9.22718416 3.77919176 -12 6 C-12 5.34 -12 4.68 -12 4 C-13.65 4.33 -15.3 4.66 -17 5 C-17 4.34 -17 3.68 -17 3 C-17.99 3 -18.98 3 -20 3 C-20.33 3.66 -20.66 4.32 -21 5 C-21.99 4.67 -22.98 4.34 -24 4 C-22.35188059 1.99496301 -21.54146058 1.06692209 -18.9140625 0.7421875 C-17.78097656 0.80792969 -17.78097656 0.80792969 -16.625 0.875 C-11.00126724 1.07455181 -5.66517562 -0.11108187 0 0 Z " fill="#D0A085" transform="translate(196,124)"/>
<path d="M0 0 C0.66 0 1.32 0 2 0 C2 0.66 2 1.32 2 2 C2.66 2.33 3.32 2.66 4 3 C3.67 3.66 3.34 4.32 3 5 C3.66 6.32 4.32 7.64 5 9 C1.37 9 -2.26 9 -6 9 C-5 4 -5 4 -4 2 C-3.34 2 -2.68 2 -2 2 C-2 2.66 -2 3.32 -2 4 C-1.01 4 -0.02 4 1 4 C1 3.34 1 2.68 1 2 C0.34 1.67 -0.32 1.34 -1 1 C-0.67 0.67 -0.34 0.34 0 0 Z " fill="#D6A78D" transform="translate(6,174)"/>
<path d="M0 0 C0 0.66 0 1.32 0 2 C0.99 1.67 1.98 1.34 3 1 C3 1.99 3 2.98 3 4 C4.98 3.67 6.96 3.34 9 3 C9.33 4.32 9.66 5.64 10 7 C9.236875 6.814375 8.47375 6.62875 7.6875 6.4375 C4.91032625 5.77180827 4.91032625 5.77180827 2 7 C1.67 6.01 1.34 5.02 1 4 C0.01 4.33 -0.98 4.66 -2 5 C-4.3406065 4.72230092 -6.67624308 4.39460023 -9 4 C-9 3.34 -9 2.68 -9 2 C-3.375 0 -3.375 0 0 0 Z " fill="#EAC1A7" transform="translate(157,78)"/>
<path d="M0 0 C0 0.99 0 1.98 0 3 C0.66 3 1.32 3 2 3 C2 2.34 2 1.68 2 1 C2.99 1 3.98 1 5 1 C5 1.99 5 2.98 5 4 C5.99 4.33 6.98 4.66 8 5 C5 7 5 7 3 7 C2.67 6.34 2.34 5.68 2 5 C0.68 5 -0.64 5 -2 5 C-2.66 4.67 -3.32 4.34 -4 4 C-4 3.01 -4 2.02 -4 1 C-2 0 -2 0 0 0 Z M-1 6 C-1.33 6.66 -1.66 7.32 -2 8 C-4.31 8 -6.62 8 -9 8 C-9 7.34 -9 6.68 -9 6 C-5.71023192 4.90341064 -4.28696233 5.20046862 -1 6 Z " fill="#EFC4AB" transform="translate(114,75)"/>
<path d="M0 0 C2 3 2 3 1.625 5.1875 C1.41875 5.785625 1.2125 6.38375 1 7 C-0.32 7 -1.64 7 -3 7 C-2.67 7.99 -2.34 8.98 -2 10 C-3.4375 12.1875 -3.4375 12.1875 -5 14 C-5 13.01 -5 12.02 -5 11 C-5.66 11 -6.32 11 -7 11 C-7 9.35 -7 7.7 -7 6 C-6.01 5.67 -5.02 5.34 -4 5 C-4.99 5 -5.98 5 -7 5 C-7 4.34 -7 3.68 -7 3 C-5.68 3 -4.36 3 -3 3 C-3 2.34 -3 1.68 -3 1 C-2.01 0.67 -1.02 0.34 0 0 Z " fill="#E7BBA0" transform="translate(39,119)"/>
<path d="M0 0 C0.99 0 1.98 0 3 0 C3 0.99 3 1.98 3 3 C2.34 3 1.68 3 1 3 C1.33 3.66 1.66 4.32 2 5 C4.52733235 5.65555119 4.52733235 5.65555119 7 6 C3.46145836 8.27477677 1.29052627 7.99082706 -2.75 7.125 C-3.73484375 6.92132813 -4.7196875 6.71765625 -5.734375 6.5078125 C-6.48203125 6.34023437 -7.2296875 6.17265625 -8 6 C-8.33 5.01 -8.66 4.02 -9 3 C-6.03 2.34 -3.06 1.68 0 1 C0 0.67 0 0.34 0 0 Z " fill="#D2A389" transform="translate(41,168)"/>
<path d="M0 0 C2.33944736 0.28730055 4.6739143 0.61936779 7 1 C7 1.66 7 2.32 7 3 C6.01 3.33 5.02 3.66 4 4 C3.67 4.99 3.34 5.98 3 7 C0 5 0 5 -0.75 2.9375 C-0.8325 2.298125 -0.915 1.65875 -1 1 C-0.67 0.67 -0.34 0.34 0 0 Z M-6 2 C-5.01 2 -4.02 2 -3 2 C-3 2.99 -3 3.98 -3 5 C-2.01 5 -1.02 5 0 5 C0 5.99 0 6.98 0 8 C-2.31 8.33 -4.62 8.66 -7 9 C-6.67 8.01 -6.34 7.02 -6 6 C-5.34 6 -4.68 6 -4 6 C-4 5.34 -4 4.68 -4 4 C-4.66 4 -5.32 4 -6 4 C-6 3.34 -6 2.68 -6 2 Z " fill="#E7BDA4" transform="translate(76,119)"/>
<path d="M0 0 C2.31 0.33 4.62 0.66 7 1 C6.35455571 4.48539917 4.89865603 7.02819057 3 10 C2.01 9.67 1.02 9.34 0 9 C-0.84454356 5.62182575 -1.10844919 3.32534757 0 0 Z " fill="#D3A48C" transform="translate(163,112)"/>
<path d="M0 0 C0.7425 0.309375 1.485 0.61875 2.25 0.9375 C4.50692176 1.8094925 6.6450153 2.47667007 9 3 C8.01 3.33 7.02 3.66 6 4 C6 4.66 6 5.32 6 6 C7.65 5.67 9.3 5.34 11 5 C10.67 5.66 10.34 6.32 10 7 C7.35139573 7.59355614 4.70802678 7.74209269 2 8 C2 7.34 2 6.68 2 6 C1.01 5.67 0.02 5.34 -1 5 C-0.67 3.35 -0.34 1.7 0 0 Z " fill="#E4B99F" transform="translate(62,91)"/>
<path d="M0 0 C0.66 0.33 1.32 0.66 2 1 C1.67 1.66 1.34 2.32 1 3 C3.97 3.33 6.94 3.66 10 4 C10 4.99 10 5.98 10 7 C9.01 6.67 8.02 6.34 7 6 C5.68 7.32 4.36 8.64 3 10 C1.12213895 7.06073923 -0.50118334 4.49171665 -1 1 C-0.67 0.67 -0.34 0.34 0 0 Z " fill="#EAC0A7" transform="translate(14,75)"/>
<path d="M0 0 C0.99 0 1.98 0 3 0 C3 0.99 3 1.98 3 3 C3.99 3.33 4.98 3.66 6 4 C5 7 5 7 2.0625 8.75 C1.051875 9.1625 0.04125 9.575 -1 10 C-1.66 9.67 -2.32 9.34 -3 9 C-2.34 8.01 -1.68 7.02 -1 6 C-0.9603287 4.33380554 -0.95615553 2.66608987 -1 1 C-0.67 0.67 -0.34 0.34 0 0 Z " fill="#EBBFA6" transform="translate(49,78)"/>
<path d="M0 0 C0.66 0 1.32 0 2 0 C2.66 1.32 3.32 2.64 4 4 C4.66 3.67 5.32 3.34 6 3 C6 4.32 6 5.64 6 7 C0.72 7 -4.56 7 -10 7 C-10 6.67 -10 6.34 -10 6 C-7.03 6 -4.06 6 -1 6 C-0.67 4.02 -0.34 2.04 0 0 Z " fill="#BF9277" transform="translate(161,176)"/>
<path d="M0 0 C2.475 0.99 2.475 0.99 5 2 C5 2.99 5 3.98 5 5 C4.01 5.495 4.01 5.495 3 6 C4.32 6 5.64 6 7 6 C7 7.32 7 8.64 7 10 C5.35 10 3.7 10 2 10 C0.68373308 6.38026598 0 3.90432869 0 0 Z " fill="#ECC6AC" transform="translate(176,50)"/>
<path d="M0 0 C-0.33 2.64 -0.66 5.28 -1 8 C-1.66 8 -2.32 8 -3 8 C-3.33 7.34 -3.66 6.68 -4 6 C-6.01669827 4.86649466 -6.01669827 4.86649466 -8 4 C-8 3.01 -8 2.02 -8 1 C-5.29120665 -0.35439668 -2.99066732 -0.06501451 0 0 Z M-5 1 C-4 3 -4 3 -4 3 Z " fill="#ECC1A9" transform="translate(164,48)"/>
<path d="M0 0 C0 1.98 0 3.96 0 6 C-0.99 5.67 -1.98 5.34 -3 5 C-3.33 5.99 -3.66 6.98 -4 8 C-5.32 7.67 -6.64 7.34 -8 7 C-6.53511706 1.38461538 -6.53511706 1.38461538 -4 -0.4375 C-2 -1 -2 -1 0 0 Z " fill="#EABEA5" transform="translate(128,47)"/>
<path d="M0 0 C1.65 0.33 3.3 0.66 5 1 C5 2.32 5 3.64 5 5 C4.34 5 3.68 5 3 5 C3 4.34 3 3.68 3 3 C2.34 3.66 1.68 4.32 1 5 C1.66 5.66 2.32 6.32 3 7 C1.02 7.66 -0.96 8.32 -3 9 C-3.26218749 5.85375007 -3.24754367 4.38162983 -1.5 1.6875 C-1.005 1.130625 -0.51 0.57375 0 0 Z " fill="#E5B9A0" transform="translate(11,143)"/>
<path d="M0 0 C1.22589844 0.01353516 1.22589844 0.01353516 2.4765625 0.02734375 C3.41628906 0.04474609 3.41628906 0.04474609 4.375 0.0625 C4.375 1.0525 4.375 2.0425 4.375 3.0625 C3.116875 3.10375 1.85875 3.145 0.5625 3.1875 C-0.14519531 3.21070313 -0.85289063 3.23390625 -1.58203125 3.2578125 C-3.625 3.0625 -3.625 3.0625 -6.625 1.0625 C-4.21954362 -0.14022819 -2.67503047 -0.03821472 0 0 Z M-10.625 2.0625 C-9.305 2.0625 -7.985 2.0625 -6.625 2.0625 C-6.955 3.0525 -7.285 4.0425 -7.625 5.0625 C-9.6875 5.75 -9.6875 5.75 -11.625 6.0625 C-11.295 4.7425 -10.965 3.4225 -10.625 2.0625 Z " fill="#E8BBA0" transform="translate(66.625,130.9375)"/>
<path d="M0 0 C0.33 1.32 0.66 2.64 1 4 C2.65 4 4.3 4 6 4 C6.66 5.65 7.32 7.3 8 9 C6.68 9 5.36 9 4 9 C4 8.34 4 7.68 4 7 C1.03 6.505 1.03 6.505 -2 6 C-2.33 4.35 -2.66 2.7 -3 1 C-2.01 0.67 -1.02 0.34 0 0 Z M7 2 C7.33 2.66 7.66 3.32 8 4 C7.34 3.67 6.68 3.34 6 3 C6.33 2.67 6.66 2.34 7 2 Z " fill="#BE9077" transform="translate(200,139)"/>
<path d="M0 0 C-1.38956025 3.35810395 -2.82526467 5.18586552 -6 7 C-8.75 7.1875 -8.75 7.1875 -11 7 C-11 7.99 -11 8.98 -11 10 C-11.99 9.67 -12.98 9.34 -14 9 C-13.67 8.01 -13.34 7.02 -13 6 C-11.02 5.67 -9.04 5.34 -7 5 C-6.67 3.68 -6.34 2.36 -6 1 C-3.92446352 0.4465236 -2.15634036 0 0 0 Z " fill="#E6BAA0" transform="translate(134,100)"/>
<path d="M0 0 C2.38564077 0.57584432 4.66682784 1.22227595 7 2 C6.875 3.875 6.875 3.875 6 6 C2.9375 7.25 2.9375 7.25 0 8 C0 5.33333333 0 2.66666667 0 0 Z " fill="#E8C2AC" transform="translate(188,6)"/>
<path d="M0 0 C0.99 0 1.98 0 3 0 C3.33 2.64 3.66 5.28 4 8 C2.02 8.99 2.02 8.99 0 10 C-0.95024979 6.30458414 -0.95024979 3.69541586 0 0 Z " fill="#E6BA9F" transform="translate(26,120)"/>
<path d="M0 0 C0.33 0.66 0.66 1.32 1 2 C2.32 1.34 3.64 0.68 5 0 C5 0.66 5 1.32 5 2 C5.66 2.33 6.32 2.66 7 3 C3.09971775 5.60018816 -0.47434569 5.15085514 -5 5 C-5 4.34 -5 3.68 -5 3 C-2.5 1.375 -2.5 1.375 0 0 Z " fill="#B6886E" transform="translate(187,178)"/>
<path d="M0 0 C0.5775 0.37125 1.155 0.7425 1.75 1.125 C1.42 2.115 1.09 3.105 0.75 4.125 C-2.55 4.125 -5.85 4.125 -9.25 4.125 C-3.69 -1.435 -3.69 -1.435 0 0 Z " fill="#B6886E" transform="translate(207.25,178.875)"/>
<path d="M0 0 C6.0546875 -0.1953125 6.0546875 -0.1953125 8 0 C8.66 0.66 9.32 1.32 10 2 C9.030625 2.28875 8.06125 2.5775 7.0625 2.875 C3.89335797 3.64214682 3.89335797 3.64214682 3 6 C2.01 5.34 1.02 4.68 0 4 C0 2.68 0 1.36 0 0 Z " fill="#D0A287" transform="translate(208,103)"/>
<path d="M0 0 C0.33 0 0.66 0 1 0 C1 1.65 1 3.3 1 5 C1.66 5 2.32 5 3 5 C3 5.66 3 6.32 3 7 C1.68 7 0.36 7 -1 7 C-1 7.99 -1 8.98 -1 10 C-1.66 10 -2.32 10 -3 10 C-3 8.35 -3 6.7 -3 5 C-3.99 4.67 -4.98 4.34 -6 4 C-3 3 -3 3 0 3 C0 2.01 0 1.02 0 0 Z " fill="#DCB198" transform="translate(109,92)"/>
<path d="M0 0 C1.98 0 3.96 0 6 0 C6 0.99 6 1.98 6 3 C6.928125 2.690625 6.928125 2.690625 7.875 2.375 C8.926875 2.189375 8.926875 2.189375 10 2 C10.66 2.66 11.32 3.32 12 4 C8.04 4 4.08 4 0 4 C0 2.68 0 1.36 0 0 Z " fill="#D0A288" transform="translate(43,179)"/>
<path d="M0 0 C0.53625 0.226875 1.0725 0.45375 1.625 0.6875 C1.625 1.3475 1.625 2.0075 1.625 2.6875 C-0.025 2.6875 -1.675 2.6875 -3.375 2.6875 C-3.705 4.0075 -4.035 5.3275 -4.375 6.6875 C-5.695 6.0275 -7.015 5.3675 -8.375 4.6875 C-8.375 4.0275 -8.375 3.3675 -8.375 2.6875 C-2.95961538 -0.38942308 -2.95961538 -0.38942308 0 0 Z " fill="#CFA084" transform="translate(187.375,134.3125)"/>
<path d="M0 0 C0.763125 0.20625 1.52625 0.4125 2.3125 0.625 C1.3225 0.955 0.3325 1.285 -0.6875 1.625 C-1.42073796 3.64008358 -1.42073796 3.64008358 -1.6875 5.625 C-3.3375 5.625 -4.9875 5.625 -6.6875 5.625 C-6.375 3.75 -6.375 3.75 -5.6875 1.625 C-2.6875 -0.375 -2.6875 -0.375 0 0 Z " fill="#D3A389" transform="translate(223.6875,112.375)"/>
<path d="M0 0 C0 1.65 0 3.3 0 5 C-2.64 4.67 -5.28 4.34 -8 4 C-7.34 3.67 -6.68 3.34 -6 3 C-6 2.01 -6 1.02 -6 0 C-3.50907189 -1.24546405 -2.58919267 -0.7767578 0 0 Z " fill="#C99D80" transform="translate(144,154)"/>
<path d="M0 0 C0 1.65 0 3.3 0 5 C-2.97 4.505 -2.97 4.505 -6 4 C-6 3.34 -6 2.68 -6 2 C-6.99 2.33 -7.98 2.66 -9 3 C-9 2.34 -9 1.68 -9 1 C-5.92677456 0.08941469 -3.19902639 -0.08886184 0 0 Z " fill="#EDC3AA" transform="translate(144,71)"/>
<path d="M0 0 C2.75 0.25 2.75 0.25 5 1 C4.01 1.495 4.01 1.495 3 2 C1.86649466 4.01669827 1.86649466 4.01669827 1 6 C-1.475 5.01 -1.475 5.01 -4 4 C-2.3125 1.9375 -2.3125 1.9375 0 0 Z " fill="#BF9074" transform="translate(189,150)"/>
<path d="M0 0 C2.16874252 0.50603992 3.99967627 0.99983813 6 2 C6 2.66 6 3.32 6 4 C5.360625 4.268125 4.72125 4.53625 4.0625 4.8125 C1.66868314 5.88667752 1.66868314 5.88667752 1 9 C0.34 9 -0.32 9 -1 9 C-0.67 7.35 -0.34 5.7 0 4 C0.66 4 1.32 4 2 4 C2 3.34 2 2.68 2 2 C1.34 2 0.68 2 0 2 C0 1.34 0 0.68 0 0 Z " fill="#D6A88E" transform="translate(151,131)"/>
<path d="M0 0 C0.99 0 1.98 0 3 0 C3 0.99 3 1.98 3 3 C2.01 3 1.02 3 0 3 C0 3.66 0 4.32 0 5 C0.66 5 1.32 5 2 5 C2.33 5.99 2.66 6.98 3 8 C0.92446352 8.5534764 -0.84365964 9 -3 9 C-3 8.01 -3 7.02 -3 6 C-2.34 6 -1.68 6 -1 6 C-0.67 4.02 -0.34 2.04 0 0 Z " fill="#E9BEA4" transform="translate(96,100)"/>
<path d="M0 0 C0.99 0.33 1.98 0.66 3 1 C2.67 1.33 2.34 1.66 2 2 C2.66 2.66 3.32 3.32 4 4 C2.125 4.625 2.125 4.625 0 5 C-0.66 4.34 -1.32 3.68 -2 3 C-1.34 2.01 -0.68 1.02 0 0 Z M-6 3 C-4.68 3.33 -3.36 3.66 -2 4 C-2.33 5.32 -2.66 6.64 -3 8 C-3.66 8 -4.32 8 -5 8 C-5.33 6.35 -5.66 4.7 -6 3 Z " fill="#EFC3AA" transform="translate(64,87)"/>
<path d="M0 0 C0.66 0.66 1.32 1.32 2 2 C1.61121812 5.01305957 0.73543126 6.39685311 -1 9 C-1.99 9 -2.98 9 -4 9 C-4 7.68 -4 6.36 -4 5 C-3.34 4.67 -2.68 4.34 -2 4 C-0.86649466 1.98330173 -0.86649466 1.98330173 0 0 Z " fill="#EDC3AB" transform="translate(189,22)"/>
<path d="M0 0 C1.5 1.25 1.5 1.25 3 3 C3 4.32 3 5.64 3 7 C1.35 7.33 -0.3 7.66 -2 8 C-2.125 5.125 -2.125 5.125 -2 2 C-1.34 1.34 -0.68 0.68 0 0 Z " fill="#C09278" transform="translate(226,145)"/>
<path d="M0 0 C2.64 0 5.28 0 8 0 C7.625 1.9375 7.625 1.9375 7 4 C6.01 4.495 6.01 4.495 5 5 C5 4.34 5 3.68 5 3 C3.35 3 1.7 3 0 3 C0 2.01 0 1.02 0 0 Z " fill="#B7886E" transform="translate(248,130)"/>
<path d="M0 0 C1.98 0 3.96 0 6 0 C6 0.66 6 1.32 6 2 C5.01 2.33 4.02 2.66 3 3 C3.66 3 4.32 3 5 3 C5 3.99 5 4.98 5 6 C3.35 6 1.7 6 0 6 C0 4.02 0 2.04 0 0 Z " fill="#F0C3AB" transform="translate(145,45)"/>
<path d="M0 0 C2.475 0.495 2.475 0.495 5 1 C5 2.65 5 4.3 5 6 C3.35 6 1.7 6 0 6 C0 4.02 0 2.04 0 0 Z " fill="#C3957B" transform="translate(195,162)"/>
<path d="M0 0 C0 0.66 0 1.32 0 2 C0.99 2 1.98 2 3 2 C2.67 2.99 2.34 3.98 2 5 C-0.64 4.67 -3.28 4.34 -6 4 C-6 3.34 -6 2.68 -6 2 C-3 0 -3 0 0 0 Z " fill="#C18E72" transform="translate(206,128)"/>
<path d="M0 0 C1.32 0 2.64 0 4 0 C4 0.99 4 1.98 4 3 C5.32 3.33 6.64 3.66 8 4 C5.69 4.66 3.38 5.32 1 6 C0.67 4.02 0.34 2.04 0 0 Z " fill="#DBAF94" transform="translate(36,126)"/>
<path d="M0 0 C0.66 0 1.32 0 2 0 C2 0.99 2 1.98 2 3 C2.66 3 3.32 3 4 3 C4 3.66 4 4.32 4 5 C3.01 5 2.02 5 1 5 C0.67 6.32 0.34 7.64 0 9 C-0.66 9 -1.32 9 -2 9 C-2 8.34 -2 7.68 -2 7 C-1.34 7 -0.68 7 0 7 C0 6.34 0 5.68 0 5 C-0.66 4.67 -1.32 4.34 -2 4 C-1.34 2.68 -0.68 1.36 0 0 Z " fill="#E5B99E" transform="translate(115,110)"/>
<path d="M0 0 C0.33 0 0.66 0 1 0 C1 2.64 1 5.28 1 8 C-0.98 8.99 -0.98 8.99 -3 10 C-3.33 8.02 -3.66 6.04 -4 4 C-3.01 4 -2.02 4 -1 4 C-0.67 2.68 -0.34 1.36 0 0 Z " fill="#E7BDA3" transform="translate(22,104)"/>
<path d="M0 0 C0 0.66 0 1.32 0 2 C0.66 2.33 1.32 2.66 2 3 C1.34 3 0.68 3 0 3 C0 3.66 0 4.32 0 5 C-1.65 5.33 -3.3 5.66 -5 6 C-5.66 5.01 -6.32 4.02 -7 3 C-2.25 0 -2.25 0 0 0 Z " fill="#D2A387" transform="translate(215,88)"/>
<path d="M0 0 C0 1.65 0 3.3 0 5 C1.32 4.67 2.64 4.34 4 4 C4 4.66 4 5.32 4 6 C3.34 6 2.68 6 2 6 C2.33 6.99 2.66 7.98 3 9 C2.01 9 1.02 9 0 9 C-0.33 8.01 -0.66 7.02 -1 6 C-2.49985609 4.33289654 -2.49985609 4.33289654 -4 3 C-1.125 0 -1.125 0 0 0 Z " fill="#D9B096" transform="translate(146,74)"/>
<path d="M0 0 C0.99 0.33 1.98 0.66 3 1 C3 1.99 3 2.98 3 4 C-1.43076923 6.09230769 -1.43076923 6.09230769 -4.3125 5.625 C-4.869375 5.41875 -5.42625 5.2125 -6 5 C-6 4.34 -6 3.68 -6 3 C-4.02 3 -2.04 3 0 3 C0 2.01 0 1.02 0 0 Z " fill="#EEC5AC" transform="translate(176,24)"/>
<path d="M0 0 C1.32 0 2.64 0 4 0 C3.67 1.32 3.34 2.64 3 4 C4.98 4 6.96 4 9 4 C6.35261084 5.4606285 5.10551666 6 2 6 C2 5.34 2 4.68 2 4 C1.34 4 0.68 4 0 4 C0 2.68 0 1.36 0 0 Z " fill="#D1A187" transform="translate(204,124)"/>
<path d="M0 0 C-0.33 1.32 -0.66 2.64 -1 4 C-3.97 4 -6.94 4 -10 4 C-10 3.34 -10 2.68 -10 2 C-3.375 0 -3.375 0 0 0 Z " fill="#C49478" transform="translate(183,122)"/>
<path d="M0 0 C3.125 -0.1875 3.125 -0.1875 6 0 C6 0.66 6 1.32 6 2 C4.68 2 3.36 2 2 2 C1.67 3.32 1.34 4.64 1 6 C0.34 6 -0.32 6 -1 6 C-1.33 5.01 -1.66 4.02 -2 3 C-1.34 2.01 -0.68 1.02 0 0 Z " fill="#DFB199" transform="translate(50,164)"/>
<path d="M0 0 C0.33 0.99 0.66 1.98 1 3 C0.071875 2.835 -0.85625 2.67 -1.8125 2.5 C-4.95621353 1.92251612 -4.95621353 1.92251612 -8 2 C-8 1.34 -8 0.68 -8 0 C-5.13822943 -1.43088528 -3.06624227 -0.59991697 0 0 Z " fill="#EABEA3" transform="translate(58,110)"/>
<path d="M0 0 C0.598125 0.20625 1.19625 0.4125 1.8125 0.625 C1.8125 1.285 1.8125 1.945 1.8125 2.625 C0.4925 2.625 -0.8275 2.625 -2.1875 2.625 C-2.1875 3.285 -2.1875 3.945 -2.1875 4.625 C-3.5075 4.625 -4.8275 4.625 -6.1875 4.625 C-5.03076352 1.15479057 -3.91311293 -0.67081936 0 0 Z " fill="#F2C6AD" transform="translate(70.1875,42.375)"/>
<path d="M0 0 C1.65 0 3.3 0 5 0 C5 1.32 5 2.64 5 4 C3.35 4 1.7 4 0 4 C0 2.68 0 1.36 0 0 Z " fill="#E9BBA3" transform="translate(152,91)"/>
<path d="M0 0 C1.98 0 3.96 0 6 0 C6.33 0.99 6.66 1.98 7 3 C3.98968256 3.93423645 3.13349732 4.04449911 0 3 C0 2.01 0 1.02 0 0 Z " fill="#EDC4AD" transform="translate(157,67)"/>
<path d="M0 0 C0.99 0 1.98 0 3 0 C2.67 1.32 2.34 2.64 2 4 C1.01 4 0.02 4 -1 4 C-1.33 4.99 -1.66 5.98 -2 7 C-2.33 6.34 -2.66 5.68 -3 5 C-3.66 4.67 -4.32 4.34 -5 4 C-4.34 3.34 -3.68 2.68 -3 2 C-2.01 2.33 -1.02 2.66 0 3 C0 2.01 0 1.02 0 0 Z " fill="#EFC3AA" transform="translate(141,52)"/>
<path d="M0 0 C0.66 0 1.32 0 2 0 C2.66 1.65 3.32 3.3 4 5 C3.34 5.66 2.68 6.32 2 7 C0.68 7 -0.64 7 -2 7 C-2 6.34 -2 5.68 -2 5 C-1.34 4.67 -0.68 4.34 0 4 C0 2.68 0 1.36 0 0 Z " fill="#E1B298" transform="translate(44,160)"/>
<path d="M0 0 C0.66 0.33 1.32 0.66 2 1 C1.67 3.31 1.34 5.62 1 8 C-0.32 7.67 -1.64 7.34 -3 7 C-3 6.34 -3 5.68 -3 5 C-2.34 5 -1.68 5 -1 5 C-1.33 4.01 -1.66 3.02 -2 2 C-1.34 1.34 -0.68 0.68 0 0 Z " fill="#E4B69C" transform="translate(83,128)"/>
<path d="M0 0 C0.66 0 1.32 0 2 0 C2 2.31 2 4.62 2 7 C0.68 7.33 -0.64 7.66 -2 8 C-2.6875 6.25 -2.6875 6.25 -3 4 C-1.6875 1.75 -1.6875 1.75 0 0 Z " fill="#ECC0A6" transform="translate(24,110)"/>
<path d="M0 0 C1.32 0.99 2.64 1.98 4 3 C3.67 4.32 3.34 5.64 3 7 C1.35 6.67 -0.3 6.34 -2 6 C-1.34 4.02 -0.68 2.04 0 0 Z " fill="#E9BDA4" transform="translate(132,84)"/>
<path d="M0 0 C0.99 0.66 1.98 1.32 3 2 C2.34 3.32 1.68 4.64 1 6 C-0.32 5.67 -1.64 5.34 -3 5 C-3 4.01 -3 3.02 -3 2 C-2.01 1.34 -1.02 0.68 0 0 Z " fill="#EBBFA6" transform="translate(119,46)"/>
<path d="M0 0 C1.98 0 3.96 0 6 0 C6 0.99 6 1.98 6 3 C3.69 3 1.38 3 -1 3 C-0.67 2.01 -0.34 1.02 0 0 Z " fill="#CEA78A" transform="translate(126,180)"/>
<path d="M0 0 C0.66 0.99 1.32 1.98 2 3 C3.32 3 4.64 3 6 3 C6 3.66 6 4.32 6 5 C3.36 5 0.72 5 -2 5 C-2.33 4.01 -2.66 3.02 -3 2 C-2.01 1.34 -1.02 0.68 0 0 Z " fill="#C4967C" transform="translate(211,158)"/>
<path d="M0 0 C1.32 0.33 2.64 0.66 4 1 C4.33 3.31 4.66 5.62 5 8 C4.34 8 3.68 8 3 8 C2.87625 7.360625 2.7525 6.72125 2.625 6.0625 C2.315625 5.0415625 2.315625 5.0415625 2 4 C1.34 3.67 0.68 3.34 0 3 C0 2.01 0 1.02 0 0 Z " fill="#E8BCA1" transform="translate(8,129)"/>
<path d="M0 0 C1.125 3.75 1.125 3.75 0 6 C-0.66 6 -1.32 6 -2 6 C-2 5.34 -2 4.68 -2 4 C-2.66 4 -3.32 4 -4 4 C-4 3.01 -4 2.02 -4 1 C-2.68 0.67 -1.36 0.34 0 0 Z " fill="#EBC0A7" transform="translate(112,98)"/>
<path d="M0 0 C0.33 1.98 0.66 3.96 1 6 C0.01 5.67 -0.98 5.34 -2 5 C-2 4.34 -2 3.68 -2 3 C-2.99 3 -3.98 3 -5 3 C-5 2.34 -5 1.68 -5 1 C-3 0 -3 0 0 0 Z " fill="#C8997F" transform="translate(160,130)"/>
<path d="M0 0 C0.33 0.66 0.66 1.32 1 2 C1.66 2 2.32 2 3 2 C3 2.99 3 3.98 3 5 C2.01 5 1.02 5 0 5 C0 5.99 0 6.98 0 8 C-0.66 8 -1.32 8 -2 8 C-2 6.68 -2 5.36 -2 4 C-1.34 4 -0.68 4 0 4 C0 2.68 0 1.36 0 0 Z " fill="#EEC4AB" transform="translate(23,88)"/>
<path d="M0 0 C0.99 0 1.98 0 3 0 C2.75 1.875 2.75 1.875 2 4 C-0.0625 5.25 -0.0625 5.25 -2 6 C-2 5.01 -2 4.02 -2 3 C-1.34 3 -0.68 3 0 3 C0 2.01 0 1.02 0 0 Z " fill="#E8BCA4" transform="translate(192,52)"/>
<path d="M0 0 C0 0.66 0 1.32 0 2 C-2.64 2 -5.28 2 -8 2 C-8 1.34 -8 0.68 -8 0 C-4.94736336 -0.98120464 -3.05263664 -0.98120464 0 0 Z " fill="#D1A389" transform="translate(256,101)"/>
<path d="M0 0 C2.31 0.66 4.62 1.32 7 2 C7 2.66 7 3.32 7 4 C5.1875 4.6875 5.1875 4.6875 3 5 C1.25 3.6875 1.25 3.6875 0 2 C0 1.34 0 0.68 0 0 Z " fill="#F3C8AF" transform="translate(122,83)"/>
<path d="M0 0 C0.99 0 1.98 0 3 0 C2.67 2.31 2.34 4.62 2 7 C1.01 6.67 0.02 6.34 -1 6 C-0.67 4.02 -0.34 2.04 0 0 Z " fill="#F2C8AF" transform="translate(91,49)"/>
<path d="M0 0 C1.65 0 3.3 0 5 0 C5 0.66 5 1.32 5 2 C5.66 2 6.32 2 7 2 C7 2.66 7 3.32 7 4 C4.625 3.6875 4.625 3.6875 2 3 C1.34 2.01 0.68 1.02 0 0 Z " fill="#DEB297" transform="translate(97,153)"/>
<path d="M0 0 C0.66 0 1.32 0 2 0 C2 1.98 2 3.96 2 6 C0.35 5.67 -1.3 5.34 -3 5 C-2.34 4.67 -1.68 4.34 -1 4 C-0.34786708 1.97536745 -0.34786708 1.97536745 0 0 Z " fill="#EDC2A9" transform="translate(136,91)"/>
</svg>
