<?xml version="1.0" encoding="UTF-8"?>
<svg version="1.1" xmlns="http://www.w3.org/2000/svg" width="1504" height="1428">
<path d="M0 0 C1.10537613 -0.01283524 2.21075226 -0.02567047 3.34962463 -0.03889465 C4.54127731 -0.04628159 5.73292999 -0.05366852 6.96069336 -0.0612793 C8.19411972 -0.06935104 9.42754608 -0.07742279 10.698349 -0.08573914 C13.31174315 -0.09957186 15.9251553 -0.11029764 18.53857422 -0.11816406 C22.51094242 -0.13133841 26.4826918 -0.17921812 30.45483398 -0.22338867 C32.99844768 -0.23352043 35.54206843 -0.24203502 38.08569336 -0.2487793 C39.26317642 -0.26628738 40.44065948 -0.28379547 41.65382385 -0.30183411 C53.93592438 -0.26996361 64.39337125 3.54005647 73.42553711 11.98950195 C82.93256906 22.15219128 85.88540255 33.78532203 85.86303711 47.36450195 C85.86062012 48.88708618 85.86062012 48.88708618 85.8581543 50.44042969 C85.70903991 59.59269064 84.57971696 68.05690481 79.17553711 75.73950195 C77.24656739 77.94346753 77.24656739 77.94346753 77.73022461 80.0324707 C78.89203095 83.32026286 80.57963045 86.28681649 82.23413086 89.34887695 C85.45522368 96.61389627 85.87595593 103.52084269 85.86303711 111.36450195 C85.86062012 112.88708618 85.86062012 112.88708618 85.8581543 114.44042969 C85.70903991 123.59269064 84.57971696 132.05690481 79.17553711 139.73950195 C77.24656739 141.94346753 77.24656739 141.94346753 77.73022461 144.0324707 C78.89203095 147.32026286 80.57963045 150.28681649 82.23413086 153.34887695 C85.45522368 160.61389627 85.87595593 167.52084269 85.86303711 175.36450195 C85.86062012 176.88708618 85.86062012 176.88708618 85.8581543 178.44042969 C85.70903991 187.59269064 84.57971696 196.05690481 79.17553711 203.73950195 C77.24656739 205.94346753 77.24656739 205.94346753 77.73022461 208.0324707 C78.89203095 211.32026286 80.57963045 214.28681649 82.23413086 217.34887695 C85.45522368 224.61389627 85.87595593 231.52084269 85.86303711 239.36450195 C85.86062012 240.88708618 85.86062012 240.88708618 85.8581543 242.44042969 C85.70970569 251.55182682 84.65750205 260.11465351 79.11303711 267.67700195 C78.30866211 268.91450195 78.30866211 268.91450195 77.48803711 270.17700195 C78.21190625 272.57103438 78.21190625 272.57103438 79.48803711 275.17700195 C80.1087207 276.63106445 80.1087207 276.63106445 80.74194336 278.11450195 C81.61474176 280.15711076 82.48974481 282.19877892 83.36694336 284.23950195 C88.09918499 296.63896434 87.07065428 313.62214901 82.36303711 325.84887695 C81.3121312 328.23051648 81.3121312 328.23051648 81.48803711 331.17700195 C82.20991211 331.89887695 82.93178711 332.62075195 83.67553711 333.36450195 C92.20132782 341.89029267 94.8563935 351.96651997 94.89819336 363.80981445 C94.88079102 365.47657227 94.88079102 365.47657227 94.86303711 367.17700195 C94.88043945 368.84375977 94.88043945 368.84375977 94.89819336 370.54418945 C94.86928285 378.73550015 93.79500977 385.91797551 89.86303711 393.17700195 C89.38246765 397.02155764 90.32926864 397.69935718 92.61303711 400.73950195 C101.99030554 413.29801332 101.7723828 428.07850438 100.48803711 443.17700195 C99.54172481 449.56986729 97.45869054 455.00860546 93.67553711 460.23950195 C90.21868897 465.43012532 91.35154825 470.29991038 92.48803711 476.17700195 C99.8264364 511.62402236 115.57077697 545.7263837 146.48803711 566.17700195 C146.46003525 564.88979248 146.43203339 563.60258301 146.40318298 562.27636719 C145.86201937 537.11914516 145.41897427 511.96462031 145.24194336 486.80200195 C145.23363873 485.66933899 145.22533409 484.53667603 145.2167778 483.36968994 C145.14062669 472.98307832 145.06906487 462.59644771 145.01123047 452.2097168 C144.86544456 426.60345556 144.53981371 401.05312787 143.17079163 375.47900391 C141.56524464 345.28721729 141.55468554 312.25875618 162.63720703 288.08374023 C164.8431774 285.69295459 167.14217546 283.43155761 169.48803711 281.17700195 C170.14288086 280.51442383 170.79772461 279.8518457 171.47241211 279.16918945 C193.09629397 258.56181486 226.79266476 254.46581286 255.26928711 254.98950195 C327.77638854 257.18668684 395.26940516 286.37409699 449.6965332 333.67285156 C450.98257566 334.75261548 452.29657059 335.79941217 453.62719727 336.82373047 C463.00441243 344.1467762 471.22568506 352.64877317 479.59594727 361.07910156 C482.24041326 363.74189457 484.89286465 366.39652756 487.54663086 369.05004883 C489.25153121 370.75986351 490.95597417 372.47013441 492.65991211 374.1809082 C493.44235291 374.96446182 494.2247937 375.74801544 495.03094482 376.55531311 C499.71127091 381.2757315 504.15596753 386.13674333 508.48803711 391.17700195 C509.94249228 392.78468568 511.40024606 394.3893991 512.86303711 395.98950195 C516.7352053 400.279577 520.40379359 404.70118274 524.03881836 409.19262695 C526.80614947 412.56462212 529.63968954 415.8734922 532.48803711 419.17700195 C537.58688275 425.09932313 542.56590761 431.10664322 547.48803711 437.17700195 C548.48359578 438.39098262 549.47972665 439.60449419 550.47631836 440.81762695 C557.20982479 449.03201389 563.75088875 457.36870035 570.17163086 465.8293457 C572.98692514 469.53429639 575.84818452 473.20104325 578.72119141 476.86132812 C585.69368765 485.75301914 592.40104658 494.80525882 598.94848633 504.01391602 C600.40463832 506.05982573 601.86920902 508.09942944 603.33569336 510.13793945 C656.9832851 585.04439723 696.45403715 666.83019846 767.42333984 1236.61376953 C766.2233082 1243.82258413 764.88742485 1251.00446959 763.48803711 1258.17700195 C763.26374023 1259.32974609 763.03944336 1260.48249023 762.80834961 1261.67016602 C759.09850313 1280.08300701 753.7836031 1298.106774 748.61322403 1316.15005493 C748.06034122 1318.08027395 747.50908348 1320.01095821 746.95785522 1321.94165039 C723.94483706 1402.29508545 723.94483706 1402.29508545 697.21850586 1419.71606445 C684.0710684 1426.75060181 670.42264735 1428.62330172 655.73803711 1428.61450195 C654.69658539 1428.6151062 654.69658539 1428.6151062 653.63409424 1428.61572266 C605.43170385 1428.45666149 558.73086356 1409.99130432 515.48803711 1390.17700195 C514.40490234 1389.68167969 513.32176758 1389.18635742 512.20581055 1388.67602539 C498.93577283 1382.56665709 486.08328602 1375.82965988 473.31665039 1368.73608398 C470.40450205 1367.13095889 467.47850199 1365.55438301 464.54663086 1363.9855957 C451.89597572 1357.21418921 439.46975986 1350.15063848 427.16186523 1342.77563477 C422.82360077 1340.18186598 418.4672696 1337.61883893 414.11303711 1335.05200195 C407.67972553 1331.25386023 401.25290871 1327.4449244 394.83178711 1323.6262207 C364.63497343 1305.65265685 364.63497343 1305.65265685 334.11303711 1288.23950195 C299.29285939 1268.80473067 264.45178182 1248.94012871 235.48803711 1221.17700195 C234.95823242 1220.67442871 234.42842773 1220.17185547 233.88256836 1219.65405273 C202.6647103 1189.90995935 186.81624602 1153.54500085 185.56225586 1110.46606445 C185.26602534 1093.68560791 187.1225429 1077.04847167 189.07843018 1060.41027832 C194.22783055 1016.45545695 190.90244044 977.81227867 183.48803711 934.17700195 C183.30740723 933.10814758 183.12677734 932.03929321 182.94067383 930.93804932 C176.99415837 895.86521585 169.55436997 861.28225559 158.54467773 827.42993164 C149.24867809 798.81165546 144.560318 772.29575123 147.20646667 742.09114075 C148.59446784 726.24319568 148.76889735 710.45549944 148.68527222 694.55914307 C148.67539297 692.45885921 148.66965795 690.35860295 148.6652832 688.25830078 C148.62342219 668.2215889 148.44414278 648.19419312 147.48803711 628.17700195 C146.61816162 627.80003174 145.74828613 627.42306152 144.85205078 627.03466797 C90.12046617 603.29548995 90.12046617 603.29548995 66.49194336 585.68969727 C52.10639357 574.99571342 36.61090379 564.16194592 17.82006836 565.3449707 C15.26949108 565.75452286 12.94430017 566.37900841 10.48803711 567.17700195 C9.60245117 567.45157227 8.71686523 567.72614258 7.80444336 568.0090332 C-3.49270157 572.10175735 -12.83116733 579.89784993 -22.33618164 587.05200195 C-46.39753839 605.11155861 -73.82860515 616.77897121 -101.51196289 628.17700195 C-103.61692571 683.71678026 -103.61692571 683.71678026 -101.23461914 739.16894531 C-98.52664578 769.5166652 -102.2714451 796.39832213 -111.67333984 825.12451172 C-125.82574713 868.37506973 -133.76214413 912.57706398 -140.88696289 957.42700195 C-140.9991151 958.13283165 -141.11126732 958.83866135 -141.22681808 959.56587982 C-141.98075058 964.31564855 -142.7284032 969.06637006 -143.47290039 973.81762695 C-143.75991066 975.63887589 -143.75991066 975.63887589 -144.05271912 977.49691772 C-148.87978872 1008.51357036 -145.4192578 1038.24590334 -141.92211914 1069.26293945 C-136.62155899 1116.2904038 -139.38753926 1161.088259 -169.58227539 1199.57543945 C-172.76831438 1203.53876388 -176.09664834 1207.35420913 -179.56274414 1211.07543945 C-181.30723995 1212.95627862 -182.94663857 1214.88318227 -184.57446289 1216.86450195 C-187.18228691 1219.91756422 -190.02087547 1222.52488261 -193.08227539 1225.1184082 C-194.90897043 1226.66610641 -196.71251235 1228.24119658 -198.50415039 1229.8293457 C-225.57351458 1253.73553923 -257.48626552 1271.24630678 -288.94946289 1288.61450195 C-301.45933659 1295.5203847 -313.74410809 1302.77031095 -326.01147461 1310.09594727 C-331.51603503 1313.37483915 -337.05069671 1316.60253478 -342.58224487 1319.83560181 C-351.35808349 1324.96513219 -360.11913115 1330.11580315 -368.82446289 1335.36450195 C-432.69355032 1373.81149561 -498.77812532 1410.07503821 -572.51196289 1425.17700195 C-573.35823242 1425.35634277 -574.20450195 1425.53568359 -575.07641602 1425.72045898 C-599.76831412 1430.80319435 -631.63165833 1432.3106669 -653.51196289 1418.17700195 C-702.35610188 1381.83291628 -714.99929996 1279.38674429 -723.22680664 1223.48168945 C-726.56315074 1200.32713674 -728.62711694 1176.96861622 -728.75024414 1153.5715332 C-728.75512974 1152.85331139 -728.76001534 1152.13508957 -728.76504898 1151.39510345 C-728.80170481 1145.92657516 -728.8181733 1140.4581441 -728.82446289 1134.98950195 C-728.82546619 1134.17810131 -728.8264695 1133.36670067 -728.8275032 1132.53071213 C-728.8490014 1104.09131368 -727.75168498 1075.98361328 -724.86669922 1047.67456055 C-724.48598966 1043.92091629 -724.11648555 1040.16626871 -723.74829102 1036.41137695 C-715.05190635 948.035159 -702.54816713 860.10535448 -662.51196289 715.17700195 C-662.15748077 714.10385742 -662.15748077 714.10385742 -661.7958374 713.0090332 C-652.32712933 684.36150645 -641.64192021 656.36977323 -628.51196289 629.17700195 C-628.22430054 628.57976318 -627.93663818 627.98252441 -627.64025879 627.3671875 C-619.47683509 610.43456974 -610.82088393 593.94662769 -601.10717773 577.83813477 C-599.65134213 575.409514 -598.22587319 572.96657358 -596.81274414 570.51293945 C-590.15736021 559.04714355 -582.86132896 548.01736781 -575.51196289 536.98950195 C-574.75777069 535.85671814 -574.75777069 535.85671814 -573.98834229 534.7010498 C-562.96817524 518.17326982 -551.53843727 501.98776657 -539.51196289 486.17700195 C-538.97925781 485.47542969 -538.44655273 484.77385742 -537.89770508 484.05102539 C-526.83773289 469.49497167 -515.55396882 455.14329369 -503.98852539 440.9855957 C-502.68148748 439.38464716 -501.37772933 437.78102219 -500.07446289 436.17700195 C-495.6454409 430.73563208 -491.14519073 425.36050801 -486.59960938 420.01660156 C-483.66887748 416.56521508 -480.79467058 413.07464005 -477.94946289 409.55200195 C-474.0726652 404.78749388 -469.99724757 400.24056305 -465.84008789 395.7199707 C-463.90502027 393.60633141 -462.00987993 391.47040347 -460.13696289 389.30200195 C-451.31549373 379.17683377 -442.0207242 369.52069305 -432.51049805 360.04516602 C-430.74547745 358.28556716 -428.98595156 356.52059798 -427.22680664 354.75512695 C-421.49116471 349.0158634 -415.72204259 343.40778588 -409.51196289 338.17700195 C-408.54774414 337.33137695 -407.58352539 336.48575195 -406.59008789 335.61450195 C-381.65687056 314.12509917 -354.17508514 296.37345845 -324.51196289 282.17700195 C-323.35438477 281.6149707 -322.19680664 281.05293945 -321.00415039 280.47387695 C-271.26009314 257.48202328 -204.72381242 244.18446328 -151.76196289 263.48950195 C-128.79008053 272.94683163 -113.41721659 287.10784713 -103.51196289 310.17700195 C-95.29997659 331.19546207 -95.84215951 353.3806758 -96.96020508 375.5246582 C-98.10913258 398.54854159 -98.73140771 421.54722042 -98.89086914 444.59887695 C-98.89795666 445.61303602 -98.89795666 445.61303602 -98.90518737 446.64768314 C-98.96710464 455.66600522 -99.01294389 464.68438456 -99.05456543 473.70281982 C-99.10362873 484.26224226 -99.16393504 494.8216055 -99.23018211 505.38093305 C-99.25817252 509.907404 -99.2788502 514.43387045 -99.29750061 518.96038818 C-99.37987611 535.04928706 -99.81327839 551.10309638 -100.51196289 567.17700195 C-70.13538091 546.38597868 -56.02887013 513.21673455 -48.01196289 478.17700195 C-47.85163574 477.47808838 -47.69130859 476.7791748 -47.52612305 476.05908203 C-45.830211 467.96870422 -45.830211 467.96870422 -47.50024414 460.1027832 C-47.93723633 459.57040039 -48.37422852 459.03801758 -48.82446289 458.48950195 C-56.5079423 447.16073543 -55.82501394 430.64318392 -54.00805664 417.54418945 C-52.41192799 410.41177459 -49.588915 403.75745532 -44.79321289 398.17700195 C-43.30074584 396.30013418 -43.30074584 396.30013418 -43.69555664 394.25512695 C-44.28225459 392.76171398 -44.87993161 391.27259692 -45.48461914 389.78637695 C-48.40124507 382.13415408 -48.91890833 375.12823891 -48.94946289 366.98950195 C-48.95921143 365.98048828 -48.96895996 364.97147461 -48.97900391 363.93188477 C-48.82407204 350.10336764 -43.65303733 339.39349691 -34.51196289 329.17700195 C-34.78911133 328.52473633 -35.06625977 327.8724707 -35.35180664 327.20043945 C-35.7140332 326.32645508 -36.07625977 325.4524707 -36.44946289 324.55200195 C-36.80911133 323.69348633 -37.16875977 322.8349707 -37.53930664 321.95043945 C-41.98537213 309.27290332 -41.0218635 291.98185994 -35.45727539 279.8840332 C-34.79248333 278.55202284 -34.10379124 277.23132957 -33.37915039 275.9309082 C-32.37222923 273.89438749 -31.73309698 272.4551003 -31.51196289 270.17700195 C-32.64100069 267.37933662 -32.64100069 267.37933662 -34.32446289 264.48950195 C-38.86849628 256.34046345 -39.88490238 248.5136912 -39.82446289 239.30200195 C-39.82027344 238.42576172 -39.81608398 237.54952148 -39.81176758 236.64672852 C-39.6530461 227.53881707 -37.82529976 219.90985068 -33.37915039 211.9309082 C-32.37222923 209.89438749 -31.73309698 208.4551003 -31.51196289 206.17700195 C-32.64100069 203.37933662 -32.64100069 203.37933662 -34.32446289 200.48950195 C-38.75612423 192.54198577 -39.88825827 184.85687635 -39.82446289 175.86450195 C-39.81954834 175.03708496 -39.81463379 174.20966797 -39.80957031 173.35717773 C-39.62365263 163.57695425 -37.76005187 155.34875352 -32.50024414 147.0168457 C-31.27535925 145.08460544 -31.27535925 145.08460544 -31.51196289 142.17700195 C-32.90914046 139.2508376 -34.45629003 136.42439983 -36.00415039 133.57543945 C-39.13355136 126.52212639 -39.87877115 119.51960477 -39.82446289 111.86450195 C-39.81954834 111.03708496 -39.81463379 110.20966797 -39.80957031 109.35717773 C-39.62365263 99.57695425 -37.76005187 91.34875352 -32.50024414 83.0168457 C-31.27535925 81.08460544 -31.27535925 81.08460544 -31.51196289 78.17700195 C-32.90914046 75.2508376 -34.45629003 72.42439983 -36.00415039 69.57543945 C-41.65001592 56.85030212 -41.51553288 39.94810194 -36.76977539 27.00512695 C-30.86311008 13.72430184 -22.84865349 6.85462167 -9.51196289 1.17700195 C-6.30014426 0.18923926 -3.35364597 0.03401617 0 0 Z M-5.91821289 36.89575195 C-7.7898127 40.74904568 -8.0466809 43.4066872 -8.01196289 47.67700195 C-8.02227539 48.94543945 -8.03258789 50.21387695 -8.04321289 51.52075195 C-7.42979136 55.74253543 -6.182444 57.88727884 -3.51196289 61.17700195 C-0.36039931 63.27804434 0.44151748 63.43603839 4.04785156 63.48339844 C4.96923416 63.49938583 5.89061676 63.51537323 6.83992004 63.53184509 C7.83368149 63.53720779 8.82744293 63.5425705 9.85131836 63.5480957 C10.87605759 63.55712418 11.90079681 63.56615265 12.95658875 63.57545471 C15.12614008 63.5899688 17.29573529 63.59884681 19.46533203 63.60253906 C22.77769222 63.61442001 26.08818043 63.66358271 29.40014648 63.71411133 C31.50886136 63.72357733 33.61758767 63.73081152 35.72631836 63.7355957 C36.71400711 63.75512802 37.70169586 63.77466034 38.71931458 63.79478455 C43.22097049 63.76539188 46.48171375 63.69172825 50.09814453 60.82958984 C53.86603847 56.64753165 53.67358783 53.26944875 53.73803711 47.80200195 C53.77670898 45.84133789 53.77670898 45.84133789 53.81616211 43.84106445 C53.39520031 39.14032436 52.02291956 36.56334739 48.55053711 33.42700195 C43.97562123 30.65432566 39.01896482 31.00117938 33.81225586 30.97387695 C32.96887161 30.96817688 32.12548737 30.96247681 31.25654602 30.956604 C29.47377775 30.94717099 27.69099217 30.94062678 25.90820312 30.93676758 C23.19556889 30.92707354 20.48369644 30.89603928 17.77124023 30.86450195 C16.03491658 30.85797001 14.29858754 30.85272029 12.56225586 30.84887695 C11.35565559 30.83035675 11.35565559 30.83035675 10.12467957 30.8114624 C3.62314494 30.83688919 -1.42309373 31.81685108 -5.91821289 36.89575195 Z M-5.85571289 100.89575195 C-7.80527931 104.75810053 -8.0470057 107.3667358 -8.01196289 111.67700195 C-8.02227539 112.94543945 -8.03258789 114.21387695 -8.04321289 115.52075195 C-7.42979136 119.74253543 -6.182444 121.88727884 -3.51196289 125.17700195 C-0.36039931 127.27804434 0.44151748 127.43603839 4.04785156 127.48339844 C4.96923416 127.49938583 5.89061676 127.51537323 6.83992004 127.53184509 C7.83368149 127.53720779 8.82744293 127.5425705 9.85131836 127.5480957 C10.87605759 127.55712418 11.90079681 127.56615265 12.95658875 127.57545471 C15.12614008 127.5899688 17.29573529 127.59884681 19.46533203 127.60253906 C22.77769222 127.61442001 26.08818043 127.66358271 29.40014648 127.71411133 C31.50886136 127.72357733 33.61758767 127.73081152 35.72631836 127.7355957 C36.71400711 127.75512802 37.70169586 127.77466034 38.71931458 127.79478455 C43.22097049 127.76539188 46.48171375 127.69172825 50.09814453 124.82958984 C53.85923048 120.65508797 53.75590689 116.73562179 53.86303711 111.36450195 C53.90041992 110.66518555 53.93780273 109.96586914 53.97631836 109.24536133 C54.04142561 105.37871397 53.68434217 102.89406149 51.27709961 99.7902832 C46.00419818 94.84970749 41.13384948 94.86884994 34.24194336 94.8762207 C33.3532103 94.87193558 32.46447723 94.86765045 31.54881287 94.86323547 C29.67366384 94.85750573 27.79849259 94.8569819 25.92333984 94.86132812 C23.06365836 94.86448746 20.20501267 94.84101445 17.34545898 94.81567383 C15.51928841 94.81340054 13.69311506 94.81269748 11.86694336 94.8137207 C11.01677139 94.80451096 10.16659943 94.79530121 9.29066467 94.78581238 C2.90732712 94.83524976 -1.51287176 95.85805624 -5.85571289 100.89575195 Z M-5.88696289 164.48950195 C-8.94653771 169.57172456 -8.22574026 176.5182264 -7.51196289 182.17700195 C-5.85753287 186.38643858 -4.34912795 188.79790494 -0.51196289 191.17700195 C1.73822062 191.63871706 1.73822062 191.63871706 4.16137695 191.59692383 C5.54333755 191.62079163 5.54333755 191.62079163 6.95321655 191.6451416 C7.94181671 191.64534302 8.93041687 191.64554443 9.94897461 191.64575195 C10.97229889 191.65336548 11.99562317 191.660979 13.04995728 191.66882324 C15.21353721 191.6796227 17.37716927 191.68247799 19.54077148 191.67797852 C22.84439521 191.67700743 26.14568693 191.71860663 29.44897461 191.76293945 C31.55313644 191.76814753 33.65730633 191.77083463 35.76147461 191.77075195 C37.23830215 191.79534485 37.23830215 191.79534485 38.7449646 191.82043457 C43.23693957 191.77537291 46.48871254 191.68213312 50.09594727 188.82739258 C53.86112495 184.65564641 53.75590495 180.73571906 53.86303711 175.36450195 C53.90041992 174.66518555 53.93780273 173.96586914 53.97631836 173.24536133 C54.04142561 169.37871397 53.68434217 166.89406149 51.27709961 163.7902832 C46.00419818 158.84970749 41.13384948 158.86884994 34.24194336 158.8762207 C33.3532103 158.87193558 32.46447723 158.86765045 31.54881287 158.86323547 C29.67366384 158.85750573 27.79849259 158.8569819 25.92333984 158.86132812 C23.06365836 158.86448746 20.20501267 158.84101445 17.34545898 158.81567383 C15.51928841 158.81340054 13.69311506 158.81269748 11.86694336 158.8137207 C11.01677139 158.80451096 10.16659943 158.79530121 9.29066467 158.78581238 C3.02018342 158.83437572 -1.25418871 159.97864288 -5.88696289 164.48950195 Z M-5.88696289 228.48950195 C-8.94653771 233.57172456 -8.22574026 240.5182264 -7.51196289 246.17700195 C-5.85786776 250.38558651 -4.35009297 252.8001285 -0.51196289 255.17700195 C1.74575779 255.63227126 1.74575779 255.63227126 4.17724609 255.58105469 C5.10178085 255.59373886 6.02631561 255.60642303 6.97886658 255.61949158 C8.4664724 255.61508812 8.4664724 255.61508812 9.98413086 255.6105957 C11.00982681 255.61583755 12.03552277 255.62107941 13.09230042 255.6264801 C15.26009212 255.63289951 17.42791865 255.63156438 19.59570312 255.62304688 C22.91005602 255.61454168 26.22268281 255.64329294 29.53686523 255.67504883 C31.64428659 255.67666107 33.751711 255.67608287 35.85913086 255.6730957 C37.34370033 255.68994667 37.34370033 255.68994667 38.85826111 255.70713806 C43.2570845 255.6626563 45.77270342 255.62252127 49.57226562 253.25610352 C54.48023926 247.92969807 54.12602374 241.96851708 53.94506836 235.05981445 C53.40731902 230.49124316 52.38048749 228.35183775 49.09350586 225.2434082 C46.2493632 223.35423315 43.70026592 223.04722848 40.38720703 223.01586914 C39.15528877 223.00145782 39.15528877 223.00145782 37.89848328 222.98675537 C37.01409073 222.98250549 36.12969818 222.97825562 35.21850586 222.97387695 C34.30474686 222.96817688 33.39098785 222.96247681 32.44953918 222.956604 C30.51536211 222.94715778 28.58116896 222.94062152 26.64697266 222.93676758 C23.69722175 222.92707322 20.74817104 222.89605097 17.79858398 222.86450195 C15.91772874 222.85797048 14.03686852 222.85272057 12.15600586 222.84887695 C11.277686 222.83653015 10.39936615 222.82418335 9.49443054 222.8114624 C3.12832823 222.83446046 -1.17722429 223.90370384 -5.88696289 228.48950195 Z M-381.51196289 357.17700195 C-382.14392578 357.70600098 -382.77588867 358.235 -383.42700195 358.7800293 C-389.7187724 364.05112043 -395.89094413 369.33998842 -401.59033203 375.25830078 C-403.41435415 377.07954202 -405.29864381 378.74358967 -407.26586914 380.4074707 C-411.49442459 384.08017572 -415.29294452 388.05170918 -419.07446289 392.17700195 C-423.2778561 396.7339516 -427.50846856 401.23306852 -431.9309082 405.57910156 C-434.9537344 408.63413514 -437.7188937 411.91313132 -440.51196289 415.17700195 C-441.40767691 416.22007318 -442.30352019 417.2630334 -443.19946289 418.3059082 C-445.24661301 420.69017608 -447.29026249 423.077396 -449.33227539 425.46606445 C-451.40166987 427.88521575 -453.47973597 430.29638929 -455.56665039 432.70043945 C-461.03055372 439.0077344 -466.32315511 445.40343821 -471.43798828 451.99731445 C-474.53490461 455.97596464 -477.73248448 459.84784484 -481.01196289 463.67700195 C-486.18765219 469.73237554 -491.12535061 475.95043831 -496.00805664 482.2434082 C-497.60708492 484.2993017 -499.21516328 486.34789033 -500.82446289 488.39575195 C-536.83769319 534.31147915 -569.170507 583.06691364 -595.51196289 635.17700195 C-596.03258301 636.20212891 -596.55320312 637.22725586 -597.08959961 638.28344727 C-618.05690627 679.83556183 -632.97633927 724.43897457 -645.51196289 769.17700195 C-645.83070374 770.31177979 -645.83070374 770.31177979 -646.15588379 771.46948242 C-671.48707304 861.89868881 -683.9799869 955.43575584 -692.82446289 1050.92700195 C-692.88963985 1051.63133488 -692.95481682 1052.3356678 -693.02196884 1053.06134415 C-693.45799669 1057.78167695 -693.88710986 1062.50259544 -694.31274414 1067.22387695 C-694.47324753 1068.98488991 -694.47324753 1068.98488991 -694.63699341 1070.78147888 C-695.89093151 1084.87348876 -696.67288354 1098.85477764 -696.71508789 1113.00512695 C-696.72215333 1114.47613557 -696.729286 1115.94714387 -696.73648071 1117.41815186 C-696.75598473 1122.08777375 -696.76117238 1126.75734313 -696.76196289 1131.42700195 C-696.76225746 1132.22297791 -696.76255203 1133.01895386 -696.76285553 1133.83905029 C-696.76426418 1157.39824465 -696.66465857 1180.78792821 -693.51196289 1204.17700195 C-693.41014709 1204.94715637 -693.3083313 1205.71731079 -693.20343018 1206.51080322 C-690.35491385 1227.95126591 -686.77137561 1249.18352132 -681.51196289 1270.17700195 C-681.23690918 1271.28011719 -680.96185547 1272.38323242 -680.6784668 1273.51977539 C-676.75608295 1289.06329986 -672.34069289 1304.47316254 -667.85110474 1319.86087036 C-667.30306463 1321.74089286 -666.75744441 1323.62162293 -666.21456909 1325.50314331 C-656.66563269 1363.38755222 -656.66563269 1363.38755222 -633.11743164 1392.6340332 C-601.44731021 1407.49745669 -553.28767094 1388.83419697 -522.94165039 1377.9699707 C-494.11851911 1367.33150433 -466.17756556 1353.77001988 -439.39624023 1338.78540039 C-436.30316168 1337.06056532 -433.19951398 1335.3558905 -430.09399414 1333.65356445 C-415.2680458 1325.50625315 -400.662082 1317.03359649 -386.14575195 1308.34838867 C-379.50716818 1304.37834416 -372.85154944 1300.43686059 -366.19946289 1296.48950195 C-364.14695001 1295.2712583 -362.09448286 1294.05293765 -360.04203796 1292.83457947 C-358.71550061 1292.04714279 -357.38893241 1291.25975806 -356.06233215 1290.47242737 C-352.23281169 1288.19943753 -348.40510445 1285.92342903 -344.57836914 1283.64575195 C-334.70871017 1277.78012536 -324.78964403 1272.00375738 -314.82446289 1266.30200195 C-313.94229095 1265.79719803 -313.94229095 1265.79719803 -313.04229736 1265.28219604 C-305.41673897 1260.92382087 -297.75115594 1256.64803484 -290.04931641 1252.42578125 C-264.10329654 1238.17839608 -238.79416914 1222.3565033 -216.88305664 1202.32543945 C-214.77432922 1200.41473091 -212.62416184 1198.57400048 -210.44946289 1196.73950195 C-188.54067105 1177.45976513 -173.86842319 1149.48639152 -171.67602539 1120.3762207 C-170.61801494 1099.74501695 -173.0425425 1079.33068006 -175.32298279 1058.85317993 C-179.56191258 1020.72113806 -178.17077796 986.2169387 -172.02484131 948.34246826 C-171.51934127 945.22254103 -171.02095379 942.10155034 -170.52416992 938.98022461 C-163.46619896 894.81139913 -154.54469608 851.33952236 -140.28027344 808.88134766 C-135.17483739 793.61694648 -132.33440263 779.38449389 -132.32446289 763.30200195 C-132.3122168 762.32875977 -132.2999707 761.35551758 -132.28735352 760.3527832 C-132.27704443 754.77900521 -132.47770154 749.28970849 -132.96606445 743.73925781 C-134.7369678 723.55071858 -134.75007942 703.48774512 -134.64929199 683.23809814 C-134.62844607 678.59079871 -134.61961744 673.94347576 -134.60961914 669.29614258 C-134.58847928 660.25636963 -134.55456901 651.21669754 -134.51196289 642.17700195 C-140.58467846 644.15652108 -145.98937863 646.83845419 -151.63696289 649.80200195 C-153.18456299 650.61386963 -153.18456299 650.61386963 -154.76342773 651.44213867 C-162.01576475 655.29104199 -168.9028058 659.28737847 -175.51196289 664.17700195 C-176.0340332 664.56065918 -176.55610352 664.94431641 -177.09399414 665.33959961 C-183.76817672 670.26903832 -190.13536083 675.46193209 -196.23852539 681.09106445 C-198.35090529 683.02922746 -200.51194361 684.88723467 -202.69946289 686.73950195 C-206.70792345 690.2449087 -210.09008251 694.10755457 -213.51196289 698.17700195 C-214.32407227 699.10125977 -215.13618164 700.02551758 -215.97290039 700.9777832 C-239.27913094 727.64503989 -255.64666621 759.36501715 -268.51196289 792.17700195 C-268.84437988 792.99330078 -269.17679687 793.80959961 -269.51928711 794.65063477 C-274.74301575 808.46442932 -265.9313689 825.57332839 -260.32446289 838.23950195 C-251.38146179 857.77908705 -239.23934234 875.46066833 -223.51196289 890.17700195 C-221.84529622 891.84366862 -220.17862956 893.51033529 -218.51196289 895.17700195 C-217.74883789 895.79575195 -216.98571289 896.41450195 -216.19946289 897.05200195 C-213.76558138 900.11688978 -214.09012477 902.38045891 -214.51196289 906.17700195 C-216.51196289 908.17700195 -216.51196289 908.17700195 -219.23071289 908.5402832 C-223.2169069 908.09895458 -225.7838378 906.58201928 -229.01196289 904.36450195 C-229.61435791 903.96287842 -230.21675293 903.56125488 -230.83740234 903.14746094 C-244.64641904 893.78915106 -257.85969854 883.05614054 -268.51196289 870.17700195 C-269.71852539 868.76741211 -269.71852539 868.76741211 -270.94946289 867.3293457 C-275.8933071 861.52992509 -280.4871613 855.65595085 -284.51196289 849.17700195 C-287.65124234 854.80112099 -288.49944373 861.23917982 -289.76196289 867.48950195 C-289.91369965 868.23965576 -290.0654364 868.98980957 -290.22177124 869.76269531 C-293.5753496 886.76018214 -295.23132718 903.94493747 -296.82446289 921.17700195 C-296.8862825 921.84283421 -296.94810211 922.50866646 -297.01179504 923.19467545 C-301.72661367 974.11726903 -305.00240086 1025.12215536 -300.51196289 1076.17700195 C-299.54258789 1076.43352539 -298.57321289 1076.69004883 -297.57446289 1076.9543457 C-274.78431741 1083.31859215 -256.21875194 1096.79285264 -244.31811523 1117.50927734 C-238.75703486 1127.60689324 -234.88651487 1138.56589071 -234.51196289 1150.17700195 C-235.17196289 1151.49700195 -235.83196289 1152.81700195 -236.51196289 1154.17700195 C-239.48196289 1154.17700195 -242.45196289 1154.17700195 -245.51196289 1154.17700195 C-245.64731445 1153.47317383 -245.78266602 1152.7693457 -245.92211914 1152.04418945 C-249.97518349 1133.45348709 -260.65156946 1117.73398208 -276.53540039 1107.1652832 C-286.39142967 1101.1896079 -286.39142967 1101.1896079 -297.51196289 1099.17700195 C-295.17851118 1117.31242488 -291.84260178 1135.47997226 -286.07446289 1152.86450195 C-284.55915073 1157.46679302 -284.13272824 1160.50882314 -285.51196289 1165.17700195 C-286.51196289 1166.17700195 -286.51196289 1166.17700195 -289.76196289 1166.73950195 C-293.51196289 1166.17700195 -293.51196289 1166.17700195 -294.78735352 1164.78735352 C-298.302393 1158.85913926 -301.09861454 1152.71652301 -303.76196289 1146.36450195 C-304.23432373 1145.24825439 -304.70668457 1144.13200684 -305.19335938 1142.98193359 C-309.20169575 1133.31983238 -312.56202026 1123.52422822 -315.69458008 1113.546875 C-316.03779297 1112.46446533 -316.38100586 1111.38205566 -316.73461914 1110.2668457 C-317.03118408 1109.30641357 -317.32774902 1108.34598145 -317.63330078 1107.35644531 C-318.30101068 1105.00650796 -318.30101068 1105.00650796 -320.51196289 1104.17700195 C-334.52937165 1137.61955077 -343.31812206 1170.97745555 -335.51196289 1207.17700195 C-334.42387535 1212.85107807 -334.42387535 1212.85107807 -335.13696289 1215.48950195 C-336.51196289 1217.17700195 -336.51196289 1217.17700195 -338.88696289 1218.05200195 C-341.99696152 1218.20009713 -343.00549071 1218.01769246 -345.51196289 1216.17700195 C-346.59303652 1213.67440609 -347.40449436 1211.40460289 -348.13696289 1208.80200195 C-348.34933594 1208.08173828 -348.56170898 1207.36147461 -348.78051758 1206.61938477 C-358.79640849 1171.63364488 -351.84598038 1135.32757173 -340.57446289 1101.61450195 C-340.32174622 1100.8582251 -340.06902954 1100.10194824 -339.80865479 1099.32275391 C-339.06227295 1097.10357547 -338.30699992 1094.88768569 -337.54711914 1092.6730957 C-337.30247925 1091.95435272 -337.05783936 1091.23560974 -336.80578613 1090.49508667 C-335.59204827 1087.00139732 -334.29312522 1083.61302086 -332.72631836 1080.26147461 C-328.44858181 1071.00330013 -328.16006671 1064.58314531 -330.51196289 1054.67700195 C-330.88514648 1052.86329102 -330.88514648 1052.86329102 -331.26586914 1051.01293945 C-332.45783022 1045.33396257 -333.81464462 1039.72592708 -335.51196289 1034.17700195 C-337.56558015 1036.79896212 -339.23123979 1039.37559113 -340.71899414 1042.3527832 C-341.13334717 1043.16908203 -341.5477002 1043.98538086 -341.97460938 1044.82641602 C-342.42006104 1045.70523438 -342.8655127 1046.58405273 -343.32446289 1047.48950195 C-365.45534429 1090.3495798 -395.68352116 1125.70174906 -429.75708008 1159.43798828 C-431.34661582 1161.01315009 -432.93097045 1162.59327107 -434.51196289 1164.17700195 C-434.09624023 1165.38936523 -434.09624023 1165.38936523 -433.67211914 1166.6262207 C-433.30989258 1167.69485352 -432.94766602 1168.76348633 -432.57446289 1169.86450195 C-432.21481445 1170.92024414 -431.85516602 1171.97598633 -431.48461914 1173.0637207 C-424.28976248 1196.09304103 -431.96699728 1219.85932917 -442.64868164 1240.3137207 C-447.58226469 1249.50072924 -453.09271165 1258.75775072 -460.51196289 1266.17700195 C-463.44946289 1266.61450195 -463.44946289 1266.61450195 -466.51196289 1266.17700195 C-468.57446289 1264.11450195 -468.57446289 1264.11450195 -469.51196289 1261.17700195 C-467.64806668 1255.96349515 -464.94536464 1251.24139504 -462.28466797 1246.39770508 C-451.24889112 1226.1515671 -443.41308852 1204.40121441 -449.85571289 1181.3449707 C-450.07227539 1180.62954102 -450.28883789 1179.91411133 -450.51196289 1179.17700195 C-455.81711822 1182.96639861 -460.74110065 1187.07006162 -465.63696289 1191.36450195 C-472.09195266 1197.00772906 -478.68587811 1202.39884521 -485.48608398 1207.61938477 C-487.74676747 1209.35753379 -489.99806484 1211.10753725 -492.25024414 1212.85668945 C-509.62832576 1226.28927956 -527.54928892 1239.00635784 -546.15551758 1250.68774414 C-547.89666761 1251.78813941 -549.63064285 1252.89990621 -551.3605957 1254.01782227 C-554.4408249 1256.0068712 -557.53706187 1257.96878372 -560.63696289 1259.92700195 C-561.60956055 1260.5607373 -562.5821582 1261.19447266 -563.58422852 1261.84741211 C-571.33360216 1266.67663436 -571.33360216 1266.67663436 -575.62915039 1266.13012695 C-578.51196289 1265.17700195 -578.51196289 1265.17700195 -579.51196289 1264.17700195 C-580.19946289 1261.11450195 -580.19946289 1261.11450195 -579.51196289 1257.17700195 C-576.59215422 1253.99051287 -573.02930851 1251.66332829 -569.51196289 1249.17700195 C-566.89667455 1247.25434388 -564.29805304 1245.30964546 -561.69946289 1243.36450195 C-560.67042847 1242.59879883 -560.67042847 1242.59879883 -559.62060547 1241.81762695 C-554.07499349 1237.66737932 -548.77746563 1233.28259593 -543.53149414 1228.76293945 C-540.68834254 1226.32805412 -537.80092905 1223.96380989 -534.88696289 1221.61450195 C-530.11958286 1217.7353674 -525.56993302 1213.65753988 -521.04711914 1209.49731445 C-518.97870531 1207.60418993 -516.88790413 1205.75448492 -514.76196289 1203.92700195 C-504.12041187 1194.63167124 -494.01245124 1184.77720171 -484.01196289 1174.80200195 C-482.61469971 1173.4116272 -482.61469971 1173.4116272 -481.18920898 1171.99316406 C-476.65340105 1167.44713482 -472.24889335 1162.8522271 -468.06762695 1157.9777832 C-465.66841106 1155.20053643 -463.14759778 1152.54062205 -460.63696289 1149.86450195 C-455.33032343 1144.16885456 -450.35263456 1138.27673721 -445.51196289 1132.17700195 C-449.07713365 1130.9886117 -450.33356151 1131.45424988 -453.91040039 1132.43481445 C-455.01504639 1132.728479 -456.11969238 1133.02214355 -457.2578125 1133.32470703 C-458.45543213 1133.64721436 -459.65305176 1133.96972168 -460.88696289 1134.30200195 C-471.01690373 1136.92696878 -481.12941034 1139.20921037 -491.44946289 1140.98950195 C-493.25350586 1141.30141479 -493.25350586 1141.30141479 -495.09399414 1141.61962891 C-501.61518586 1142.6924041 -508.05246938 1143.42155046 -514.6472168 1143.82055664 C-522.15021777 1144.03478636 -522.15021777 1144.03478636 -528.92993164 1146.75512695 C-530.61564898 1148.70687222 -530.61564898 1148.70687222 -531.95727539 1150.8996582 C-541.06305973 1164.23803074 -562.70120501 1171.60494705 -577.63305664 1174.85668945 C-593.68166942 1177.84152699 -593.68166942 1177.84152699 -598.35180664 1175.0949707 C-600.1858025 1172.06301121 -599.20546868 1169.51843896 -598.51196289 1166.17700195 C-597.97418213 1166.03190186 -597.43640137 1165.88680176 -596.88232422 1165.73730469 C-582.53075991 1161.80681652 -568.82453382 1157.36173348 -557.51196289 1147.17700195 C-557.51196289 1146.84700195 -557.51196289 1146.51700195 -557.51196289 1146.17700195 C-558.4259082 1146.0790332 -559.33985352 1145.98106445 -560.28149414 1145.88012695 C-624.95302787 1138.73593697 -624.95302787 1138.73593697 -633.51196289 1130.17700195 C-633.97906589 1124.80531749 -633.97906589 1124.80531749 -632.24291992 1122.4699707 C-630.51196289 1121.17700195 -630.51196289 1121.17700195 -626.56665039 1121.36450195 C-624.87871239 1121.61567914 -623.19388589 1121.88828117 -621.51196289 1122.17700195 C-620.12412598 1122.40129883 -620.12412598 1122.40129883 -618.70825195 1122.63012695 C-614.65746142 1123.29785447 -610.61398113 1124.00524588 -606.57055664 1124.71606445 C-594.20341944 1126.83795483 -582.03724863 1127.41731661 -569.51196289 1127.42700195 C-568.32793884 1127.42801407 -568.32793884 1127.42801407 -567.11999512 1127.42904663 C-538.89705719 1127.39101895 -511.62029341 1122.95326984 -484.51196289 1115.17700195 C-485.16610449 1112.15836064 -485.16610449 1112.15836064 -487.11572266 1111.16552734 C-488.14910767 1110.72454712 -488.14910767 1110.72454712 -489.20336914 1110.2746582 C-489.97519531 1109.94353027 -490.74702148 1109.61240234 -491.54223633 1109.27124023 C-492.79568848 1108.76052979 -492.79568848 1108.76052979 -494.07446289 1108.23950195 C-494.93201172 1107.8861377 -495.78956055 1107.53277344 -496.6730957 1107.16870117 C-504.49113626 1104.03483253 -512.25492526 1101.79269418 -520.51196289 1100.17700195 C-521.65020508 1099.95270508 -522.78844727 1099.7284082 -523.96118164 1099.49731445 C-533.3771972 1097.9578539 -542.68913863 1098.04423146 -552.20898438 1098.25024414 C-553.77628296 1098.27586426 -553.77628296 1098.27586426 -555.37524414 1098.30200195 C-556.3166626 1098.32520508 -557.25808105 1098.3484082 -558.22802734 1098.37231445 C-560.51196289 1098.17700195 -560.51196289 1098.17700195 -562.51196289 1096.17700195 C-562.76196289 1092.67700195 -562.76196289 1092.67700195 -562.51196289 1089.17700195 C-556.31584303 1082.98088209 -540.29464883 1084.133716 -531.94946289 1083.98950195 C-504.96924604 1084.25459142 -481.23348552 1091.78383739 -457.51196289 1104.17700195 C-455.59380969 1105.42007791 -455.59380969 1105.42007791 -453.73803711 1104.65478516 C-453.02147949 1104.34887451 -452.30492187 1104.04296387 -451.56665039 1103.7277832 C-450.74817627 1103.38030029 -449.92970215 1103.03281738 -449.08642578 1102.67480469 C-448.19560303 1102.28365479 -447.30478027 1101.89250488 -446.38696289 1101.48950195 C-445.46713623 1101.08739502 -444.54730957 1100.68528809 -443.59960938 1100.27099609 C-440.56126194 1098.92568606 -437.53490177 1097.55657928 -434.51196289 1096.17700195 C-433.44123535 1095.68876953 -432.37050781 1095.20053711 -431.26733398 1094.69750977 C-428.02195171 1093.19844994 -424.79628922 1091.66346645 -421.57446289 1090.11450195 C-420.56303223 1089.6450415 -419.55160156 1089.17558105 -418.50952148 1088.69189453 C-412.03108557 1085.50830887 -408.19626811 1082.37781618 -404.51196289 1076.17700195 C-404.02977295 1075.38382568 -403.54758301 1074.59064941 -403.05078125 1073.7734375 C-382.00033091 1037.9390495 -368.53950782 998.05515273 -357.51196289 958.17700195 C-357.18260742 956.99686523 -356.85325195 955.81672852 -356.51391602 954.60083008 C-353.14999867 942.41818649 -350.54927824 930.86421986 -350.51196289 918.17700195 C-355.79995501 922.10853789 -355.79995501 922.10853789 -360.98852539 926.16918945 C-368.59371655 932.22401106 -376.56170102 937.70972579 -384.63696289 943.11450195 C-385.22151245 943.50646759 -385.80606201 943.89843323 -386.4083252 944.30227661 C-394.677837 949.82996493 -403.06277752 955.07522486 -411.9519043 959.56542969 C-415.83284081 961.64202493 -417.22588151 962.4617985 -418.91821289 966.69262695 C-419.11415039 967.8424707 -419.31008789 968.99231445 -419.51196289 970.17700195 C-426.21034009 993.4873546 -451.03265319 1011.76395845 -471.23168945 1023.02514648 C-476.50442732 1025.82509041 -481.93331643 1028.12166231 -487.51196289 1030.23950195 C-488.28894531 1030.53888672 -489.06592773 1030.83827148 -489.86645508 1031.14672852 C-494.93244135 1032.96612574 -499.12560143 1033.73808127 -504.51196289 1033.17700195 C-506.51196289 1030.17700195 -506.51196289 1030.17700195 -506.59008789 1027.23168945 C-505.51196289 1024.17700195 -505.51196289 1024.17700195 -502.37133789 1022.12231445 C-501.01057277 1021.49556224 -499.63995501 1020.88991161 -498.26196289 1020.30200195 C-496.79361944 1019.62183034 -495.32749529 1018.93684912 -493.86352539 1018.24731445 C-493.12908203 1017.90474609 -492.39463867 1017.56217773 -491.63793945 1017.20922852 C-479.26434634 1011.20147109 -468.88946302 1002.6791388 -459.13696289 993.11450195 C-458.54149658 992.53684082 -457.94603027 991.95917969 -457.33251953 991.36401367 C-453.56775773 987.59230088 -450.96158536 983.91334097 -448.51196289 979.17700195 C-452.00522565 979.79254458 -455.14259491 980.70105179 -458.44165039 981.99731445 C-459.86392944 982.54790527 -459.86392944 982.54790527 -461.31494141 983.10961914 C-462.3287085 983.50310547 -463.34247559 983.8965918 -464.38696289 984.30200195 C-528.05094922 1008.50619671 -528.05094922 1008.50619671 -557.51196289 1004.17700195 C-559.51196289 1002.17700195 -559.51196289 1002.17700195 -559.82446289 998.67700195 C-559.66977539 996.94450195 -559.66977539 996.94450195 -559.51196289 995.17700195 C-556.47692182 993.15364124 -554.77551162 992.66928573 -551.26196289 991.9855957 C-550.19155762 991.76774414 -549.12115234 991.54989258 -548.01831055 991.32543945 C-546.28266846 990.97352539 -546.28266846 990.97352539 -544.51196289 990.61450195 C-525.68342424 986.61156429 -506.62726209 981.17576751 -489.51196289 972.17700195 C-506.98907128 960.52559636 -535.92092079 958.03592286 -556.35961914 956.72387695 C-557.58583984 956.64290771 -558.81206055 956.56193848 -560.07543945 956.47851562 C-562.54915884 956.32080715 -565.02383901 956.17742954 -567.49926758 956.04931641 C-569.20131348 955.9442981 -569.20131348 955.9442981 -570.93774414 955.8371582 C-571.96295166 955.78180908 -572.98815918 955.72645996 -574.04443359 955.66943359 C-574.85871826 955.50693115 -575.67300293 955.34442871 -576.51196289 955.17700195 C-578.51196289 952.17700195 -578.51196289 952.17700195 -578.38696289 949.11450195 C-577.51196289 946.17700195 -577.51196289 946.17700195 -575.92211914 945.0324707 C-572.67042609 943.87830412 -569.48909333 943.70944889 -566.07446289 943.55200195 C-564.77637695 943.47723633 -563.47829102 943.4024707 -562.14086914 943.32543945 C-530.61524238 942.1048637 -497.67917522 945.99465221 -468.15258789 957.57543945 C-461.54843376 959.0799361 -456.90553281 956.57272699 -451.44628906 953.17895508 C-450.58108643 952.62143555 -449.71588379 952.06391602 -448.82446289 951.48950195 C-447.90963135 950.91006836 -446.9947998 950.33063477 -446.05224609 949.73364258 C-426.64714726 937.33089855 -408.4652153 923.77283892 -391.51196289 908.17700195 C-389.825042 906.67635071 -388.13753327 905.17636003 -386.44946289 903.67700195 C-378.93812741 896.8933271 -372.07378306 889.88981822 -365.75415039 881.97387695 C-364.30800451 880.16997373 -362.83558196 878.38667871 -361.33227539 876.63012695 C-356.7670959 871.26888413 -352.72408609 865.69562256 -348.88696289 859.80200195 C-348.45593262 859.14312988 -348.02490234 858.48425781 -347.58081055 857.80541992 C-346.18319761 855.6186535 -344.84072156 853.40631393 -343.51196289 851.17700195 C-342.93494629 850.22269287 -342.35792969 849.26838379 -341.76342773 848.28515625 C-337.41491019 840.72138174 -334.85605883 833.28463911 -332.88189697 824.83834839 C-326.2609746 796.76127746 -316.64470119 769.54982567 -304.4987793 743.40356445 C-303.30807154 740.71696012 -302.35183092 737.99220205 -301.51196289 735.17700195 C-308.10945078 731.87825801 -317.44942616 734.99177214 -324.19946289 736.61450195 C-325.86416626 737.01439331 -325.86416626 737.01439331 -327.5625 737.42236328 C-331.21787937 738.31966422 -334.86497482 739.24621614 -338.51196289 740.17700195 C-339.84227089 740.50746533 -341.17267627 740.83753695 -342.50317383 741.16723633 C-345.88400261 742.01155975 -349.24874167 742.90527676 -352.60806274 743.83132935 C-354.52276722 744.35048511 -356.44741315 744.8325288 -358.37207031 745.31347656 C-367.74122433 747.98865908 -372.19337027 752.1203576 -377.51196289 760.17700195 C-378.04120361 760.9455249 -378.57044434 761.71404785 -379.11572266 762.50585938 C-380.56983248 764.69354313 -381.9287535 766.91376956 -383.26196289 769.17700195 C-383.75873535 770.0174707 -384.25550781 770.85793945 -384.76733398 771.72387695 C-405.77800752 808.0156363 -417.78793859 847.94063958 -426.05249023 888.8527832 C-427.30802666 894.97306572 -427.30802666 894.97306572 -429.51196289 897.17700195 C-434.84529622 897.51033529 -434.84529622 897.51033529 -437.51196289 896.17700195 C-439.10191996 887.88196878 -438.19455186 879.59875984 -437.57446289 871.23950195 C-436.94965072 862.54295355 -436.36696712 853.90233568 -436.51196289 845.17700195 C-437.33180664 845.72904297 -437.33180664 845.72904297 -438.16821289 846.29223633 C-439.65428515 847.29032256 -441.14461603 848.28207216 -442.63696289 849.27075195 C-444.66439102 850.61502495 -446.68458203 851.97024431 -448.69946289 853.33325195 C-465.93803982 864.86050727 -489.24529124 876.50616893 -510.51196289 875.17700195 C-511.17196289 874.84700195 -511.83196289 874.51700195 -512.51196289 874.17700195 C-513.38696289 871.36450195 -513.38696289 871.36450195 -513.51196289 868.17700195 C-510.31777431 863.79133033 -506.22866462 862.87162212 -501.26196289 861.42700195 C-474.84183503 853.16886926 -451.07677601 836.28681977 -434.82446289 813.80200195 C-434.42678711 813.25592285 -434.02911133 812.70984375 -433.61938477 812.1472168 C-428.29749361 804.44997893 -426.33226225 795.32747716 -423.88696289 786.42700195 C-423.57500977 785.30422852 -423.26305664 784.18145508 -422.94165039 783.0246582 C-421.1624697 776.61778629 -421.1624697 776.61778629 -419.51196289 770.17700195 C-427.67628718 772.5954072 -435.1225667 776.22816559 -442.69946289 780.05200195 C-443.35681427 780.38169983 -444.01416565 780.71139771 -444.69143677 781.05108643 C-456.15967329 786.81410833 -467.26645231 793.06136015 -478.20922852 799.77368164 C-480.30243214 801.04931082 -482.40867505 802.2962662 -484.52758789 803.52856445 C-503.94677068 814.85388063 -523.0736069 828.02580703 -539.76196289 843.11450195 C-542.86118915 845.43892165 -544.63484275 846.26128717 -548.51196289 846.17700195 C-550.94946289 844.61450195 -550.94946289 844.61450195 -552.51196289 842.17700195 C-552.36629425 836.72870933 -550.05275042 834.0382359 -546.26977539 830.4465332 C-545.74560028 829.92943283 -545.22142517 829.41233246 -544.68136597 828.87956238 C-543.01131994 827.2373727 -541.32474179 825.61344109 -539.63696289 823.98950195 C-538.50951588 822.88715611 -537.38320095 821.78365114 -536.25805664 820.67895508 C-534.19222055 818.65386205 -532.12024847 816.63555979 -530.03979492 814.62548828 C-528.18038194 812.82444011 -526.33361257 811.0159677 -524.51196289 809.17700195 C-525.32012451 809.13736328 -526.12828613 809.09772461 -526.9609375 809.05688477 C-550.57027482 807.84846057 -573.65615967 805.58071433 -596.51196289 799.17700195 C-596.51196289 796.20700195 -596.51196289 793.23700195 -596.51196289 790.17700195 C-592.37779851 788.10991976 -591.71497552 787.98135136 -587.45336914 788.63793945 C-585.93706909 788.85135986 -585.93706909 788.85135986 -584.39013672 789.0690918 C-582.74887817 789.30813232 -582.74887817 789.30813232 -581.07446289 789.55200195 C-554.70622773 792.95447457 -528.89804679 791.64442352 -503.01196289 785.73950195 C-502.15731445 785.54654541 -501.30266602 785.35358887 -500.42211914 785.15478516 C-491.94389574 783.07507696 -485.95182003 778.90711948 -479.13696289 773.61450195 C-471.59889935 767.87201024 -463.82317613 762.64755739 -455.79858398 757.61303711 C-453.43248308 756.12708734 -451.07591442 754.62668129 -448.71899414 753.1262207 C-422.82976205 736.76013135 -395.76840878 722.0382321 -367.51196289 710.17700195 C-368.78193392 706.60249814 -370.22537932 704.09856878 -372.69946289 701.23950195 C-380.23732931 691.77005726 -384.41676699 680.75034315 -387.51196289 669.17700195 C-404.04533739 665.52020853 -420.69584148 663.12400307 -437.51196289 661.17700195 C-438.41736816 661.07194336 -439.32277344 660.96688477 -440.25561523 660.85864258 C-466.68548997 657.98969882 -492.14611729 668.60609347 -512.5378418 684.9777832 C-526.13551157 696.19710949 -536.64122327 709.15993378 -544.05151367 725.16186523 C-546.33644018 730.0892406 -546.33644018 730.0892406 -548.51196289 731.17700195 C-551.51196289 731.36450195 -551.51196289 731.36450195 -554.51196289 731.17700195 C-556.51196289 729.17700195 -556.51196289 729.17700195 -556.82055664 726.02075195 C-556.48089652 721.79004869 -555.33456081 718.477278 -553.57446289 714.67700195 C-553.26234863 713.98775635 -552.95023438 713.29851074 -552.62866211 712.58837891 C-542.99005878 691.85285488 -528.45883817 673.46760485 -509.46118164 660.56762695 C-508.81793945 660.1087207 -508.17469727 659.64981445 -507.51196289 659.17700195 C-507.51196289 658.84700195 -507.51196289 658.51700195 -507.51196289 658.17700195 C-508.05908936 658.06219482 -508.60621582 657.9473877 -509.16992188 657.82910156 C-519.05909302 655.71537771 -528.7171387 653.44751362 -538.07446289 649.55200195 C-538.76918701 649.26317139 -539.46391113 648.97434082 -540.1796875 648.67675781 C-543.58553742 647.19833149 -546.82847176 645.77978659 -549.51196289 643.17700195 C-549.88696289 639.61450195 -549.88696289 639.61450195 -549.51196289 636.17700195 C-548.85196289 635.51700195 -548.19196289 634.85700195 -547.51196289 634.17700195 C-543.18508756 634.32882214 -539.38625301 634.92022471 -535.22680664 636.1418457 C-510.88622675 643.09983446 -476.72100292 641.24668196 -452.51196289 633.17700195 C-452.66793945 632.14704102 -452.82391602 631.11708008 -452.98461914 630.0559082 C-455.06425985 615.29902959 -454.91219893 601.54003658 -450.51196289 587.17700195 C-445.27529804 585.74882063 -445.27529804 585.74882063 -442.17211914 587.48950195 C-439.64575006 591.57924767 -439.96473556 595.4602253 -439.94946289 600.17700195 C-439.65215082 611.15691483 -439.04918115 620.72214835 -432.20727539 629.7512207 C-428.18713042 633.1322182 -422.35606398 632.30946301 -417.36743164 632.2746582 C-416.59764481 632.27324326 -415.82785797 632.27182831 -415.03474426 632.27037048 C-412.58961001 632.26479801 -410.14456921 632.25225066 -407.69946289 632.23950195 C-406.03605276 632.23448339 -404.37264119 632.22992111 -402.70922852 632.22583008 C-398.64343761 632.21483761 -394.57771606 632.19759205 -390.51196289 632.17700195 C-390.3397522 630.92101196 -390.3397522 630.92101196 -390.1640625 629.63964844 C-387.41718861 609.89892455 -383.88319452 590.55299965 -379.1887207 571.18017578 C-377.63281225 564.27569172 -377.68368497 560.54979949 -380.76196289 554.11450195 C-381.12402832 553.33502197 -381.48609375 552.55554199 -381.85913086 551.75244141 C-383.05324433 549.21526427 -384.27784587 546.69494481 -385.51196289 544.17700195 C-386.12442871 542.91533203 -386.12442871 542.91533203 -386.74926758 541.62817383 C-397.46313297 519.76688585 -411.00558812 499.15936173 -427.60180664 481.2980957 C-432.39842122 475.97179362 -432.39842122 475.97179362 -432.94946289 472.11450195 C-432.51196289 469.17700195 -432.51196289 469.17700195 -430.82446289 467.23950195 C-427.82822529 465.86285224 -426.64764628 466.23188371 -423.51196289 467.17700195 C-415.52386576 472.5134617 -408.6670755 479.70521217 -401.92260742 486.50561523 C-400.38816073 488.05079574 -398.84328287 489.58496205 -397.29711914 491.1184082 C-388.34445754 500.05732052 -380.47774888 509.69985122 -372.94946289 519.86450195 C-372.41772461 520.57799805 -371.88598633 521.29149414 -371.33813477 522.02661133 C-370.06045008 523.74170159 -368.78584874 525.45908822 -367.51196289 527.17700195 C-364.40246735 525.62225418 -364.15154261 523.11070826 -362.94555664 519.91137695 C-362.70660172 519.28096497 -362.46764679 518.65055298 -362.22145081 518.0010376 C-361.71636678 516.66398791 -361.21474638 515.32562551 -360.71630859 513.98608398 C-359.9566243 511.9462313 -359.18545857 509.91101939 -358.41235352 507.8762207 C-354.10625894 497.3691822 -354.10625894 497.3691822 -354.94946289 486.42700195 C-360.42998143 462.27212397 -356.0095884 436.94377626 -343.49243164 415.7590332 C-341.58466524 412.822605 -339.59754063 409.98911292 -337.51196289 407.17700195 C-336.98602539 406.43192383 -336.46008789 405.6868457 -335.91821289 404.91918945 C-333.32329817 401.5099132 -332.0416071 400.33858832 -327.82446289 399.05200195 C-324.51196289 399.17700195 -324.51196289 399.17700195 -322.51196289 400.17700195 C-321.29894546 402.60303682 -321.23682768 404.3829535 -321.73852539 407.03637695 C-323.10117806 410.80775908 -325.45670994 413.968497 -327.66821289 417.2902832 C-335.96768179 430.28457879 -339.97978559 446.77730282 -338.51196289 462.17700195 C-337.85196289 463.16700195 -337.19196289 464.15700195 -336.51196289 465.17700195 C-335.81071289 464.27079102 -335.10946289 463.36458008 -334.38696289 462.4309082 C-326.70581462 452.54523773 -319.27939157 443.290173 -309.40258789 435.4777832 C-306.53802432 433.19774544 -303.78134588 430.82120317 -301.01196289 428.42700195 C-294.36053713 422.85957648 -287.22393353 418.07713479 -280.02758789 413.24731445 C-275.48860338 410.19302687 -271.1364121 406.95094877 -266.83618164 403.56762695 C-264.01910103 401.88211318 -261.77492983 401.40433981 -258.51196289 401.17700195 C-256.07446289 402.73950195 -256.07446289 402.73950195 -254.51196289 405.17700195 C-254.48137521 408.2619876 -254.80157454 410.33630334 -256.82958984 412.73632812 C-258.62531555 414.40272179 -260.47885176 415.95310078 -262.38696289 417.48950195 C-263.06299561 418.05491699 -263.73902832 418.62033203 -264.43554688 419.20288086 C-267.50857618 421.76319356 -270.6236978 424.27038506 -273.74243164 426.7746582 C-278.91482735 430.93397778 -283.39970417 434.95332196 -287.51196289 440.17700195 C-278.91771634 439.60405218 -270.88153455 437.52984823 -263.26196289 433.42700195 C-259.48980831 431.71238623 -256.62859386 431.96407276 -252.51196289 432.17700195 C-251.76196289 435.36450195 -251.76196289 435.36450195 -251.51196289 439.17700195 C-259.03193525 450.80375533 -276.41771294 456.46504709 -289.22680664 459.5871582 C-291.73303307 460.03714654 -294.05180768 460.31998717 -296.57836914 460.4855957 C-304.00322813 460.8447897 -304.00322813 460.8447897 -310.73461914 463.6340332 C-312.72523779 466.01995201 -314.06911205 468.41901673 -315.51196289 471.17700195 C-316.30407962 472.56235044 -317.09855359 473.9463525 -317.89477539 475.3293457 C-330.62935078 497.98005118 -338.15177469 523.63875675 -342.51196289 549.17700195 C-341.53098633 548.65750977 -340.55000977 548.13801758 -339.53930664 547.6027832 C-322.19247305 538.56340404 -304.89851931 534.68267449 -285.81274414 530.84399414 C-264.55655923 526.54873547 -248.75679123 519.72528265 -235.66430664 501.5246582 C-230.72732463 493.84590396 -226.98157634 485.57787988 -223.34008789 477.22387695 C-222.98180908 476.4035498 -222.62353027 475.58322266 -222.25439453 474.73803711 C-221.56371283 473.14312343 -220.88280425 471.54393322 -220.21289062 469.94018555 C-217.83745099 464.39399402 -217.83745099 464.39399402 -214.51196289 462.17700195 C-212.01196289 461.80200195 -212.01196289 461.80200195 -209.51196289 462.17700195 C-207.63696289 463.73950195 -207.63696289 463.73950195 -206.51196289 466.17700195 C-206.9034386 472.71899598 -209.25759893 478.53357211 -211.57446289 484.61450195 C-211.97713379 485.67620605 -212.37980469 486.73791016 -212.79467773 487.83178711 C-217.38280913 499.7170094 -222.44223646 511.03916356 -230.16430664 521.2590332 C-231.69142524 523.23760404 -231.69142524 523.23760404 -232.51196289 526.17700195 C-222.12388187 524.43146375 -212.99451277 521.91827689 -203.51196289 517.17700195 C-200.01196289 516.92700195 -200.01196289 516.92700195 -196.51196289 517.17700195 C-194.51196289 520.17700195 -194.51196289 520.17700195 -194.43383789 523.57543945 C-195.65298172 527.64808661 -196.95691574 528.72167838 -200.62768555 530.73901367 C-201.33199707 531.0897998 -202.03630859 531.44058594 -202.76196289 531.80200195 C-203.84743408 532.37265381 -203.84743408 532.37265381 -204.95483398 532.95483398 C-219.00204378 540.18996534 -234.86675013 545.6333484 -250.86743164 545.0559082 C-259.04636367 544.77621415 -265.25441004 545.69968786 -272.90258789 548.5637207 C-277.76435484 550.34718857 -282.7421486 551.63780607 -287.73950195 552.98291016 C-311.85649003 559.52636513 -327.39585158 568.75565244 -343.95336914 587.3293457 C-346.51196289 590.17700195 -346.51196289 590.17700195 -348.77368164 592.0715332 C-351.26727161 595.09185903 -351.44521327 598.15465095 -351.76196289 601.92700195 C-351.87254028 603.09380493 -351.87254028 603.09380493 -351.98535156 604.28417969 C-353.88095978 626.81351637 -355.00996998 654.76637636 -339.51196289 673.17700195 C-330.43285036 682.11643583 -318.05309991 684.43344399 -305.73754883 684.42578125 C-298.60449688 684.30723818 -291.7594169 683.16179981 -284.79907227 681.65991211 C-283.22119787 681.32675289 -281.63865827 681.01520823 -280.05297852 680.72143555 C-267.88693944 678.61059815 -267.88693944 678.61059815 -258.51196289 671.11450195 C-257.17115676 669.14039016 -255.83805853 667.16102535 -254.51196289 665.17700195 C-252.74865121 663.13401092 -250.97946294 661.14408158 -249.13696289 659.17700195 C-248.67483398 658.6782959 -248.21270508 658.17958984 -247.73657227 657.66577148 C-239.50627737 648.8259311 -231.03803482 640.61663761 -221.51196289 633.17700195 C-220.9011084 632.68973633 -220.29025391 632.2024707 -219.66088867 631.70043945 C-193.26537036 610.65142313 -163.18606987 596.78412866 -132.51196289 583.17700195 C-131.80853372 558.75899067 -131.41293833 534.34693861 -131.26586914 509.91918945 C-131.25751573 508.57979562 -131.24912702 507.240402 -131.24070358 505.90100861 C-131.16756861 494.21356963 -131.09970213 482.52609752 -131.04485643 470.83855748 C-131.00323173 461.96953152 -130.95349877 453.10059336 -130.89086914 444.23168945 C-130.88624554 443.56731086 -130.88162194 442.90293226 -130.87685823 442.21842098 C-130.72883826 421.52166057 -130.210546 400.86626669 -129.19471741 380.193573 C-128.75046685 371.07669381 -128.41371605 361.97719578 -128.37744141 352.84838867 C-128.36798823 351.57943095 -128.36798823 351.57943095 -128.35834408 350.28483772 C-128.38407516 333.42585641 -132.65804835 317.54723945 -144.51196289 305.17700195 C-157.83848705 292.45737833 -177.49367015 287.7431505 -195.51196289 287.17700195 C-197.32954102 287.11706055 -197.32954102 287.11706055 -199.18383789 287.0559082 C-266.77117944 285.62082893 -330.59878679 314.20161671 -381.51196289 357.17700195 Z M-6.36352539 293.4934082 C-7.8001552 296.85043092 -7.91071107 299.46915698 -7.88696289 303.11450195 C-7.89469727 304.29915039 -7.90243164 305.48379883 -7.91040039 306.7043457 C-7.37173971 311.39914323 -6.23427479 314.73438905 -2.54858398 317.8215332 C1.90157881 319.80797024 6.04067662 319.62527039 10.86303711 319.6105957 C11.86512207 319.61583755 12.86720703 319.62107941 13.8996582 319.6264801 C16.01439489 319.63289208 18.12916727 319.63157401 20.24389648 319.62304688 C23.47696435 319.61453112 26.70826841 319.64332003 29.94116211 319.67504883 C31.99845325 319.67666084 34.05574751 319.67608331 36.11303711 319.6730957 C37.07773926 319.68432968 38.04244141 319.69556366 39.03637695 319.70713806 C43.3786402 319.66209955 45.80791447 319.60299202 49.55566406 317.25561523 C53.64385658 312.85803203 53.82731554 309.11468854 53.80053711 303.23950195 C53.81665039 302.53631836 53.83276367 301.83313477 53.84936523 301.10864258 C53.85358436 296.60683924 53.42929994 293.63840389 50.48803711 290.17700195 C45.24582739 286.80857945 40.73304745 286.72354822 34.70678711 286.7434082 C33.7750769 286.73816635 32.8433667 286.7329245 31.88342285 286.7275238 C29.92009474 286.72112093 27.95672818 286.72241806 25.9934082 286.73095703 C22.99743143 286.73947524 20.00335746 286.71066826 17.00756836 286.67895508 C15.09480851 286.67734302 13.1820453 286.67792068 11.26928711 286.6809082 C10.37850464 286.66967422 9.48772217 286.65844025 8.56994629 286.64686584 C2.01830243 286.71993994 -2.11700904 288.18078332 -6.36352539 293.4934082 Z M190.22631836 305.1730957 C172.24645754 325.90044088 173.98762107 351.74093887 175.31082344 377.34254456 C176.58090067 402.40487447 176.86701479 427.44956804 177.00875854 452.53979492 C177.04994526 459.82649973 177.10460144 467.11306599 177.16210938 474.3996582 C177.17166247 475.61442841 177.18121557 476.82919861 177.19105816 478.08078003 C177.21025454 480.51902292 177.22948774 482.95726551 177.24875832 485.39550781 C177.27687435 488.99193835 177.30407495 492.58837466 177.33097839 496.18481445 C177.46413987 513.90719716 177.61504117 531.62902484 177.87179565 549.35009766 C177.90724777 551.87462634 177.93916517 554.39920747 177.96731567 556.92382812 C178.00543163 560.30009221 178.05535366 563.67595637 178.10913086 567.05200195 C178.11749969 567.99756958 178.12586853 568.94313721 178.13449097 569.9173584 C178.23239691 575.00326793 178.47118862 579.46674571 180.48803711 584.17700195 C182.79182403 586.01509121 182.79182403 586.01509121 185.74584961 587.0637207 C187.37876953 587.74917969 187.37876953 587.74917969 189.04467773 588.44848633 C190.81101562 589.14941406 190.81101562 589.14941406 192.61303711 589.86450195 C194.45880037 590.64151033 196.30453894 591.41859897 198.14752197 592.20217896 C199.4061403 592.7372399 200.66588032 593.26966951 201.92669678 593.79953003 C223.60363932 602.93732748 244.06615472 614.51959119 262.48803711 629.17700195 C263.8840918 630.28495117 263.8840918 630.28495117 265.30834961 631.4152832 C280.23877676 643.45527947 295.0267753 656.65723828 306.59350586 672.0402832 C310.9390514 676.94134178 316.35939031 678.19414373 322.48803711 679.73950195 C323.33599854 679.95566162 324.18395996 680.17182129 325.05761719 680.39453125 C342.71805095 684.7966627 362.15815308 687.67409585 378.80053711 678.48950195 C390.33805375 670.90876185 394.2638115 660.28435715 397.30053711 647.17700195 C399.65302951 634.7410505 398.88762453 621.75835115 398.48803711 609.17700195 C398.45613281 607.87496826 398.45613281 607.87496826 398.42358398 606.54663086 C398.18035332 599.34170209 397.45897601 594.47689655 392.30053711 589.23950195 C390.702681 587.87789484 389.09880224 586.52331311 387.48803711 585.17700195 C386.33529774 583.88879654 385.20870381 582.57658674 384.11303711 581.23950195 C371.28894802 566.54584179 356.99248636 559.65719584 338.48803711 554.17700195 C337.54734375 553.894375 336.60665039 553.61174805 335.63745117 553.32055664 C318.36374917 547.27827186 318.36374917 547.27827186 300.42553711 545.17700195 C280.59129759 545.48086913 256.52018419 539.89348626 241.48803711 526.17700195 C240.34380262 522.82602952 240.35603125 521.57301952 241.48803711 518.17700195 C244.3172976 516.76237171 246.33823658 516.94772053 249.48803711 517.17700195 C252.57397461 518.3840332 252.57397461 518.3840332 255.86303711 519.98950195 C263.49579539 523.5397677 271.20592313 524.95081884 279.48803711 526.17700195 C279.12452148 525.64333008 278.76100586 525.1096582 278.38647461 524.55981445 C269.21915064 510.97337021 262.11699897 497.14227623 256.55053711 481.73950195 C256.2438208 480.91144043 255.93710449 480.08337891 255.62109375 479.23022461 C253.79767107 474.01669533 252.89408051 469.70630931 253.48803711 464.17700195 C256.48803711 462.17700195 256.48803711 462.17700195 259.50366211 462.25512695 C262.48803711 463.17700195 262.48803711 463.17700195 264.03491211 465.16137695 C264.63045898 466.53036133 264.63045898 466.53036133 265.23803711 467.92700195 C265.73303711 469.00723633 266.22803711 470.0874707 266.73803711 471.20043945 C267.14795898 472.13194824 267.14795898 472.13194824 267.56616211 473.08227539 C277.27034458 495.1325629 287.02234793 515.38246031 310.48803711 525.17700195 C319.57254516 528.38410055 328.78391444 530.35611768 338.23803711 532.11450195 C354.80624813 535.30980707 369.59662231 539.08959884 384.48803711 547.17700195 C385.81948503 547.84742619 387.1524559 548.51485011 388.48803711 549.17700195 C387.20101258 540.27907977 385.21285189 531.70859814 382.80053711 523.05200195 C382.62474121 522.41904205 382.44894531 521.78608215 382.26782227 521.13394165 C377.86548103 505.36128388 372.2985345 490.40315288 364.44702148 476.01245117 C363.52893261 474.25527395 362.73151608 472.4366215 361.94116211 470.6184082 C360.10139069 466.96952823 358.67660656 464.75696479 355.48803711 462.17700195 C350.4873992 460.53167546 345.23336099 460.25626438 340.01928711 459.78637695 C325.4170166 458.41741409 310.92837554 451.90091522 299.59741211 442.63012695 C297.60918577 440.02583049 298.20476138 437.29303499 298.48803711 434.17700195 C300.48803711 432.17700195 300.48803711 432.17700195 303.29663086 431.9074707 C306.6598254 432.19151039 308.58344819 432.93487577 311.55053711 434.48950195 C317.77037997 437.48013873 325.85560354 441.01373051 332.86694336 439.74731445 C333.4019043 439.55911133 333.93686523 439.3709082 334.48803711 439.17700195 C329.4657407 434.56869093 324.39716806 430.04679938 319.11303711 425.73950195 C318.21069336 425.00344727 317.30834961 424.26739258 316.37866211 423.5090332 C314.31618418 421.8451152 312.24441868 420.19939566 310.15991211 418.5637207 C309.06078238 417.6850288 307.96182026 416.8061272 306.86303711 415.92700195 C305.86014648 415.1380957 304.85725586 414.34918945 303.82397461 413.53637695 C301.28005337 410.96693142 300.68382703 409.7368187 300.48803711 406.17700195 C301.05053711 403.92700195 301.05053711 403.92700195 302.48803711 402.17700195 C305.97069226 401.15588352 307.77550173 400.84150323 311.10131836 402.4074707 C311.99206055 403.05329102 312.88280273 403.69911133 313.80053711 404.36450195 C314.83952148 405.10313477 315.87850586 405.84176758 316.94897461 406.6027832 C317.51326172 407.0147998 318.07754883 407.42681641 318.65893555 407.85131836 C320.61832201 409.27142894 322.60057362 410.65420792 324.58959961 412.0324707 C336.32971846 420.18792216 347.82486868 428.51598205 358.34741211 438.22387695 C360.08144969 439.80602803 361.83503093 441.28647076 363.67553711 442.73950195 C370.3657755 448.53770856 375.42740479 455.68132052 380.57006836 462.83325195 C381.51946289 463.9934082 381.51946289 463.9934082 382.48803711 465.17700195 C383.14803711 465.17700195 383.80803711 465.17700195 384.48803711 465.17700195 C385.15645007 444.72851667 381.29541049 427.24861988 369.48803711 410.17700195 C367.31282928 406.91419022 367.20559392 405.94291115 367.48803711 402.17700195 C367.81803711 401.18700195 368.14803711 400.19700195 368.48803711 399.17700195 C372.83169948 398.74263572 374.85886341 398.72025003 378.45288086 401.3293457 C392.22555285 413.5508662 399.87946165 434.44986456 402.48803711 452.17700195 C402.72591204 456.46667988 402.72302329 460.75628305 402.73803711 465.05200195 C402.75483521 466.88118164 402.75483521 466.88118164 402.77197266 468.74731445 C402.76006516 475.38023319 402.27016197 480.86602402 400.30053711 487.17700195 C397.63623436 498.27826341 404.58566462 509.5172388 409.20361328 519.38476562 C410.3857709 521.95468327 411.46260731 524.54125866 412.48803711 527.17700195 C416.05985339 523.74377466 419.08046 520.22473233 422.05053711 516.23950195 C430.55279705 505.05742384 439.70994215 494.77383022 449.61303711 484.80200195 C450.43594238 483.96983154 451.25884766 483.13766113 452.10668945 482.28027344 C467.65788621 466.80805607 467.65788621 466.80805607 474.48803711 466.17700195 C477.48803711 467.17700195 477.48803711 467.17700195 478.48803711 469.17700195 C478.98803711 471.80200195 478.98803711 471.80200195 478.48803711 475.17700195 C477.09021055 477.19236147 475.48193279 478.88661279 473.80053711 480.6730957 C456.04836656 499.8946182 442.34469555 522.69748057 430.6262207 545.96557617 C429.59203328 547.97494332 428.50027521 549.93603221 427.38256836 551.8996582 C423.97827359 558.44522276 423.1111034 562.89041191 425.12866211 569.98168945 C425.52018868 571.48994504 425.90893606 572.99892431 426.29516602 574.50854492 C426.49619934 575.27986755 426.69723267 576.05119019 426.90435791 576.84588623 C427.83877656 580.57779583 428.59586948 584.34066848 429.33959961 588.11450195 C429.48668365 588.85924774 429.6337677 589.60399353 429.78530884 590.37130737 C430.08198516 591.88273069 430.37709993 593.39446136 430.6706543 594.90649414 C431.11319117 597.17779264 431.56603687 599.44688275 432.01928711 601.71606445 C434.00876821 611.82919203 435.42883884 621.9256496 436.48803711 632.17700195 C441.93220851 632.35054111 447.3747581 632.47729755 452.82104492 632.56152344 C454.67191624 632.59664403 456.52259446 632.64435384 458.37280273 632.70507812 C461.03930302 632.79037746 463.7032302 632.82977076 466.37084961 632.8605957 C467.19295929 632.8967247 468.01506897 632.9328537 468.86209106 632.97007751 C472.30372381 632.97240933 474.5703288 632.90578288 477.32366943 630.7192688 C482.96731273 624.37104669 485.50387144 616.53718982 485.73413086 608.11450195 C485.76700195 607.15286133 485.79987305 606.1912207 485.83374023 605.20043945 C485.89493467 603.18492917 485.95222698 601.16929662 486.00561523 599.15356445 C486.03977539 598.19192383 486.07393555 597.2302832 486.10913086 596.23950195 C486.13418701 595.36422852 486.15924316 594.48895508 486.18505859 593.5871582 C486.51095652 590.99468089 487.03911608 589.34840119 488.48803711 587.17700195 C491.42553711 586.30200195 491.42553711 586.30200195 494.48803711 586.17700195 C497.48803711 588.17700195 497.48803711 588.17700195 498.18334961 590.2434082 C498.63825188 592.88597682 499.08950686 595.52524298 499.48803711 598.17700195 C499.60147461 598.9040332 499.71491211 599.63106445 499.83178711 600.38012695 C501.31064515 611.47156226 500.49822892 622.21068772 498.48803711 633.17700195 C503.28825581 634.07465558 508.09415088 634.92733076 512.90942383 635.74047852 C514.59686265 636.02613849 516.28343904 636.31695262 517.96899414 636.61352539 C540.11345733 640.44096347 562.7842138 641.54243423 584.48803711 635.17700195 C587.65898776 634.49173611 590.2237665 634.17700195 593.48803711 634.17700195 C595.61303711 635.80200195 595.61303711 635.80200195 596.48803711 638.17700195 C596.67553711 640.61450195 596.67553711 640.61450195 595.48803711 643.17700195 C583.87131981 652.42296062 567.7125882 655.37818982 553.48803711 658.17700195 C554.19959961 658.73387695 554.91116211 659.29075195 555.64428711 659.86450195 C559.50014006 663.00003072 563.11539554 666.37299512 566.76928711 669.73950195 C568.48155066 671.27463479 570.24072319 672.76039086 572.05834961 674.16918945 C576.55163877 677.88229336 579.92389408 682.59364992 583.48803711 687.17700195 C584.37168945 688.30235352 584.37168945 688.30235352 585.27319336 689.45043945 C589.3630391 694.9615791 592.59382079 700.87594263 595.80053711 706.92700195 C596.23358154 707.74362305 596.66662598 708.56024414 597.11279297 709.40161133 C600.53284093 715.98687222 603.07247824 721.57926732 602.48803711 729.17700195 C600.48803711 731.17700195 600.48803711 731.17700195 597.67553711 731.80200195 C594.48803711 731.17700195 594.48803711 731.17700195 592.17553711 728.11450195 C591.26625893 726.47605821 590.37290554 724.82875635 589.48803711 723.17700195 C572.78064279 693.70044626 549.22212892 672.85174464 516.48803711 663.17700195 C515.32788086 662.83411133 514.16772461 662.4912207 512.97241211 662.13793945 C490.84522635 656.81445334 466.23248968 663.2042191 444.17944336 666.8371582 C443.4462236 666.95693024 442.71300385 667.07670227 441.95756531 667.20010376 C439.03432457 667.69032656 436.30569612 668.23778228 433.48803711 669.17700195 C432.42002851 671.97117572 431.51943117 674.69064686 430.67553711 677.55200195 C427.18761958 688.60902648 422.59881047 697.31888707 415.02709961 706.1809082 C413.28450074 708.02088993 413.28450074 708.02088993 413.48803711 710.17700195 C414.63014648 710.67586914 415.77225586 711.17473633 416.94897461 711.6887207 C439.92053274 721.81770295 461.98009683 733.23186916 483.48803711 746.17700195 C485.09849198 747.13440708 486.70915644 748.09145979 488.32006836 749.0480957 C500.84690833 756.53970323 513.06056787 764.57749554 524.73803711 773.34106445 C525.40488525 773.84057617 526.0717334 774.34008789 526.75878906 774.85473633 C527.9859798 775.78134271 529.20658202 776.71678084 530.41845703 777.66333008 C554.46571848 795.91695748 599.71006866 793.009781 627.55053711 789.55200195 C628.70416748 789.39256104 629.85779785 789.23312012 631.04638672 789.06884766 C632.11123291 788.92664795 633.1760791 788.78444824 634.27319336 788.63793945 C635.67903687 788.43370361 635.67903687 788.43370361 637.11328125 788.2253418 C639.48803711 788.17700195 639.48803711 788.17700195 642.48803711 790.17700195 C643.41894839 792.89812723 643.71689286 794.49591242 642.79443359 797.24121094 C641.05240117 799.82251819 639.77199794 800.04206396 636.77319336 800.7746582 C635.79036377 801.01740479 634.80753418 801.26015137 633.79492188 801.51025391 C632.7242749 801.75090576 631.65362793 801.99155762 630.55053711 802.23950195 C628.88752563 802.62464966 628.88752563 802.62464966 627.19091797 803.01757812 C608.91367477 807.05058484 590.16234785 808.46908691 571.48803711 809.17700195 C575.60666289 814.09926203 579.9027973 818.6897839 584.48803711 823.17700195 C586.15470378 824.84366862 587.82137044 826.51033529 589.48803711 828.17700195 C590.24987305 828.84602539 591.01170898 829.51504883 591.79663086 830.2043457 C598.21476907 836.06177293 598.21476907 836.06177293 599.06616211 839.53637695 C599.05053711 841.73950195 599.05053711 841.73950195 598.48803711 845.17700195 C592.31417967 846.65872774 592.31417967 846.65872774 588.66772461 844.5324707 C585.27787955 842.02132013 581.99937557 839.4135614 578.73803711 836.73950195 C566.8796187 827.16012564 554.50160112 818.38238835 541.73803711 810.05200195 C540.9044165 809.50745361 540.0707959 808.96290527 539.21191406 808.40185547 C535.06402141 805.72662744 530.92906168 803.34381764 526.48803711 801.17700195 C524.74840902 800.08939195 523.02009253 798.9835777 521.30053711 797.86450195 C504.28890183 787.14067874 485.73270787 778.57710615 467.48803711 770.17700195 C465.71290199 775.50240731 468.29967933 781.0733521 469.76342773 786.36108398 C470.34981924 788.50370506 470.89982338 790.65349358 471.44897461 792.8059082 C474.85234971 805.51931054 481.03175947 814.9768784 490.11303711 824.55200195 C490.5812085 825.04619629 491.04937988 825.54039062 491.53173828 826.04956055 C492.84476237 827.43085554 494.16606768 828.80426565 495.48803711 830.17700195 C496.0694043 830.8215332 496.65077148 831.46606445 497.24975586 832.13012695 C513.05466347 849.16917093 536.52856474 859.15926193 558.48803711 865.17700195 C559.81099758 871.55126604 559.81099758 871.55126604 558.48803711 874.11450195 C553.38027049 876.82800297 546.90581987 874.85472277 541.55053711 873.55200195 C540.81327393 873.37378906 540.07601074 873.19557617 539.31640625 873.01196289 C520.39148948 868.24087371 503.44581512 859.70637045 487.62084961 848.3996582 C484.75669699 846.24766148 484.75669699 846.24766148 482.48803711 845.17700195 C482.63314067 847.98954123 482.77906003 850.80203408 482.92553711 853.61450195 C482.9699292 854.47253418 483.01432129 855.33056641 483.06005859 856.21459961 C483.31704914 861.12406745 483.60097912 866.03051221 483.91674805 870.93652344 C485.30869301 892.94601811 485.30869301 892.94601811 482.48803711 897.17700195 C478.98803711 897.48950195 478.98803711 897.48950195 475.48803711 897.17700195 C472.80765017 894.49661502 472.55062347 891.68265757 471.82397461 888.09106445 C471.50804624 886.60198389 471.19178852 885.11297317 470.87524414 883.62402344 C470.71074768 882.83808807 470.54625122 882.05215271 470.37677002 881.24240112 C455.90776389 808.24443222 455.90776389 808.24443222 414.26464844 749.66455078 C411.21491937 748.03068116 408.31361086 747.05753099 404.99194336 746.09106445 C404.37005127 745.90880814 403.74815918 745.72655182 403.10742188 745.53877258 C401.09081478 744.95130998 399.07110356 744.37568704 397.05053711 743.80200195 C396.3618454 743.6044632 395.67315369 743.40692444 394.96359253 743.20339966 C386.03971764 740.64718993 377.09448806 738.21428726 368.05053711 736.11450195 C367.18952393 735.91099121 366.32851074 735.70748047 365.44140625 735.49780273 C360.3466113 734.3674316 355.70917088 733.81907875 350.48803711 734.17700195 C349.49803711 734.83700195 348.50803711 735.49700195 347.48803711 736.17700195 C347.78871094 736.81686035 348.08938477 737.45671875 348.39916992 738.1159668 C361.64272605 766.53005151 371.43844797 795.68881358 379.60009766 825.921875 C386.21040852 850.1548348 400.79730979 870.19907822 417.83959961 888.34106445 C420.25760615 890.9302573 422.59473238 893.57211892 424.92553711 896.23950195 C430.07621589 901.96654443 435.71031156 907.10004015 441.48803711 912.17700195 C441.99850586 912.62688477 442.50897461 913.07676758 443.03491211 913.5402832 C460.7938294 929.10175871 480.20726104 942.48004805 500.54663086 954.43481445 C502.56046125 955.62760111 504.54056783 956.8786891 506.48803711 958.17700195 C512.49259805 957.84053949 517.79870567 956.2774352 523.48803711 954.42700195 C549.35116947 946.35928886 576.3996388 942.46333281 603.48803711 943.17700195 C604.19589355 943.1948877 604.90375 943.21277344 605.63305664 943.23120117 C607.94000741 943.29840344 610.2447617 943.3901657 612.55053711 943.48950195 C613.27756836 943.51189941 614.00459961 943.53429687 614.75366211 943.55737305 C618.84758347 943.769558 621.63396397 944.0966468 624.48803711 947.17700195 C624.86303711 950.23950195 624.86303711 950.23950195 624.48803711 953.17700195 C621.65080822 956.01423084 619.52658377 955.59583963 615.55053711 955.8527832 C614.09638697 955.95594181 612.64228726 956.05981323 611.18823242 956.16430664 C610.42176392 956.21663452 609.65529541 956.2689624 608.86560059 956.32287598 C570.14549407 957.70259792 570.14549407 957.70259792 536.48803711 972.17700195 C555.83031796 982.96691184 578.64440158 989.23938949 600.46850586 992.34106445 C603.48803711 993.17700195 603.48803711 993.17700195 605.43334961 995.02856445 C607.01208461 998.24450613 606.21004628 1000.7638677 605.48803711 1004.17700195 C570.77300862 1006.4870593 531.28130203 994.22324109 499.90722656 979.99951172 C497.39305427 978.87267665 497.39305427 978.87267665 494.48803711 980.17700195 C507.93866025 998.0584186 523.59208679 1010.20599907 543.48803711 1020.17700195 C544.37491211 1020.62172852 545.26178711 1021.06645508 546.17553711 1021.5246582 C547.25834961 1022.06413086 547.25834961 1022.06413086 548.36303711 1022.61450195 C551.48803711 1024.17700195 551.48803711 1024.17700195 552.48803711 1025.17700195 C552.67553711 1028.11450195 552.67553711 1028.11450195 552.48803711 1031.17700195 C550.48803711 1033.17700195 550.48803711 1033.17700195 546.82006836 1033.45043945 C528.68617299 1032.9525022 507.80755912 1018.59622566 494.48803711 1007.17700195 C493.97692383 1006.74274902 493.46581055 1006.30849609 492.93920898 1005.86108398 C467.65147695 984.2051007 467.65147695 984.2051007 466.21069336 970.5480957 C466.13141602 969.2815918 466.13141602 969.2815918 466.05053711 967.98950195 C465.76173428 965.4504384 465.76173428 965.4504384 464.48803711 963.17700195 C461.13670471 960.7905897 457.65924968 959.10488149 453.94897461 957.3527832 C449.132163 955.07479263 444.66642363 952.34867973 440.17553711 949.48950195 C439.38091064 948.98394775 438.58628418 948.47839355 437.76757812 947.95751953 C425.93140123 940.33177438 414.46365191 932.12559429 403.74975586 922.98168945 C401.43412726 921.1339858 399.03838966 919.67696088 396.48803711 918.17700195 C396.81982406 929.07296379 398.53230172 938.93098185 401.36303711 949.42700195 C401.76417256 950.94709959 402.16529531 952.46720058 402.56640625 953.98730469 C412.78475737 992.30405898 426.00965956 1029.26320507 444.23803711 1064.55200195 C444.66141357 1065.37740479 445.08479004 1066.20280762 445.52099609 1067.05322266 C446.79092307 1069.4618402 448.12216035 1071.82158362 449.48803711 1074.17700195 C449.95556396 1075.02464111 450.42309082 1075.87228027 450.90478516 1076.74560547 C455.61047992 1084.44391551 461.76770317 1087.69037779 469.80053711 1091.36450195 C471.06445553 1091.95690176 472.32804341 1092.55000728 473.59130859 1093.14379883 C476.0816925 1094.30827917 478.58018993 1095.45278221 481.08374023 1096.58862305 C484.01314255 1097.95542536 486.83153764 1099.4166897 489.65991211 1100.9777832 C496.87802294 1104.7966006 496.87802294 1104.7966006 504.79223633 1104.56225586 C509.90164558 1102.43482073 514.47749034 1099.47689968 519.14868164 1096.5378418 C533.55500787 1088.15745541 554.03621214 1084.74430626 570.48803711 1084.17700195 C571.5231543 1084.13704102 572.55827148 1084.09708008 573.62475586 1084.0559082 C580.47056697 1083.92320719 587.18785449 1084.32754576 593.98803711 1085.05200195 C594.74157471 1085.13039307 595.4951123 1085.20878418 596.27148438 1085.28955078 C600.57092402 1085.79053565 604.41004669 1086.64130303 608.48803711 1088.17700195 C609.25215178 1091.91267367 609.55978474 1094.52512113 608.48803711 1098.17700195 C607.77486328 1098.1612915 607.06168945 1098.14558105 606.3269043 1098.12939453 C579.85378919 1097.62585294 553.93059616 1099.46531647 530.48803711 1113.17700195 C530.48803711 1113.83700195 530.48803711 1114.49700195 530.48803711 1115.17700195 C558.01479418 1122.56481229 585.09151068 1127.39809773 613.67553711 1127.42700195 C614.85616226 1127.42901108 614.85616226 1127.42901108 616.06063843 1127.43106079 C634.13936967 1127.42442874 651.88533981 1125.85261917 669.49975586 1121.63012695 C672.78412661 1121.13210472 675.26985495 1121.40426129 678.48803711 1122.17700195 C679.48803711 1123.17700195 679.48803711 1123.17700195 679.58569336 1125.2434082 C679.55314128 1127.55460612 679.52058919 1129.86580404 679.48803711 1132.17700195 C678.76028076 1132.35875977 678.03252441 1132.54051758 677.28271484 1132.7277832 C676.27668213 1132.97915039 675.27064941 1133.23051758 674.23413086 1133.48950195 C673.13439941 1133.76407227 672.03466797 1134.03864258 670.90161133 1134.3215332 C668.76435101 1134.85714757 666.62783089 1135.3957341 664.49243164 1135.9387207 C650.22375014 1139.5628172 636.11287279 1142.4733309 621.48803711 1144.17700195 C620.61308594 1144.27996582 619.73813477 1144.38292969 618.83666992 1144.48901367 C613.72371434 1145.0846156 608.60804775 1145.64562112 603.48803711 1146.17700195 C613.06531441 1156.41171759 625.38041571 1160.501169 638.48803711 1164.17700195 C644.32081303 1166.00977787 644.32081303 1166.00977787 645.48803711 1167.17700195 C645.95556958 1172.55362533 645.95556958 1172.55362533 644.23413086 1174.84887695 C640.04534574 1178.03497749 633.71873778 1176.33495284 628.83569336 1175.70825195 C608.2217579 1172.49311642 590.74104622 1163.41314379 575.48803711 1149.17700195 C575.05217285 1148.48687012 574.61630859 1147.79673828 574.16723633 1147.08569336 C571.90839512 1144.51814167 570.53178557 1144.57479788 567.15991211 1144.34106445 C566.06541748 1144.24970215 564.97092285 1144.15833984 563.84326172 1144.06420898 C562.6535376 1143.97768066 561.46381348 1143.89115234 560.23803711 1143.80200195 C549.49728913 1142.83684051 539.00327314 1141.39052789 528.42553711 1139.30200195 C527.44725952 1139.10974533 527.44725952 1139.10974533 526.44921875 1138.91360474 C517.51697309 1137.14148615 508.6695406 1135.12604004 499.92919922 1132.56225586 C495.72926498 1131.31265437 495.72926498 1131.31265437 491.48803711 1132.17700195 C492.10549805 1132.84344727 492.72295898 1133.50989258 493.35913086 1134.1965332 C497.68043967 1138.89932742 501.88779236 1143.61079939 505.86303711 1148.61450195 C509.65216826 1153.31732431 513.72750755 1157.57560995 518.0637207 1161.76660156 C520.78741026 1164.41182137 523.34840404 1167.12814166 525.82788086 1170.00512695 C529.66986448 1174.44689392 533.76301067 1178.5994554 537.92553711 1182.73950195 C538.99384766 1183.81361328 538.99384766 1183.81361328 540.08374023 1184.90942383 C544.10293565 1188.92131825 548.21983707 1192.74820339 552.52099609 1196.45507812 C555.87284567 1199.38924656 559.07388766 1202.481731 562.30053711 1205.55200195 C567.64166429 1210.59595364 573.05453346 1215.44132891 578.80444336 1220.02075195 C581.24932743 1221.98520029 583.63615779 1224.00504431 586.01269531 1226.05126953 C591.53567866 1230.79909732 597.19376192 1235.32666479 602.98803711 1239.73950195 C603.7037085 1240.28509766 604.41937988 1240.83069336 605.15673828 1241.39282227 C608.54937903 1243.9705659 611.95586496 1246.52640795 615.39038086 1249.0480957 C615.98979492 1249.49403076 616.58920898 1249.93996582 617.20678711 1250.39941406 C618.81390825 1251.59402555 620.42995573 1252.77660205 622.04663086 1253.95825195 C624.63174244 1256.30760136 625.65756461 1257.8056136 626.48803711 1261.17700195 C625.48803711 1263.98950195 625.48803711 1263.98950195 623.48803711 1266.17700195 C619.00540572 1266.64967488 616.39896256 1265.96754314 612.60913086 1263.60668945 C611.69856934 1263.0470752 610.78800781 1262.48746094 609.84985352 1261.91088867 C608.40231689 1260.99073975 608.40231689 1260.99073975 606.92553711 1260.05200195 C605.91410645 1259.42181152 604.90267578 1258.79162109 603.8605957 1258.14233398 C587.71342516 1248.0173361 571.94722353 1237.32134523 556.48803711 1226.17700195 C555.3477002 1225.3576416 555.3477002 1225.3576416 554.18432617 1224.52172852 C543.23153022 1216.63013324 532.66472778 1208.38752097 522.32299805 1199.7121582 C518.92839118 1196.87217843 515.49355023 1194.08185721 512.06225586 1191.28637695 C510.18110428 1189.74491739 508.31007453 1188.19108205 506.44506836 1186.63012695 C505.44862305 1185.7999707 504.45217773 1184.96981445 503.42553711 1184.11450195 C502.52706055 1183.36040039 501.62858398 1182.60629883 500.70288086 1181.8293457 C498.68141077 1179.97768114 498.68141077 1179.97768114 496.48803711 1180.17700195 C490.2514392 1197.22370289 494.48837792 1216.91040266 501.48803711 1233.17700195 C505.10626763 1240.816177 508.88783765 1248.60309851 513.81225586 1255.4934082 C515.48803711 1258.17700195 515.48803711 1258.17700195 515.23803711 1262.05200195 C514.86678711 1263.59887695 514.86678711 1263.59887695 514.48803711 1265.17700195 C511.30053711 1265.98950195 511.30053711 1265.98950195 507.48803711 1266.17700195 C505.22646549 1264.55330951 504.12716751 1263.36094361 502.48803711 1261.17700195 C501.9040918 1260.44352539 501.32014648 1259.71004883 500.71850586 1258.9543457 C483.87425027 1236.92724224 472.92512662 1210.2234693 475.48803711 1182.17700195 C476.52752091 1175.60905337 478.35297345 1169.46151541 480.48803711 1163.17700195 C480.00971436 1162.72897217 479.5313916 1162.28094238 479.03857422 1161.81933594 C476.83310278 1159.75225537 474.62931303 1157.68339002 472.42553711 1155.61450195 C471.67336914 1154.9100293 470.92120117 1154.20555664 470.14624023 1153.47973633 C457.83667239 1141.9162029 457.83667239 1141.9162029 452.98803711 1136.17700195 C450.78866041 1133.62083748 448.53864188 1131.20627245 446.11303711 1128.86450195 C442.43580035 1125.2361863 439.20941023 1121.31079822 435.98022461 1117.2824707 C434.27606789 1115.15895254 432.55922316 1113.06141046 430.80834961 1110.9777832 C413.82437364 1090.55490301 400.26088385 1067.51373056 387.82714844 1044.12231445 C387.29371826 1043.12329102 386.76028809 1042.12426758 386.21069336 1041.0949707 C385.7338208 1040.19544678 385.25694824 1039.29592285 384.765625 1038.36914062 C383.5496901 1036.06873823 383.5496901 1036.06873823 381.48803711 1034.17700195 C380.67520661 1038.07276641 379.8628307 1041.96862552 379.05053711 1045.86450195 C378.82043945 1046.96729492 378.5903418 1048.07008789 378.35327148 1049.20629883 C378.1309082 1050.27299805 377.90854492 1051.33969727 377.67944336 1052.4387207 C377.47520752 1053.41800537 377.27097168 1054.39729004 377.06054688 1055.40625 C376.87161865 1056.32059814 376.68269043 1057.23494629 376.48803711 1058.17700195 C376.29846436 1058.975979 376.1088916 1059.77495605 375.91357422 1060.59814453 C374.94040591 1066.49577896 375.49739354 1071.06662891 377.64819336 1076.61450195 C378.10887207 1077.8271875 378.56955078 1079.03987305 379.04418945 1080.28930664 C379.29013855 1080.92300171 379.53608765 1081.55669678 379.78948975 1082.20959473 C381.08837258 1085.56737718 382.33985362 1088.94275038 383.59350586 1092.31762695 C383.84461121 1092.99214905 384.09571655 1093.66667114 384.35443115 1094.3616333 C398.54901099 1132.66267593 405.43022373 1173.73103437 393.06225586 1213.4387207 C391.48803711 1216.17700195 391.48803711 1216.17700195 388.50756836 1217.6340332 C385.48803711 1218.17700195 385.48803711 1218.17700195 382.48803711 1217.17700195 C380.09058525 1212.38209823 381.69038023 1206.92179962 382.98803711 1201.98950195 C390.51726466 1168.34312898 379.37404702 1133.92027433 366.48803711 1103.17700195 C364.49377426 1106.16839622 363.57031498 1108.60522456 362.45678711 1112.00512695 C362.06305908 1113.1871167 361.66933105 1114.36910645 361.26367188 1115.58691406 C361.05590118 1116.2135495 360.84813049 1116.84018494 360.63406372 1117.48580933 C355.60219704 1132.60565473 349.94748374 1147.46119532 342.70288086 1161.6809082 C341.34216395 1164.01405077 341.34216395 1164.01405077 341.48803711 1166.17700195 C338.51803711 1166.17700195 335.54803711 1166.17700195 332.48803711 1166.17700195 C330.23458089 1161.67008951 330.23458089 1161.67008951 331.18725586 1157.58325195 C331.38883301 1156.7015332 331.59041016 1155.81981445 331.7980957 1154.91137695 C332.91490555 1150.48523742 334.09449384 1146.07956596 335.30053711 1141.67700195 C337.66550364 1132.84100021 339.63975413 1123.97245242 341.36303711 1114.98950195 C341.68558472 1113.31500977 341.68558472 1113.31500977 342.01464844 1111.60668945 C342.80811197 1107.36088875 343.48803711 1103.50986556 343.48803711 1099.17700195 C328.34326195 1100.71454258 314.99120541 1111.23743603 305.39819336 1122.54418945 C299.14725824 1131.15999777 294.95885783 1140.51774352 292.17944336 1150.76293945 C291.48803711 1153.17700195 291.48803711 1153.17700195 290.48803711 1154.17700195 C288.96875673 1154.24880159 287.44636229 1154.26092203 285.92553711 1154.23950195 C285.09924805 1154.23047852 284.27295898 1154.22145508 283.42163086 1154.2121582 C282.78354492 1154.20055664 282.14545898 1154.18895508 281.48803711 1154.17700195 C280.20729697 1134.75244319 288.72892509 1117.13961611 301.16430664 1102.66137695 C313.35742423 1088.98853392 328.8020358 1080.5111772 346.48803711 1076.17700195 C348.08406228 1059.29719874 348.85695882 1042.56729497 348.80053711 1025.61450195 C348.79871429 1024.45847473 348.79689148 1023.30244751 348.79501343 1022.11138916 C348.66421064 972.12427263 345.78983413 920.35944703 336.48803711 871.17700195 C336.31385254 870.24130371 336.13966797 869.30560547 335.96020508 868.34155273 C335.44487028 865.61630534 334.91111354 862.89584064 334.36303711 860.17700195 C334.20440186 859.38543701 334.0457666 858.59387207 333.88232422 857.77832031 C333.03037672 853.55468428 333.03037672 853.55468428 330.48803711 850.17700195 C329.90538086 850.95301758 329.32272461 851.7290332 328.72241211 852.52856445 C312.95798947 873.36303408 293.17047275 897.81122864 268.48803711 908.17700195 C265.77073161 908.35262672 264.1304669 907.98121971 261.48803711 907.17700195 C260.02887196 900.97555005 260.02887196 900.97555005 261.92553711 897.67700195 C263.96165308 895.69054735 266.01963768 893.83926366 268.17553711 891.98950195 C289.5591019 873.56491753 304.40609943 846.65122672 313.42553711 820.23950195 C313.72024902 819.38791504 314.01496094 818.53632812 314.31860352 817.65893555 C318.23414658 805.70291901 317.5462788 798.39822367 312.61303711 786.73950195 C312.10011008 785.4911851 311.58832255 784.24239946 311.07763672 782.99316406 C309.58537464 779.3713646 308.04401214 775.77192998 306.48803711 772.17700195 C306.08697754 771.25016602 305.68591797 770.32333008 305.27270508 769.3684082 C295.0856591 746.20247836 281.77379766 724.55195834 265.48803711 705.17700195 C265.03960449 704.63978516 264.59117187 704.10256836 264.12915039 703.54907227 C254.73091752 692.31333458 245.01930753 682.27577474 233.48803711 673.17700195 C232.02430664 671.9878418 232.02430664 671.9878418 230.53100586 670.7746582 C207.31118812 651.78718842 207.31118812 651.78718842 180.48803711 642.17700195 C180.49247833 643.15465515 180.49691956 644.13230835 180.50149536 645.1395874 C180.54257482 654.49031758 180.57227148 663.84102876 180.59166145 673.19182968 C180.60196601 677.99568275 180.61587118 682.79946129 180.63891602 687.60327148 C180.73261447 707.65554275 180.71611538 727.55770142 178.95166016 747.54711914 C176.99826269 769.89024502 179.98898563 790.24882553 187.18328857 811.42907715 C188.80454834 816.22080281 190.35879702 821.03406451 191.90991211 825.84887695 C192.22076752 826.81355896 192.53162292 827.77824097 192.85189819 828.77215576 C197.5153067 843.3783382 201.15316282 858.21839023 204.48803711 873.17700195 C204.65136536 873.90574524 204.8146936 874.63448853 204.98297119 875.38531494 C210.2096846 898.81863948 214.10651206 922.47251773 217.86303711 946.17700195 C218.02692995 947.21043417 218.02692995 947.21043417 218.19413376 948.2647438 C219.66687976 957.56260187 221.105833 966.86519522 222.48803711 976.17700195 C222.67795227 977.45426147 222.67795227 977.45426147 222.8717041 978.75732422 C224.32413892 988.72193985 224.96092426 998.61609239 224.98803711 1008.67700195 C224.99454788 1009.84422791 224.99454788 1009.84422791 225.00119019 1011.03503418 C225.03258988 1029.44671759 222.921384 1047.64861794 220.71069336 1065.90551758 C219.34002272 1077.3278068 218.20804635 1088.68099507 217.75366211 1100.1809082 C217.71189346 1101.22208801 217.67012482 1102.26326782 217.62709045 1103.33599854 C216.61198065 1135.55828401 226.59579203 1164.56252402 248.61987305 1188.4934082 C258.84345972 1199.30494628 269.45050725 1209.16784069 281.57104492 1217.80688477 C283.3708245 1219.09322748 285.14665389 1220.40622301 286.91772461 1221.73168945 C304.99559119 1235.13658302 324.86726909 1245.94623215 344.50366211 1256.85180664 C359.83892721 1265.36975998 374.99756259 1274.13795124 390.05883789 1283.1315918 C395.7985956 1286.55517788 401.54996565 1289.95912189 407.30053711 1293.36450195 C409.55315089 1294.69912114 411.80575522 1296.03375628 414.05834961 1297.3684082 C415.14019531 1298.0092334 416.22204102 1298.65005859 417.33666992 1299.31030273 C419.36476256 1300.51163496 421.39276466 1301.71312006 423.4206543 1302.91479492 C428.86156399 1306.13830225 434.30571812 1309.35621308 439.75463867 1312.56616211 C441.60363756 1313.65580972 443.45192585 1314.74666388 445.29956055 1315.83862305 C500.55532761 1348.47094445 558.16400235 1379.71693533 621.48803711 1393.17700195 C622.28709473 1393.35199219 623.08615234 1393.52698242 623.90942383 1393.70727539 C642.81706108 1397.71834736 666.54979031 1400.3295614 683.80053711 1390.23950195 C735.93926487 1338.25594897 743.07610881 1206.08156382 743.73596191 1134.76083374 C743.74232336 1128.56450096 743.63616477 1122.37136425 743.48803711 1116.17700195 C743.45758301 1114.87762695 743.42712891 1113.57825195 743.39575195 1112.23950195 C740.80393783 1022.59582043 727.77604505 931.16060491 590.48803711 548.17700195 C589.85551025 547.24380127 589.85551025 547.24380127 589.21020508 546.29174805 C578.29381543 530.18977042 566.86413059 514.49418726 554.97094727 499.10083008 C553.60929087 497.33430844 552.25567563 495.56206422 550.90600586 493.78637695 C545.8490547 487.15270273 540.6568644 480.64969039 535.37695312 474.19287109 C531.83492491 469.85598033 528.36048342 465.47397314 524.92553711 461.05200195 C520.70930491 455.63739127 516.31669012 450.40135105 511.82543945 445.21337891 C508.84236556 441.76634655 505.91848247 438.28380006 503.05053711 434.73950195 C494.08950916 423.72423114 484.65098119 413.14270829 474.96313477 402.76538086 C473.48657881 401.17543166 472.0226849 399.57473597 470.56225586 397.9699707 C461.31357759 387.82358599 451.88066281 377.67609036 441.38647461 368.7980957 C439.15903678 366.89606546 437.01780739 364.91092476 434.86303711 362.92700195 C428.66184841 357.3411984 422.1212312 352.2346364 415.48803711 347.17700195 C414.89893555 346.72566895 414.30983398 346.27433594 413.70288086 345.80932617 C364.7849375 308.51611386 246.47645301 251.33196039 190.22631836 305.1730957 Z M-15.92602539 356.93481445 C-16.80486352 360.29783503 -16.88063012 363.60064445 -16.88696289 367.05200195 C-16.91145508 367.74680664 -16.93594727 368.44161133 -16.96118164 369.1574707 C-16.99037413 374.32454178 -15.84300515 377.26156632 -12.51196289 381.17700195 C-9.13803507 383.38398237 -6.25727079 383.44525533 -2.27807617 383.48339844 C-0.3855864 383.50737953 -0.3855864 383.50737953 1.5451355 383.53184509 C2.91932775 383.53822204 4.29352487 383.5436147 5.66772461 383.5480957 C7.08253065 383.55706714 8.49733575 383.56618908 9.91213989 383.57545471 C12.8761017 383.59192892 15.83995077 383.59964194 18.80395508 383.60253906 C22.59269472 383.60792166 26.38036754 383.64560115 30.16880608 383.69128323 C33.09086937 383.72109959 36.01267714 383.72826358 38.9348793 383.72926521 C40.3310955 383.73345847 41.72731308 383.74585704 43.12337875 383.76678276 C51.75422312 384.19455889 51.75422312 384.19455889 59.32836914 380.76708984 C62.95332739 376.41968062 62.73594585 372.83753477 62.80053711 367.36450195 C62.82954102 366.5569043 62.85854492 365.74930664 62.88842773 364.91723633 C62.93058477 360.95771748 62.80043608 358.71673016 60.78100586 355.2277832 C56.66803273 351.54922972 52.84561805 350.92572748 47.43188477 350.88647461 C46.23359039 350.8737149 45.03529602 350.8609552 43.8006897 350.84780884 C42.51415497 350.84558319 41.22762024 350.84335754 39.90209961 350.84106445 C38.55837871 350.83463075 37.21465919 350.82790197 35.87094116 350.82089233 C33.05837763 350.80894048 30.24593673 350.80520934 27.43334961 350.80639648 C23.84328405 350.80659957 20.25401101 350.77930011 16.66413307 350.74485207 C13.88958175 350.72252801 11.11521952 350.7185606 8.34058762 350.71961594 C6.37809123 350.71613277 4.41565387 350.69450548 2.45327759 350.67251587 C-4.8895746 350.71002419 -10.99539595 350.80557896 -15.92602539 356.93481445 Z M-21.30102539 420.36450195 C-22.86433514 423.99541492 -22.95143044 427.294623 -22.88696289 431.17700195 C-22.89856445 431.87567383 -22.91016602 432.5743457 -22.92211914 433.29418945 C-22.8967386 437.77808415 -22.29835933 440.64672592 -19.51196289 444.17700195 C-16.03525628 447.58341404 -12.72074442 447.61643886 -8.0847168 447.59692383 C-7.34274551 447.60539337 -6.60077423 447.61386292 -5.83631897 447.62258911 C-3.38687939 447.64596154 -0.93806799 447.64698116 1.51147461 447.64575195 C3.21774547 447.6528541 4.92401394 447.66055318 6.63027954 447.66882324 C10.20630531 447.68226909 13.78211032 447.68383671 17.3581543 447.67797852 C21.93380468 447.67208638 26.50839255 447.70265252 31.08383751 447.7430954 C34.60812048 447.76898734 38.13214825 447.77184841 41.65651321 447.76820374 C43.34297986 447.76989402 45.02945841 447.77952782 46.71583176 447.79734802 C49.07860419 447.81956584 51.43923481 447.80982378 53.80200195 447.79223633 C54.49415298 447.80549957 55.18630402 447.81876282 55.89942932 447.83242798 C61.4468665 447.7368188 63.71997453 445.95152195 67.48803711 442.17700195 C69.10764281 438.93779055 68.71427466 435.41995814 68.73803711 431.86450195 C68.75866211 431.10459961 68.77928711 430.34469727 68.80053711 429.56176758 C68.8325834 424.95110794 68.56832758 421.85326166 65.48803711 418.17700195 C61.34389157 415.07629936 58.23259279 414.79816972 53.11499023 414.78881836 C52.39077377 414.7835614 51.66655731 414.77830444 50.9203949 414.77288818 C48.53647018 414.75972962 46.15321812 414.76841115 43.76928711 414.77856445 C42.10689161 414.77654252 40.44449697 414.77363008 38.78210449 414.76986694 C35.30199723 414.76544922 31.82212134 414.77185677 28.34204102 414.78588867 C23.88650342 414.80298036 19.43150801 414.7931362 14.9759903 414.77517128 C11.54441256 414.76431847 8.11296287 414.76778663 4.68138123 414.77555466 C3.03877193 414.77755253 1.39615091 414.77511191 -0.2464447 414.768116 C-2.54424732 414.76047668 -4.84117814 414.77213949 -7.13891602 414.78881836 C-8.44509888 414.79120514 -9.75128174 414.79359192 -11.0970459 414.79605103 C-15.74075632 415.31407995 -18.35973731 416.76816718 -21.30102539 420.36450195 Z " fill="#C48185" transform="translate(728.511962890625,-0.177001953125)"/>
</svg>
