<?xml version="1.0" encoding="UTF-8"?>
<svg version="1.1" xmlns="http://www.w3.org/2000/svg" width="365" height="138">
<path d="M0 0 C1.875 0.3125 1.875 0.3125 4 1 C6 4 6 4 6.859375 7.234375 C8.12679797 11.41860698 9.92898568 14.58708914 12.25 18.25 C13.0588926 19.56281701 13.866174 20.87662807 14.671875 22.19140625 C15.26452148 23.15457764 15.26452148 23.15457764 15.86914062 24.13720703 C23.19882193 36.21092645 25.02464757 44.08054795 23 58 C23.598125 58.28875 24.19625 58.5775 24.8125 58.875 C28.97350137 61.01494356 30.50448459 62.51146061 32.1875 66.8125 C32.53167969 67.66457031 32.87585938 68.51664062 33.23046875 69.39453125 C34.06731518 72.22791484 34.51283014 74.07827967 34 77 C30.22158829 81.15177255 25.92385147 82.1762215 20.625 83.25 C19.81224609 83.41910889 18.99949219 83.58821777 18.16210938 83.76245117 C7.84723712 85.68725919 -5.89248826 87.36917058 -16 84 C-16.6875 81.9375 -16.6875 81.9375 -17 80 C-18.0725 79.87625 -19.145 79.7525 -20.25 79.625 C-23.44666333 79.09222278 -25.24091652 78.50162508 -28 77 C-28.63268893 67.94903339 -28.63268893 67.94903339 -26.125 64.1875 C-25.42375 63.465625 -24.7225 62.74375 -24 62 C-23.28837557 60.35202764 -22.60968047 58.68834592 -22 57 C-21.505 56.505 -21.505 56.505 -21 56 C-20.90489684 54.24376161 -20.81581788 52.4869452 -20.76049805 50.72900391 C-20.51652862 43.48825234 -20.19432162 36.20493294 -16 30 C-14.67661368 29.31379969 -13.34425775 28.64435496 -12 28 C-11.855625 27.13375 -11.71125 26.2675 -11.5625 25.375 C-10.80233433 20.81400597 -8.5764833 17.7643946 -6 14 C-4.2235138 11.33527069 -3.38056987 9.43458592 -2.4375 6.4375 C-1.72381407 4.18550657 -1.05677648 2.11355296 0 0 Z " fill="#D13101" transform="translate(175,27)"/>
<path d="M0 0 C0.33 0 0.66 0 1 0 C1.04898438 0.85722656 1.09796875 1.71445313 1.1484375 2.59765625 C1.59429879 11.50613044 1.59429879 11.50613044 4 20 C5.79927039 21.27489266 5.79927039 21.27489266 8 22 C10.75 24 10.75 24 13 26 C13 26.66 13 27.32 13 28 C12.01 28 11.02 28 10 28 C9.67 29.98 9.34 31.96 9 34 C19.23 34 29.46 34 40 34 C40 32.68 40 31.36 40 30 C37.57327433 28.21030974 37.57327433 28.21030974 35 27 C35.60631492 23.60463643 36.89578803 21.69339132 39 19 C39.69580267 17.68163705 40.37224433 16.35208914 41 15 C41.66 15.33 42.32 15.66 43 16 C43 16.66 43 17.32 43 18 C43.598125 18.28875 44.19625 18.5775 44.8125 18.875 C48.97350137 21.01494356 50.50448459 22.51146061 52.1875 26.8125 C52.53167969 27.66457031 52.87585938 28.51664063 53.23046875 29.39453125 C54.06731518 32.22791484 54.51283014 34.07827967 54 37 C50.22158829 41.15177255 45.92385147 42.1762215 40.625 43.25 C39.81224609 43.41910889 38.99949219 43.58821777 38.16210938 43.76245117 C27.84723712 45.68725919 14.10751174 47.36917058 4 44 C3.3125 41.9375 3.3125 41.9375 3 40 C1.9275 39.87625 0.855 39.7525 -0.25 39.625 C-3.44666333 39.09222278 -5.24091652 38.50162508 -8 37 C-8.63268893 27.94903339 -8.63268893 27.94903339 -6.125 24.1875 C-5.42375 23.465625 -4.7225 22.74375 -4 22 C-3.28837557 20.35202764 -2.60968047 18.68834592 -2 17 C-1.67 16.67 -1.34 16.34 -1 16 C-0.76321284 13.30764224 -0.57801975 10.63501844 -0.4375 7.9375 C-0.37272461 6.79958008 -0.37272461 6.79958008 -0.30664062 5.63867188 C-0.20026367 3.75934562 -0.09960066 1.87969756 0 0 Z " fill="#F5D7D1" transform="translate(155,67)"/>
<path d="M0 0 C0.66 0.33 1.32 0.66 2 1 C2 2.65 2 4.3 2 6 C1.34 6.33 0.68 6.66 0 7 C-1.01691264 8.99145391 -2.01642648 10.99187074 -3 13 C-3.66 13.66 -4.32 14.32 -5 15 C-4.98617135 17.05714832 -4.98617135 17.05714832 -4 19 C-2.0162233 20.28436734 -2.0162233 20.28436734 0 21 C-0.3125 22.9375 -0.3125 22.9375 -1 25 C-3.7935837 25.93119457 -5.49926482 26.12858975 -8.38671875 26.1328125 C-9.24330078 26.13410156 -10.09988281 26.13539062 -10.98242188 26.13671875 C-12.32143555 26.13091797 -12.32143555 26.13091797 -13.6875 26.125 C-14.56083984 26.12886719 -15.43417969 26.13273437 -16.33398438 26.13671875 C-21.64669592 26.12878341 -26.74318643 25.77108092 -32 25 C-31.67 23.02 -31.34 21.04 -31 19 C-30.01 19 -29.02 19 -28 19 C-28 18.34 -28 17.68 -28 17 C-27.360625 17.165 -26.72125 17.33 -26.0625 17.5 C-21.99571812 18.16396439 -18.12020171 18.06149555 -14 18 C-16.97 17.67 -19.94 17.34 -23 17 C-18.87252539 14.24835026 -14.66248884 13.81118714 -9.8359375 12.87890625 C-8.90007812 12.58886719 -7.96421875 12.29882812 -7 12 C-6.67 11.01 -6.34 10.02 -6 9 C-5.01 8.67 -4.02 8.34 -3 8 C-1.98245132 6.1346755 -1.98245132 6.1346755 -1.3125 3.9375 C-1.06113281 3.20402344 -0.80976563 2.47054687 -0.55078125 1.71484375 C-0.36902344 1.14894531 -0.18726563 0.58304687 0 0 Z " fill="#E7A495" transform="translate(196,76)"/>
<path d="M0 0 C1.85599616 3.71199231 -0.41319512 8.1617603 -1.40625 12.03125 C-2.29874789 14.9141214 -2.29874789 14.9141214 -1 17 C-1.8125 19.5625 -1.8125 19.5625 -3 22 C-3.66 22.33 -4.32 22.66 -5 23 C-5.46751788 25.35599235 -5.46751788 25.35599235 -5.625 28.0625 C-5.69976562 28.98160156 -5.77453125 29.90070312 -5.8515625 30.84765625 C-5.90054688 31.55792969 -5.94953125 32.26820312 -6 33 C-6.66 33 -7.32 33 -8 33 C-8 38.61 -8 44.22 -8 50 C-12 50 -12 50 -15 48 C-15.4765625 44.8125 -15.4765625 44.8125 -15.625 41 C-15.64893391 36.33515223 -15.64893391 36.33515223 -17 32 C-15.36439164 27.17925956 -14.44397941 25.2219897 -10 23 C-9.855625 22.13375 -9.71125 21.2675 -9.5625 20.375 C-8.80233433 15.81400597 -6.5764833 12.7643946 -4 9 C-2.00902154 6.01353231 -1.05875074 3.40312738 0 0 Z " fill="#C8514A" transform="translate(173,32)"/>
<path d="M0 0 C2.5 1.375 2.5 1.375 5 3 C5 3.66 5 4.32 5 5 C4.01 5 3.02 5 2 5 C1.67 6.98 1.34 8.96 1 11 C11.23 11 21.46 11 32 11 C32 9.68 32 8.36 32 7 C29.57327433 5.21030974 29.57327433 5.21030974 27 4 C27.33 2.68 27.66 1.36 28 0 C31.3 1.32 34.6 2.64 38 4 C38 4.66 38 5.32 38 6 C38.66 6 39.32 6 40 6 C39.67 7.65 39.34 9.3 39 11 C38.34 11 37.68 11 37 11 C36.67 12.32 36.34 13.64 36 15 C31.74992247 15.02495303 27.49988519 15.0429783 23.24975586 15.05493164 C21.807691 15.05992148 20.36563109 15.06671573 18.92358398 15.07543945 C-2.67288532 15.20269768 -2.67288532 15.20269768 -6 12.1875 C-6.94646345 10.11711121 -7.60017313 8.23903048 -8 6 C-4.93882432 3.37613513 -4.26826873 3 0 3 C0 2.01 0 1.02 0 0 Z " fill="#EFBDB2" transform="translate(163,90)"/>
<path d="M0 0 C1.875 0.3125 1.875 0.3125 4 1 C6 4 6 4 6.8359375 7.203125 C8.17723944 11.57810987 10.17257429 14.92574865 12.625 18.75 C17 25.6077454 17 25.6077454 17 29 C14.69 29 12.38 29 10 29 C9.34 26.69 8.68 24.38 8 22 C4.37 22 0.74 22 -3 22 C-5.25 17.5 -5.25 17.5 -4.1015625 13.671875 C-3.86953125 12.87265625 -3.6375 12.0734375 -3.3984375 11.25 C-3.14320313 10.425 -2.88796875 9.6 -2.625 8.75 C-2.3775 7.90953125 -2.13 7.0690625 -1.875 6.203125 C-1.2629433 4.13154846 -0.63316499 2.06522271 0 0 Z " fill="#B40B0A" transform="translate(175,27)"/>
<path d="M0 0 C0.66 0.33 1.32 0.66 2 1 C2 1.66 2 2.32 2 3 C2.598125 3.28875 3.19625 3.5775 3.8125 3.875 C7.97350137 6.01494356 9.50448459 7.51146061 11.1875 11.8125 C11.53167969 12.66457031 11.87585938 13.51664063 12.23046875 14.39453125 C13.06731518 17.22791484 13.51283014 19.07827967 13 22 C9.22158829 26.15177255 4.92385147 27.1762215 -0.375 28.25 C-1.18775391 28.41910889 -2.00050781 28.58821777 -2.83789062 28.76245117 C-13.15276288 30.68725919 -26.89248826 32.36917058 -37 29 C-37.6875 26.9375 -37.6875 26.9375 -38 25 C-37.11852295 25.01047363 -36.2370459 25.02094727 -35.32885742 25.03173828 C-32.00575049 25.06616559 -28.68283768 25.09106467 -25.35961914 25.10986328 C-23.93120298 25.1198174 -22.50280662 25.13338562 -21.07446289 25.15087891 C-13.30588382 25.24352418 -5.85899825 25.13255918 1.7722168 23.43310547 C4 23 4 23 8 23 C10.01684217 17.49477965 10.01684217 17.49477965 9 12 C6.98677354 10.89690441 6.98677354 10.89690441 4.5625 10.3125 C0.00754717 9.00377358 0.00754717 9.00377358 -2 8 C-1.125 1.125 -1.125 1.125 0 0 Z " fill="#FAEFEC" transform="translate(196,82)"/>
<path d="M0 0 C0.33 0 0.66 0 1 0 C1 4.95 1 9.9 1 15 C2.98 15.66 4.96 16.32 7 17 C7.12375 15.700625 7.2475 14.40125 7.375 13.0625 C7.5859375 10.84765625 7.5859375 10.84765625 8 9 C8.66 8.67 9.32 8.34 10 8 C10.36368892 9.60203467 10.71561952 11.20674203 11.0625 12.8125 C11.25972656 13.70582031 11.45695313 14.59914063 11.66015625 15.51953125 C12 18 12 18 11 21 C11.33 21.99 11.66 22.98 12 24 C12.99 24.33 13.98 24.66 15 25 C15.33 25.66 15.66 26.32 16 27 C18.35599235 27.46751788 18.35599235 27.46751788 21.0625 27.625 C21.98160156 27.69976562 22.90070313 27.77453125 23.84765625 27.8515625 C24.55792969 27.90054688 25.26820313 27.94953125 26 28 C25.67 28.66 25.34 29.32 25 30 C16.58455432 30.53431401 11.20346511 28.65001061 4.125 24.1875 C-1.73890105 18.15113127 -1.30476629 11.96066499 -1.203125 3.9140625 C-1 1 -1 1 0 0 Z " fill="#D44002" transform="translate(157,65)"/>
<path d="M0 0 C4.95 1.98 4.95 1.98 10 4 C10 4.66 10 5.32 10 6 C10.66 6 11.32 6 12 6 C11.67 7.65 11.34 9.3 11 11 C10.34 11 9.68 11 9 11 C8.67 12.32 8.34 13.64 8 15 C-2.23 15 -12.46 15 -23 15 C-23 14.67 -23 14.34 -23 14 C-21.88882813 13.95101562 -20.77765625 13.90203125 -19.6328125 13.8515625 C-11.60431402 13.46083081 -3.82761584 12.98094455 4 11 C4 9.68 4 8.36 4 7 C1.57327433 5.21030974 1.57327433 5.21030974 -1 4 C-0.67 2.68 -0.34 1.36 0 0 Z " fill="#EDBAB0" transform="translate(191,90)"/>
<path d="M0 0 C0.66 0.33 1.32 0.66 2 1 C2 3.64 2 6.28 2 9 C6.69544672 7.28401825 6.69544672 7.28401825 10.625 4.375 C12.5411299 2.4588701 14.3741111 2.35484985 17 2 C17.66 3.65 18.32 5.3 19 7 C16.52993736 9.9690652 14.26118936 10.73898943 10.5625 11.6875 C9.61503906 11.93886719 8.66757813 12.19023438 7.69140625 12.44921875 C5 13 5 13 1 13 C1 12.34 1 11.68 1 11 C-0.32 10.67 -1.64 10.34 -3 10 C-3.75 7.8125 -3.75 7.8125 -4 5 C-2.0625 2.1875 -2.0625 2.1875 0 0 Z " fill="#E24D06" transform="translate(171,79)"/>
<path d="M0 0 C2.97 0.495 2.97 0.495 6 1 C6 1.66 6 2.32 6 3 C6.66 3 7.32 3 8 3 C8 8.94 8 14.88 8 21 C4 21 4 21 1 19 C0.5234375 15.8125 0.5234375 15.8125 0.375 12 C0.35106609 7.33515223 0.35106609 7.33515223 -1 3 C-0.67 2.01 -0.34 1.02 0 0 Z " fill="#E4866D" transform="translate(157,61)"/>
<path d="M0 0 C8.91 1.485 8.91 1.485 18 3 C18 4.32 18 5.64 18 7 C15.17588235 7.94137255 13.47081968 8.11725382 10.55078125 8.09765625 C9.70322266 8.09443359 8.85566406 8.09121094 7.98242188 8.08789062 C7.10134766 8.07951172 6.22027344 8.07113281 5.3125 8.0625 C4.41982422 8.05798828 3.52714844 8.05347656 2.60742188 8.04882812 C0.40488013 8.03704983 -1.79752599 8.02060164 -4 8 C-3.67 6.02 -3.34 4.04 -3 2 C-2.01 2 -1.02 2 0 2 C0 1.34 0 0.68 0 0 Z " fill="#E28169" transform="translate(168,93)"/>
<path d="M0 0 C0.66 0 1.32 0 2 0 C2.268125 0.598125 2.53625 1.19625 2.8125 1.8125 C3.98493467 3.97224808 5.19369282 5.35790256 7 7 C6.67 7.66 6.34 8.32 6 9 C3.67843403 9.40729228 1.3431213 9.74438677 -1 10 C-1.33 10.99 -1.66 11.98 -2 13 C-2.66 13 -3.32 13 -4 13 C-4 15.64 -4 18.28 -4 21 C-3.34 21 -2.68 21 -2 21 C-2.33 21.66 -2.66 22.32 -3 23 C-4.32 22.34 -5.64 21.68 -7 21 C-7.63268893 11.94903339 -7.63268893 11.94903339 -5.125 8.1875 C-4.42375 7.465625 -3.7225 6.74375 -3 6 C-2.28837557 4.35202764 -1.60968047 2.68834592 -1 1 C-0.67 0.67 -0.34 0.34 0 0 Z " fill="#F9F0EE" transform="translate(154,83)"/>
<path d="M0 0 C0.33 0 0.66 0 1 0 C1.04898438 0.85722656 1.09796875 1.71445313 1.1484375 2.59765625 C1.59429879 11.50613044 1.59429879 11.50613044 4 20 C5.98567734 21.49743888 5.98567734 21.49743888 8 22 C8 23.32 8 24.64 8 26 C5.69 26.99 3.38 27.98 1 29 C1.99 31.64 2.98 34.28 4 37 C1.625 37.125 1.625 37.125 -1 37 C-3 35 -3 35 -3.23046875 32.87109375 C-3.21628906 32.06800781 -3.20210937 31.26492187 -3.1875 30.4375 C-3.18105469 29.63183594 -3.17460937 28.82617188 -3.16796875 27.99609375 C-3 26 -3 26 -2 25 C0.32817964 24.63239269 2.6618385 24.29758419 5 24 C5 23.01 5 22.02 5 21 C4.360625 20.731875 3.72125 20.46375 3.0625 20.1875 C1 19 1 19 0 16 C-0.07051114 13.26134713 -0.09357765 10.54972412 -0.0625 7.8125 C-0.05798828 7.06291016 -0.05347656 6.31332031 -0.04882812 5.54101562 C-0.03706354 3.69397617 -0.01912865 1.84697787 0 0 Z " fill="#F3D7CF" transform="translate(155,67)"/>
<path d="M0 0 C0.66 0 1.32 0 2 0 C5.2701997 5.48549627 7.15781066 9.26887494 7.0625 15.75 C7.05347656 16.54921875 7.04445312 17.3484375 7.03515625 18.171875 C7.01775391 19.07679687 7.01775391 19.07679687 7 20 C5.68 19.67 4.36 19.34 3 19 C2.67 17.02 2.34 15.04 2 13 C1.34 13 0.68 13 0 13 C0 8.71 0 4.42 0 0 Z " fill="#C4302A" transform="translate(192,57)"/>
<path d="M0 0 C0.66 0.33 1.32 0.66 2 1 C2 2.65 2 4.3 2 6 C1.01 6.495 1.01 6.495 0 7 C-0.4125 7.928125 -0.825 8.85625 -1.25 9.8125 C-3.52537855 13.9569395 -6.37024064 16.10687418 -10.86328125 17.6328125 C-13.44746292 18.07689491 -15.64939181 17.87046676 -18.25 17.5625 C-19.14203125 17.46066406 -20.0340625 17.35882813 -20.953125 17.25390625 C-21.62859375 17.17011719 -22.3040625 17.08632812 -23 17 C-18.87252539 14.24835026 -14.66248884 13.81118714 -9.8359375 12.87890625 C-8.90007812 12.58886719 -7.96421875 12.29882812 -7 12 C-6.67 11.01 -6.34 10.02 -6 9 C-5.01 8.67 -4.02 8.34 -3 8 C-1.98245132 6.1346755 -1.98245132 6.1346755 -1.3125 3.9375 C-1.06113281 3.20402344 -0.80976563 2.47054687 -0.55078125 1.71484375 C-0.36902344 1.14894531 -0.18726563 0.58304687 0 0 Z " fill="#D45E4E" transform="translate(196,76)"/>
<path d="M0 0 C2.31 0 4.62 0 7 0 C7 3.3 7 6.6 7 10 C3 10 3 10 0 8 C-0.40843923 5.28796348 -0.13336867 2.7562858 0 0 Z " fill="#F5E0D5" transform="translate(158,72)"/>
<path d="M0 0 C0.33 0 0.66 0 1 0 C1 4.95 1 9.9 1 15 C2.32 15.66 3.64 16.32 5 17 C5.66 17.66 6.32 18.32 7 19 C6.34 19 5.68 19 5 19 C5 19.99 5 20.98 5 22 C4.01 22 3.02 22 2 22 C-1.81560518 15.32269093 -1.52609568 8.54744952 -1 1 C-0.67 0.67 -0.34 0.34 0 0 Z " fill="#BB2C25" transform="translate(157,65)"/>
<path d="M0 0 C2.38564077 0.57584432 4.66682784 1.22227595 7 2 C7.33 2.66 7.66 3.32 8 4 C10.35599235 4.46751788 10.35599235 4.46751788 13.0625 4.625 C13.98160156 4.69976562 14.90070313 4.77453125 15.84765625 4.8515625 C16.55792969 4.90054688 17.26820313 4.94953125 18 5 C17.67 5.66 17.34 6.32 17 7 C9.88658735 7.45164525 5.28453206 6.32797915 -1 3 C-0.67 2.01 -0.34 1.02 0 0 Z " fill="#D44516" transform="translate(165,88)"/>
<path d="M0 0 C0.33 0.66 0.66 1.32 1 2 C1.99 2.33 2.98 2.66 4 3 C3.67 4.98 3.34 6.96 3 9 C-2.61 9 -8.22 9 -14 9 C-14 8.67 -14 8.34 -14 8 C-9.38 7.67 -4.76 7.34 0 7 C0 5.68 0 4.36 0 3 C-1.65 3 -3.3 3 -5 3 C-2.25 0 -2.25 0 0 0 Z " fill="#E48E7B" transform="translate(186,93)"/>
<path d="M0 0 C0.66 0 1.32 0 2 0 C2.66 2.31 3.32 4.62 4 7 C6.97 7.495 6.97 7.495 10 8 C10 8.66 10 9.32 10 10 C10.99 10.33 11.98 10.66 13 11 C12.34 11 11.68 11 11 11 C10.67 11.99 10.34 12.98 10 14 C10 13.01 10 12.02 10 11 C7.69 11 5.38 11 3 11 C2.67 10.01 2.34 9.02 2 8 C1.34 8 0.68 8 0 8 C0 5.36 0 2.72 0 0 Z " fill="#F6E2DB" transform="translate(150,96)"/>
<path d="M0 0 C1.98 0.66 3.96 1.32 6 2 C6 2.66 6 3.32 6 4 C6.66 4 7.32 4 8 4 C7.67 5.65 7.34 7.3 7 9 C6.34 9 5.68 9 5 9 C4.67 10.32 4.34 11.64 4 13 C1.36 13 -1.28 13 -4 13 C-4 12.67 -4 12.34 -4 12 C-2.02 11.67 -0.04 11.34 2 11 C2.66 8.69 3.32 6.38 4 4 C2.68 3.34 1.36 2.68 0 2 C0 1.34 0 0.68 0 0 Z " fill="#F1C8BF" transform="translate(195,92)"/>
<path d="M0 0 C7.26 0.33 14.52 0.66 22 1 C18.95318939 3.03120707 18.39881676 3.24659875 14.98828125 3.1953125 C14.23095703 3.18886719 13.47363281 3.18242188 12.69335938 3.17578125 C11.90767578 3.15902344 11.12199219 3.14226562 10.3125 3.125 C9.51521484 3.11597656 8.71792969 3.10695313 7.89648438 3.09765625 C5.930861 3.07411585 3.96539225 3.03824547 2 3 C2 2.34 2 1.68 2 1 C1.34 0.67 0.68 0.34 0 0 Z " fill="#E8A698" transform="translate(166,101)"/>
<path d="M0 0 C1.134375 0.020625 2.26875 0.04125 3.4375 0.0625 C3.4375 2.3725 3.4375 4.6825 3.4375 7.0625 C2.1175 6.7325 0.7975 6.4025 -0.5625 6.0625 C-0.5625 5.4025 -0.5625 4.7425 -0.5625 4.0625 C-1.8825 4.0625 -3.2025 4.0625 -4.5625 4.0625 C-4.8925 4.7225 -5.2225 5.3825 -5.5625 6.0625 C-4.48849278 0.07874549 -4.48849278 0.07874549 0 0 Z " fill="#D54B34" transform="translate(163.5625,57.9375)"/>
<path d="M0 0 C0.99 0.33 1.98 0.66 3 1 C3 1.66 3 2.32 3 3 C4.65 3 6.3 3 8 3 C8.33 4.65 8.66 6.3 9 8 C6.69 8 4.38 8 2 8 C0 1.125 0 1.125 0 0 Z " fill="#B71513" transform="translate(183,48)"/>
<path d="M0 0 C7 9.1 7 9.1 7 12 C3 12 3 12 1.3125 10.9375 C-0.62604202 8.07584273 -0.75272849 5.3999833 -1 2 C-0.67 1.34 -0.34 0.68 0 0 Z " fill="#C03C3A" transform="translate(183,39)"/>
<path d="M0 0 C0.66 0.33 1.32 0.66 2 1 C2 1.66 2 2.32 2 3 C1.01 3 0.02 3 -1 3 C-1.33 4.98 -1.66 6.96 -2 9 C-3.98 9 -5.96 9 -8 9 C-7.67 7.35 -7.34 5.7 -7 4 C-5.35 4 -3.7 4 -2 4 C-2 3.34 -2 2.68 -2 2 C-1.34 2 -0.68 2 0 2 C0 1.34 0 0.68 0 0 Z " fill="#E9A79A" transform="translate(166,92)"/>
<path d="M0 0 C0.66 0 1.32 0 2 0 C6.06153846 6.27692308 6.06153846 6.27692308 5.75 9.9375 C5.5025 10.618125 5.255 11.29875 5 12 C4.01 11.67 3.02 11.34 2 11 C2 9.68 2 8.36 2 7 C1.34 7 0.68 7 0 7 C0 4.69 0 2.38 0 0 Z " fill="#BE3431" transform="translate(192,57)"/>
<path d="M0 0 C1.875 0.3125 1.875 0.3125 4 1 C6.29633824 4.44450737 6.54016485 6.93812283 7 11 C6.34 10.67 5.68 10.34 5 10 C5 9.01 5 8.02 5 7 C3.68 7 2.36 7 1 7 C0.34 6.34 -0.32 5.68 -1 5 C-0.625 2.375 -0.625 2.375 0 0 Z " fill="#D38280" transform="translate(175,27)"/>
<path d="M0 0 C3.63 0 7.26 0 11 0 C11 0.99 11 1.98 11 3 C7.04 3 3.08 3 -1 3 C-0.67 2.01 -0.34 1.02 0 0 Z " fill="#DD552F" transform="translate(173,97)"/>
<path d="M0 0 C0 1.98 0 3.96 0 6 C-2.31 6 -4.62 6 -7 6 C-7 4.68 -7 3.36 -7 2 C-1.125 0 -1.125 0 0 0 Z " fill="#EA9D84" transform="translate(165,66)"/>
<path d="M0 0 C-5.5522888 2.8352113 -9.80112515 3.37952295 -16 3 C-13.2403139 1.16020927 -11.70258118 0.51676779 -8.5625 -0.1875 C-7.41974609 -0.45626953 -7.41974609 -0.45626953 -6.25390625 -0.73046875 C-3.87041504 -1.0154963 -2.26895796 -0.72875415 0 0 Z " fill="#EB8866" transform="translate(189,90)"/>
<path d="M0 0 C0.33 1.32 0.66 2.64 1 4 C2.32 3.67 3.64 3.34 5 3 C5 4.65 5 6.3 5 8 C4.67 7.34 4.34 6.68 4 6 C-1.01535052 6.32960216 -1.01535052 6.32960216 -5 9 C-4.75 7.125 -4.75 7.125 -4 5 C-1.9375 3.75 -1.9375 3.75 0 3 C0 2.01 0 1.02 0 0 Z " fill="#CF665B" transform="translate(163,52)"/>
<path d="M0 0 C3.24732932 1.62366466 3.70155136 4.75387839 5 8 C2.625 8.125 2.625 8.125 0 8 C-0.66 7.34 -1.32 6.68 -2 6 C-1.44444444 1.44444444 -1.44444444 1.44444444 0 0 Z " fill="#F1CBC1" transform="translate(154,96)"/>
<path d="M0 0 C0.66 0 1.32 0 2 0 C3.1875 3.25 3.1875 3.25 4 7 C2.625 9.4375 2.625 9.4375 1 11 C0.34 10.67 -0.32 10.34 -1 10 C-0.67 6.7 -0.34 3.4 0 0 Z " fill="#C51903" transform="translate(192,70)"/>
<path d="M0 0 C2.31 0 4.62 0 7 0 C7 3.3 7 6.6 7 10 C6.67 10 6.34 10 6 10 C6 7.69 6 5.38 6 3 C4.02 3 2.04 3 0 3 C0 2.01 0 1.02 0 0 Z " fill="#F2BDAC" transform="translate(158,72)"/>
<path d="M0 0 C1.0326802 2.78823655 1.04509293 3.8677274 0.0625 6.75 C-0.288125 7.4925 -0.63875 8.235 -1 9 C-1.99 8.01 -2.98 7.02 -4 6 C-3.67 5.01 -3.34 4.02 -3 3 C-2.34 3 -1.68 3 -1 3 C-0.67 2.01 -0.34 1.02 0 0 Z " fill="#D73209" transform="translate(165,81)"/>
<path d="M0 0 C5.75 -0.125 5.75 -0.125 8 1 C8 1.66 8 2.32 8 3 C5.69 3 3.38 3 1 3 C0.67 2.01 0.34 1.02 0 0 Z " fill="#EFB5A9" transform="translate(160,101)"/>
<path d="M0 0 C0.33 0.99 0.66 1.98 1 3 C0.01 4.485 0.01 4.485 -1 6 C-1.99 6 -2.98 6 -4 6 C-3.67 4.35 -3.34 2.7 -3 1 C-2.01 0.67 -1.02 0.34 0 0 Z " fill="#C72A0B" transform="translate(194,79)"/>
<path d="M0 0 C1.32 0 2.64 0 4 0 C4 0.66 4 1.32 4 2 C4.99 2.33 5.98 2.66 7 3 C4.69 3.33 2.38 3.66 0 4 C0 2.68 0 1.36 0 0 Z " fill="#E45D1D" transform="translate(172,88)"/>
</svg>
