<?xml version="1.0" encoding="UTF-8"?>
<svg version="1.1" xmlns="http://www.w3.org/2000/svg" width="365" height="138">
<path d="M0 0 C120.45 0 240.9 0 365 0 C365 45.54 365 91.08 365 138 C244.55 138 124.1 138 0 138 C0 92.46 0 46.92 0 0 Z " fill="#FEFEFE" transform="translate(0,0)"/>
<path d="M0 0 C1.83646637 2.75469956 2.79207249 4.98929638 3.9375 8.0625 C6.62665475 14.68444262 10.24249092 20.5743909 14.07788086 26.59204102 C18.03735398 32.84467732 21.47121734 38.27713173 21.1875 45.9375 C21.14689453 47.37416016 21.14689453 47.37416016 21.10546875 48.83984375 C21.07066406 49.55269531 21.03585938 50.26554687 21 51 C20.01 50.505 20.01 50.505 19 50 C18.608125 51.051875 18.21625 52.10375 17.8125 53.1875 C15.86780131 57.64410116 13.42892884 60.87583033 8.8984375 62.97265625 C6.9548933 63.71092834 4.97895673 64.36270885 3 65 C5.64 64.67 8.28 64.34 11 64 C8.485961 66.75347128 6.59221693 67.82748627 2.80078125 68.23828125 C-4.31451191 68.45051134 -9.47379848 67.30679342 -14.7578125 62.3515625 C-19.02333772 57.63269644 -21.27939005 53.28529371 -21.375 46.8125 C-21.40335938 45.95269531 -21.43171875 45.09289062 -21.4609375 44.20703125 C-20.11463367 34.83995122 -14.73874858 26.7746952 -9.9375 18.8125 C-4.41841601 9.68324131 -4.41841601 9.68324131 0 0 Z " fill="#D23101" transform="translate(177,27)"/>
<path d="M0 0 C1.109375 1.75 1.109375 1.75 2 4 C1.390625 6 1.390625 6 0.25 8 C-0.11609375 8.66 -0.4821875 9.32 -0.859375 10 C-1.23578125 10.66 -1.6121875 11.32 -2 12 C-2.66 13.32 -3.32 14.64 -4 16 C-1.03 16.99 1.94 17.98 5 19 C5 19.66 5 20.32 5 21 C5.66 21 6.32 21 7 21 C6.505 23.475 6.505 23.475 6 26 C5.34 26 4.68 26 4 26 C4 26.99 4 27.98 4 29 C-2.59178496 29.99231171 -9.02711804 30.15586659 -15.6875 30.125 C-16.74735107 30.12089111 -17.80720215 30.11678223 -18.89916992 30.11254883 C-39.76068103 29.96391476 -39.76068103 29.96391476 -42.828125 27.578125 C-44 26 -44 26 -43.9375 24.0625 C-42.68770633 21.31295393 -41.38287871 19.86766169 -39 18 C-37.0103005 17.60986284 -35.00980131 17.26797351 -33 17 C-32.67 16.34 -32.34 15.68 -32 15 C-30.329375 15.99 -30.329375 15.99 -28.625 17 C-23.79579967 19.44047088 -19.32300663 19.60353793 -14 19 C-13.34 18.67 -12.68 18.34 -12 18 C-15.63 18 -19.26 18 -23 18 C-23 17.67 -23 17.34 -23 17 C-22.43152344 16.89042969 -21.86304688 16.78085938 -21.27734375 16.66796875 C-13.04429848 14.97737682 -6.97435433 13.24834489 -2 6 C-0.67649342 2.78734084 -0.67649342 2.78734084 0 0 Z " fill="#EFBEB3" transform="translate(196,75)"/>
<path d="M0 0 C1 1.33333333 2 2.66666667 3 4 C3.8353125 5.0209375 3.8353125 5.0209375 4.6875 6.0625 C6 8 6 8 6 11 C4.741875 11.37125 3.48375 11.7425 2.1875 12.125 C-1.33452407 13.41536988 -1.88876614 13.82272104 -4 17.1875 C-4.33 18.115625 -4.66 19.04375 -5 20 C-4.01 20.33 -3.02 20.66 -2 21 C-2 21.66 -2 22.32 -2 23 C12.85 23 27.7 23 43 23 C43 22.01 43 21.02 43 20 C43.66 20 44.32 20 45 20 C45.33 18.35 45.66 16.7 46 15 C45.34 15 44.68 15 44 15 C43.505 14.01 43.505 14.01 43 13 C40.88153715 12.31270746 40.88153715 12.31270746 38.4375 11.875 C37.61121094 11.70742187 36.78492188 11.53984375 35.93359375 11.3671875 C35.29550781 11.24601562 34.65742188 11.12484375 34 11 C34.66 9.35 35.32 7.7 36 6 C36.495 7.485 36.495 7.485 37 9 C39.64 9.33 42.28 9.66 45 10 C45.495 11.485 45.495 11.485 46 13 C46.66 13 47.32 13 48 13 C48.69040574 14.65697379 49.3530635 16.3255761 50 18 C50.28875 18.680625 50.5775 19.36125 50.875 20.0625 C51 22 51 22 49.75 24.125 C46.18835036 26.55339748 42.97918724 26.93190494 38.75390625 27.5078125 C36.02232821 27.87959816 36.02232821 27.87959816 33.765625 29.01171875 C29.63389862 30.488169 25.54583634 30.51111406 21.1875 30.6875 C20.32318359 30.73455078 19.45886719 30.78160156 18.56835938 30.83007812 C13.23554752 31.07558871 8.27624044 30.81502901 3 30 C3 28.68 3 27.36 3 26 C0.36 25.67 -2.28 25.34 -5 25 C-5 24.34 -5 23.68 -5 23 C-6.32 23 -7.64 23 -9 23 C-9 19.7 -9 16.4 -9 13 C-7.68 12.34 -6.36 11.68 -5 11 C-4.08839907 8.82791412 -4.08839907 8.82791412 -3.75 6.375 C-3.60046875 5.55773437 -3.4509375 4.74046875 -3.296875 3.8984375 C-3.19890625 3.27195312 -3.1009375 2.64546875 -3 2 C-2.34 2.33 -1.68 2.66 -1 3 C-0.67 3.99 -0.34 4.98 0 6 C0 4.02 0 2.04 0 0 Z " fill="#F5E0D9" transform="translate(157,81)"/>
<path d="M0 0 C0.99 0 1.98 0 3 0 C2.88399745 1.68814237 2.75668975 3.37550887 2.625 5.0625 C2.55539063 6.00222656 2.48578125 6.94195312 2.4140625 7.91015625 C2 11 2 11 0.99609375 14.3515625 C-0.11270774 18.41281971 -0.40353421 22.12898573 -0.5625 26.3125 C-0.87795567 33.75591133 -0.87795567 33.75591133 -2 36 C-2.66 36 -3.32 36 -4 36 C-4 36.99 -4 37.98 -4 39 C-4.66 39 -5.32 39 -6 39 C-9.88264155 32.56937494 -11.02651501 27.48936975 -10 20 C-8.11133476 13.00769441 -4.51961671 5.66458628 0 0 Z " fill="#C03629" transform="translate(166,48)"/>
<path d="M0 0 C1.1015625 1.75390625 1.1015625 1.75390625 2 4 C1.4609375 5.96484375 1.4609375 5.96484375 0.375 7.9375 C-0.00398438 8.62714844 -0.38296875 9.31679687 -0.7734375 10.02734375 C-2.32682442 12.52562527 -4.06383506 14.78724007 -6 17 C-3.94766315 19.2477975 -2.99332739 20.0022242 0 21 C0.8125 22.9375 0.8125 22.9375 1 25 C-1 27 -1 27 -3.33837891 27.22705078 C-4.29147949 27.21657715 -5.24458008 27.20610352 -6.2265625 27.1953125 C-7.7734375 27.18564453 -7.7734375 27.18564453 -9.3515625 27.17578125 C-10.43179688 27.15902344 -11.51203125 27.14226562 -12.625 27.125 C-13.71296875 27.11597656 -14.8009375 27.10695313 -15.921875 27.09765625 C-18.61480152 27.07403409 -21.30729255 27.04109556 -24 27 C-24.66 25.68 -25.32 24.36 -26 23 C-21.3845737 19.61535404 -16.51913346 18.91092494 -11 18 C-11.33 18 -11.66 18 -12 18 C-15.66666667 18 -19.33333333 18 -23 18 C-23 17.67 -23 17.34 -23 17 C-22.43152344 16.89042969 -21.86304688 16.78085938 -21.27734375 16.66796875 C-13.04429848 14.97737682 -6.97435433 13.24834489 -2 6 C-0.67649342 2.78734084 -0.67649342 2.78734084 0 0 Z " fill="#E7A596" transform="translate(196,75)"/>
<path d="M0 0 C1.87701259 2.81551889 2.92103425 5.23458585 4.125 8.375 C6.63068852 14.53763933 9.84696647 19.90386827 13.42578125 25.48046875 C15 28 15 28 15 29 C12.66705225 29.04241723 10.33297433 29.04092937 8 29 C7 28 7 28 6.9375 24.9375 C6.958125 23.968125 6.97875 22.99875 7 22 C4.27157939 20.63578969 2.39046682 21.12192789 -0.625 21.4375 C-1.62789062 21.53933594 -2.63078125 21.64117187 -3.6640625 21.74609375 C-4.43492187 21.82988281 -5.20578125 21.91367187 -6 22 C-6.33 23.65 -6.66 25.3 -7 27 C-7.33 27 -7.66 27 -8 27 C-8.144375 26.236875 -8.28875 25.47375 -8.4375 24.6875 C-8.9632594 21.91827092 -8.9632594 21.91827092 -10 19 C-8.80916124 16.60656111 -7.58165614 14.39433706 -6.1875 12.125 C-3.80995616 8.18317338 -1.56338071 4.35099604 0 0 Z " fill="#B30706" transform="translate(177,27)"/>
<path d="M0 0 C0.495 1.485 0.495 1.485 1 3 C3.64 3.33 6.28 3.66 9 4 C9.495 5.485 9.495 5.485 10 7 C10.66 7 11.32 7 12 7 C12.77708997 10.6028717 13.18721277 13.28235106 12.25 16.875 C6.65069521 22.1632323 -5.83920076 20.15295802 -13.1875 20.125 C-14.72954102 20.13080078 -14.72954102 20.13080078 -16.30273438 20.13671875 C-21.9637398 20.12947498 -27.40140602 19.84481777 -33 19 C-33 18.34 -33 17.68 -33 17 C-19.8 17 -6.6 17 7 17 C7 16.01 7 15.02 7 14 C7.66 14 8.32 14 9 14 C9.33 12.35 9.66 10.7 10 9 C9.34 9 8.68 9 8 9 C7.505 8.01 7.505 8.01 7 7 C4.88153715 6.31270746 4.88153715 6.31270746 2.4375 5.875 C1.61121094 5.70742187 0.78492188 5.53984375 -0.06640625 5.3671875 C-0.70449219 5.24601562 -1.34257812 5.12484375 -2 5 C-1.34 3.35 -0.68 1.7 0 0 Z " fill="#F5D6D0" transform="translate(193,87)"/>
<path d="M0 0 C0.75 1.75 0.75 1.75 1 4 C-0.25 6.125 -0.25 6.125 -3 8 C-5.74088119 8.67364207 -8.44995701 9.1266979 -11.24609375 9.5078125 C-13.97767179 9.87959816 -13.97767179 9.87959816 -16.234375 11.01171875 C-20.36610138 12.488169 -24.45416366 12.51111406 -28.8125 12.6875 C-29.67681641 12.73455078 -30.54113281 12.78160156 -31.43164062 12.83007812 C-36.76445248 13.07558871 -41.72375956 12.81502901 -47 12 C-46.67 10.68 -46.34 9.36 -46 8 C-45.26064209 8.01047363 -44.52128418 8.02094727 -43.75952148 8.03173828 C-23.58635767 9.29110481 -23.58635767 9.29110481 -4 6 C-1.59747926 3.04140124 -1.59747926 3.04140124 0 0 Z " fill="#FAEDEB" transform="translate(207,99)"/>
<path d="M0 0 C0.99 0 1.98 0 3 0 C3 0.66 3 1.32 3 2 C3.66 2 4.32 2 5 2 C5 7.94 5 13.88 5 20 C3.68 20.33 2.36 20.66 1 21 C-1.67454377 18.24187674 -2.91862219 16.60452086 -3.4375 12.75 C-2.90858734 8.21646295 -1.6188483 4.24947679 0 0 Z " fill="#F5EBDE" transform="translate(160,62)"/>
<path d="M0 0 C0.33 0.66 0.66 1.32 1 2 C3.11327425 2.90725434 3.11327425 2.90725434 5.5625 3.625 C6.80193359 4.01558594 6.80193359 4.01558594 8.06640625 4.4140625 C8.70449219 4.60742188 9.34257812 4.80078125 10 5 C10 5.66 10 6.32 10 7 C10.66 7 11.32 7 12 7 C11.67 8.65 11.34 10.3 11 12 C10.34 12 9.68 12 9 12 C9 12.99 9 13.98 9 15 C2.14016191 16.05728087 -4.56783224 16.11639843 -11.5 16.0625 C-12.60859375 16.05798828 -13.7171875 16.05347656 -14.859375 16.04882812 C-17.57297399 16.03713158 -20.28645761 16.02074086 -23 16 C-23 15.67 -23 15.34 -23 15 C-21.45892578 14.92652344 -21.45892578 14.92652344 -19.88671875 14.8515625 C-11.78576678 14.42751605 -3.94846619 13.73451699 4 12 C4.33 10.35 4.66 8.7 5 7 C4.21625 6.896875 3.4325 6.79375 2.625 6.6875 C0 6 0 6 -2 3 C-1.34 2.01 -0.68 1.02 0 0 Z " fill="#EEBCB2" transform="translate(191,89)"/>
<path d="M0 0 C0.66 0.33 1.32 0.66 2 1 C1.67 3.64 1.34 6.28 1 9 C6.87615054 8.65434409 9.10541593 7.3396794 13 3 C13.66 3 14.32 3 15 3 C15.33 4.98 15.66 6.96 16 9 C10.89481587 12.36724911 6.2443789 14.38153028 0 14 C-0.66 13.34 -1.32 12.68 -2 12 C-1.67 11.67 -1.34 11.34 -1 11 C-1.66 10.67 -2.32 10.34 -3 10 C-3.625 7.4375 -3.625 7.4375 -4 5 C-3.01 4.34 -2.02 3.68 -1 3 C-0.67 2.01 -0.34 1.02 0 0 Z " fill="#E55C18" transform="translate(171,79)"/>
<path d="M0 0 C0.98484375 0.11085938 1.9696875 0.22171875 2.984375 0.3359375 C3.73203125 0.43132812 4.4796875 0.52671875 5.25 0.625 C5.8125 2.5625 5.8125 2.5625 6.25 4.625 C5.25 5.625 5.25 5.625 1.87109375 5.72265625 C0.47652923 5.71598369 -0.91801743 5.70402532 -2.3125 5.6875 C-3.02341797 5.68298828 -3.73433594 5.67847656 -4.46679688 5.67382812 C-6.22790013 5.66200864 -7.98896036 5.64407263 -9.75 5.625 C-9.75 4.305 -9.75 2.985 -9.75 1.625 C-6.30824478 -0.52199969 -3.9779708 -0.47356795 0 0 Z " fill="#E27156" transform="translate(180.75,95.375)"/>
<path d="M0 0 C3.97733836 3.97733836 5.82786097 7.33543133 6.1875 12.90234375 C6.1875 15.60822988 6.13194554 18.29755978 6 21 C4.68 20.67 3.36 20.34 2 20 C2 17.69 2 15.38 2 13 C1.34 13 0.68 13 0 13 C0 8.71 0 4.42 0 0 Z " fill="#B80B04" transform="translate(192,57)"/>
<path d="M0 0 C0.66 0.33 1.32 0.66 2 1 C2 1.99 2 2.98 2 4 C3.32 4.33 4.64 4.66 6 5 C6 5.66 6 6.32 6 7 C6.66 7.33 7.32 7.66 8 8 C4.7 8.66 1.4 9.32 -2 10 C-2 10.99 -2 11.98 -2 13 C-2.66 13 -3.32 13 -4 13 C-4 15.64 -4 18.28 -4 21 C-4.66 21 -5.32 21 -6 21 C-6 17.7 -6 14.4 -6 11 C-4.68 10.34 -3.36 9.68 -2 9 C-1.08839907 6.82791412 -1.08839907 6.82791412 -0.75 4.375 C-0.60046875 3.55773437 -0.4509375 2.74046875 -0.296875 1.8984375 C-0.19890625 1.27195312 -0.1009375 0.64546875 0 0 Z " fill="#F8E7E3" transform="translate(154,83)"/>
<path d="M0 0 C1.1015625 1.75 1.1015625 1.75 2 4 C0.74751646 8.64689546 -2.19537168 13.09057834 -6 16 C-11.44320044 18.65521973 -17.08711162 18.18938077 -23 18 C-23 17.67 -23 17.34 -23 17 C-22.43152344 16.89042969 -21.86304688 16.78085938 -21.27734375 16.66796875 C-13.04429848 14.97737682 -6.97435433 13.24834489 -2 6 C-0.67649342 2.78734084 -0.67649342 2.78734084 0 0 Z " fill="#CF5449" transform="translate(196,75)"/>
<path d="M0 0 C0.99 0 1.98 0 3 0 C3 0.66 3 1.32 3 2 C3.66 2 4.32 2 5 2 C5 4.64 5 7.28 5 10 C3.02 10.33 1.04 10.66 -1 11 C-1.33 12.65 -1.66 14.3 -2 16 C-2.33 16 -2.66 16 -3 16 C-3.37851209 10.06997733 -2.10575375 5.52760359 0 0 Z " fill="#EA9C83" transform="translate(160,62)"/>
<path d="M0 0 C2.97 0.99 5.94 1.98 9 3 C8.34 3.66 7.68 4.32 7 5 C9.08326131 5.02709444 11.16662441 5.04643873 13.25 5.0625 C14.99023438 5.07990234 14.99023438 5.07990234 16.765625 5.09765625 C19.40977128 5.01782092 21.49826091 4.78643778 24 4 C21.485961 6.75347128 19.59221693 7.82748627 15.80078125 8.23828125 C9.37163971 8.43004528 5.53259753 7.27857631 0 4 C0 2.66666667 0 1.33333333 0 0 Z " fill="#D23F10" transform="translate(164,87)"/>
<path d="M0 0 C0.66 0.33 1.32 0.66 2 1 C2 1.66 2 2.32 2 3 C2.66 3 3.32 3 4 3 C4 3.66 4 4.32 4 5 C5.32 5.33 6.64 5.66 8 6 C8 7.32 8 8.64 8 10 C8.66 10 9.32 10 10 10 C9.67 10.99 9.34 11.98 9 13 C8.67 12.54625 8.34 12.0925 8 11.625 C4.9622157 9.15680026 1.80812939 8.81156856 -2 8 C-1.125 2.25 -1.125 2.25 0 0 Z " fill="#F9EDE8" transform="translate(196,82)"/>
<path d="M0 0 C2.31 0.66 4.62 1.32 7 2 C6.34 2.433125 5.68 2.86625 5 3.3125 C4.34 3.869375 3.68 4.42625 3 5 C3 5.99 3 6.98 3 8 C0.69 8 -1.62 8 -4 8 C-4 4 -4 4 -3 2 C-2.01 2 -1.02 2 0 2 C0 1.34 0 0.68 0 0 Z " fill="#E48D79" transform="translate(168,93)"/>
<path d="M0 0 C1.85299907 3.70599813 2.24206643 4.718819 2.125 8.5625 C2.10695312 9.32691406 2.08890625 10.09132813 2.0703125 10.87890625 C2.04710937 11.57886719 2.02390625 12.27882813 2 13 C2 13.99 2 14.98 2 16 C0.02 16.33 -1.96 16.66 -4 17 C-4.33 16.34 -4.66 15.68 -5 15 C-4.67 14.01 -4.34 13.02 -4 12 C-3.34 12 -2.68 12 -2 12 C-1.34 8.04 -0.68 4.08 0 0 Z " fill="#D44202" transform="translate(166,72)"/>
<path d="M0 0 C2.375 -0.1875 2.375 -0.1875 5 0 C7.10827055 3.16240582 7.33817465 4.50657469 7.625 8.1875 C7.69976562 9.08855469 7.77453125 9.98960938 7.8515625 10.91796875 C7.90054688 11.60503906 7.94953125 12.29210938 8 13 C7.01 13.495 7.01 13.495 6 14 C4.68 10.7 3.36 7.4 2 4 C1.34 4 0.68 4 0 4 C0 2.68 0 1.36 0 0 Z " fill="#F7F4F2" transform="translate(175,24)"/>
<path d="M0 0 C0.33 0.66 0.66 1.32 1 2 C3.02463255 2.65213292 3.02463255 2.65213292 5 3 C4.125 7.875 4.125 7.875 3 9 C0.30345146 9.07319621 -2.36691458 9.09242537 -5.0625 9.0625 C-6.20041992 9.05573242 -6.20041992 9.05573242 -7.36132812 9.04882812 C-9.24091871 9.0370068 -11.12046899 9.01907078 -13 9 C-13 8.67 -13 8.34 -13 8 C-8.38 7.67 -3.76 7.34 1 7 C1 5.68 1 4.36 1 3 C-0.98 3 -2.96 3 -5 3 C-3 1 -3 1 0 0 Z " fill="#E48D79" transform="translate(185,93)"/>
<path d="M0 0 C0.99 0 1.98 0 3 0 C3 0.66 3 1.32 3 2 C3.66 2.66 4.32 3.32 5 4 C2.69 7.96 0.38 11.92 -2 16 C-4 13 -4 13 -4 11 C-3.34 10.67 -2.68 10.34 -2 10 C-1.3131875 8.18137645 -1.3131875 8.18137645 -0.875 6.0625 C-0.70742187 5.35222656 -0.53984375 4.64195313 -0.3671875 3.91015625 C0.0629243 1.99684777 0.0629243 1.99684777 0 0 Z " fill="#F4F1EA" transform="translate(169,32)"/>
<path d="M0 0 C7.92 0.33 15.84 0.66 24 1 C19.62703266 3.18648367 16.4791784 3.23362071 11.75 3.125 C11.00492188 3.11597656 10.25984375 3.10695313 9.4921875 3.09765625 C7.66131941 3.07418358 5.83061762 3.03831525 4 3 C4 2.34 4 1.68 4 1 C2.68 0.67 1.36 0.34 0 0 Z " fill="#E8A496" transform="translate(164,101)"/>
<path d="M0 0 C0.66 0 1.32 0 2 0 C2.25002209 1.74714233 2.47423194 3.49799141 2.6875 5.25 C2.81511719 6.22453125 2.94273437 7.1990625 3.07421875 8.203125 C2.98668788 11.50165663 2.31143311 12.69405723 0 15 C-0.66 15 -1.32 15 -2 15 C-1.855625 14.38125 -1.71125 13.7625 -1.5625 13.125 C-0.77943337 8.77462983 -0.40153341 4.39978093 0 0 Z " fill="#C61903" transform="translate(192,70)"/>
<path d="M0 0 C0.66 0 1.32 0 2 0 C2.33 1.98 2.66 3.96 3 6 C-0.35327639 8.23551759 -0.90743657 8.17283528 -4.6875 7.625 C-5.49574219 7.51414062 -6.30398437 7.40328125 -7.13671875 7.2890625 C-8.05904297 7.14597656 -8.05904297 7.14597656 -9 7 C-8.39414063 6.72414063 -7.78828125 6.44828125 -7.1640625 6.1640625 C-4.74470284 4.99649315 -4.74470284 4.99649315 -2.375 2.375 C-1.59125 1.59125 -0.8075 0.8075 0 0 Z " fill="#E74F04" transform="translate(184,82)"/>
<path d="M0 0 C2.15973378 3.23960066 2.75921963 5.14751405 3 9 C1.5625 10.875 1.5625 10.875 0 12 C-0.66 11.67 -1.32 11.34 -2 11 C-1.85957123 9.35369672 -1.71250671 7.70795821 -1.5625 6.0625 C-1.48128906 5.14597656 -1.40007812 4.22945312 -1.31640625 3.28515625 C-1 1 -1 1 0 0 Z " fill="#B00404" transform="translate(177,27)"/>
<path d="M0 0 C0.66 0.33 1.32 0.66 2 1 C2 1.66 2 2.32 2 3 C1.01 3 0.02 3 -1 3 C-1.33 4.98 -1.66 6.96 -2 9 C-3.98 9 -5.96 9 -8 9 C-8 5 -8 5 -7 4 C-5.33382885 3.95936168 -3.66611905 3.957279 -2 4 C-2 3.34 -2 2.68 -2 2 C-1.34 2 -0.68 2 0 2 C0 1.34 0 0.68 0 0 Z " fill="#EAA89B" transform="translate(166,92)"/>
<path d="M0 0 C0.33 0 0.66 0 1 0 C0.96519531 0.81984375 0.93039063 1.6396875 0.89453125 2.484375 C0.86746094 3.56203125 0.84039062 4.6396875 0.8125 5.75 C0.76029297 7.35101563 0.76029297 7.35101563 0.70703125 8.984375 C1.03553074 12.36572978 1.66883859 13.58732945 4 16 C4.99 16.66 5.98 17.32 7 18 C6.34 18 5.68 18 5 18 C5 18.99 5 19.98 5 21 C4.34 21 3.68 21 3 21 C-0.88588876 14.56399674 -1.76961814 9.49431435 -1 2 C-0.67 1.34 -0.34 0.68 0 0 Z " fill="#B51C18" transform="translate(157,66)"/>
<path d="M0 0 C2.64508959 2.64508959 2.78233633 4.29971764 3 8 C1.5625 10.875 1.5625 10.875 0 13 C-2 11 -2 11 -2.01171875 8.90625 C-1.90472656 8.1121875 -1.79773438 7.318125 -1.6875 6.5 C-1.58824219 5.7059375 -1.48898438 4.911875 -1.38671875 4.09375 C-1 2 -1 2 0 0 Z " fill="#FEF8FD" transform="translate(162,43)"/>
<path d="M0 0 C1.65 0 3.3 0 5 0 C5.33 0.99 5.66 1.98 6 3 C6.66 3 7.32 3 8 3 C7.67 4.65 7.34 6.3 7 8 C6.34 8 5.68 8 5 8 C5 8.99 5 9.98 5 11 C3.68 10.67 2.36 10.34 1 10 C1.7115625 9.38125 1.7115625 9.38125 2.4375 8.75 C4.16266518 6.817815 4.56584875 5.51807725 5 3 C2.525 2.01 2.525 2.01 0 1 C0 0.67 0 0.34 0 0 Z " fill="#F1C9C0" transform="translate(195,93)"/>
<path d="M0 0 C3.63 0 7.26 0 11 0 C11 0.99 11 1.98 11 3 C7.04 3 3.08 3 -1 3 C-0.67 2.01 -0.34 1.02 0 0 Z " fill="#DD552F" transform="translate(173,97)"/>
<path d="M0 0 C2.67901932 2.31881505 3.66204403 4.31814468 4.6875 7.6875 C4.93886719 8.49574219 5.19023437 9.30398437 5.44921875 10.13671875 C5.63097656 10.75160156 5.81273437 11.36648437 6 12 C4.68 11.67 3.36 11.34 2 11 C2 9.68 2 8.36 2 7 C1.34 7 0.68 7 0 7 C0 4.69 0 2.38 0 0 Z " fill="#B21311" transform="translate(192,57)"/>
<path d="M0 0 C0.99 0.33 1.98 0.66 3 1 C1.35 1.66 -0.3 2.32 -2 3 C-0.73025028 7.41522109 -0.73025028 7.41522109 2 11 C-2 11 -2 11 -3.8125 9.75 C-5 8 -5 8 -4.9375 6.0625 C-3.75310292 3.45682641 -2.10921555 1.90509792 0 0 Z " fill="#F1CBC1" transform="translate(157,93)"/>
<path d="M0 0 C-5.40303965 4.67289916 -10.04769059 4.44534366 -17 4 C-17 3.67 -17 3.34 -17 3 C-16.12988281 2.81824219 -16.12988281 2.81824219 -15.2421875 2.6328125 C-11.59077432 1.84950604 -8.09852012 1.03403422 -4.5625 -0.1875 C-2 -1 -2 -1 0 0 Z " fill="#ED8D6B" transform="translate(190,89)"/>
<path d="M0 0 C0.66 0.33 1.32 0.66 2 1 C2 1.99 2 2.98 2 4 C3.32 4.33 4.64 4.66 6 5 C6 5.66 6 6.32 6 7 C3.36 7.33 0.72 7.66 -2 8 C-1.34 5.36 -0.68 2.72 0 0 Z " fill="#F7F1F0" transform="translate(154,83)"/>
<path d="M0 0 C1.2065625 0.0309375 1.2065625 0.0309375 2.4375 0.0625 C2.1075 2.7025 1.7775 5.3425 1.4375 8.0625 C1.1075 7.4025 0.7775 6.7425 0.4375 6.0625 C-0.2225 6.0625 -0.8825 6.0625 -1.5625 6.0625 C-2.2225 4.4125 -2.8825 2.7625 -3.5625 1.0625 C-2.5625 0.0625 -2.5625 0.0625 0 0 Z " fill="#E05539" transform="translate(164.5625,57.9375)"/>
<path d="M0 0 C0.99 0 1.98 0 3 0 C3 1.98 3 3.96 3 6 C1.35 6.66 -0.3 7.32 -2 8 C-3 5 -3 5 -1.75 2.3125 C-1.1725 1.549375 -0.595 0.78625 0 0 Z " fill="#BE2218" transform="translate(166,48)"/>
<path d="M0 0 C2.95749791 3.46741134 5.07848152 6.86873527 7 11 C6.01 11 5.02 11 4 11 C4 10.34 4 9.68 4 9 C3.01 8.67 2.02 8.34 1 8 C-0.07009208 5.17884816 0 3.09455459 0 0 Z " fill="#B11718" transform="translate(182,40)"/>
<path d="M0 0 C2.31 0 4.62 0 7 0 C7 3.3 7 6.6 7 10 C6.67 10 6.34 10 6 10 C6 7.69 6 5.38 6 3 C4.02 3 2.04 3 0 3 C0 2.01 0 1.02 0 0 Z " fill="#F2BDAC" transform="translate(158,72)"/>
<path d="M0 0 C0.66 0.33 1.32 0.66 2 1 C1.88637738 2.4800841 1.75877092 3.95910074 1.625 5.4375 C1.55539063 6.26121094 1.48578125 7.08492188 1.4140625 7.93359375 C1.27742187 8.61550781 1.14078125 9.29742187 1 10 C0.01 10.495 0.01 10.495 -1 11 C-1.66 10.67 -2.32 10.34 -3 10 C-3.625 7.4375 -3.625 7.4375 -4 5 C-3.01 4.34 -2.02 3.68 -1 3 C-0.67 2.01 -0.34 1.02 0 0 Z " fill="#E65003" transform="translate(171,79)"/>
<path d="M0 0 C1 3 1 3 0 6 C0.66 6.33 1.32 6.66 2 7 C1.34 8.98 0.68 10.96 0 13 C-0.33 13 -0.66 13 -1 13 C-1.144375 12.236875 -1.28875 11.47375 -1.4375 10.6875 C-1.9632594 7.91827092 -1.9632594 7.91827092 -3 5 C-1.5625 2.3125 -1.5625 2.3125 0 0 Z " fill="#B11511" transform="translate(170,41)"/>
<path d="M0 0 C0.66 0.33 1.32 0.66 2 1 C2 1.66 2 2.32 2 3 C2.66 3 3.32 3 4 3 C3.67 4.65 3.34 6.3 3 8 C2.01 7.67 1.02 7.34 0 7 C-1.125 2.25 -1.125 2.25 0 0 Z " fill="#F3F3F1" transform="translate(196,82)"/>
<path d="M0 0 C0 3.11227195 -0.45627049 5.94152152 -1 9 C-2.32 8.67 -3.64 8.34 -5 8 C-4.67 6.68 -4.34 5.36 -4 4 C-3.34 4 -2.68 4 -2 4 C-1.34 2.68 -0.68 1.36 0 0 Z " fill="#D82F0A" transform="translate(166,80)"/>
<path d="M0 0 C2 2 2 2 2.125 5.125 C2.08375 6.07375 2.0425 7.0225 2 8 C0.35 8.66 -1.3 9.32 -3 10 C-3.33 9.34 -3.66 8.68 -4 8 C-2.68 8 -1.36 8 0 8 C-0.185625 7.236875 -0.37125 6.47375 -0.5625 5.6875 C-1 3 -1 3 0 0 Z " fill="#D94007" transform="translate(187,80)"/>
<path d="M0 0 C0.99 0 1.98 0 3 0 C3 0.66 3 1.32 3 2 C3.66 2 4.32 2 5 2 C5 2.66 5 3.32 5 4 C2.69 4.66 0.38 5.32 -2 6 C-1.34 4.02 -0.68 2.04 0 0 Z " fill="#E47B5D" transform="translate(160,62)"/>
<path d="M0 0 C-0.8353125 0.37125 -0.8353125 0.37125 -1.6875 0.75 C-4.39971127 2.21606015 -6.63587365 4.02989471 -9 6 C-9 4.35 -9 2.7 -9 1 C-6.04335481 -0.4783226 -3.25770263 -0.06032783 0 0 Z " fill="#F4D6CC" transform="translate(161,92)"/>
<path d="M0 0 C2.46800047 1.15173355 4.04783565 2.04783565 6 4 C4.02 4.99 4.02 4.99 2 6 C1.34 4.02 0.68 2.04 0 0 Z M4 0 C4.99 0.495 4.99 0.495 6 1 C5.01 1.495 5.01 1.495 4 2 C4 1.34 4 0.68 4 0 Z " fill="#F1F2EB" transform="translate(193,56)"/>
<path d="M0 0 C1.98 0 3.96 0 6 0 C5.67 0.99 5.34 1.98 5 3 C2.4375 4.1875 2.4375 4.1875 0 5 C0 3.35 0 1.7 0 0 Z " fill="#F8E2D8" transform="translate(158,75)"/>
<path d="M0 0 C2.64 0.33 5.28 0.66 8 1 C8 1.66 8 2.32 8 3 C2.25 3.125 2.25 3.125 0 2 C0 1.34 0 0.68 0 0 Z " fill="#F0B4A8" transform="translate(160,101)"/>
<path d="M0 0 C0.33 0.99 0.66 1.98 1 3 C1.66 3 2.32 3 3 3 C3 2.01 3 1.02 3 0 C3.66 0 4.32 0 5 0 C4.39816251 2.02045442 3.72693904 4.02111039 3 6 C2.01 6.495 2.01 6.495 1 7 C0.67 4.69 0.34 2.38 0 0 Z " fill="#F3F1EC" transform="translate(160,49)"/>
<path d="M0 0 C1.74627478 2.61941217 2.38722388 4.03824877 3 7 C1.35 7 -0.3 7 -2 7 C-1.34 4.69 -0.68 2.38 0 0 Z " fill="#B42F2F" transform="translate(177,27)"/>
<path d="M0 0 C1.98 0.495 1.98 0.495 4 1 C2.625 3 2.625 3 1 5 C0.34 5 -0.32 5 -1 5 C-0.67 3.35 -0.34 1.7 0 0 Z " fill="#C72B0A" transform="translate(191,80)"/>
</svg>
