<?xml version="1.0" encoding="UTF-8"?>
<svg version="1.1" xmlns="http://www.w3.org/2000/svg" width="512" height="512">
<path d="M0 0 C12.44123079 9.57335172 21.1145799 21.8914873 23.5625 37.6875 C24.50848535 52.43556675 22.83085251 65.0117485 14.05078125 77.3828125 C12.08688613 80.31581294 12.08688613 80.31581294 11.5625 83.6875 C12.70404055 86.22720649 13.89945848 88.57682413 15.25 91 C25.89912024 111.10626114 27.83882144 135.84966248 21.5625 157.6875 C18.9644608 166.0576263 16.14558297 173.96128986 10.46875 180.79296875 C9.29011659 182.72434235 9.29011659 182.72434235 10.2265625 185.0859375 C11.60888794 187.77783441 13.00922577 190.45716134 14.4375 193.125 C24.37292968 212.77723132 25.81756528 237.520578 19.32958984 258.546875 C17.45883205 263.76737289 14.92180354 268.66758624 12.26953125 273.52734375 C10.50131334 276.58331452 10.50131334 276.58331452 9.5625 279.6875 C10.84165149 282.17012318 10.84165149 282.17012318 12.6875 284.875 C24.08047442 303.79506929 25.93269168 327.43439361 21 348.6875 C16.93669821 364.48082059 8.08474807 380.18725392 -5.4375 389.6875 C-15.88095898 395.6875 -15.88095898 395.6875 -20.4375 395.6875 C-20.57285156 396.25855469 -20.70820313 396.82960938 -20.84765625 397.41796875 C-25.193919 413.78802425 -35.27051837 427.41494205 -49.4375 436.6875 C-67.63212687 445.83134701 -86.53228787 446.92730119 -105.78125 440.5859375 C-115.10555073 436.86102355 -123.38962224 431.63593138 -131.4375 425.6875 C-131.98535156 426.01363281 -132.53320312 426.33976562 -133.09765625 426.67578125 C-147.81565579 434.78862978 -164.1674921 434.69785641 -180.4375 432.6875 C-180.29747559 433.29634033 -180.15745117 433.90518066 -180.01318359 434.5324707 C-178.06763283 444.28516747 -178.06525592 453.98442748 -178.06689453 463.8972168 C-178.06249363 466.87931302 -178.02599194 469.85995848 -177.98828125 472.84179688 C-177.98241622 474.76301585 -177.97844473 476.68424174 -177.9765625 478.60546875 C-177.96219147 479.48381882 -177.94782043 480.36216888 -177.93301392 481.26713562 C-177.98165936 487.91973815 -179.31255333 494.25535813 -183.9203186 499.31608582 C-190.10281466 504.6834737 -196.63602857 504.20695679 -204.4375 503.6875 C-209.66887029 502.00598812 -212.29099615 499.14504712 -215.4375 494.6875 C-217.12403735 490.33833409 -217.90335747 486.09623327 -218.625 481.5 C-221.03444538 468.31051753 -229.29734031 459.94435465 -239.125 451.5 C-255.86240608 436.90841521 -267.47750751 421.31910926 -270.4375 398.6875 C-270.50055204 396.89682194 -270.52421114 395.10412421 -270.5 393.3125 C-270.49097656 392.43851562 -270.48195313 391.56453125 -270.47265625 390.6640625 C-270.46105469 390.01179688 -270.44945312 389.35953125 -270.4375 388.6875 C-271.10652344 388.84347656 -271.77554688 388.99945313 -272.46484375 389.16015625 C-291.85420756 393.090081 -311.72910204 389.17707719 -328.4375 378.6875 C-337.67744845 371.90629846 -344.40220368 363.44185431 -348.4375 352.6875 C-349.08074219 353.26757812 -349.72398437 353.84765625 -350.38671875 354.4453125 C-364.08242689 366.28496889 -378.39409898 370.95053807 -396.4375 369.6875 C-412.43755789 367.31933223 -424.85584461 359.0757489 -434.75 346.5 C-443.55290915 333.66984901 -446.17632405 318.8083558 -443.4375 303.625 C-441.52301043 295.8322185 -438.07286703 288.79887551 -434.4375 281.6875 C-435.2728125 280.99140625 -435.2728125 280.99140625 -436.125 280.28125 C-446.44103407 270.94105699 -452.86283309 257.89054836 -453.64453125 244.01171875 C-454.09917197 230.70430512 -451.7413645 218.15578149 -443.6171875 207.2421875 C-442.08911144 204.71029967 -442.08911144 204.71029967 -443.3515625 202.06640625 C-444.19847656 200.67228516 -444.19847656 200.67228516 -445.0625 199.25 C-452.84694024 185.01359127 -452.70088121 170.93934491 -448.4375 155.6875 C-447.74876908 154.18907824 -447.02362919 152.70640514 -446.25 151.25 C-443.69025931 146.09202629 -444.33193092 140.97448598 -444.47265625 135.33984375 C-444.40265293 128.06727673 -442.4597961 122.88819573 -438.125 117.125 C-436.32274702 114.62137764 -435.43085485 113.37416601 -435.4609375 110.265625 C-435.97440664 107.98850097 -436.63743742 105.87824729 -437.4375 103.6875 C-441.19565889 90.64955301 -439.00559578 74.87634972 -433.08203125 62.9609375 C-425.42222352 49.36631895 -414.32362694 40.45774267 -399.4375 35.6875 C-385.78425444 32.33260714 -370.10722179 32.86288113 -357.78515625 40.28515625 C-356.56119141 41.10306641 -356.56119141 41.10306641 -355.3125 41.9375 C-350.81087992 44.82573944 -347.86636922 45.01615406 -342.6171875 44.71875 C-326.79299482 44.56322968 -309.19623247 50.45569693 -297.62890625 61.3984375 C-297.03916016 62.03652344 -297.03916016 62.03652344 -296.4375 62.6875 C-295.633125 62.419375 -294.82875 62.15125 -294 61.875 C-292.824375 61.483125 -291.64875 61.09125 -290.4375 60.6875 C-289.71433594 60.43484375 -288.99117187 60.1821875 -288.24609375 59.921875 C-287.48425781 59.65890625 -286.72242188 59.3959375 -285.9375 59.125 C-285.2259375 58.87621094 -284.514375 58.62742187 -283.78125 58.37109375 C-270.03557676 54.36193905 -255.38004469 56.43084788 -242.75 62.8125 C-235.71288575 66.8178478 -230.12799284 71.99700716 -224.4375 77.6875 C-224.08300781 77.275 -223.72851562 76.8625 -223.36328125 76.4375 C-210.75593475 62.7617343 -192.92731313 56.62451689 -174.73095703 55.72607422 C-164.65072492 55.55653231 -155.08732201 57.32979542 -145.66015625 60.8828125 C-143.51804775 61.80097196 -143.51804775 61.80097196 -141.4375 61.6875 C-141.05271484 60.88699219 -141.05271484 60.88699219 -140.66015625 60.0703125 C-133.08280088 45.32380945 -121.72376137 37.24010724 -106.4375 31.6875 C-103.51393776 30.82622516 -100.93508 30.56927311 -97.890625 30.58984375 C-96.62412109 30.59467773 -96.62412109 30.59467773 -95.33203125 30.59960938 C-94.02298828 30.61217773 -94.02298828 30.61217773 -92.6875 30.625 C-91.35525391 30.63176758 -91.35525391 30.63176758 -89.99609375 30.63867188 C-87.80982671 30.650426 -85.62369821 30.66685751 -83.4375 30.6875 C-83.31375 29.95789062 -83.19 29.22828125 -83.0625 28.4765625 C-80.3914829 16.55714871 -71.71221417 6.3178215 -61.6875 -0.25 C-42.90687859 -11.75795483 -18.61652357 -12.29818829 0 0 Z " fill="#010000" transform="translate(470.4375,8.3125)"/>
<path d="M0 0 C8.85590832 6.46082126 15.26637818 15.6098851 17.46484375 26.45703125 C18.47742083 36.40020615 16.58975994 46.66898738 10.58984375 54.83203125 C9.03595469 56.72769642 7.42496499 58.49779818 5.7109375 60.25 C2.22330484 63.90688545 2.22330484 63.90688545 1.15234375 68.76953125 C2.68565857 73.07741576 4.92090343 76.13163257 7.62109375 79.7890625 C17.48630819 94.0643622 20.14519465 112.39792619 17.96875 129.3125 C15.46715591 142.95113446 11.0492682 153.57963692 2.46484375 164.45703125 C0.10692749 167.99390563 -0.04017068 169.28938694 0.46484375 173.45703125 C2.2398899 176.53024794 2.2398899 176.53024794 4.65234375 179.51953125 C15.42220787 194.11211697 18.34873034 211.44562472 15.96484375 229.17578125 C13.63011614 241.16779125 9.37591715 250.87841374 1.94140625 260.5703125 C-0.00214082 264.36999844 0.35576087 266.38571436 1.46484375 270.45703125 C2.82711579 272.66385031 2.82711579 272.66385031 4.65234375 274.51953125 C16.45603334 288.72767613 17.77821723 306.80857506 16.46484375 324.45703125 C14.38212723 339.37982863 6.64243006 352.59290385 -4.69140625 362.3046875 C-9.02943158 365.50319531 -12.60405457 366.76840677 -17.91015625 367.70703125 C-20.96292445 368.27519368 -20.96292445 368.27519368 -23.53515625 369.45703125 C-25.50165597 372.56299809 -25.85554809 375.88423404 -26.53515625 379.45703125 C-31.40638638 393.99340052 -39.43454633 404.86713781 -53.2734375 411.8359375 C-66.07707466 416.91843247 -81.03461156 415.79323214 -93.53515625 410.45703125 C-101.28253392 406.86111671 -108.51645659 402.70207764 -113.53515625 395.64453125 C-115.45581288 393.24178605 -115.45581288 393.24178605 -118.59765625 392.14453125 C-123.91527033 392.56656411 -126.48378299 395.00905009 -130.49609375 398.37890625 C-137.615032 403.24686917 -144.89165295 403.98717963 -153.34765625 403.89453125 C-154.31670898 403.88695801 -155.28576172 403.87938477 -156.28417969 403.87158203 C-168.23827336 403.59689051 -179.3744322 400.0158841 -188.34765625 391.796875 C-194.50133798 385.0432093 -196.89481738 378.2949926 -197.9453125 369.2890625 C-198.60727604 366.11076072 -199.60784674 364.06075226 -201.53515625 361.45703125 C-204.75895791 360.42815838 -206.64058896 360.14272382 -209.84765625 361.26953125 C-211.68613447 362.3639045 -211.68613447 362.3639045 -212.53515625 364.45703125 C-213.66384541 375.35322279 -210.91447665 386.5417341 -204.53515625 395.45703125 C-202.3281561 398.02710537 -200.04597947 400.51291428 -197.74609375 403 C-187.21983168 414.69791315 -184.3904015 428.63878068 -184.3671875 444.0078125 C-184.3638591 444.78843552 -184.3605307 445.56905853 -184.35710144 446.37333679 C-184.35207718 448.0077557 -184.34969171 449.64218471 -184.34985352 451.27661133 C-184.34764678 453.78027861 -184.32938926 456.28351863 -184.31054688 458.78710938 C-184.30761605 460.38150892 -184.30562918 461.97591054 -184.3046875 463.5703125 C-184.29750198 464.31718826 -184.29031647 465.06406403 -184.28291321 465.83357239 C-184.29955522 469.591317 -184.39657746 471.24916306 -186.53515625 474.45703125 C-187.85515625 474.12703125 -189.17515625 473.79703125 -190.53515625 473.45703125 C-190.80328125 472.38453125 -191.07140625 471.31203125 -191.34765625 470.20703125 C-191.62996094 469.10875 -191.62996094 469.10875 -191.91796875 467.98828125 C-192.34754115 466.22649064 -192.73516644 464.45416326 -193.08984375 462.67578125 C-197.18358614 443.47057003 -211.34943272 431.36258191 -225.73217773 419.06054688 C-236.79626773 409.22047333 -243.24466177 395.16866831 -244.53515625 380.45703125 C-245.46397333 362.22899609 -240.34026364 344.24982016 -228.28515625 330.33203125 C-218.47074454 319.88599898 -206.23492615 311.76566107 -191.49609375 311.12109375 C-172.99166805 310.82090608 -157.5930316 314.20183795 -143.6015625 327.2421875 C-139.27081871 331.88402442 -135.94667013 337.25154081 -132.53515625 342.58203125 C-130.58143876 344.74800115 -130.58143876 344.74800115 -127.28515625 345.08203125 C-123.7458674 344.49214978 -122.69369444 344.07656514 -119.91015625 342.14453125 C-108.50084697 334.39148711 -93.63262402 335.6390372 -80.73828125 338.01953125 C-80.01125 338.16390625 -79.28421875 338.30828125 -78.53515625 338.45703125 C-77.84466145 340.52851566 -77.15435346 342.60006248 -76.46484375 344.671875 C-75.80646054 346.64425831 -75.14466031 348.61550254 -74.48046875 350.5859375 C-73.95066406 352.16181641 -73.95066406 352.16181641 -73.41015625 353.76953125 C-73.07757813 354.75566406 -72.745 355.74179687 -72.40234375 356.7578125 C-71.68783368 358.98180555 -71.06442264 361.18334604 -70.53515625 363.45703125 C-64.53446089 364.77993384 -64.53446089 364.77993384 -58.97265625 362.89453125 C-57.14777555 359.80016833 -57.30424843 358.02085377 -57.53515625 354.45703125 C-58.31006132 351.66912516 -58.31006132 351.66912516 -59.41015625 348.89453125 C-67.20850713 326.38439786 -64.59983352 300.83867283 -54.53515625 279.45703125 C-53.29892696 277.5654515 -52.01160741 275.70558524 -50.66015625 273.89453125 C-48.5578195 271.0631963 -47.54097062 269.47835059 -46.59765625 266.01953125 C-47.84747217 261.27023075 -50.45928096 258.25949143 -53.43359375 254.40234375 C-62.53509018 241.64671492 -65.49101666 223.76666131 -63.2421875 208.46337891 C-61.28615529 197.59740963 -57.40535987 186.4309141 -50.36328125 177.79296875 C-48.26098833 175.10670558 -47.72534143 173.10041089 -47.87890625 169.68359375 C-49.02848854 165.78322526 -51.86037787 163.1317107 -54.4921875 160.11328125 C-60.78633633 151.92968429 -62.01084676 141.46187691 -61.53515625 131.45703125 C-61.52613281 130.7609375 -61.51710938 130.06484375 -61.5078125 129.34765625 C-61.07835279 125.58046582 -60.01723786 123.88379202 -57.15234375 121.34765625 C-55.08376875 119.82458014 -52.99495461 118.32875089 -50.890625 116.85546875 C-33.66055595 104.77799186 -18.04621249 85.38226692 -13.53515625 64.45703125 C-12.10087984 57.63563209 -12.10087984 57.63563209 -13.77734375 51.1640625 C-15.38152204 49.3317511 -15.38152204 49.3317511 -17.47265625 48.92578125 C-18.15328125 48.93609375 -18.83390625 48.94640625 -19.53515625 48.95703125 C-20.21578125 48.94671875 -20.89640625 48.93640625 -21.59765625 48.92578125 C-23.67698865 49.32478261 -23.67698865 49.32478261 -25.20703125 51.12109375 C-26.77478459 53.87849521 -27.2400874 56.20956542 -27.78515625 59.33203125 C-32.49236288 81.06322868 -49.89438438 99.52804428 -68.12890625 111.43359375 C-79.0771541 117.93725474 -90.25558567 123.01715154 -102.53515625 126.45703125 C-103.18653564 126.64467041 -103.83791504 126.83230957 -104.5090332 127.02563477 C-111.26820026 128.77434804 -117.90081479 128.71872461 -124.84765625 128.64453125 C-126.01361328 128.64388672 -127.17957031 128.64324219 -128.38085938 128.64257812 C-137.57708383 128.59492929 -137.57708383 128.59492929 -141.53515625 127.45703125 C-145.50669075 126.86727331 -149.02919314 126.5747208 -152.58203125 128.65625 C-153.90535606 129.7069699 -155.21372261 130.77675825 -156.5078125 131.86328125 C-167.27063136 140.32422556 -182.5019229 140.61118076 -195.53515625 139.45703125 C-205.43605207 137.45178653 -213.18543939 132.0946325 -218.8203125 123.77734375 C-221.69343251 121.56523768 -224.04366734 122.01872202 -227.53515625 122.45703125 C-230.29561045 124.20405829 -230.29561045 124.20405829 -232.72265625 126.64453125 C-242.13267178 134.73944284 -251.16409665 137.57927562 -263.4140625 136.9296875 C-275.91967888 135.78130063 -284.20043685 128.40321858 -292.28515625 119.39453125 C-294.4015218 117.1992999 -294.4015218 117.1992999 -297.359375 117.1640625 C-300.88569096 117.4893684 -302.61708032 118.34589883 -305.59765625 120.20703125 C-319.17910194 127.87954809 -333.89449348 129.66602696 -349.19921875 126.76171875 C-355.87750725 124.70818818 -361.7625036 121.34822674 -367.53515625 117.45703125 C-368.42203125 116.87953125 -369.30890625 116.30203125 -370.22265625 115.70703125 C-373.2632524 112.74861337 -375.45243509 109.36849569 -377.84765625 105.87890625 C-379.94731362 102.8655091 -381.54968097 100.62150083 -384.53515625 98.45703125 C-388.2109907 98.27941384 -388.2109907 98.27941384 -391.53515625 99.45703125 C-393.96944112 103.10845856 -394.1639391 104.13414914 -393.53515625 108.45703125 C-386.62398462 123.39735815 -374.85235933 132.03899293 -360.04296875 138.31640625 C-354.53155437 140.82315547 -351.53118435 142.75622239 -349.265625 148.40625 C-346.80981779 158.66285657 -347.09704315 171.25077679 -352.53515625 180.45703125 C-354.82305133 183.34348064 -357.16884586 186.08471774 -359.70703125 188.75390625 C-362.08840712 192.27508596 -362.0988809 194.28077112 -361.53515625 198.45703125 C-360.20887466 201.03478011 -360.20887466 201.03478011 -358.28515625 203.26953125 C-351.12709446 212.93944839 -349.27089747 221.38910657 -350.53515625 233.45703125 C-352.14679698 240.42931655 -355.09095486 245.90177951 -359.53515625 251.45703125 C-360.911875 251.1321875 -360.911875 251.1321875 -362.31640625 250.80078125 C-371.84708686 248.42423296 -371.84708686 248.42423296 -381.53515625 248.45703125 C-384.72519508 250.39624886 -384.72519508 250.39624886 -386.53515625 253.45703125 C-386.78845409 256.60413427 -386.78845409 256.60413427 -385.53515625 259.45703125 C-382.17710673 262.83162289 -378.36593891 263.18896014 -373.84765625 263.83203125 C-367.24986081 264.92248989 -362.04715171 266.51310346 -356.53515625 270.45703125 C-355.50390625 271.15828125 -354.47265625 271.85953125 -353.41015625 272.58203125 C-347.41497112 277.85712431 -342.18422801 286.46992898 -341.31835938 294.45678711 C-340.63428829 306.92846841 -341.87004897 316.65466732 -349.90625 326.64453125 C-356.5788315 334.06917829 -364.35164339 339.02418535 -374.44140625 339.73046875 C-386.58944128 340.11237401 -395.81939023 338.66781956 -405.47265625 330.64453125 C-409.28635627 326.96186251 -412.20452499 323.2188308 -414.53515625 318.45703125 C-414.85355469 317.81636719 -415.17195313 317.17570312 -415.5 316.515625 C-419.20374798 307.52080848 -418.99991526 296.18582855 -415.59765625 287.14453125 C-413.03013588 281.69040561 -409.43314363 277.40692317 -405.328125 273.02734375 C-403.10529178 269.84079853 -402.86988144 268.26585649 -403.53515625 264.45703125 C-405.90507069 261.47587191 -408.83743569 259.42801523 -411.91015625 257.20703125 C-420.41634269 250.62835503 -425.36808289 242.0061808 -427.53515625 231.45703125 C-428.573393 221.10870428 -426.38086997 211.73883288 -419.97265625 203.45703125 C-418.2828406 201.46989837 -416.58077478 199.50691028 -414.8203125 197.58203125 C-413.05344265 194.66052001 -413.10399497 192.82008927 -413.53515625 189.45703125 C-414.88258375 186.96821126 -414.88258375 186.96821126 -416.78515625 184.70703125 C-424.10332618 174.70206872 -425.75211074 165.65091527 -424.53515625 153.45703125 C-423.24713781 148.02895355 -421.16540432 143.36113094 -418.22265625 138.64453125 C-416.15759701 134.74386379 -416.57811014 133.68398491 -417.53515625 129.45703125 C-417.97107826 123.9124092 -418.31791797 119.11287334 -415.91015625 114.01953125 C-413.28326455 111.18525336 -410.55099659 108.86970352 -407.53515625 106.45703125 C-406.01849405 103.42370684 -405.99353543 100.73587556 -406.53515625 97.45703125 C-407.67073759 94.59143067 -408.9591743 91.85884151 -410.34375 89.10546875 C-413.98016029 81.02190752 -413.69691362 70.93542349 -410.91015625 62.64453125 C-406.61413665 52.2950295 -399.08568558 44.35206607 -388.97265625 39.51953125 C-381.16564263 36.48623297 -371.61907929 35.99143472 -363.53515625 38.45703125 C-363.53515625 39.11703125 -363.53515625 39.77703125 -363.53515625 40.45703125 C-364.89441644 41.52607902 -366.29934282 42.53737532 -367.72265625 43.51953125 C-373.45294569 47.85792073 -376.88369055 52.62062211 -378.09765625 59.76953125 C-377.68326262 62.5440852 -377.68326262 62.5440852 -375.97265625 64.89453125 C-373.54872343 66.71097233 -373.54872343 66.71097233 -370.22265625 66.76953125 C-365.48811323 65.08435492 -364.00286597 62.6690181 -361.140625 58.67578125 C-357.02725893 52.99112936 -351.26328056 50.02639039 -344.53515625 48.45703125 C-328.47750486 46.7914377 -313.2214162 49.1594647 -300.2109375 59.26171875 C-297.40984937 61.67448598 -294.84081512 64.10642254 -292.41015625 66.89453125 C-289.71576563 69.13985677 -287.98033146 68.75280808 -284.53515625 68.45703125 C-281.67252342 67.26216167 -281.67252342 67.26216167 -278.97265625 65.58203125 C-272.59461115 61.83662604 -267.8818024 60.06543681 -260.41015625 60.08203125 C-259.65822998 60.08364258 -258.90630371 60.08525391 -258.1315918 60.08691406 C-246.53560453 60.34021542 -237.34700194 65.09572377 -229.2734375 73.3125 C-226.56665834 76.65187474 -224.70502314 80.36201126 -222.796875 84.19921875 C-221.73891909 86.58957652 -221.73891909 86.58957652 -219.53515625 87.45703125 C-216.16998892 88.03606745 -216.16998892 88.03606745 -212.53515625 87.45703125 C-210.44768196 85.47958489 -208.99407683 83.81251162 -207.34765625 81.51953125 C-198.22529186 69.88907154 -187.06402843 62.69655385 -172.53515625 59.45703125 C-157.65381815 58.53263041 -144.91991148 60.15165451 -132.03515625 68.28515625 C-128.97191614 69.72105005 -126.88335243 69.8027689 -123.53515625 69.45703125 C-119.92707145 67.05164139 -119.86827915 66.01640739 -118.72265625 61.95703125 C-115.10998683 50.61650884 -109.79213077 42.73552673 -99.0625 37.17578125 C-93.37884108 34.58809914 -88.84585615 33.31888396 -82.53515625 33.33203125 C-80.67890625 33.32816406 -80.67890625 33.32816406 -78.78515625 33.32421875 C-75.53515625 33.45703125 -75.53515625 33.45703125 -72.53515625 34.45703125 C-70.35081915 34.68958151 -70.35081915 34.68958151 -68.03515625 34.70703125 C-67.26171875 34.7328125 -66.48828125 34.75859375 -65.69140625 34.78515625 C-63.49529295 34.61164492 -63.49529295 34.61164492 -61.83984375 33.2890625 C-60.13089405 30.88936965 -59.73921403 28.7785398 -59.16015625 25.89453125 C-56.80559025 15.88460709 -52.8388913 7.80374854 -44.53515625 1.45703125 C-30.30780374 -6.92596593 -14.72274883 -8.96068689 0 0 Z " fill="#F27B7B" transform="translate(460.53515625,21.54296875)"/>
<path d="M0 0 C0.02578125 0.87140625 0.0515625 1.7428125 0.078125 2.640625 C0.64589372 14.56376809 3.12676631 23.96624646 9.92578125 33.84375 C11 36 11 36 10.875 37.85546875 C9.8929938 40.26226073 8.78680249 42.5939092 7.62524414 44.91894531 C-2.67603488 65.7199659 -4.76828521 89.42355949 2.34765625 111.7421875 C4.1915025 116.83981165 6.69816337 121.61191412 9.58398438 126.19628906 C12.14331385 130.39677048 12.14331385 130.39677048 11.40234375 133.515625 C10.93957031 134.33546875 10.47679687 135.1553125 10 136 C2.19637126 153.25716756 -0.79090804 169.143572 -2 188 C-2.8156543 187.98428955 -3.63130859 187.9685791 -4.47167969 187.95239258 C-7.55808062 187.90063225 -10.64425715 187.86334786 -13.73095703 187.83520508 C-15.69969568 187.8130657 -17.66823362 187.77490648 -19.63671875 187.73632812 C-27.93570282 187.67313789 -35.05347126 188.69568734 -43 191 C-45.6574707 191.76245117 -45.6574707 191.76245117 -48 192 C-50.22155853 189.92817513 -52.02939527 187.95761696 -53.9375 185.625 C-65.55264337 172.33126171 -81.79879752 163.16399993 -99.68139648 161.79467773 C-121.01340202 161.06920029 -139.37383303 164.89294923 -156 179 C-157.20462891 179.90878906 -157.20462891 179.90878906 -158.43359375 180.8359375 C-169.80344612 190.4233016 -176.3951999 205.42562857 -180.17578125 219.453125 C-181 222 -181 222 -183 224 C-188.84514166 225.82378731 -194.21158566 226.35572073 -200.3125 226.3125 C-201.14918213 226.30686035 -201.98586426 226.3012207 -202.84790039 226.29541016 C-209.28826299 226.16933658 -214.98914968 225.43757985 -221 223 C-221.99386719 222.5978125 -222.98773438 222.195625 -224.01171875 221.78125 C-234.19254578 217.18263302 -241.20548269 210.76269758 -246.02734375 200.65234375 C-249.41685169 191.40946867 -249.3664394 182.45961335 -249.45629883 172.71044922 C-249.65483419 154.59791525 -253.4613859 141.27409348 -266.14453125 127.99609375 C-268 126 -268 126 -269 124 C-267.97637573 121.84135706 -266.89903701 119.77775454 -265.75 117.6875 C-258.67553876 104.14956168 -257.33945822 90.9392072 -261 76.15625 C-262.25069651 72.20873914 -263.96026989 68.70961639 -266.01171875 65.12109375 C-267 63 -267 63 -267 59 C-265.828125 56.87890625 -265.828125 56.87890625 -264.25 54.5625 C-255.52379718 40.33589446 -255.75108763 25.03492805 -258 9 C-254.37 9 -250.74 9 -247 9 C-246.77957031 10.32451172 -246.77957031 10.32451172 -246.5546875 11.67578125 C-244.14097245 24.59054398 -239.59280509 35.07014089 -228.5546875 42.6875 C-226.95907253 43.72790099 -225.34929702 44.74708946 -223.72265625 45.73828125 C-223.15417969 46.15464844 -222.58570313 46.57101563 -222 47 C-222 47.66 -222 48.32 -222 49 C-223.87109375 50.2265625 -223.87109375 50.2265625 -226.4375 51.625 C-238.35333113 58.60956203 -246.96407417 68.45890771 -251.3359375 81.7265625 C-253.830572 94.02364317 -252.79256585 105.80981597 -247 117 C-246.46890625 118.03769531 -245.9378125 119.07539063 -245.390625 120.14453125 C-237.79164464 134.00047022 -227.12809005 143.85406701 -212 149 C-207.6915895 150.13199461 -203.36432741 151.10959626 -199 152 C-199.268125 153.216875 -199.53625 154.43375 -199.8125 155.6875 C-199.99167969 156.51507813 -200.17085938 157.34265625 -200.35546875 158.1953125 C-200.79696123 160.11647373 -201.28104188 162.02820201 -201.80078125 163.9296875 C-203.45193304 170.20562937 -204.28743064 176.09681776 -204.3125 182.5625 C-204.31781738 183.24127197 -204.32313477 183.92004395 -204.32861328 184.61938477 C-204.27730724 188.20855713 -204.07169059 191.00593126 -202 194 C-199.15916359 195.42041821 -197.14522722 195.31452272 -194 195 C-191.67968932 193.52038337 -191.67968932 193.52038337 -190 191 C-189.67094256 188.33493116 -189.54379671 185.97349538 -189.5625 183.3125 C-189.40322691 176.83093107 -188.50835945 171.01985009 -186.625 164.8125 C-186.41560791 164.11874268 -186.20621582 163.42498535 -185.99047852 162.71020508 C-185.37795961 160.78979331 -184.6904632 158.89378492 -184 157 C-183.49146484 155.33324219 -183.49146484 155.33324219 -182.97265625 153.6328125 C-180.71292734 150.61685748 -180.13075115 150.49312941 -176.58203125 149.78515625 C-174.66195908 149.52065912 -172.7382666 149.28172337 -170.8125 149.0625 C-159.86861285 147.54803862 -149.19503255 145.39928365 -138.44033813 142.9133606 C-113.77689034 137.21949004 -85.89166071 132.52602213 -63.125 146.3125 C-58.63664229 149.38348159 -54.46887189 152.80836055 -50.38671875 156.3984375 C-47.54260982 158.30692304 -45.3932563 158.73504711 -42 159 C-39.25045672 158.03394425 -38.30992243 157.61984486 -37 155 C-36.49904977 152.12693772 -36.49904977 152.12693772 -37 149 C-38.62148353 146.94612086 -39.99506117 145.62647846 -42 144 C-42.72832031 143.37996094 -43.45664062 142.75992188 -44.20703125 142.12109375 C-63.27385096 126.29713471 -84.59738895 121.01897622 -109 123 C-126.99764734 125.06029238 -144.83251587 128.76628317 -162.42260742 133.01660156 C-170.59629724 134.97612452 -178.61353525 136.3533081 -187 137 C-187.81597656 137.07089844 -188.63195312 137.14179688 -189.47265625 137.21484375 C-202.67751588 137.81397531 -214.43696753 133.26804489 -224.125 124.5 C-231.64731281 116.56487734 -238.18609771 105.27606456 -238.375 94.1875 C-238.10163333 84.67721749 -233.9579519 78.06919453 -227.48828125 71.32421875 C-216.68182442 61.23027556 -205.3253292 56.9355275 -190.75585938 56.5703125 C-186.65999667 56.39909105 -186.65999667 56.39909105 -183.0234375 54.6796875 C-181.29107758 51.83650138 -181.71190259 49.22669095 -182 46 C-183.60790656 42.93810287 -183.60790656 42.93810287 -185.78076172 42.37158203 C-186.48990723 42.25153809 -187.19905273 42.13149414 -187.9296875 42.0078125 C-188.71939941 41.86303467 -189.50911133 41.71825684 -190.32275391 41.5690918 C-191.16499512 41.4225415 -192.00723633 41.27599121 -192.875 41.125 C-206.63578132 38.45725145 -219.18669937 34.3096566 -227.5 22.3125 C-230.43733037 17.71884167 -231.13384636 14.17232317 -231.0625 8.75 C-231.05347656 7.85796875 -231.04445312 6.9659375 -231.03515625 6.046875 C-231.02355469 5.37140625 -231.01195312 4.6959375 -231 4 C-225.73310681 0.9378528 -225.73310681 0.9378528 -222.51171875 1.2109375 C-219.68425296 2.09919269 -218.54691762 3.08010526 -216.5 5.1875 C-205.94038335 14.88877352 -192.61595438 17.49067765 -178.76953125 17.2421875 C-168.88208108 16.60693163 -161.16662931 13.37391752 -152.71484375 8.42578125 C-150 7 -150 7 -147 7 C-145.34375 8.13671875 -145.34375 8.13671875 -143.5 9.6875 C-133.93515431 17.12487082 -122.92375568 20.39785986 -110.9375 20.3125 C-110.11113037 20.30758545 -109.28476074 20.3026709 -108.43334961 20.29760742 C-95.49144381 20.05454938 -81.1512785 17.71323273 -70.6875 9.5625 C-68 8 -68 8 -64.125 8.75 C-63.09375 9.1625 -62.0625 9.575 -61 10 C-61 10.99 -61 11.98 -61 13 C-62.17755859 13.51046875 -62.17755859 13.51046875 -63.37890625 14.03125 C-73.39096226 18.65030897 -79.04598251 23.70246207 -83.2734375 33.921875 C-84.88359842 38.5272815 -85.84842153 43.12157619 -85 48 C-83.06078239 51.19003883 -83.06078239 51.19003883 -80 53 C-76.85289698 53.25329784 -76.85289698 53.25329784 -74 52 C-71.38475775 49.15843871 -70.61401928 46.9744176 -70.125 43.1875 C-69.00003623 36.88398401 -66.47219642 32.97775713 -61.5 29 C-58.41401957 27.76560783 -57.13921747 27.98719436 -54 29 C-52.2265625 30.85546875 -52.2265625 30.85546875 -50.625 33.1875 C-43.70019882 42.55896541 -33.82535205 49.37711677 -22.2109375 51.75390625 C-13.31044694 53.0889697 -13.31044694 53.0889697 -5.13671875 50.69921875 C-3.2245596 47.84083652 -3.6444789 45.31819697 -4 42 C-5.73077838 39.48088763 -6.80019776 39.04178689 -9.8203125 38.41015625 C-10.91085937 38.29542969 -12.00140625 38.18070313 -13.125 38.0625 C-23.00876295 36.70375653 -30.84101854 33.07839255 -38 26 C-41.88010647 20.86719669 -44.1801298 16.41921101 -45 10 C-43.75347656 9.84144531 -42.50695312 9.68289062 -41.22265625 9.51953125 C-28.87580813 7.86019874 -16.78483161 5.63467787 -5.21484375 0.84765625 C-3 0 -3 0 0 0 Z " fill="#E74343" transform="translate(384,156)"/>
<path d="M0 0 C9.79987041 4.44563658 19.47733389 12.05013456 24 22 C26.60921161 29.02480049 27.43691661 35.54005342 27 43 C27.66 42.67 28.32 42.34 29 42 C66.48600913 38.98760915 102.2089525 49.9208894 131 74 C140.83242597 83.07289869 140.83242597 83.07289869 141.25 87.875 C140.96621485 91.42231438 140.67676107 92.66862746 138 95 C134.8125 96.1875 134.8125 96.1875 131 96 C128.89991927 94.66402187 127.25971607 93.08144002 125.46484375 91.35546875 C105.41647596 72.19672742 78.28229674 58.89410876 50.09765625 58.8671875 C48.14375977 58.86525391 48.14375977 58.86525391 46.15039062 58.86328125 C45.47854736 58.86537598 44.8067041 58.8674707 44.11450195 58.86962891 C42.0717015 58.87497592 40.02912176 58.86967036 37.98632812 58.86328125 C36.03049805 58.86521484 36.03049805 58.86521484 34.03515625 58.8671875 C32.26217163 58.86887939 32.26217163 58.86887939 30.45336914 58.87060547 C23.91200031 58.81125342 23.91200031 58.81125342 18.35546875 61.53125 C17.97003906 62.1809375 17.58460938 62.830625 17.1875 63.5 C7.35747466 77.92253062 -7.83990067 84.36798013 -24.4375 87.6875 C-32.07184882 88.35717972 -39.79917829 88.97425245 -47 86 C-48.97944936 83.03082597 -49.29350581 82.34297721 -49.3125 79 C-49.32925781 78.319375 -49.34601563 77.63875 -49.36328125 76.9375 C-48.88579275 74.39089465 -47.99476126 73.62014498 -46 72 C-44.10571289 71.61523438 -44.10571289 71.61523438 -41.97265625 71.59375 C-41.18632812 71.57417236 -40.4 71.55459473 -39.58984375 71.53442383 C-38.75582031 71.52306396 -37.92179688 71.5117041 -37.0625 71.5 C-22.39544277 70.98505155 -8.7236654 67.7236654 2 57 C7.37044608 50.03783134 10.70950922 43.60193858 10.4140625 34.64453125 C9.52008395 28.93487582 6.95504159 24.30480943 2.35791016 20.71923828 C-0.69390304 18.59796467 -3.83878118 16.67961014 -7.05078125 14.8125 C-10 13 -10 13 -11 11 C-11.35519903 7.16385043 -11.54724594 4.85370366 -9.4375 1.5625 C-5.90046 -0.70483333 -4.16872141 -0.67237442 0 0 Z " fill="#020000" transform="translate(235,176)"/>
</svg>
