<?xml version="1.0" encoding="UTF-8"?>
<svg version="1.1" xmlns="http://www.w3.org/2000/svg" width="155" height="324">
<path d="M0 0 C51.15 0 102.3 0 155 0 C155 106.92 155 213.84 155 324 C103.85 324 52.7 324 0 324 C0 217.08 0 110.16 0 0 Z " fill="#FEFEFD" transform="translate(0,0)"/>
<path d="M0 0 C1.32 0.66 2.64 1.32 4 2 C4.66 1.34 5.32 0.68 6 0 C5.83918945 0.55179932 5.67837891 1.10359863 5.51269531 1.67211914 C4.51858728 6.185843 4.77280422 10.83389872 4.75 15.4375 C4.729375 16.47455078 4.70875 17.51160156 4.6875 18.58007812 C4.53316712 25.82776794 4.53316712 25.82776794 8 32 C9.9254644 33.1490712 9.9254644 33.1490712 12 33 C14.48615558 31.15840327 15.00156904 29.99529289 16 27 C16.14835948 25.22833025 16.24770018 23.45232388 16.31640625 21.67578125 C16.37924805 20.13374023 16.37924805 20.13374023 16.44335938 18.56054688 C16.48267578 17.48869141 16.52199219 16.41683594 16.5625 15.3125 C16.62727539 13.68731445 16.62727539 13.68731445 16.69335938 12.02929688 C16.79946838 9.35299209 16.90152361 6.67659474 17 4 C17.33 4 17.66 4 18 4 C18 12.58 18 21.16 18 30 C20.97 30 23.94 30 27 30 C29.77734375 30.296875 29.77734375 30.296875 31.9375 30.75 C32.66839844 30.88921875 33.39929688 31.0284375 34.15234375 31.171875 C36.63676234 32.28539877 36.97964853 33.52919375 38 36 C38.66 36.99 39.32 37.98 40 39 C39.67 39.99 39.34 40.98 39 42 C38.62488281 41.51789063 38.24976563 41.03578125 37.86328125 40.5390625 C33.83662563 35.43842967 33.83662563 35.43842967 28 33 C21.54116994 32.28831981 21.54116994 32.28831981 15.69140625 34.51953125 C15.13324219 35.00808594 14.57507813 35.49664062 14 36 C14.99 36.33 15.98 36.66 17 37 C17 37.66 17 38.32 17 39 C19.475 38.505 19.475 38.505 22 38 C22 37.34 22 36.68 22 36 C22.99 35.67 23.98 35.34 25 35 C28.70967742 42.09677419 28.70967742 42.09677419 29 45 C28.34 46.32 27.68 47.64 27 49 C26.34 46.03 25.68 43.06 25 40 C24.34 40 23.68 40 23 40 C22.67 40.99 22.34 41.98 22 43 C21.34 43 20.68 43 20 43 C20.28875 43.66386719 20.5775 44.32773438 20.875 45.01171875 C21.24625 45.89472656 21.6175 46.77773437 22 47.6875 C22.37125 48.55761719 22.7425 49.42773438 23.125 50.32421875 C24.03077062 53.09409766 24.29260767 55.10863951 24 58 C21.32191002 60.7772785 18.76159981 61.47755558 15 62 C15.33 62.66 15.66 63.32 16 64 C15.34 64 14.68 64 14 64 C14 67.63 14 71.26 14 75 C18.455 74.01 18.455 74.01 23 73 C22.34 74.32 21.68 75.64 21 77 C21.99 77.33 22.98 77.66 24 78 C22.02 78.99 22.02 78.99 20 80 C19.01 79.01 19.01 79.01 18 78 C15.93125966 77.3574765 15.93125966 77.3574765 14 77 C14.11494557 80.00068447 14.24167205 83.00012109 14.375 86 C14.42140625 87.25876953 14.42140625 87.25876953 14.46875 88.54296875 C14.8077546 95.83156757 15.99806154 102.32919796 19.125 109 C19.65480469 110.1446875 19.65480469 110.1446875 20.1953125 111.3125 C20.46085937 111.869375 20.72640625 112.42625 21 113 C23.475 112.505 23.475 112.505 26 112 C25.505 112.495 25.01 112.99 24.5 113.5 C22.33021905 117.11630158 22.79111581 119.82231616 23 124 C23.66 124 24.32 124 25 124 C25.77321882 126.98241547 26.41196203 129.97580475 27 133 C26.34 133.33 25.68 133.66 25 134 C24.54717524 141.1532161 25.66118777 145.53530742 29 151.8125 C29.75686358 153.27380925 30.507139 154.73855423 31.25 156.20703125 C31.58515625 156.8410083 31.9203125 157.47498535 32.265625 158.12817383 C33 160 33 160 33 164 C33.2700868 165.34256737 33.58351444 166.67707587 33.9375 168 C34.11152344 168.66 34.28554687 169.32 34.46484375 170 C34.64144531 170.66 34.81804687 171.32 35 172 C35.33551065 173.33278712 35.66946999 174.66596897 36 176 C35.34 176 34.68 176 34 176 C34.30035156 176.55429688 34.60070312 177.10859375 34.91015625 177.6796875 C35.29042969 178.40414062 35.67070313 179.12859375 36.0625 179.875 C36.44535156 180.59429687 36.82820313 181.31359375 37.22265625 182.0546875 C37.47917969 182.69664062 37.73570313 183.33859375 38 184 C37.67 184.66 37.34 185.32 37 186 C36.7724985 187.87056791 36.59037189 189.74685958 36.4375 191.625 C36.35371094 192.62789062 36.26992187 193.63078125 36.18359375 194.6640625 C36.12300781 195.43492187 36.06242187 196.20578125 36 197 C34.68 197.33 33.36 197.66 32 198 C32 200.64 32 203.28 32 206 C31.67 205.01 31.34 204.02 31 203 C30.34 203 29.68 203 29 203 C29.309375 204.0725 29.61875 205.145 29.9375 206.25 C30.288125 207.4875 30.63875 208.725 31 210 C31.226875 210.78375 31.45375 211.5675 31.6875 212.375 C31.8421875 213.179375 31.8421875 213.179375 32 214 C31.67 214.33 31.34 214.66 31 215 C31.34933594 215.9178125 31.69867188 216.835625 32.05859375 217.78125 C36.05428427 228.55716324 37.1728382 237.47745323 37 249 C38.3303125 249.3403125 38.3303125 249.3403125 39.6875 249.6875 C43.48230501 251.19110199 45.36650854 252.91505286 48 256 C48.495 257.485 48.495 257.485 49 259 C49.86625 259.78375 50.7325 260.5675 51.625 261.375 C52.40875 262.24125 53.1925 263.1075 54 264 C53.75 266.6875 53.75 266.6875 53 269 C53.33 269.66 53.66 270.32 54 271 C52.31282653 270.52759143 50.62645184 270.05204558 48.9453125 269.55859375 C47.22381598 269.06426844 45.48758664 268.62189666 43.75 268.1875 C40.33616081 266.71334217 39.66536346 265.25142391 38 262 C37.48848389 261.53360107 36.97696777 261.06720215 36.44995117 260.58666992 C33.8933391 257.78898986 34.41496219 253.93380643 34.3125 250.3125 C34.27833984 249.53455078 34.24417969 248.75660156 34.20898438 247.95507812 C34.05881239 244.28046169 34.01143021 240.64776653 34.1328125 236.97265625 C33.97809667 232.3448328 32.95825478 228.50836213 31.5625 224.125 C31.33240234 223.36703125 31.10230469 222.6090625 30.86523438 221.828125 C29.65006015 217.83013344 29.65006015 217.83013344 28 214 C27.34 214.33 26.68 214.66 26 215 C25.92508218 211.10427312 26.04503843 207.75606154 27 204 C28.81422943 186.50064318 24.9808898 169.89508588 21 153 C21 157.29 21 161.58 21 166 C20.34 166 19.68 166 19 166 C18.83141902 163.9168207 18.66520745 161.83344956 18.5 159.75 C18.4071875 158.58984375 18.314375 157.4296875 18.21875 156.234375 C17.57017544 146.64473684 17.57017544 146.64473684 20 143 C20.55052597 135.65654339 20.1624329 128.26520562 19 121 C17.68 120.67 16.36 120.34 15 120 C14.94392578 119.09507812 14.94392578 119.09507812 14.88671875 118.171875 C14.50675198 113.5526711 14.24820627 110.53065899 11 107 C11 106.34 11 105.68 11 105 C7.82990528 106.62078662 7.82990528 106.62078662 7.48828125 109.1640625 C7.43027344 109.97617188 7.37226562 110.78828125 7.3125 111.625 C7.24675781 112.44226563 7.18101563 113.25953125 7.11328125 114.1015625 C7.07589844 114.72804688 7.03851563 115.35453125 7 116 C6.34 116 5.68 116 5 116 C4.34 115.34 3.68 114.68 3 114 C0.87376723 117.4827141 0.72324228 120.31369752 0.65625 124.35546875 C0.62805176 125.60948486 0.59985352 126.86350098 0.57080078 128.15551758 C0.55954163 128.8141983 0.54828247 129.47287903 0.53668213 130.15151978 C0.3009238 143.23689159 -0.1930942 156.15878591 -2.796875 169.0234375 C-4.46305428 177.3269393 -5.28875843 185.26239021 -5.3125 193.75 C-5.31781738 194.69125732 -5.32313477 195.63251465 -5.32861328 196.60229492 C-5.28074057 201.23712938 -5.00359106 204.74731858 -3 209 C-2.92353835 211.3320802 -2.90856701 213.66845878 -3 216 C-3.66 215.67 -4.32 215.34 -5 215 C-8.62673233 224.29570229 -10.05630945 233.15581751 -11 243 C-11.16822266 244.71509766 -11.16822266 244.71509766 -11.33984375 246.46484375 C-11.57573353 248.97561581 -11.7976291 251.4863404 -12 254 C-12.66 253.01 -13.32 252.02 -14 251 C-14.66 251.33 -15.32 251.66 -16 252 C-16 251.34 -16 250.68 -16 250 C-16.66 249.67 -17.32 249.34 -18 249 C-16.02 248.01 -16.02 248.01 -14 247 C-13.97873047 245.27716797 -13.97873047 245.27716797 -13.95703125 243.51953125 C-13.9100538 241.95048446 -13.86180704 240.38147531 -13.8125 238.8125 C-13.80669922 238.06291016 -13.80089844 237.31332031 -13.79492188 236.54101562 C-13.6016551 231.40870901 -12.49662466 227.53351465 -10.453125 222.8125 C-7.45157688 215.45717597 -7.58524818 209.02621769 -7.9375 201.1875 C-8.32282124 187.42233172 -6.8435089 174.47958967 -4 161 C-3.31427015 157.71892056 -2.86346662 154.73121311 -2.875 151.375 C-2.87242188 150.61960938 -2.86984375 149.86421875 -2.8671875 149.0859375 C-2.92332827 146.80450231 -2.92332827 146.80450231 -4 144 C-4.068991 141.93854893 -4.08467727 139.87498599 -4.0625 137.8125 C-4.05347656 136.72582031 -4.04445313 135.63914063 -4.03515625 134.51953125 C-4.02355469 133.68808594 -4.01195312 132.85664063 -4 132 C-4.66 131.67 -5.32 131.34 -6 131 C-6 127 -6 127 -5 125 C-4.34 125 -3.68 125 -3 125 C-3.06703125 124.16082031 -3.1340625 123.32164062 -3.203125 122.45703125 C-2.96075306 118.33204728 -1.60814332 115.29381489 0.25 111.6875 C0.55035156 111.05521484 0.85070312 110.42292969 1.16015625 109.77148438 C3.4499615 105.22597736 3.4499615 105.22597736 6.234375 104.08203125 C6.81703125 104.05496094 7.3996875 104.02789062 8 104 C8.94220126 98.47291389 9.12116149 93.16241648 9.0625 87.5625 C9.05798828 86.73556641 9.05347656 85.90863281 9.04882812 85.05664062 C9.03715811 83.03772854 9.01922718 81.01885426 9 79 C8.05125 79.474375 7.1025 79.94875 6.125 80.4375 C4.41666667 81.29166667 2.70833333 82.14583333 1 83 C1.66 81.35 2.32 79.7 3 78 C1.35 78 -0.3 78 -2 78 C-2 77.34 -2 76.68 -2 76 C-1.01 76 -0.02 76 1 76 C0.67 74.68 0.34 73.36 0 72 C2.64 72.66 5.28 73.32 8 74 C8 70.04 8 66.08 8 62 C6.02 62.495 6.02 62.495 4 63 C4 62.34 4 61.68 4 61 C4.99 60.34 5.98 59.68 7 59 C6.53820726 56.84496721 6.08799278 55.14492928 4.9375 53.25 C3.47016938 49.7284065 3.7582344 46.80780818 4 43 C4.66 42.01 5.32 41.02 6 40 C6.66 40 7.32 40 8 40 C6.19587357 36.73539027 5.16605307 35.11070205 2 33 C-5.3145095 32.38012631 -10.89715944 33.93143963 -17 38 C-16.4740625 37.071875 -16.4740625 37.071875 -15.9375 36.125 C-15.628125 35.42375 -15.31875 34.7225 -15 34 C-15.33 33.34 -15.66 32.68 -16 32 C-9.53991163 30.04978464 -3.7281627 29.77737697 3 30 C2.67 29.34 2.34 28.68 2 28 C1.85836599 26.15017946 1.7739435 24.29581988 1.71875 22.44140625 C1.68136719 21.33345703 1.64398438 20.22550781 1.60546875 19.08398438 C1.55326172 17.34084961 1.55326172 17.34084961 1.5 15.5625 C1.43117055 13.27200895 1.35843364 10.98163101 1.28125 8.69140625 C1.25095703 7.67248291 1.22066406 6.65355957 1.18945312 5.60375977 C1.09934548 2.88712227 1.09934548 2.88712227 0 0 Z " fill="#3690C7" transform="translate(66,34)"/>
<path d="M0 0 C1.98 0.66 3.96 1.32 6 2 C6 3.65 6 5.3 6 7 C5.34 7 4.68 7 4 7 C3.54717524 14.1532161 4.66118777 18.53530742 8 24.8125 C8.75686358 26.27380925 9.507139 27.73855423 10.25 29.20703125 C10.58515625 29.8410083 10.9203125 30.47498535 11.265625 31.12817383 C12 33 12 33 12 37 C12.2700868 38.34256737 12.58351444 39.67707587 12.9375 41 C13.11152344 41.66 13.28554687 42.32 13.46484375 43 C13.64144531 43.66 13.81804687 44.32 14 45 C14.33551065 46.33278712 14.66946999 47.66596897 15 49 C14.34 49 13.68 49 13 49 C13.30035156 49.55429688 13.60070312 50.10859375 13.91015625 50.6796875 C14.29042969 51.40414062 14.67070313 52.12859375 15.0625 52.875 C15.44535156 53.59429687 15.82820313 54.31359375 16.22265625 55.0546875 C16.47917969 55.69664062 16.73570313 56.33859375 17 57 C16.67 57.66 16.34 58.32 16 59 C15.7724985 60.87056791 15.59037189 62.74685958 15.4375 64.625 C15.35371094 65.62789063 15.26992187 66.63078125 15.18359375 67.6640625 C15.09271484 68.82035156 15.09271484 68.82035156 15 70 C13.02 70.495 13.02 70.495 11 71 C11 73.64 11 76.28 11 79 C10.67 78.01 10.34 77.02 10 76 C9.34 76 8.68 76 8 76 C8.309375 77.0725 8.61875 78.145 8.9375 79.25 C9.288125 80.4875 9.63875 81.725 10 83 C10.226875 83.78375 10.45375 84.5675 10.6875 85.375 C10.790625 85.91125 10.89375 86.4475 11 87 C10.505 87.495 10.505 87.495 10 88 C10.52400391 89.37671875 10.52400391 89.37671875 11.05859375 90.78125 C15.05428427 101.55716324 16.1728382 110.47745323 16 122 C16.886875 122.226875 17.77375 122.45375 18.6875 122.6875 C22.48230501 124.19110199 24.36650854 125.91505286 27 129 C27.33 129.99 27.66 130.98 28 132 C28.86625 132.78375 29.7325 133.5675 30.625 134.375 C31.40875 135.24125 32.1925 136.1075 33 137 C32.75 139.6875 32.75 139.6875 32 142 C32.33 142.66 32.66 143.32 33 144 C31.31282653 143.52759143 29.62645184 143.05204558 27.9453125 142.55859375 C26.22381598 142.06426844 24.48758664 141.62189666 22.75 141.1875 C19.33616081 139.71334217 18.66536346 138.25142391 17 135 C16.48848389 134.53360107 15.97696777 134.06720215 15.44995117 133.58666992 C12.8933391 130.78898986 13.41496219 126.93380643 13.3125 123.3125 C13.27833984 122.53455078 13.24417969 121.75660156 13.20898438 120.95507812 C13.05881239 117.28046169 13.01143021 113.64776653 13.1328125 109.97265625 C12.97809667 105.3448328 11.95825478 101.50836213 10.5625 97.125 C10.21735352 95.98804688 10.21735352 95.98804688 9.86523438 94.828125 C8.65006015 90.83013344 8.65006015 90.83013344 7 87 C6.01 87.495 6.01 87.495 5 88 C4.92508218 84.10427312 5.04503843 80.75606154 6 77 C7.81422943 59.50064318 3.9808898 42.89508588 0 26 C0 30.29 0 34.58 0 39 C-0.66 39 -1.32 39 -2 39 C-2.16858098 36.9168207 -2.33479255 34.83344956 -2.5 32.75 C-2.5928125 31.58984375 -2.685625 30.4296875 -2.78125 29.234375 C-3.42982456 19.64473684 -3.42982456 19.64473684 -1 16 C-0.69933846 13.24582682 -0.49074701 10.57354853 -0.375 7.8125 C-0.33632812 7.06291016 -0.29765625 6.31332031 -0.2578125 5.54101562 C-0.16371784 3.69440801 -0.08077681 1.8472381 0 0 Z " fill="#D28486" transform="translate(87,161)"/>
<path d="M0 0 C2.475 0.99 2.475 0.99 5 2 C4.34 3.32 3.68 4.64 3 6 C3.99 6.33 4.98 6.66 6 7 C6 11.62 6 16.24 6 21 C6.33 21 6.66 21 7 21 C7.27753567 28.31042884 6.49072632 35.02660057 5.0625 42.1875 C4.698072 44.07660206 4.33476476 45.96592071 3.97265625 47.85546875 C3.81031494 48.67684326 3.64797363 49.49821777 3.48071289 50.34448242 C2.45959608 55.98525821 1.89780894 61.26984186 2.078125 67.0078125 C2.11679687 68.98394531 2.11679687 68.98394531 2.15625 71 C2.19911925 73.0538267 2.24933167 75.10618751 2.32226562 77.15917969 C2.62010991 85.96260584 1.70394872 92.89552702 -1.84228516 101.04394531 C-3.51434718 105.31330992 -3.77734266 109.26939048 -3.8125 113.8125 C-3.83763672 114.61236328 -3.86277344 115.41222656 -3.88867188 116.23632812 C-3.94617851 118.15704976 -3.97627857 120.07856411 -4 122 C-4.33 122 -4.66 122 -5 122 C-8.19494585 112.62815884 -8.19494585 112.62815884 -7.4375 110.1875 C-6.7386662 107.78234649 -6.7386662 107.78234649 -8.375 104.875 C-9 101 -9 101 -7.6484375 98.95703125 C-6.70871094 97.83361328 -6.70871094 97.83361328 -5.75 96.6875 C-0.24736999 89.73624048 -0.45532115 81.53030239 0 73 C-1.32 73 -2.64 73 -4 73 C-6.3754408 68.2491184 -6.59759105 61.53687039 -5.39453125 56.4296875 C-4.5625 54.25 -4.5625 54.25 -3 51 C-3.99 51.495 -3.99 51.495 -5 52 C-4.01 47.71 -3.02 43.42 -2 39 C-4.7839183 40.39195915 -4.97898997 42.15575779 -6 45 C-8.59997112 41.10004332 -7.77789029 39.51176365 -7 35 C-6.96454703 33.33371045 -6.94951812 31.66590197 -7 30 C-8.32 30 -9.64 30 -11 30 C-11 29.34 -11 28.68 -11 28 C-10.34 28 -9.68 28 -9 28 C-9 27.34 -9 26.68 -9 26 C-8.34 26 -7.68 26 -7 26 C-6.67 23.36 -6.34 20.72 -6 18 C-6.99 18.66 -7.98 19.32 -9 20 C-8.67 19.2575 -8.34 18.515 -8 17.75 C-6.77217129 14.86116688 -6.77217129 14.86116688 -7 11 C-7 10.34 -7 9.68 -7 9 C-4.36 8.34 -1.72 7.68 1 7 C0.67 4.69 0.34 2.38 0 0 Z " fill="#F2E4E4" transform="translate(57,159)"/>
<path d="M0 0 C1.32 0.66 2.64 1.32 4 2 C4.66 1.34 5.32 0.68 6 0 C5.83918945 0.55179932 5.67837891 1.10359863 5.51269531 1.67211914 C4.51858728 6.185843 4.77280422 10.83389872 4.75 15.4375 C4.729375 16.47455078 4.70875 17.51160156 4.6875 18.58007812 C4.53316712 25.82776794 4.53316712 25.82776794 8 32 C9.9254644 33.1490712 9.9254644 33.1490712 12 33 C14.48615558 31.15840327 15.00156904 29.99529289 16 27 C16.14835948 25.22833025 16.24770018 23.45232388 16.31640625 21.67578125 C16.37924805 20.13374023 16.37924805 20.13374023 16.44335938 18.56054688 C16.48267578 17.48869141 16.52199219 16.41683594 16.5625 15.3125 C16.62727539 13.68731445 16.62727539 13.68731445 16.69335938 12.02929688 C16.79946838 9.35299209 16.90152361 6.67659474 17 4 C17.33 4 17.66 4 18 4 C18 12.58 18 21.16 18 30 C20.97 30 23.94 30 27 30 C29.77734375 30.296875 29.77734375 30.296875 31.9375 30.75 C32.66839844 30.88921875 33.39929688 31.0284375 34.15234375 31.171875 C36.63676234 32.28539877 36.97964853 33.52919375 38 36 C38.66 36.99 39.32 37.98 40 39 C39.67 39.99 39.34 40.98 39 42 C38.62488281 41.51789063 38.24976563 41.03578125 37.86328125 40.5390625 C33.83662563 35.43842967 33.83662563 35.43842967 28 33 C21.54116994 32.28831981 21.54116994 32.28831981 15.69140625 34.51953125 C15.13324219 35.00808594 14.57507813 35.49664062 14 36 C14.99 36.33 15.98 36.66 17 37 C17 37.66 17 38.32 17 39 C19.475 38.505 19.475 38.505 22 38 C22 37.34 22 36.68 22 36 C22.99 35.67 23.98 35.34 25 35 C28.70967742 42.09677419 28.70967742 42.09677419 29 45 C28.34 46.32 27.68 47.64 27 49 C26.34 46.03 25.68 43.06 25 40 C24.34 40 23.68 40 23 40 C22.67 40.99 22.34 41.98 22 43 C21.34 43 20.68 43 20 43 C20.28875 43.66386719 20.5775 44.32773438 20.875 45.01171875 C21.24625 45.89472656 21.6175 46.77773437 22 47.6875 C22.37125 48.55761719 22.7425 49.42773438 23.125 50.32421875 C24.03077062 53.09409766 24.29260767 55.10863951 24 58 C21.32191002 60.7772785 18.76159981 61.47755558 15 62 C15.33 62.66 15.66 63.32 16 64 C15.34 64 14.68 64 14 64 C14 67.63 14 71.26 14 75 C13.01 75 12.02 75 11 75 C11 71.04 11 67.08 11 63 C9.515 63.495 9.515 63.495 8 64 C8 63.34 8 62.68 8 62 C6.02 62.495 6.02 62.495 4 63 C4 62.34 4 61.68 4 61 C4.99 60.34 5.98 59.68 7 59 C6.53820726 56.84496721 6.08799278 55.14492928 4.9375 53.25 C3.47016938 49.7284065 3.7582344 46.80780818 4 43 C4.66 42.01 5.32 41.02 6 40 C6.66 40 7.32 40 8 40 C6.19587357 36.73539027 5.16605307 35.11070205 2 33 C-5.3145095 32.38012631 -10.89715944 33.93143963 -17 38 C-16.4740625 37.071875 -16.4740625 37.071875 -15.9375 36.125 C-15.628125 35.42375 -15.31875 34.7225 -15 34 C-15.33 33.34 -15.66 32.68 -16 32 C-9.53991163 30.04978464 -3.7281627 29.77737697 3 30 C2.67 29.34 2.34 28.68 2 28 C1.85836599 26.15017946 1.7739435 24.29581988 1.71875 22.44140625 C1.68136719 21.33345703 1.64398438 20.22550781 1.60546875 19.08398438 C1.55326172 17.34084961 1.55326172 17.34084961 1.5 15.5625 C1.43117055 13.27200895 1.35843364 10.98163101 1.28125 8.69140625 C1.25095703 7.67248291 1.22066406 6.65355957 1.18945312 5.60375977 C1.09934548 2.88712227 1.09934548 2.88712227 0 0 Z " fill="#B3393A" transform="translate(66,34)"/>
<path d="M0 0 C0.33 0 0.66 0 1 0 C1 5.28 1 10.56 1 16 C1.99 16 2.98 16 4 16 C3.92491211 16.61568848 3.84982422 17.23137695 3.77246094 17.86572266 C3.17520422 23.40806252 2.96045722 28.82356746 3.078125 34.3984375 C3.10390625 35.70296875 3.1296875 37.0075 3.15625 38.3515625 C3.19924213 40.36144469 3.24981453 42.36985695 3.32226562 44.37890625 C3.62649547 53.26241758 2.69965876 59.87901741 -0.84228516 68.03515625 C-2.51109595 72.30888848 -2.77731841 76.26625676 -2.8125 80.8125 C-2.83763672 81.61236328 -2.86277344 82.41222656 -2.88867188 83.23632812 C-2.94617851 85.15704976 -2.97627857 87.07856411 -3 89 C-3.33 89 -3.66 89 -4 89 C-7.19494585 79.62815884 -7.19494585 79.62815884 -6.4375 77.1875 C-5.7386662 74.78234649 -5.7386662 74.78234649 -7.375 71.875 C-8 68 -8 68 -6.6484375 65.95703125 C-5.70871094 64.83361328 -5.70871094 64.83361328 -4.75 63.6875 C0.75263001 56.73624048 0.54467885 48.53030239 1 40 C-0.32 40 -1.64 40 -3 40 C-5.3754408 35.2491184 -5.59759105 28.53687039 -4.39453125 23.4296875 C-3.5625 21.25 -3.5625 21.25 -2 18 C-2.66 18.33 -3.32 18.66 -4 19 C-3.01 14.71 -2.02 10.42 -1 6 C-1.66 5.67 -2.32 5.34 -3 5 C-2.03114628 3.31503702 -1.03013277 1.64821244 0 0 Z " fill="#F3E1DB" transform="translate(56,192)"/>
<path d="M0 0 C0.66 0 1.32 0 2 0 C1.67 1.98 1.34 3.96 1 6 C1.99 6 2.98 6 4 6 C4 5.34 4 4.68 4 4 C4.66 4 5.32 4 6 4 C6 5.98 6 7.96 6 10 C5.34 10 4.68 10 4 10 C4.33 10.66 4.66 11.32 5 12 C5.66 12 6.32 12 7 12 C7 10.35 7 8.7 7 7 C7.66 6.67 8.32 6.34 9 6 C9.66 7.65 10.32 9.3 11 11 C11.2165625 9.824375 11.2165625 9.824375 11.4375 8.625 C12 6 12 6 13 4 C15 4 17 4 19 4 C19.33 4.66 19.66 5.32 20 6 C20 4.02 20 2.04 20 0 C20.66 0 21.32 0 22 0 C23.47258717 7.19931504 23.33393736 14.99818792 21 22 C20.91893314 23.55421729 20.89243102 25.11167027 20.90234375 26.66796875 C20.90717773 28.00698242 20.90717773 28.00698242 20.91210938 29.37304688 C20.92048828 30.30181641 20.92886719 31.23058594 20.9375 32.1875 C20.94201172 33.12787109 20.94652344 34.06824219 20.95117188 35.03710938 C20.96295374 37.35813712 20.97940442 39.67903644 21 42 C22.65 42 24.3 42 26 42 C25.67 42.99 25.34 43.98 25 45 C25.66 45.33 26.32 45.66 27 46 C25.72125 46.061875 24.4425 46.12375 23.125 46.1875 C22.04605469 46.23970703 22.04605469 46.23970703 20.9453125 46.29296875 C20.30335937 46.19628906 19.66140625 46.09960938 19 46 C16.78665971 42.67998957 16.73193808 41.5118268 16.65625 37.6328125 C16.62660156 36.58222656 16.59695312 35.53164063 16.56640625 34.44921875 C16.54449219 33.35222656 16.52257812 32.25523438 16.5 31.125 C16.45645885 28.96074878 16.40466571 26.79664439 16.34375 24.6328125 C16.31571289 23.19252686 16.31571289 23.19252686 16.28710938 21.72314453 C15.98272106 18.83611457 15.19863049 16.63112552 14 14 C9.93975679 16.03802135 9.93975679 16.03802135 8 20 C5.33333333 18.66666667 2.66666667 17.33333333 0 16 C-0.44921875 13.1640625 -0.44921875 13.1640625 -0.6875 9.625 C-0.77386719 8.46226563 -0.86023438 7.29953125 -0.94921875 6.1015625 C-1 3 -1 3 0 0 Z " fill="#F1E6E5" transform="translate(65,18)"/>
<path d="M0 0 C0.33 0.66 0.66 1.32 1 2 C0.29475578 3.92339332 -0.41562698 5.84644162 -1.2109375 7.734375 C-3.58735368 14.55774819 -3.26500455 21.89542331 -3.34179688 29.03710938 C-3.51956235 34.75454318 -4.57207231 38.74383702 -7.09790039 43.85375977 C-8.54933618 47.30695923 -8.54907831 50.61157806 -8.5625 54.3125 C-8.71260693 59.52914401 -9.11319673 64.19756777 -10.5625 69.25 C-12.05870432 74.52268159 -12.12451017 79.21052596 -11.97265625 84.6640625 C-12.01800575 90.1967018 -13.00455068 95.56946845 -14 101 C-14.33 101 -14.66 101 -15 101 C-14.98839844 99.89140625 -14.97679687 98.7828125 -14.96484375 97.640625 C-14.95546208 96.17708502 -14.94636229 94.71354322 -14.9375 93.25 C-14.92912109 92.52039063 -14.92074219 91.79078125 -14.91210938 91.0390625 C-14.89576207 87.44265647 -15.12113602 84.51545592 -16 81 C-15.67 85.29 -15.34 89.58 -15 94 C-15.33 94 -15.66 94 -16 94 C-16.66 98.95 -17.32 103.9 -18 109 C-18.33 109 -18.66 109 -19 109 C-19 103.72 -19 98.44 -19 93 C-19.33 93 -19.66 93 -20 93 C-21.22670521 87.32648841 -21.02805194 84.96600518 -18 80 C-17.11286249 77.16613936 -16.88119544 74.63263863 -16.90234375 71.671875 C-16.90556641 70.87265625 -16.90878906 70.0734375 -16.91210938 69.25 C-16.92048828 68.425 -16.92886719 67.6 -16.9375 66.75 C-16.94426758 65.48929688 -16.94426758 65.48929688 -16.95117188 64.203125 C-16.96292039 62.13538599 -16.98085478 60.06768376 -17 58 C-16.34 58.99 -15.68 59.98 -15 61 C-13.17328732 56.94946319 -11.76786091 53.38777664 -11 49 C-10.10386104 45.47945408 -9.283321 42.47924945 -7.4296875 39.34375 C-5.57648289 35.0094791 -5.78954214 31.57640009 -6 26.9375 C-6.21296656 17.62717696 -6.31368964 7.48092638 0 0 Z " fill="#DBAEAF" transform="translate(48,72)"/>
<path d="M0 0 C1.46067199 0.45082469 2.91848032 0.91093537 4.375 1.375 C5.18710938 1.63023437 5.99921875 1.88546875 6.8359375 2.1484375 C9 3 9 3 11 5 C11 5.99 11 6.98 11 8 C11.31421071 10.00309329 11.6451046 12.00371336 12 14 C10.68 13.34 9.36 12.68 8 12 C8.33773437 12.66386719 8.67546875 13.32773438 9.0234375 14.01171875 C10.24011485 17.73475145 9.99139987 20.98362138 9.625 24.8125 C9.56828125 25.50537109 9.5115625 26.19824219 9.453125 26.91210938 C9.31269396 28.60898446 9.15780593 30.30465248 9 32 C9.99 32.66 10.98 33.32 12 34 C11.67 35.98 11.34 37.96 11 40 C8.00527685 36.37825669 6.05875353 32.37853396 4 28.1875 C3.65710938 27.50107422 3.31421875 26.81464844 2.9609375 26.10742188 C1.95578437 24.07985153 0.97367968 22.04284765 0 20 C-0.30075439 19.38519775 -0.60150879 18.77039551 -0.91137695 18.13696289 C-2.69734058 14.29769476 -3.34374595 11.28114062 -3.1875 7.0625 C-3.16042969 6.10472656 -3.13335937 5.14695313 -3.10546875 4.16015625 C-3.07066406 3.44730469 -3.03585938 2.73445312 -3 2 C-2.67 2.66 -2.34 3.32 -2 4 C-1.34 2.68 -0.68 1.36 0 0 Z " fill="#F6EBEA" transform="translate(93,164)"/>
<path d="M0 0 C0.33 0 0.66 0 1 0 C1.23814057 15.88397626 1.36055791 31.4161219 -1.80078125 47.0390625 C-3.46451756 55.33714354 -4.2887747 63.26820452 -4.3125 71.75 C-4.31781738 72.69125732 -4.32313477 73.63251465 -4.32861328 74.60229492 C-4.28074057 79.23712938 -4.00359106 82.74731858 -2 87 C-1.92353835 89.3320802 -1.90856701 91.66845878 -2 94 C-2.66 93.67 -3.32 93.34 -4 93 C-7.62673233 102.29570229 -9.05630945 111.15581751 -10 121 C-10.16822266 122.71509766 -10.16822266 122.71509766 -10.33984375 124.46484375 C-10.57573353 126.97561581 -10.7976291 129.4863404 -11 132 C-11.66 131.01 -12.32 130.02 -13 129 C-13.66 129.33 -14.32 129.66 -15 130 C-15 129.34 -15 128.68 -15 128 C-15.66 127.67 -16.32 127.34 -17 127 C-15.02 126.01 -15.02 126.01 -13 125 C-12.97873047 123.27716797 -12.97873047 123.27716797 -12.95703125 121.51953125 C-12.9100538 119.95048446 -12.86180704 118.38147531 -12.8125 116.8125 C-12.80669922 116.06291016 -12.80089844 115.31332031 -12.79492188 114.54101562 C-12.6016551 109.40870901 -11.49662466 105.53351465 -9.453125 100.8125 C-6.45157688 93.45717597 -6.58524818 87.02621769 -6.9375 79.1875 C-7.32282124 65.42233172 -5.8435089 52.47958967 -3 39 C-2.31427015 35.71892056 -1.86346662 32.73121311 -1.875 29.375 C-1.87242188 28.61960938 -1.86984375 27.86421875 -1.8671875 27.0859375 C-1.92332827 24.80450231 -1.92332827 24.80450231 -3 22 C-3.06940639 20.0010961 -3.08455868 17.99998686 -3.0625 16 C-3.05347656 14.948125 -3.04445313 13.89625 -3.03515625 12.8125 C-3.02355469 11.884375 -3.01195312 10.95625 -3 10 C-3 9.01 -3 8.02 -3 7 C-2.01 7 -1.02 7 0 7 C0 4.69 0 2.38 0 0 Z " fill="#CE5B5B" transform="translate(65,156)"/>
<path d="M0 0 C0.33 0.99 0.66 1.98 1 3 C2.65 3 4.3 3 6 3 C6 2.34 6 1.68 6 1 C6.66 1.33 7.32 1.66 8 2 C7.67 5.96 7.34 9.92 7 14 C9.475 14.99 9.475 14.99 12 16 C11.67 17.32 11.34 18.64 11 20 C8.69 20.66 6.38 21.32 4 22 C4.33 22.66 4.66 23.32 5 24 C4.34 24 3.68 24 3 24 C3 27.63 3 31.26 3 35 C2.01 35 1.02 35 0 35 C0 31.04 0 27.08 0 23 C-0.99 23.33 -1.98 23.66 -3 24 C-3 23.34 -3 22.68 -3 22 C-4.32 22.33 -5.64 22.66 -7 23 C-7 22.34 -7 21.68 -7 21 C-6.01 20.34 -5.02 19.68 -4 19 C-4.144375 18.4225 -4.28875 17.845 -4.4375 17.25 C-4.95833333 15.16666667 -5.47916667 13.08333333 -6 11 C-3.69 11.66 -1.38 12.32 1 13 C-0.32 12.67 -1.64 12.34 -3 12 C-3 10.35 -3 8.7 -3 7 C-2.01 7 -1.02 7 0 7 C0 4.69 0 2.38 0 0 Z " fill="#AC2F2A" transform="translate(77,74)"/>
<path d="M0 0 C0.99 0.495 0.99 0.495 2 1 C2.4140625 3.06640625 2.4140625 3.06640625 2.625 5.5625 C2.69976562 6.38878906 2.77453125 7.21507812 2.8515625 8.06640625 C2.92503906 9.02353516 2.92503906 9.02353516 3 10 C3.66 9.34 4.32 8.68 5 8 C13.2078473 12.48568399 13.2078473 12.48568399 15 18 C15.886875 18.825 16.77375 19.65 17.6875 20.5 C18.450625 21.325 19.21375 22.15 20 23 C19.75 25.6875 19.75 25.6875 19 28 C19.33 28.66 19.66 29.32 20 30 C18.31282653 29.52759143 16.62645184 29.05204558 14.9453125 28.55859375 C13.22381598 28.06426844 11.48758664 27.62189666 9.75 27.1875 C6.33616081 25.71334217 5.66536346 24.25142391 4 21 C3.48848389 20.53940186 2.97696777 20.07880371 2.44995117 19.60424805 C0.61683978 17.5760657 0.58408665 16.47124364 0.48828125 13.76953125 C0.45283203 12.96708984 0.41738281 12.16464844 0.38085938 11.33789062 C0.35830078 10.50451172 0.33574219 9.67113281 0.3125 8.8125 C0.27833984 7.96751953 0.24417969 7.12253906 0.20898438 6.25195312 C0.12658529 4.16843351 0.06161355 2.08423784 0 0 Z " fill="#DAADAF" transform="translate(100,275)"/>
<path d="M0 0 C1.98 0.66 3.96 1.32 6 2 C6 3.65 6 5.3 6 7 C5.34 7 4.68 7 4 7 C3.59239022 13.4198541 4.23258551 17.44402689 7.22265625 23.15234375 C7.47917969 23.76207031 7.73570313 24.37179688 8 25 C7.67 25.66 7.34 26.32 7 27 C6.01 25.35 5.02 23.7 4 22 C3.70174995 29.22510744 4.82798037 35.43029489 6.5 42.4375 C8.83936237 52.79971164 9.60131394 62.41687462 9 73 C8.67 73 8.34 73 8 73 C7.96914307 72.19095215 7.93828613 71.3819043 7.90649414 70.54833984 C7.37979317 60.62845513 5.59982679 51.29537637 3.4375 41.625 C3.10392397 40.09915345 2.77123675 38.5731123 2.43945312 37.046875 C1.63648958 33.36226865 0.82168865 29.68047374 0 26 C0 30.29 0 34.58 0 39 C-0.66 39 -1.32 39 -2 39 C-2.16858098 36.9168207 -2.33479255 34.83344956 -2.5 32.75 C-2.5928125 31.58984375 -2.685625 30.4296875 -2.78125 29.234375 C-3.42982456 19.64473684 -3.42982456 19.64473684 -1 16 C-0.69933846 13.24582682 -0.49074701 10.57354853 -0.375 7.8125 C-0.33632812 7.06291016 -0.29765625 6.31332031 -0.2578125 5.54101562 C-0.16371784 3.69440801 -0.08077681 1.8472381 0 0 Z " fill="#CA3940" transform="translate(87,161)"/>
<path d="M0 0 C1.67422986 0.29299023 3.34178227 0.62690101 5 1 C5.66 0.67 6.32 0.34 7 0 C9.80908387 4.2136258 9.69707949 8.04749342 9 13 C7 15.625 7 15.625 5 17 C5.33 17.66 5.66 18.32 6 19 C5.38125 19.12375 4.7625 19.2475 4.125 19.375 C1.80879168 19.87197356 1.80879168 19.87197356 0 22 C0 21.34 0 20.68 0 20 C-1.98 20 -3.96 20 -6 20 C-4.68 19.01 -3.36 18.02 -2 17 C-2.33 16.34 -2.66 15.68 -3 15 C-2.06421005 12.64018187 -1.06652192 10.30368736 0 8 C-3.34243648 9.89404734 -3.97997149 10.94091591 -5.25 14.6875 C-5.4975 15.780625 -5.745 16.87375 -6 18 C-6.66 17.01 -7.32 16.02 -8 15 C-8.99 17.475 -8.99 17.475 -10 20 C-10.66 19.34 -11.32 18.68 -12 18 C-11.23721377 16.7035649 -10.46443041 15.41300852 -9.6875 14.125 C-9.25824219 13.40570313 -8.82898437 12.68640625 -8.38671875 11.9453125 C-7 10 -7 10 -4 8 C-3.29618843 6.01276732 -2.6288189 4.01222047 -2 2 C-1.34 1.34 -0.68 0.68 0 0 Z " fill="#DAAFAD" transform="translate(46,284)"/>
<path d="M0 0 C5.76658036 7.5459823 7.31525805 12.91440053 7.71875 22.3359375 C7.99892075 25.98593982 8.66601897 29.26807963 9.5625 32.8125 C10.88995556 38.07077056 11.27494566 42.59273526 11 48 C9.68 48 8.36 48 7 48 C6.87044922 47.01 6.87044922 47.01 6.73828125 46 C5.93470192 40.33808327 4.97344815 34.76632512 3.75390625 29.1796875 C3.52856201 28.14328125 3.30321777 27.106875 3.07104492 26.0390625 C2.61626905 23.97175446 2.15198795 21.90650833 1.67700195 19.84375 C0.20279906 13.12971126 -0.28834978 6.86812074 0 0 Z " fill="#F8F2EF" transform="translate(90,181)"/>
<path d="M0 0 C3.16115776 1.36983503 3.9927092 1.9890638 6 5 C5.74058211 6.9780614 5.47690916 8.95608784 5.16015625 10.92578125 C4.9283729 13.92765829 5.83799641 16.2658739 7 19 C6.34 18.67 5.68 18.34 5 18 C4.43252628 27.23090577 4.71089118 33.86093322 8.7578125 42.33203125 C10.38707541 45.83136009 11.16499962 49.24249828 12 53 C12.33 53.66 12.66 54.32 13 55 C13.66 54.01 14.32 53.02 15 52 C15.53067341 54.10170656 16.04922857 56.20647598 16.5625 58.3125 C16.85253906 59.48425781 17.14257812 60.65601563 17.44140625 61.86328125 C18 65 18 65 17 68 C16.505 67.01 16.505 67.01 16 66 C15.67 68.64 15.34 71.28 15 74 C14.67 74 14.34 74 14 74 C13.87882812 72.89140625 13.75765625 71.7828125 13.6328125 70.640625 C13.46393704 69.17703766 13.29464428 67.71349843 13.125 66.25 C13.04636719 65.52039063 12.96773437 64.79078125 12.88671875 64.0390625 C12.42432884 60.12653252 11.79039542 57.58079084 10 54 C10.33 58.29 10.66 62.58 11 67 C5.92783002 61.92783002 6.64627256 52.84818577 6.52148438 46.09179688 C6.34913657 41.4299989 5.44258424 38.88705665 3 35 C2.26953125 31.46875 2.26953125 31.46875 1.8125 27.5 C1.69080444 26.45030029 1.69080444 26.45030029 1.56665039 25.37939453 C0.97561785 19.86434167 0.86167374 14.41353136 1.02734375 8.8671875 C0.99825023 5.8165244 0.5727306 2.99240639 0 0 Z " fill="#C55B5D" transform="translate(106,76)"/>
<path d="M0 0 C5.19694614 6.20785896 5.28873159 14.20424695 5 22 C5.99 22 6.98 22 8 22 C8.99 24.97 9.98 27.94 11 31 C10.01 31.66 9.02 32.32 8 33 C7.27034634 35.56282742 7.27034634 35.56282742 7 38 C6.67 38 6.34 38 6 38 C5.67 41.3 5.34 44.6 5 48 C4.67 48 4.34 48 4 48 C1.7252542 38.5760531 0.70491649 30.04431429 0.9921875 20.36328125 C0.99865801 17.57772875 0.70363056 15.63552849 0 13 C0.33 12.34 0.66 11.68 1 11 C0.91255632 9.12137125 0.75824458 7.24544819 0.5625 5.375 C0.46066406 4.37210938 0.35882813 3.36921875 0.25390625 2.3359375 C0.17011719 1.56507813 0.08632812 0.79421875 0 0 Z " fill="#F3D4D3" transform="translate(115,128)"/>
<path d="M0 0 C0.66 0 1.32 0 2 0 C2.10887507 2.68860931 2.18770594 5.37273158 2.25 8.0625 C2.30027344 9.19075195 2.30027344 9.19075195 2.3515625 10.34179688 C2.45176519 16.12850251 1.13346659 19.15736982 -2 24 C-2.83790328 26.10892902 -2.83790328 26.10892902 -3.25 27.9375 C-3.4975 28.948125 -3.745 29.95875 -4 31 C-5.5 29.625 -5.5 29.625 -7 28 C-7 27.34 -7 26.68 -7 26 C-6.34 26 -5.68 26 -5 26 C-4.60704196 21.72555547 -4.60704196 21.72555547 -6.5 18.0625 C-8.71255759 15.02023331 -8.32740809 12.66697064 -8 9 C-7 6.5625 -7 6.5625 -6 5 C-4.68 5 -3.36 5 -2 5 C-1.34 3.35 -0.68 1.7 0 0 Z " fill="#FCF1F0" transform="translate(41,91)"/>
<path d="M0 0 C2.475 0.99 2.475 0.99 5 2 C4.34 3.32 3.68 4.64 3 6 C3.66 6 4.32 6 5 6 C4.125 9.875 4.125 9.875 3 11 C2.76807135 12.51469448 2.58784762 14.03754562 2.4375 15.5625 C2.35371094 16.38878906 2.26992188 17.21507812 2.18359375 18.06640625 C2.12300781 18.70449219 2.06242187 19.34257812 2 20 C1.67 20 1.34 20 1 20 C0.67 18.35 0.34 16.7 0 15 C-0.66 17.97 -1.32 20.94 -2 24 C-2.33 24 -2.66 24 -3 24 C-3.33 25.65 -3.66 27.3 -4 29 C-5.5625 28 -5.5625 28 -7 26 C-6.96726452 23.23385218 -6.49404328 20.73969453 -6 18 C-6.99 18.66 -7.98 19.32 -9 20 C-8.67 19.2575 -8.34 18.515 -8 17.75 C-6.77217129 14.86116688 -6.77217129 14.86116688 -7 11 C-7 10.34 -7 9.68 -7 9 C-4.36 8.34 -1.72 7.68 1 7 C0.67 4.69 0.34 2.38 0 0 Z " fill="#E2C9CB" transform="translate(57,159)"/>
<path d="M0 0 C0.33 0 0.66 0 1 0 C1.31619992 7.13206497 1.43573271 12.65710884 -2 19 C-2.391875 19.804375 -2.78375 20.60875 -3.1875 21.4375 C-3.455625 21.953125 -3.72375 22.46875 -4 23 C-3.67 23 -3.34 23 -3 23 C-1.81390635 28.6932495 -2.33748198 32.42567486 -4 38 C-4.97591583 34.61682513 -4.85856655 32.4342662 -4 29 C-4.66 29 -5.32 29 -6 29 C-6 29.99 -6 30.98 -6 32 C-6.66 32 -7.32 32 -8 32 C-8 32.66 -8 33.32 -8 34 C-8.99 34 -9.98 34 -11 34 C-9.91769547 30.10370371 -8.80230064 26.60460128 -7 23 C-7 22.01 -7 21.02 -7 20 C-7 17 -7 17 -6 15 C-5.34 15 -4.68 15 -4 15 C-3.96261719 14.41992188 -3.92523437 13.83984375 -3.88671875 13.2421875 C-3.46096333 8.18321136 -2.62861009 4.45720842 0 0 Z " fill="#F1E8E7" transform="translate(31,136)"/>
<path d="M0 0 C0.33 0 0.66 0 1 0 C1.33647524 22.44289877 -0.78057836 42.99083342 -5 65 C-5.33 65 -5.66 65 -6 65 C-6.26004499 57.0686278 -5.00532326 49.9179327 -3.421875 42.171875 C-2.10504635 35.43723703 -0.78476115 28.64571655 -3 22 C-3.06940639 20.0010961 -3.08455868 17.99998686 -3.0625 16 C-3.05347656 14.948125 -3.04445312 13.89625 -3.03515625 12.8125 C-3.02355469 11.884375 -3.01195312 10.95625 -3 10 C-3 9.01 -3 8.02 -3 7 C-2.01 7 -1.02 7 0 7 C0 4.69 0 2.38 0 0 Z " fill="#C34C4F" transform="translate(65,156)"/>
<path d="M0 0 C0.66 0 1.32 0 2 0 C2.33 0.66 2.66 1.32 3 2 C5.01669827 3.13350534 5.01669827 3.13350534 7 4 C6.649375 4.7425 6.29875 5.485 5.9375 6.25 C4.90864993 9.26796019 4.96459889 10.08408661 6 13 C7.21364262 14.70216393 7.21364262 14.70216393 8.625 16.3125 C10.76675512 19.18857116 11.02482829 19.65861099 10.75 23.4375 C10.5025 24.613125 10.255 25.78875 10 27 C10.16714338 29.71249833 10.57539103 32.31080984 11 35 C10.34 35 9.68 35 9 35 C8.87625 34.195625 8.7525 33.39125 8.625 32.5625 C8.41875 31.716875 8.2125 30.87125 8 30 C7.34 29.67 6.68 29.34 6 29 C5.87625 28.21625 5.7525 27.4325 5.625 26.625 C4.88037374 22.30616767 3.36930491 18.54485328 1.7421875 14.48828125 C1 12 1 12 2 9 C1.34 8.01 0.68 7.02 0 6 C-0.125 2.8125 -0.125 2.8125 0 0 Z " fill="#F0E1DD" transform="translate(95,237)"/>
<path d="M0 0 C2.32601085 2.85464968 3.9610176 5.45014348 5 9 C4.625 11.8125 4.625 11.8125 4 14 C1.87491756 10.81237635 1.4979837 8.73487777 1 5 C0.34 5 -0.32 5 -1 5 C-1.33 5.99 -1.66 6.98 -2 8 C-2.66 8 -3.32 8 -4 8 C-3.71125 8.66386719 -3.4225 9.32773438 -3.125 10.01171875 C-2.568125 11.33623047 -2.568125 11.33623047 -2 12.6875 C-1.62875 13.55761719 -1.2575 14.42773438 -0.875 15.32421875 C0.01870488 18.0572002 0.16449676 20.14700934 0 23 C-2.49361571 21.79618552 -4.68143083 20.54571278 -7 19 C-6.67 15.04 -6.34 11.08 -6 7 C-6.33 7.33 -6.66 7.66 -7 8 C-8.32 8 -9.64 8 -11 8 C-11 7.01 -11 6.02 -11 5 C-8.03 4.34 -5.06 3.68 -2 3 C-2 2.34 -2 1.68 -2 1 C-1.34 0.67 -0.68 0.34 0 0 Z " fill="#D49D8F" transform="translate(90,69)"/>
<path d="M0 0 C1.46067199 0.45082469 2.91848032 0.91093537 4.375 1.375 C5.18710938 1.63023437 5.99921875 1.88546875 6.8359375 2.1484375 C9 3 9 3 11 5 C11 5.99 11 6.98 11 8 C11.31421071 10.00309329 11.6451046 12.00371336 12 14 C10.68 13.34 9.36 12.68 8 12 C8.350625 12.61875 8.70125 13.2375 9.0625 13.875 C10.41103435 18.37011449 9.65959866 22.40954987 9 27 C8.67 27 8.34 27 8 27 C7.67 23.37 7.34 19.74 7 16 C6.34 16.99 5.68 17.98 5 19 C4.34 15.7 3.68 12.4 3 9 C2.67 10.65 2.34 12.3 2 14 C1.67 14 1.34 14 1 14 C0.63906896 11.85529407 0.28642411 9.70919203 -0.0625 7.5625 C-0.25972656 6.36753906 -0.45695312 5.17257813 -0.66015625 3.94140625 C-0.77230469 2.97074219 -0.88445312 2.00007812 -1 1 C-0.67 0.67 -0.34 0.34 0 0 Z " fill="#D6A9AC" transform="translate(93,164)"/>
<path d="M0 0 C0.66 0 1.32 0 2 0 C3.17998423 11.12815896 2.77165796 21.86438211 2 33 C1.67 33 1.34 33 1 33 C0.67 27.39 0.34 21.78 0 16 C-1.98 16.99 -3.96 17.98 -6 19 C-6.66 19.33 -7.32 19.66 -8 20 C-7.34 18.35 -6.68 16.7 -6 15 C-7.65 15 -9.3 15 -11 15 C-11 14.34 -11 13.68 -11 13 C-10.01 13 -9.02 13 -8 13 C-8.33 11.68 -8.66 10.36 -9 9 C-5.04 9.99 -5.04 9.99 -1 11 C-1.01160156 10.28972656 -1.02320312 9.57945313 -1.03515625 8.84765625 C-1.04869141 7.46900391 -1.04869141 7.46900391 -1.0625 6.0625 C-1.07410156 5.14597656 -1.08570312 4.22945313 -1.09765625 3.28515625 C-1 1 -1 1 0 0 Z " fill="#2A89BC" transform="translate(75,97)"/>
<path d="M0 0 C3.99883674 3.03229326 4.32160088 7.28239696 5 12 C5.13361545 14.36628645 5.10094731 16.62773818 5 19 C4.34 19.33 3.68 19.66 3 20 C2.34 20.99 1.68 21.98 1 23 C1 19.33333333 1 15.66666667 1 12 C0.4225 11.814375 -0.155 11.62875 -0.75 11.4375 C-4.09960559 9.2974742 -5.12846835 6.49352575 -7 3 C-7.66 2.34 -8.32 1.68 -9 1 C-5.95016004 -0.52491998 -3.3576631 -0.23562548 0 0 Z " fill="#F4EDE9" transform="translate(109,66)"/>
<path d="M0 0 C1.32 0.66 2.64 1.32 4 2 C4.66 1.34 5.32 0.68 6 0 C5.83846436 0.55179932 5.67692871 1.10359863 5.51049805 1.67211914 C4.5211403 6.18360941 4.81534833 10.83745065 4.8125 15.4375 C4.79413086 16.99307617 4.79413086 16.99307617 4.77539062 18.58007812 C4.77345703 19.58361328 4.77152344 20.58714844 4.76953125 21.62109375 C4.76336792 22.98899048 4.76336792 22.98899048 4.75708008 24.38452148 C5.02226211 27.23969245 5.81647556 29.40164055 7 32 C5.3603125 31.9071875 5.3603125 31.9071875 3.6875 31.8125 C-3.513694 31.8125 -11.1265473 33.74681011 -17 38 C-16.4740625 37.071875 -16.4740625 37.071875 -15.9375 36.125 C-15.628125 35.42375 -15.31875 34.7225 -15 34 C-15.33 33.34 -15.66 32.68 -16 32 C-9.53991163 30.04978464 -3.7281627 29.77737697 3 30 C2.67 29.34 2.34 28.68 2 28 C1.85836599 26.15017946 1.7739435 24.29581988 1.71875 22.44140625 C1.68136719 21.33345703 1.64398438 20.22550781 1.60546875 19.08398438 C1.55326172 17.34084961 1.55326172 17.34084961 1.5 15.5625 C1.43117055 13.27200895 1.35843364 10.98163101 1.28125 8.69140625 C1.25095703 7.67248291 1.22066406 6.65355957 1.18945312 5.60375977 C1.09934548 2.88712227 1.09934548 2.88712227 0 0 Z " fill="#CF7C7F" transform="translate(66,34)"/>
<path d="M0 0 C0.33 0 0.66 0 1 0 C1.04898438 1.27875 1.09796875 2.5575 1.1484375 3.875 C1.22352991 5.58335222 1.29907487 7.29168459 1.375 9 C1.42140625 10.25876953 1.42140625 10.25876953 1.46875 11.54296875 C1.8077546 18.83156757 2.99806154 25.32919796 6.125 32 C6.47820312 32.763125 6.83140625 33.52625 7.1953125 34.3125 C7.46085937 34.869375 7.72640625 35.42625 8 36 C10.475 35.505 10.475 35.505 13 35 C12.505 35.495 12.01 35.99 11.5 36.5 C9.33021905 40.11630158 9.79111581 42.82231616 10 47 C7.83352082 43.75028123 6.64268286 40.60339742 5.29296875 36.9609375 C4.142209 34.10454962 4.142209 34.10454962 2.76171875 32.09667969 C-1.41660349 25.55914851 -1.64309306 20.13602988 -1.375 12.5 C-1.36082031 11.40429688 -1.34664063 10.30859375 -1.33203125 9.1796875 C-1.1832135 1.1832135 -1.1832135 1.1832135 0 0 Z " fill="#AF2736" transform="translate(79,111)"/>
<path d="M0 0 C1.65 0.33 3.3 0.66 5 1 C6.567713 8.66816143 6.567713 8.66816143 5.17578125 11.93359375 C4.0625 13.5625 4.0625 13.5625 2 16 C3.32 15.67 4.64 15.34 6 15 C6 15.66 6 16.32 6 17 C5.34 17 4.68 17 4 17 C4 17.66 4 18.32 4 19 C0.125 17.25 0.125 17.25 -1 15 C-0.67 14.34 -0.34 13.68 0 13 C-0.66 13 -1.32 13 -2 13 C-3.35599779 5.60364842 -3.35599779 5.60364842 -1.5625 2.5625 C-1.046875 2.046875 -0.53125 1.53125 0 1 C0 0.67 0 0.34 0 0 Z " fill="#EFF1F2" transform="translate(91,145)"/>
<path d="M0 0 C0.33 0.66 0.66 1.32 1 2 C0.29475578 3.92339332 -0.41562698 5.84644162 -1.2109375 7.734375 C-3.58735368 14.55774819 -3.26500455 21.89542331 -3.34179688 29.03710938 C-3.51933723 34.74730268 -4.56856459 38.71397473 -7.09350586 43.81420898 C-8.59578869 47.43660009 -8.5973052 50.9977276 -8.625 54.875 C-8.75932504 62.63898757 -8.75932504 62.63898757 -11 66 C-11 63.03 -11 60.06 -11 57 C-11.99 58.32 -12.98 59.64 -14 61 C-13.66845449 59.33297677 -13.3346289 57.66640703 -13 56 C-12.79761719 54.98164062 -12.59523437 53.96328125 -12.38671875 52.9140625 C-12.15597656 51.82867187 -11.92523438 50.74328125 -11.6875 49.625 C-11.46449219 48.54476562 -11.24148437 47.46453125 -11.01171875 46.3515625 C-10 43 -10 43 -7.8984375 39.65625 C-5.35403712 35.43487175 -5.66704115 31.67285255 -5.9375 26.875 C-6.20215203 17.56701666 -6.31791314 7.4859307 0 0 Z " fill="#BB4645" transform="translate(48,72)"/>
<path d="M0 0 C1.52519276 0.08937803 3.04681929 0.24537146 4.5625 0.4375 C5.38878906 0.53933594 6.21507812 0.64117187 7.06640625 0.74609375 C7.70449219 0.82988281 8.34257813 0.91367188 9 1 C8.38511719 1.8353125 8.38511719 1.8353125 7.7578125 2.6875 C4.16876468 7.77055337 2.11387899 11.87366554 1 18 C-0.9375 18.5625 -0.9375 18.5625 -3 19 C-4 18 -4 18 -4.375 14.9375 C-3.94570895 10.42994399 -2.6229151 8.24075006 -0.09375 4.6015625 C1.09399361 3.18560066 1.09399361 3.18560066 1 2 C0.34 1.67 -0.32 1.34 -1 1 C-0.67 0.67 -0.34 0.34 0 0 Z " fill="#E6C9C4" transform="translate(43,66)"/>
<path d="M0 0 C3 1 3 1 4.75 3.9375 C5.1625 4.948125 5.575 5.95875 6 7 C5.67 7.66 5.34 8.32 5 9 C4.01 7.35 3.02 5.7 2 4 C1.70174995 11.22510744 2.82798037 17.43029489 4.5 24.4375 C6.83936237 34.79971164 7.60131394 44.41687462 7 55 C6.67 55 6.34 55 6 55 C5.96406738 54.15252197 5.92813477 53.30504395 5.89111328 52.43188477 C5.3388876 42.41126086 3.42299344 33.1466737 0.99609375 23.41210938 C-0.8928144 15.29161188 -1.12274586 8.2628953 0 0 Z " fill="#D05B54" transform="translate(89,179)"/>
<path d="M0 0 C0.99 0 1.98 0 3 0 C4.32621385 2.34730788 5.63580199 4.70164258 6.9375 7.0625 C7.31068359 7.71927734 7.68386719 8.37605469 8.06835938 9.05273438 C10.46773114 13.44077463 11.59109243 17.00873138 12 22 C12.99 22 13.98 22 15 22 C15 23.65 15 25.3 15 27 C13.33333333 27 11.66666667 27 10 27 C9.67 24.36 9.34 21.72 9 19 C7.68 18.67 6.36 18.34 5 18 C4.96132812 17.14728516 4.96132812 17.14728516 4.921875 16.27734375 C4.49285581 10.43683251 3.11860383 6.92940606 0 2 C0 1.34 0 0.68 0 0 Z " fill="#3380B2" transform="translate(76,136)"/>
<path d="M0 0 C3.625 1.5 3.625 1.5 6 3 C5.34 3.66 4.68 4.32 4 5 C1.875 4.625 1.875 4.625 0 4 C0 5.32 0 6.64 0 8 C0.66 8.33 1.32 8.66 2 9 C0.125 8.75 0.125 8.75 -2 8 C-3.25 5.9375 -3.25 5.9375 -4 4 C-4.66 4 -5.32 4 -6 4 C-6 4.66 -6 5.32 -6 6 C-5.34 6.33 -4.68 6.66 -4 7 C-6.31 7 -8.62 7 -11 7 C-11 6.34 -11 5.68 -11 5 C-12.32 4.67 -13.64 4.34 -15 4 C-10.52758621 -0.77057471 -6.16292482 -0.85514268 0 0 Z " fill="#F2EBEA" transform="translate(94,66)"/>
<path d="M0 0 C1.49316406 1.26904297 1.49316406 1.26904297 3 3 C3.08316339 5.80973465 3.0049872 8.34522152 2.75 11.125 C2.69279785 11.89183105 2.6355957 12.65866211 2.57666016 13.44873047 C2.27415401 17.35478926 1.87425476 21.23890889 1.375 25.125 C0.98959668 29.10750094 1.25428127 32.10569108 2 36 C1.67 36 1.34 36 1 36 C0.34 40.95 -0.32 45.9 -1 51 C-1.33 51 -1.66 51 -2 51 C-2 45.72 -2 40.44 -2 35 C-2.33 35 -2.66 35 -3 35 C-4.22670521 29.32648841 -4.02805194 26.96600518 -1 22 C-0.11286249 19.16613936 0.11880456 16.63263863 0.09765625 13.671875 C0.09443359 12.87265625 0.09121094 12.0734375 0.08789062 11.25 C0.07951172 10.425 0.07113281 9.6 0.0625 8.75 C0.05573242 7.48929688 0.05573242 7.48929688 0.04882812 6.203125 C0.03707961 4.13538599 0.01914522 2.06768376 0 0 Z " fill="#D5A0A9" transform="translate(31,130)"/>
<path d="M0 0 C0.33 0 0.66 0 1 0 C1.33 4.29 1.66 8.58 2 13 C2.33 9.37 2.66 5.74 3 2 C7 6.625 7 6.625 7 10 C6.34 10.66 5.68 11.32 5 12 C4.35232207 14.57061311 4.35232207 14.57061311 4 17 C3.67 17 3.34 17 3 17 C2.67 20.3 2.34 23.6 2 27 C1.67 27 1.34 27 1 27 C-3.11627907 9.34883721 -3.11627907 9.34883721 0 0 Z " fill="#D5999E" transform="translate(118,149)"/>
<path d="M0 0 C0.33 0 0.66 0 1 0 C1 8.58 1 17.16 1 26 C3.97 26 6.94 26 10 26 C12.77734375 26.296875 12.77734375 26.296875 14.9375 26.75 C15.66839844 26.88921875 16.39929688 27.0284375 17.15234375 27.171875 C19.63676234 28.28539877 19.97964853 29.52919375 21 32 C21.66 32.99 22.32 33.98 23 35 C22.67 35.99 22.34 36.98 22 38 C21.62488281 37.51789063 21.24976562 37.03578125 20.86328125 36.5390625 C20.35152344 35.90742187 19.83976562 35.27578125 19.3125 34.625 C18.81363281 33.99851563 18.31476563 33.37203125 17.80078125 32.7265625 C13.73222602 28.82569176 9.11816274 28.67952314 3.6875 28.375 C2.43324219 28.30023438 1.17898437 28.22546875 -0.11328125 28.1484375 C-1.06589844 28.09945312 -2.01851563 28.05046875 -3 28 C-2.67854004 27.28884033 -2.35708008 26.57768066 -2.02587891 25.8449707 C-0.96125404 22.89254957 -0.69067367 20.6050979 -0.5859375 17.48046875 C-0.54726562 16.45888672 -0.50859375 15.43730469 -0.46875 14.38476562 C-0.4378125 13.32966797 -0.406875 12.27457031 -0.375 11.1875 C-0.33632812 10.11306641 -0.29765625 9.03863281 -0.2578125 7.93164062 C-0.16381387 5.28792912 -0.07815427 2.6442195 0 0 Z " fill="#C3494C" transform="translate(83,38)"/>
<path d="M0 0 C1.52299523 2.93720508 2.80100302 5.9168649 4 9 C3.67 9.33 3.34 9.66 3 10 C3.33773437 10.75539062 3.67546875 11.51078125 4.0234375 12.2890625 C7.16580015 20.04506742 8.67345409 27.34313454 9.4375 35.6875 C9.53015137 36.65574707 9.62280273 37.62399414 9.71826172 38.62158203 C10.26221811 45.60667283 10.26221811 45.60667283 8 49 C7.96559814 48.45287354 7.93119629 47.90574707 7.89575195 47.34204102 C7.02219558 34.37142176 5.91552984 20.83105968 0 9 C-0.99 9.495 -0.99 9.495 -2 10 C-2.25 3.375 -2.25 3.375 0 0 Z " fill="#C85558" transform="translate(94,239)"/>
<path d="M0 0 C4.65987191 3.0657052 5.85485202 5.58657319 7 11 C6.34 10.67 5.68 10.34 5 10 C5 9.34 5 8.68 5 8 C4.34 8 3.68 8 3 8 C3.33 9.051875 3.66 10.10375 4 11.1875 C4.83966782 14.38873357 5.19750904 16.7411008 5 20 C4.34 20 3.68 20 3 20 C2.67 21.98 2.34 23.96 2 26 C0.09391902 22.78817851 -0.22266247 20.46117397 -0.125 16.75 C-0.09792969 15.41195312 -0.09792969 15.41195312 -0.0703125 14.046875 C-0.04710938 13.37140625 -0.02390625 12.6959375 0 12 C-0.33 12 -0.66 12 -1 12 C-1.14285714 3.42857143 -1.14285714 3.42857143 0 0 Z " fill="#DEBBB9" transform="translate(66,178)"/>
<path d="M0 0 C0.33 0.99 0.66 1.98 1 3 C2.65 3 4.3 3 6 3 C6 2.34 6 1.68 6 1 C6.66 1.33 7.32 1.66 8 2 C7.67 5.96 7.34 9.92 7 14 C7.99 14.66 8.98 15.32 10 16 C9.34 16.33 8.68 16.66 8 17 C7.01 16.67 6.02 16.34 5 16 C5 15.01 5 14.02 5 13 C4.34 13 3.68 13 3 13 C2.67 11.35 2.34 9.7 2 8 C1.34 8 0.68 8 0 8 C0 9.32 0 10.64 0 12 C-0.99 12 -1.98 12 -3 12 C-3 10.35 -3 8.7 -3 7 C-2.01 7 -1.02 7 0 7 C0 4.69 0 2.38 0 0 Z " fill="#D26157" transform="translate(77,74)"/>
<path d="M0 0 C0.22424141 7.36259293 -0.09879901 13.87049629 -2 21 C-2.99 21 -3.98 21 -5 21 C-5.05407567 18.41638482 -5.093707 15.83390745 -5.125 13.25 C-5.14175781 12.52039063 -5.15851562 11.79078125 -5.17578125 11.0390625 C-5.23886395 4.09996547 -5.23886395 4.09996547 -3 1 C-1 0 -1 0 0 0 Z " fill="#F5F2EF" transform="translate(62,187)"/>
<path d="M0 0 C3.23150962 3.23150962 2.39806416 7.8516854 2.47851562 12.234375 C2.5506536 14.16274629 2.7667462 16.08442896 3 18 C3.99 18.66 4.98 19.32 6 20 C5.67 21.98 5.34 23.96 5 26 C2.34420662 22.72639366 0.51096677 19.29489981 -1.3125 15.5 C-1.86550781 14.3759375 -2.41851562 13.251875 -2.98828125 12.09375 C-4 9 -4 9 -3.16796875 6.59375 C-2.78253906 6.0678125 -2.39710937 5.541875 -2 5 C-1.34 5 -0.68 5 0 5 C0 3.35 0 1.7 0 0 Z " fill="#F5E6E4" transform="translate(99,178)"/>
<path d="M0 0 C3.16115776 1.36983503 3.9927092 1.9890638 6 5 C5.74058211 6.9780614 5.47690916 8.95608784 5.16015625 10.92578125 C4.9283729 13.92765829 5.83799641 16.2658739 7 19 C6.34 18.67 5.68 18.34 5 18 C4.95101562 18.77085938 4.90203125 19.54171875 4.8515625 20.3359375 C4.77679688 21.33882812 4.70203125 22.34171875 4.625 23.375 C4.55539063 24.37273437 4.48578125 25.37046875 4.4140625 26.3984375 C4 29 4 29 2 31 C1.2572585 23.63890122 0.91415096 16.40672071 1.0625 9.0078125 C0.99821833 5.91425704 0.57994456 3.03564728 0 0 Z " fill="#CF6E6E" transform="translate(106,76)"/>
<path d="M0 0 C1.74627478 2.61941217 2.38722388 4.03824877 3 7 C3.66 7 4.32 7 5 7 C4.67 8.98 4.34 10.96 4 13 C3.01 13 2.02 13 1 13 C0.67 14.32 0.34 15.64 0 17 C-1.61725534 13.99049877 -2.67582623 11.02896392 -3.625 7.75 C-4.01558594 6.41195312 -4.01558594 6.41195312 -4.4140625 5.046875 C-4.60742188 4.37140625 -4.80078125 3.6959375 -5 3 C-2.25 0 -2.25 0 0 0 Z " fill="#E2EBF0" transform="translate(91,74)"/>
<path d="M0 0 C1.65 0 3.3 0 5 0 C5 0.99 5 1.98 5 3 C5.99 2.34 6.98 1.68 8 1 C8.99 1 9.98 1 11 1 C11.22634311 4.4157233 11.42792113 7.83247322 11.625 11.25 C11.68945312 12.21808594 11.75390625 13.18617187 11.8203125 14.18359375 C11.871875 15.11816406 11.9234375 16.05273438 11.9765625 17.015625 C12.02893066 17.87446289 12.08129883 18.73330078 12.13525391 19.61816406 C11.9870078 22.22879397 11.32298482 23.76943856 10 26 C9.34 26 8.68 26 8 26 C8.15847412 25.42926758 8.31694824 24.85853516 8.48022461 24.27050781 C8.99361343 22.02789812 9.20165896 19.96682085 9.31640625 17.671875 C9.35830078 16.87265625 9.40019531 16.0734375 9.44335938 15.25 C9.48267578 14.425 9.52199219 13.6 9.5625 12.75 C9.60568359 11.90953125 9.64886719 11.0690625 9.69335938 10.203125 C9.79908543 8.13559329 9.90001295 6.06781719 10 4 C9.67 4.99 9.34 5.98 9 7 C6.61426088 8.06946926 5.34597117 8.08896402 2.8125 7.4375 C1 6 1 6 0.25 2.875 C0.1675 1.92625 0.085 0.9775 0 0 Z " fill="#B4DCEB" transform="translate(64,112)"/>
<path d="M0 0 C0.33 0 0.66 0 1 0 C1 1.65 1 3.3 1 5 C1.99 5.33 2.98 5.66 4 6 C5.03590199 11.05002222 5.10251672 15.87416389 5 21 C3.68 21 2.36 21 1 21 C0.07811539 18.23434618 -0.11785222 16.61716298 -0.09765625 13.76953125 C-0.09282227 12.56586914 -0.09282227 12.56586914 -0.08789062 11.33789062 C-0.07951172 10.50451172 -0.07113281 9.67113281 -0.0625 8.8125 C-0.05798828 7.96751953 -0.05347656 7.12253906 -0.04882812 6.25195312 C-0.03705403 4.16793845 -0.0191189 2.08396023 0 0 Z " fill="#F9F6F4" transform="translate(96,208)"/>
<path d="M0 0 C0.66 0 1.32 0 2 0 C2 5.61 2 11.22 2 17 C1.67 17 1.34 17 1 17 C0.67 15.35 0.34 13.7 0 12 C-0.33 13.65 -0.66 15.3 -1 17 C-2.0625 15.1875 -2.0625 15.1875 -3 13 C-2.67 12.01 -2.34 11.02 -2 10 C-2.99 10.66 -3.98 11.32 -5 12 C-5 11.01 -5 10.02 -5 9 C-5.66 9.66 -6.32 10.32 -7 11 C-7 9.35 -7 7.7 -7 6 C-6.21625 5.938125 -5.4325 5.87625 -4.625 5.8125 C-3.75875 5.544375 -2.8925 5.27625 -2 5 C-0.62533375 2.52363988 -0.62533375 2.52363988 0 0 Z " fill="#E8CACA" transform="translate(41,91)"/>
<path d="M0 0 C0.33 0.99 0.66 1.98 1 3 C1.928125 3.2165625 1.928125 3.2165625 2.875 3.4375 C5.7073715 4.1872454 6.44987517 5.59730651 8 8 C7.34 8 6.68 8 6 8 C6 11.63 6 15.26 6 19 C5.01 19 4.02 19 3 19 C3 15.04 3 11.08 3 7 C2.01 7.33 1.02 7.66 0 8 C0 7.34 0 6.68 0 6 C-1.32 6.33 -2.64 6.66 -4 7 C-4 6.34 -4 5.68 -4 5 C-3.01 4.34 -2.02 3.68 -1 3 C-0.67 2.01 -0.34 1.02 0 0 Z " fill="#B4626C" transform="translate(74,90)"/>
<path d="M0 0 C0.66 0 1.32 0 2 0 C2 1.98 2 3.96 2 6 C3.65 6 5.3 6 7 6 C7 6.66 7 7.32 7 8 C7.99 8 8.98 8 10 8 C10 8.66 10 9.32 10 10 C11.32 10.33 12.64 10.66 14 11 C13.34 12.32 12.68 13.64 12 15 C9.525 14.01 9.525 14.01 7 13 C7 12.01 7 11.02 7 10 C4.69 10.33 2.38 10.66 0 11 C0 7.37 0 3.74 0 0 Z " fill="#F4E7E6" transform="translate(80,98)"/>
<path d="M0 0 C2.84381248 1.4640128 5.51980792 2.97075193 8 5 C9 8.3125 9 8.3125 9 11 C7.35 10.67 5.7 10.34 4 10 C4.33 11.32 4.66 12.64 5 14 C4.34 14 3.68 14 3 14 C2.67 14.99 2.34 15.98 2 17 C0.4943096 11.19233704 -0.21824777 6.0018137 0 0 Z " fill="#E7D0CF" transform="translate(110,92)"/>
<path d="M0 0 C0.99 0 1.98 0 3 0 C3.89604368 6.04829486 4.11269443 11.8894576 4 18 C1.525 17.01 1.525 17.01 -1 16 C-0.67 10.72 -0.34 5.44 0 0 Z " fill="#EDDEDD" transform="translate(120,165)"/>
<path d="M0 0 C0.33 0 0.66 0 1 0 C1.11381955 6.76594019 0.88021369 13.28837062 0 20 C-1.9375 19.6875 -1.9375 19.6875 -4 19 C-4.89214652 16.32356043 -5.13540211 14.74615622 -5.125 12 C-5.12757812 11.319375 -5.13015625 10.63875 -5.1328125 9.9375 C-5 8 -5 8 -4 5 C-3.34 5 -2.68 5 -2 5 C-2 6.98 -2 8.96 -2 11 C-1.34 7.37 -0.68 3.74 0 0 Z " fill="#F8F6F2" transform="translate(29,160)"/>
<path d="M0 0 C0.66 0.33 1.32 0.66 2 1 C2.69854374 3.78529516 3.26293601 6.48984823 3.75 9.3125 C3.90082031 10.08529297 4.05164063 10.85808594 4.20703125 11.65429688 C5.2223787 17.386574 5.2223787 17.386574 4.078125 20.54296875 C3.72234375 21.02378906 3.3665625 21.50460938 3 22 C1.66666667 19.33333333 0.33333333 16.66666667 -1 14 C-0.34 14 0.32 14 1 14 C0.67 13.34 0.34 12.68 0 12 C-0.07065617 9.95944995 -0.08421976 7.91665743 -0.0625 5.875 C-0.05347656 4.77929688 -0.04445313 3.68359375 -0.03515625 2.5546875 C-0.02355469 1.71164063 -0.01195313 0.86859375 0 0 Z " fill="#F6EEE6" transform="translate(86,186)"/>
<path d="M0 0 C0.99 0.495 0.99 0.495 2 1 C2.44128353 4.58307142 2.74214049 8.13911999 2.94726562 11.7421875 C3.13659521 13.93166229 3.35077201 15.89912423 4 18 C6.35879193 19.94206556 6.35879193 19.94206556 9 21 C10.8125 23.6875 10.8125 23.6875 12 26 C10.68 26.33 9.36 26.66 8 27 C7.401875 26.071875 6.80375 25.14375 6.1875 24.1875 C4.27731306 21.13364847 4.27731306 21.13364847 2.39526367 19.56518555 C0.61167641 17.56438451 0.58230249 16.42093012 0.48828125 13.76953125 C0.45283203 12.96708984 0.41738281 12.16464844 0.38085938 11.33789062 C0.35830078 10.50451172 0.33574219 9.67113281 0.3125 8.8125 C0.27833984 7.96751953 0.24417969 7.12253906 0.20898438 6.25195312 C0.12658529 4.16843351 0.06161355 2.08423784 0 0 Z " fill="#E1A9A6" transform="translate(100,275)"/>
<path d="M0 0 C-0.99 1.485 -0.99 1.485 -2 3 C-1.01 3.33 -0.02 3.66 1 4 C-0.98 4.99 -0.98 4.99 -3 6 C-3.66 5.34 -4.32 4.68 -5 4 C-6.65 4 -8.3 4 -10 4 C-10.33 10.93 -10.66 17.86 -11 25 C-11.33 25 -11.66 25 -12 25 C-12.02893932 21.37501666 -12.04677792 17.75006287 -12.0625 14.125 C-12.07087891 13.09246094 -12.07925781 12.05992188 -12.08789062 10.99609375 C-12.09111328 10.00996094 -12.09433594 9.02382812 -12.09765625 8.0078125 C-12.10289307 7.09660645 -12.10812988 6.18540039 -12.11352539 5.24658203 C-12 3 -12 3 -11 1 C-9.00390625 0.33203125 -9.00390625 0.33203125 -6.5625 -0.1875 C-5.75941406 -0.36667969 -4.95632812 -0.54585938 -4.12890625 -0.73046875 C-2 -1 -2 -1 0 0 Z " fill="#376394" transform="translate(89,108)"/>
<path d="M0 0 C1.14967155 3.44901466 0.86524622 3.77742577 -0.5 6.9375 C-2.60337366 12.7051219 -1.83918212 18.02461889 -1 24 C-1.66 24 -2.32 24 -3 24 C-3 22.35 -3 20.7 -3 19 C-3.66 19 -4.32 19 -5 19 C-4.67 15.7 -4.34 12.4 -4 9 C-4.66 8.67 -5.32 8.34 -6 8 C-5.67 7.01 -5.34 6.02 -5 5 C-4.34 5 -3.68 5 -3 5 C-2.67 4.01 -2.34 3.02 -2 2 C-1.34 1.34 -0.68 0.68 0 0 Z " fill="#F7F0EB" transform="translate(54,208)"/>
<path d="M0 0 C0.33 0.66 0.66 1.32 1 2 C0.01712992 4.00847365 -0.98377342 6.00819591 -2 8 C-2 8.99 -2 9.98 -2 11 C-2.928125 11.12375 -2.928125 11.12375 -3.875 11.25 C-6.17972859 11.79394438 -6.17972859 11.79394438 -7.0625 14 C-7.5265625 14.99 -7.5265625 14.99 -8 16 C-8.99 16.33 -9.98 16.66 -11 17 C-10.505 15.515 -10.505 15.515 -10 14 C-9.34 14 -8.68 14 -8 14 C-8 11.69 -8 9.38 -8 7 C-7.34 7.66 -6.68 8.32 -6 9 C-5.7525 8.071875 -5.505 7.14375 -5.25 6.1875 C-3.93545755 2.83541675 -3.02036616 1.8122197 0 0 Z " fill="#EDDFDB" transform="translate(46,291)"/>
<path d="M0 0 C0.33 0 0.66 0 1 0 C1.22786458 2.05078125 1.45572917 4.1015625 1.68359375 6.15234375 C1.81886614 8.01140229 1.81886614 8.01140229 3 9 C3.07226502 10.85287502 3.0838122 12.70833878 3.0625 14.5625 C3.05347656 15.57441406 3.04445313 16.58632812 3.03515625 17.62890625 C3.02355469 18.41136719 3.01195313 19.19382813 3 20 C2.01 20.33 1.02 20.66 0 21 C-0.39008806 18.25137953 -0.76250503 15.5022766 -1.125 12.75 C-1.23714844 11.97269531 -1.34929687 11.19539062 -1.46484375 10.39453125 C-2.37751589 3.27568856 -2.37751589 3.27568856 0 0 Z " fill="#FAF5F3" transform="translate(114,136)"/>
<path d="M0 0 C0.66 0 1.32 0 2 0 C2.33 1.65 2.66 3.3 3 5 C3.66 4.34 4.32 3.68 5 3 C5.66 5.97 6.32 8.94 7 12 C6.01 12 5.02 12 4 12 C3.67 13.32 3.34 14.64 3 16 C2.34 16 1.68 16 1 16 C1 15.34 1 14.68 1 14 C0.34 14 -0.32 14 -1 14 C-0.9278125 13.40832031 -0.855625 12.81664062 -0.78125 12.20703125 C-0.30089977 8.11738278 0.13310151 4.1261469 0 0 Z " fill="#F6EDEB" transform="translate(89,240)"/>
<path d="M0 0 C2.1385485 2.1385485 2.42655063 3.13275314 3 6 C3.66 6 4.32 6 5 6 C4.34 4.35 3.68 2.7 3 1 C5.31 1.33 7.62 1.66 10 2 C9.34 4.64 8.68 7.28 8 10 C6.68 9.34 5.36 8.68 4 8 C3.67 8.99 3.34 9.98 3 11 C2.34 11 1.68 11 1 11 C-0.20272819 8.59454362 -0.10071472 7.05003047 -0.0625 4.375 C-0.05347656 3.55773437 -0.04445313 2.74046875 -0.03515625 1.8984375 C-0.02355469 1.27195312 -0.01195313 0.64546875 0 0 Z " fill="#F8ECE9" transform="translate(110,100)"/>
<path d="M0 0 C1.65 0.33 3.3 0.66 5 1 C5.24954005 2.43410368 5.47392642 3.87260072 5.6875 5.3125 C5.81511719 6.11300781 5.94273438 6.91351563 6.07421875 7.73828125 C6 10 6 10 4.51953125 11.79296875 C4.01808594 12.19128906 3.51664062 12.58960938 3 13 C3 11.02 3 9.04 3 7 C-0.7763932 6.7018576 -0.7763932 6.7018576 -3 8 C-2.37240135 5.07120629 -1.41377341 2.63904371 0 0 Z " fill="#E8D2D1" transform="translate(91,145)"/>
<path d="M0 0 C2.34293081 3.51439622 2.14659323 4.46077104 1.7578125 8.54296875 C1.66113281 9.61611328 1.56445312 10.68925781 1.46484375 11.79492188 C1.35269531 12.91447266 1.24054687 14.03402344 1.125 15.1875 C1.02058594 16.31865234 0.91617188 17.44980469 0.80859375 18.61523438 C0.54904762 21.41125407 0.27912734 24.20587835 0 27 C-0.66 26.01 -1.32 25.02 -2 24 C-2.66 24.33 -3.32 24.66 -4 25 C-4 24.34 -4 23.68 -4 23 C-4.66 22.67 -5.32 22.34 -6 22 C-4.68 21.34 -3.36 20.68 -2 20 C-1.93941406 18.72382813 -1.87882812 17.44765625 -1.81640625 16.1328125 C-1.73200432 14.46352984 -1.64735614 12.79425963 -1.5625 11.125 C-1.52318359 10.28324219 -1.48386719 9.44148438 -1.44335938 8.57421875 C-1.40146484 7.76855469 -1.35957031 6.96289062 -1.31640625 6.1328125 C-1.27974854 5.38918457 -1.24309082 4.64555664 -1.20532227 3.87939453 C-1 2 -1 2 0 0 Z " fill="#C86A72" transform="translate(54,261)"/>
<path d="M0 0 C1.22602512 3.67807537 0.70295577 5.88243927 0.0625 9.6875 C-0.13214844 10.86699219 -0.32679687 12.04648438 -0.52734375 13.26171875 C-0.68332031 14.16535156 -0.83929688 15.06898438 -1 16 C-4.37191712 10.94212432 -5.23926553 8.22090367 -5 2 C-3.35 1.34 -1.7 0.68 0 0 Z " fill="#F0DBD8" transform="translate(85,181)"/>
<path d="M0 0 C2.32601085 2.85464968 3.9610176 5.45014348 5 9 C4.625 11.8125 4.625 11.8125 4 14 C1.87491756 10.81237635 1.4979837 8.73487777 1 5 C-1.64 5.33 -4.28 5.66 -7 6 C-7 6.66 -7 7.32 -7 8 C-8.32 8 -9.64 8 -11 8 C-11 7.01 -11 6.02 -11 5 C-8.03 4.34 -5.06 3.68 -2 3 C-2 2.34 -2 1.68 -2 1 C-1.34 0.67 -0.68 0.34 0 0 Z " fill="#9CA7B7" transform="translate(90,69)"/>
<path d="M0 0 C0 0.99 0 1.98 0 3 C-0.33 3.33 -0.66 3.66 -1 4 C-1.23192865 5.51469448 -1.41215238 7.03754562 -1.5625 8.5625 C-1.64628906 9.38878906 -1.73007812 10.21507812 -1.81640625 11.06640625 C-1.87699219 11.70449219 -1.93757813 12.34257812 -2 13 C-2.33 13 -2.66 13 -3 13 C-3.33 11.35 -3.66 9.7 -4 8 C-4.66 10.97 -5.32 13.94 -6 17 C-6.33 17 -6.66 17 -7 17 C-7.33 18.65 -7.66 20.3 -8 22 C-8.99 21.01 -9.98 20.02 -11 19 C-10.54554036 17.58208592 -10.08625056 16.16571954 -9.625 14.75 C-9.24214844 13.56664062 -9.24214844 13.56664062 -8.8515625 12.359375 C-7.07707723 7.44291124 -4.81926854 4.62340862 -1 1 C-0.67 0.67 -0.34 0.34 0 0 Z " fill="#C48289" transform="translate(61,166)"/>
<path d="M0 0 C1.41702513 0.14230808 2.8336096 0.28900746 4.25 0.4375 C5.43335937 0.55931641 5.43335937 0.55931641 6.640625 0.68359375 C9 1 9 1 11.234375 1.59765625 C11.81703125 1.73042969 12.3996875 1.86320312 13 2 C13.33 1.67 13.66 1.34 14 1 C15.66617115 0.95936168 17.33388095 0.957279 19 1 C16.67714464 3.58832455 14.74304376 5.65705673 11.5625 7.125 C7.60753318 6.93207479 5.81489292 4.63131295 3 2 C2.01 1.34 1.02 0.68 0 0 Z " fill="#B33A3E" transform="translate(65,65)"/>
<path d="M0 0 C0.33 0 0.66 0 1 0 C1.05434116 2.5419589 1.0938339 5.08273682 1.125 7.625 C1.14175781 8.33785156 1.15851562 9.05070313 1.17578125 9.78515625 C1.21684602 14.2612164 0.69086567 17.77949278 -1 22 C-1.33 20.68 -1.66 19.36 -2 18 C-2.66 18.33 -3.32 18.66 -4 19 C-3.01 14.71 -2.02 10.42 -1 6 C-1.66 5.67 -2.32 5.34 -3 5 C-2.03114628 3.31503702 -1.03013277 1.64821244 0 0 Z " fill="#D48F94" transform="translate(56,192)"/>
<path d="M0 0 C0.33 0 0.66 0 1 0 C1 1.98 1 3.96 1 6 C1.66 6 2.32 6 3 6 C3.33 5.01 3.66 4.02 4 3 C4.99 4.485 4.99 4.485 6 6 C5.5390625 8.26171875 5.5390625 8.26171875 4.625 10.6875 C4.32851563 11.49574219 4.03203125 12.30398437 3.7265625 13.13671875 C3.48679688 13.75160156 3.24703125 14.36648437 3 15 C2.34 15 1.68 15 1 15 C-0.44207941 12.11584117 -0.09394887 9.58278472 -0.0625 6.375 C-0.05347656 5.18648437 -0.04445312 3.99796875 -0.03515625 2.7734375 C-0.02355469 1.85820312 -0.01195312 0.94296875 0 0 Z " fill="#F7F4ED" transform="translate(53,179)"/>
<path d="M0 0 C0.33 0 0.66 0 1 0 C1.82818675 4.28327834 2.08164927 8.26697016 2 12.625 C1.93069461 16.34150152 2.09205354 19.41685414 3 23 C2.67 23.66 2.34 24.32 2 25 C1.34 25 0.68 25 0 25 C-0.19456705 23.04235617 -0.38044247 21.08384679 -0.5625 19.125 C-0.71912109 17.48917969 -0.71912109 17.48917969 -0.87890625 15.8203125 C-1 13 -1 13 0 11 C-0.11231685 9.49495425 -0.28656253 7.99406232 -0.5 6.5 C-1.11111111 2.22222222 -1.11111111 2.22222222 0 0 Z " fill="#F5E6E3" transform="translate(32,151)"/>
<path d="M0 0 C0.33 0 0.66 0 1 0 C1 5.61 1 11.22 1 17 C0.34 17 -0.32 17 -1 17 C-1.33 18.32 -1.66 19.64 -2 21 C-3.409845 13.30993638 -2.23007556 7.4461845 0 0 Z " fill="#F5E3E1" transform="translate(66,187)"/>
<path d="M0 0 C2.81484045 2.81484045 2.62757042 5.2166247 3.125 9.125 C3.29257813 10.40632812 3.46015625 11.68765625 3.6328125 13.0078125 C3.81457031 14.48894531 3.81457031 14.48894531 4 16 C3.34 15.34 2.68 14.68 2 14 C1.67 16.64 1.34 19.28 1 22 C0.67 22 0.34 22 0 22 C-1.06755357 14.6605692 -1.87744205 7.27508794 0 0 Z " fill="#D08D8E" transform="translate(120,128)"/>
<path d="M0 0 C1.485 0.99 1.485 0.99 3 2 C3 2.66 3 3.32 3 4 C5.31 4.66 7.62 5.32 10 6 C10 6.66 10 7.32 10 8 C11.98 8 13.96 8 16 8 C16.33 7.01 16.66 6.02 17 5 C17.33 5.99 17.66 6.98 18 8 C14.29873141 10.46751239 12.37776468 10.30721156 8 10 C5.5625 9 5.5625 9 4 8 C4 7.01 4 6.02 4 5 C3.01 4.67 2.02 4.34 1 4 C0.3125 1.9375 0.3125 1.9375 0 0 Z " fill="#99292E" transform="translate(71,85)"/>
<path d="M0 0 C4.04397819 4.04397819 4.125 11.10384145 4.125 16.625 C4.08375 17.73875 4.0425 18.8525 4 20 C3.34 20 2.68 20 2 20 C0.71682108 16.15046324 0.93356363 13.05261865 1 9 C0.34 9 -0.32 9 -1 9 C-0.67 6.03 -0.34 3.06 0 0 Z " fill="#F9F3EB" transform="translate(90,204)"/>
<path d="M0 0 C0.33 0 0.66 0 1 0 C1.103125 1.093125 1.20625 2.18625 1.3125 3.3125 C1.62813565 6.93446351 1.62813565 6.93446351 3.625 8.625 C4.07875 9.07875 4.5325 9.5325 5 10 C4.8513992 12.97201597 4.40282185 14.51325693 2.5 16.8125 C1 18 1 18 0 18 C0 12.06 0 6.12 0 0 Z " fill="#EBC5C7" transform="translate(44,88)"/>
<path d="M0 0 C1 2 1 2 0.125 4.6875 C-0.24625 5.780625 -0.6175 6.87375 -1 8 C-1.37531446 10.32694964 -1.71917202 12.65976685 -2 15 C-3.65 15.66 -5.3 16.32 -7 17 C-7 13 -7 13 -6 11 C-5.34 11 -4.68 11 -4 11 C-4.04125 10.0925 -4.0825 9.185 -4.125 8.25 C-4.00398426 5.10359074 -3.71895868 3.57843802 -2 1 C-1.34 0.67 -0.68 0.34 0 0 Z " fill="#186598" transform="translate(67,148)"/>
<path d="M0 0 C0.18451025 10.55808656 0.18451025 10.55808656 -1 15 C-1.33 15 -1.66 15 -2 15 C-2.33 12.69 -2.66 10.38 -3 8 C-3.66 8 -4.32 8 -5 8 C-5.66 9.32 -6.32 10.64 -7 12 C-6.39294514 7.87202695 -5.06000669 4.62561178 -3 1 C-1 0 -1 0 0 0 Z " fill="#DEACB0" transform="translate(64,180)"/>
<path d="M0 0 C3.61284925 0.1570804 5.51787248 0.61937301 8.375 2.875 C10 5 10 5 10 8 C9.01 8.33 8.02 8.66 7 9 C6.34 8.67 5.68 8.34 5 8 C5.33 7.01 5.66 6.02 6 5 C3.69 5 1.38 5 -1 5 C-1.33 4.01 -1.66 3.02 -2 2 C-1.34 1.34 -0.68 0.68 0 0 Z " fill="#F5EFEF" transform="translate(64,66)"/>
<path d="M0 0 C3.5625 0.3125 3.5625 0.3125 5.5 1.375 C7.11729605 4.32418691 6.74880138 7.02117559 6.5625 10.3125 C4.22916667 7.97916667 1.89583333 5.64583333 -0.4375 3.3125 C-3.00811311 2.66482207 -3.00811311 2.66482207 -5.4375 2.3125 C-3.4375 0.3125 -3.4375 0.3125 0 0 Z " fill="#E3BFBD" transform="translate(105.4375,65.6875)"/>
<path d="M0 0 C0.33 0 0.66 0 1 0 C1.103125 0.9075 1.20625 1.815 1.3125 2.75 C1.73975691 5.9904934 1.73975691 5.9904934 3.625 8 C5 10 5 10 4.75 13 C4.5025 13.99 4.255 14.98 4 16 C3.814375 16.78375 3.62875 17.5675 3.4375 18.375 C3.293125 18.91125 3.14875 19.4475 3 20 C3 19.01 3 18.02 3 17 C2.34 17 1.68 17 1 17 C0.67 17.99 0.34 18.98 0 20 C-1.17829199 17.64341603 -1.04414372 16.47426764 -0.87890625 13.8671875 C-0.83056641 13.06152344 -0.78222656 12.25585938 -0.73242188 11.42578125 C-0.67634766 10.58402344 -0.62027344 9.74226562 -0.5625 8.875 C-0.51029297 8.02550781 -0.45808594 7.17601562 -0.40429688 6.30078125 C-0.27448622 4.20020876 -0.1378826 2.10005809 0 0 Z " fill="#E39090" transform="translate(94,220)"/>
<path d="M0 0 C0.66 0.33 1.32 0.66 2 1 C2.44041451 6.37305699 2.44041451 6.37305699 2 9 C-0.5 11 -0.5 11 -3 12 C-4.29922995 9.4015401 -3.81286289 8.24038549 -3.1875 5.4375 C-3.01605469 4.63183594 -2.84460938 3.82617188 -2.66796875 2.99609375 C-2 1 -2 1 0 0 Z " fill="#ECF4F5" transform="translate(84,154)"/>
<path d="M0 0 C0.66 0 1.32 0 2 0 C2.99 1.98 3.98 3.96 5 6 C4.34 6 3.68 6 3 6 C2.67 7.32 2.34 8.64 2 10 C1.67 9.34 1.34 8.68 1 8 C0.34 8 -0.32 8 -1 8 C-1.33 8.99 -1.66 9.98 -2 11 C-2.05399736 9.54207116 -2.09279177 8.08357288 -2.125 6.625 C-2.15980469 5.40683594 -2.15980469 5.40683594 -2.1953125 4.1640625 C-2 2 -2 2 0 0 Z " fill="#E9F2F8" transform="translate(75,139)"/>
<path d="M0 0 C1.32 0 2.64 0 4 0 C4.33730842 1.43657245 4.66969591 2.87430093 5 4.3125 C5.185625 5.11300781 5.37125 5.91351563 5.5625 6.73828125 C6 9 6 9 6 12 C3 11 3 11 1.83203125 8.71484375 C1.49558594 7.79832031 1.15914063 6.88179687 0.8125 5.9375 C0.46832031 5.01839844 0.12414062 4.09929687 -0.23046875 3.15234375 C-0.48441406 2.44207031 -0.73835938 1.73179687 -1 1 C-0.67 0.67 -0.34 0.34 0 0 Z " fill="#F8F2F1" transform="translate(83,136)"/>
<path d="M0 0 C3.26941682 0.94641013 4.66822278 1.41184947 6.375 4.4375 C7 7 7 7 6 10 C6.33 10.66 6.66 11.32 7 12 C4.64828869 11.40138258 2.3140622 10.73075648 0 10 C-0.33 9.34 -0.66 8.68 -1 8 C-0.01 7.01 0.98 6.02 2 5 C1.34 3.35 0.68 1.7 0 0 Z " fill="#DAB6B5" transform="translate(113,293)"/>
<path d="M0 0 C1.81247921 3.62495842 2.24864042 4.5951706 2.1953125 8.328125 C2.18886719 9.12734375 2.18242188 9.9265625 2.17578125 10.75 C2.15902344 11.575 2.14226562 12.4 2.125 13.25 C2.11146484 14.51070313 2.11146484 14.51070313 2.09765625 15.796875 C2.07415817 17.86470604 2.03828908 19.93238995 2 22 C1.71125 21.360625 1.4225 20.72125 1.125 20.0625 C0.17176549 17.84793921 0.17176549 17.84793921 -2 17 C-2 14.03 -2 11.06 -2 8 C-1.01 8.495 -1.01 8.495 0 9 C0 6.03 0 3.06 0 0 Z " fill="#F6F2ED" transform="translate(99,263)"/>
<path d="M0 0 C2.09350689 3.4019487 2.17942163 6.05272412 2 10 C1.67 10 1.34 10 1 10 C1 14.29 1 18.58 1 23 C0.34 23 -0.32 23 -1 23 C-1.16858098 20.9168207 -1.33479255 18.83344956 -1.5 16.75 C-1.5928125 15.58984375 -1.685625 14.4296875 -1.78125 13.234375 C-2.42982456 3.64473684 -2.42982456 3.64473684 0 0 Z " fill="#D37D85" transform="translate(86,177)"/>
<path d="M0 0 C2.475 0.99 2.475 0.99 5 2 C4.34 3.32 3.68 4.64 3 6 C3.66 6.33 4.32 6.66 5 7 C0.375 12.875 0.375 12.875 -3 14 C-2.625 11.5625 -2.625 11.5625 -2 9 C-1.34 8.67 -0.68 8.34 0 8 C0 5.36 0 2.72 0 0 Z " fill="#F8E3E3" transform="translate(57,159)"/>
<path d="M0 0 C3 1 3 1 5 4 C4.67 4.66 4.34 5.32 4 6 C4.66 6.33 5.32 6.66 6 7 C3.69 7 1.38 7 -1 7 C-1 6.34 -1 5.68 -1 5 C-2.32 4.67 -3.64 4.34 -5 4 C-2.6875 1.9375 -2.6875 1.9375 0 0 Z " fill="#E1E4ED" transform="translate(84,66)"/>
<path d="M0 0 C0.33 0 0.66 0 1 0 C3.41817494 9.9336539 3.41817494 9.9336539 1.75 14.1875 C0.88375 15.0846875 0.88375 15.0846875 0 16 C-0.66 16 -1.32 16 -2 16 C-2.2396943 10.36718401 -1.38529821 5.45461169 0 0 Z " fill="#F6FAF6" transform="translate(37,138)"/>
<path d="M0 0 C0.66 0.33 1.32 0.66 2 1 C1.48964169 5.3890815 0.47785723 8.33708062 -2 12 C-2.99 10.68 -3.98 9.36 -5 8 C-3.35 5.36 -1.7 2.72 0 0 Z " fill="#F7E9E9" transform="translate(55,252)"/>
<path d="M0 0 C2.23413013 3.35119519 2.23847762 4.4177755 2.1953125 8.32421875 C2.18886719 9.35224609 2.18242188 10.38027344 2.17578125 11.43945312 C2.15902344 12.51130859 2.14226562 13.58316406 2.125 14.6875 C2.11597656 15.77095703 2.10695313 16.85441406 2.09765625 17.97070312 C2.0740734 20.6473571 2.04116126 23.32356797 2 26 C0.22205805 22.69019803 -0.22445057 20.52912179 -0.125 16.75 C-0.09792969 15.41195312 -0.09792969 15.41195312 -0.0703125 14.046875 C-0.04710938 13.37140625 -0.02390625 12.6959375 0 12 C-0.33 12 -0.66 12 -1 12 C-1.14285714 3.42857143 -1.14285714 3.42857143 0 0 Z " fill="#D08B90" transform="translate(66,178)"/>
<path d="M0 0 C0.33 0 0.66 0 1 0 C1.48828125 2.01822917 1.9765625 4.03645833 2.46484375 6.0546875 C2.94846992 8.0585657 2.94846992 8.0585657 4 10 C3.67 10.66 3.34 11.32 3 12 C2.34 12 1.68 12 1 12 C0.67 11.34 0.34 10.68 0 10 C-0.33 10.66 -0.66 11.32 -1 12 C-1.66 12 -2.32 12 -3 12 C-2.88541307 10.56163249 -2.75790884 9.12429034 -2.625 7.6875 C-2.55539063 6.88699219 -2.48578125 6.08648437 -2.4140625 5.26171875 C-2 3 -2 3 0 0 Z " fill="#F0DCDC" transform="translate(57,173)"/>
<path d="M0 0 C5.875 3.625 5.875 3.625 7 7 C6.01 8.485 6.01 8.485 5 10 C3.68 9.34 2.36 8.68 1 8 C1 6.68 1 5.36 1 4 C0.7018576 2.65835921 0.37756808 1.32148827 0 0 Z " fill="#FCF3F3" transform="translate(109,291)"/>
<path d="M0 0 C0.33 0 0.66 0 1 0 C3.27678571 8.03571429 3.27678571 8.03571429 2 12 C1.67 11.01 1.34 10.02 1 9 C1 11.64 1 14.28 1 17 C1.99 17.33 2.98 17.66 4 18 C2.68 18 1.36 18 0 18 C-1.31544817 15.36910365 -1.41195717 13.05219528 -1.6875 10.125 C-1.79449219 9.07570312 -1.90148438 8.02640625 -2.01171875 6.9453125 C-1.99979742 3.94908373 -1.57606527 2.4999656 0 0 Z " fill="#CE7F86" transform="translate(53,214)"/>
<path d="M0 0 C0.33 0.99 0.66 1.98 1 3 C2.32 2.34 3.64 1.68 5 1 C2 8.57142857 2 8.57142857 -1 11 C-2.60355101 7.49223216 -3.22036864 4.85645121 -3 1 C-2.01 0.67 -1.02 0.34 0 0 Z " fill="#F3E7E6" transform="translate(36,99)"/>
<path d="M0 0 C2.0625 1.5625 2.0625 1.5625 4 4 C3.6875 7.25 3.6875 7.25 3 11 C3.17099749 13.71221017 3.57538915 16.31079794 4 19 C3.34 19 2.68 19 2 19 C1.87625 18.195625 1.7525 17.39125 1.625 16.5625 C1.315625 15.2940625 1.315625 15.2940625 1 14 C0.34 13.67 -0.32 13.34 -1 13 C-1 12.01 -1 11.02 -1 10 C-0.34 10 0.32 10 1 10 C0.67 6.7 0.34 3.4 0 0 Z " fill="#D8A6A9" transform="translate(102,253)"/>
<path d="M0 0 C1.485 0.99 1.485 0.99 3 2 C3.29296875 4.8203125 3.29296875 4.8203125 3.1875 8.125 C3.16042969 9.22070312 3.13335937 10.31640625 3.10546875 11.4453125 C3.07066406 12.28835937 3.03585938 13.13140625 3 14 C2.01 14 1.02 14 0 14 C0 9.38 0 4.76 0 0 Z " fill="#FDFAF9" transform="translate(57,194)"/>
<path d="M0 0 C1.5078125 0.98046875 1.5078125 0.98046875 3 3 C3.13612925 5.8794296 3.09791274 8.46067074 2.875 11.3125 C2.83890625 12.05951172 2.8028125 12.80652344 2.765625 13.57617188 C2.44824255 18.33273255 1.57384031 21.87033085 -1 26 C-1.66 26.33 -2.32 26.66 -3 27 C-2.505 25.88625 -2.01 24.7725 -1.5 23.625 C1.08634685 16.08452398 0.22888596 7.85841791 0 0 Z " fill="#C3676F" transform="translate(31,130)"/>
<path d="M0 0 C3.50119698 4.56677867 4.11961078 6.79970067 4.0625 12.625 C4.05347656 13.81351563 4.04445313 15.00203125 4.03515625 16.2265625 C4.02355469 17.14179688 4.01195313 18.05703125 4 19 C3.67 19 3.34 19 3 19 C2.49356447 16.77228658 1.9951038 14.54275924 1.5 12.3125 C1.2215625 11.07113281 0.943125 9.82976562 0.65625 8.55078125 C0.10645874 5.57601782 -0.13795705 3.00631398 0 0 Z " fill="#F8EEEB" transform="translate(115,128)"/>
<path d="M0 0 C0.33 0 0.66 0 1 0 C1.33 3.96 1.66 7.92 2 12 C3.65 12 5.3 12 7 12 C6.67 12.99 6.34 13.98 6 15 C6.66 15.33 7.32 15.66 8 16 C5.36 16 2.72 16 0 16 C0 10.72 0 5.44 0 0 Z " fill="#F5E0DF" transform="translate(84,48)"/>
<path d="M0 0 C0.91058531 3.07322544 1.08886184 5.80097361 1 9 C1.33 9 1.66 9 2 9 C1.67 11.64 1.34 14.28 1 17 C-0.65 17.33 -2.3 17.66 -4 18 C-3.68160156 17.45472656 -3.36320312 16.90945312 -3.03515625 16.34765625 C-1.8327194 13.62062023 -1.62724894 11.40485043 -1.4375 8.4375 C-1.23116194 5.33400708 -0.98863604 2.96590813 0 0 Z " fill="#D8ADAB" transform="translate(57,236)"/>
<path d="M0 0 C0.99 0 1.98 0 3 0 C3.33 4.29 3.66 8.58 4 13 C3.34 13 2.68 13 2 13 C-1.62870159 4.738041 -1.62870159 4.738041 0 0 Z " fill="#EACECC" transform="translate(105,96)"/>
<path d="M0 0 C0.66 0.33 1.32 0.66 2 1 C1.67 4.96 1.34 8.92 1 13 C1.99 13.66 2.98 14.32 4 15 C3.01 15.495 3.01 15.495 2 16 C1.01 15.67 0.02 15.34 -1 15 C-1 14.01 -1 13.02 -1 12 C-1.66 12 -2.32 12 -3 12 C-3.33 10.68 -3.66 9.36 -4 8 C-2.68 8.33 -1.36 8.66 0 9 C0 7.02 0 5.04 0 3 C-1.32 2.67 -2.64 2.34 -4 2 C-2.68 2 -1.36 2 0 2 C0 1.34 0 0.68 0 0 Z " fill="#B7504A" transform="translate(83,75)"/>
<path d="M0 0 C0.33 0 0.66 0 1 0 C1 3.3 1 6.6 1 10 C-0.32 10 -1.64 10 -3 10 C-3.23226952 6.59338044 -3.35720302 4.59016151 -1.5625 1.625 C-0.7890625 0.820625 -0.7890625 0.820625 0 0 Z " fill="#F9F3F1" transform="translate(52,284)"/>
<path d="M0 0 C0.33 0 0.66 0 1 0 C1 3.3 1 6.6 1 10 C-0.65 10.66 -2.3 11.32 -4 12 C-4.66 11.34 -5.32 10.68 -6 10 C-5.38125 9.649375 -4.7625 9.29875 -4.125 8.9375 C-1.24445747 6.31112298 -0.84537162 3.73372463 0 0 Z " fill="#DF9E9E" transform="translate(54,287)"/>
<path d="M0 0 C2 1.125 2 1.125 4 3 C4.25 6.1875 4.25 6.1875 4 9 C4.66 9 5.32 9 6 9 C6 9.66 6 10.32 6 11 C1.125 9.125 1.125 9.125 0 8 C-0.14115161 5.32941149 -0.04247107 2.67567762 0 0 Z " fill="#F8EFE8" transform="translate(103,285)"/>
<path d="M0 0 C0.99 0.495 0.99 0.495 2 1 C2 2.65 2 4.3 2 6 C2.99 5.67 3.98 5.34 5 5 C5.33 6.98 5.66 8.96 6 11 C4.68 10.34 3.36 9.68 2 9 C2 11.64 2 14.28 2 17 C1.67 17 1.34 17 1 17 C0.67 11.39 0.34 5.78 0 0 Z " fill="#F1D9D0" transform="translate(102,266)"/>
<path d="M0 0 C0.33 0.66 0.66 1.32 1 2 C1.66 2 2.32 2 3 2 C3.3125 4.1875 3.3125 4.1875 3 7 C0.5 9.8125 0.5 9.8125 -2 12 C-3.40907283 9.18185434 -2.50872691 7.82722796 -1.5625 4.875 C-1.27503906 3.96492187 -0.98757812 3.05484375 -0.69140625 2.1171875 C-0.46324219 1.41851562 -0.23507813 0.71984375 0 0 Z " fill="#F7ECE8" transform="translate(59,251)"/>
<path d="M0 0 C4 4.625 4 4.625 4 8 C3.34 8.66 2.68 9.32 2 10 C1.35232207 12.57061311 1.35232207 12.57061311 1 15 C-1.14699969 11.55824478 -1.09856795 9.2279708 -0.625 5.25 C-0.51414062 4.26515625 -0.40328125 3.2803125 -0.2890625 2.265625 C-0.19367188 1.51796875 -0.09828125 0.7703125 0 0 Z " fill="#BD7E87" transform="translate(121,151)"/>
<path d="M0 0 C1.4606285 2.64738916 2 3.89448334 2 7 C2.99 7 3.98 7 5 7 C5 8.65 5 10.3 5 12 C3.33333333 12 1.66666667 12 0 12 C-0.19477739 10.37585622 -0.38059458 8.75063577 -0.5625 7.125 C-0.66691406 6.22007812 -0.77132812 5.31515625 -0.87890625 4.3828125 C-1 2 -1 2 0 0 Z " fill="#1F659D" transform="translate(86,151)"/>
<path d="M0 0 C0.66 0.33 1.32 0.66 2 1 C1.34 1.66 0.68 2.32 0 3 C-0.71927295 5.31765729 -1.3909893 7.65095874 -2 10 C-2.66 9.01 -3.32 8.02 -4 7 C-4.66 8.65 -5.32 10.3 -6 12 C-6.66 11.34 -7.32 10.68 -8 10 C-7.23721377 8.7035649 -6.46443041 7.41300852 -5.6875 6.125 C-5.25824219 5.40570313 -4.82898437 4.68640625 -4.38671875 3.9453125 C-3 2 -3 2 0 0 Z " fill="#D6B7B9" transform="translate(42,292)"/>
<path d="M0 0 C0.99 0.33 1.98 0.66 3 1 C3 2.98 3 4.96 3 7 C1.68 7 0.36 7 -1 7 C-1.33 8.32 -1.66 9.64 -2 11 C-2.66 10.34 -3.32 9.68 -4 9 C-2.68 6.03 -1.36 3.06 0 0 Z " fill="#F5F3EB" transform="translate(44,106)"/>
<path d="M0 0 C4.875 1.75 4.875 1.75 6 4 C4.35 5.65 2.7 7.3 1 9 C1 6 1 6 2 4 C0.35 4 -1.3 4 -3 4 C-3 3.34 -3 2.68 -3 2 C-2.01 2 -1.02 2 0 2 C0 1.34 0 0.68 0 0 Z " fill="#369AC8" transform="translate(67,108)"/>
<path d="M0 0 C0.66 0 1.32 0 2 0 C2 3.63 2 7.26 2 11 C1.01 11 0.02 11 -1 11 C-1.02688151 9.35425434 -1.04634123 7.70838587 -1.0625 6.0625 C-1.07410156 5.14597656 -1.08570312 4.22945313 -1.09765625 3.28515625 C-1 1 -1 1 0 0 Z " fill="#3F87B6" transform="translate(75,97)"/>
<path d="M0 0 C2.95813066 4.43719599 3.1143157 7.45411417 3.0625 12.6875 C3.05347656 13.86699219 3.04445313 15.04648438 3.03515625 16.26171875 C3.02355469 17.16535156 3.01195313 18.06898437 3 19 C2.67 19 2.34 19 2 19 C2 17.02 2 15.04 2 13 C1.01 12.67 0.02 12.34 -1 12 C-0.34 11.01 0.32 10.02 1 9 C0.65555119 6.52733235 0.65555119 6.52733235 0 4 C0 2.68 0 1.36 0 0 Z " fill="#F7ECE5" transform="translate(105,76)"/>
<path d="M0 0 C0.66 0 1.32 0 2 0 C1.67 1.98 1.34 3.96 1 6 C1.99 6.33 2.98 6.66 4 7 C2.80023567 10.08510827 1.49997444 13.05047042 0 16 C-0.19504458 13.89651926 -0.38078496 11.79217415 -0.5625 9.6875 C-0.66691406 8.51574219 -0.77132812 7.34398437 -0.87890625 6.13671875 C-1 3 -1 3 0 0 Z " fill="#E6D3D3" transform="translate(65,18)"/>
<path d="M0 0 C0.66 0 1.32 0 2 0 C1.39301257 4.12751449 -0.03810791 7.3321148 -2 11 C-3.125 9.3125 -3.125 9.3125 -4 7 C-3.1144582 3.9006037 -2.28724116 2.28724116 0 0 Z " fill="#ECC3C4" transform="translate(35,123)"/>
<path d="M0 0 C0 2.97 0 5.94 0 9 C-0.33 9 -0.66 9 -1 9 C-1.33 7.35 -1.66 5.7 -2 4 C-2.33 5.65 -2.66 7.3 -3 9 C-4.0625 7.1875 -4.0625 7.1875 -5 5 C-4.67 4.01 -4.34 3.02 -4 2 C-4.99 2.66 -5.98 3.32 -7 4 C-6.67 2.68 -6.34 1.36 -6 0 C-2.25 -1.125 -2.25 -1.125 0 0 Z " fill="#DFC1C0" transform="translate(43,99)"/>
<path d="M0 0 C0.66 0.99 1.32 1.98 2 3 C1.34 3 0.68 3 0 3 C0 4.65 0 6.3 0 8 C1.32 6.68 2.64 5.36 4 4 C3.67 6.31 3.34 8.62 3 11 C1.0625 11.5625 1.0625 11.5625 -1 12 C-2 11 -2 11 -2.1875 7.6875 C-2.01798052 4.35361682 -1.75557129 2.74308013 0 0 Z " fill="#E5C2BF" transform="translate(41,73)"/>
<path d="M0 0 C0.99 0 1.98 0 3 0 C3 1.65 3 3.3 3 5 C3.99 5.33 4.98 5.66 6 6 C6 7.98 6 9.96 6 12 C2.59156258 9.11593757 1.13408616 7.6291735 0.1875 3.1875 C0.125625 2.135625 0.06375 1.08375 0 0 Z " fill="#F7ECEB" transform="translate(66,173)"/>
<path d="M0 0 C1.32 0.33 2.64 0.66 4 1 C4 1.66 4 2.32 4 3 C5.32 3.33 6.64 3.66 8 4 C7.34 5.32 6.68 6.64 6 8 C3.525 7.01 3.525 7.01 1 6 C1 5.01 1 4.02 1 3 C0.67 2.01 0.34 1.02 0 0 Z " fill="#E1F0F5" transform="translate(86,105)"/>
<path d="M0 0 C-1.49097658 3.7952131 -3.75700849 5.61042731 -7 8 C-7.36275695 3.52599758 -7.36275695 3.52599758 -5.75 1.1875 C-4 0 -4 0 0 0 Z " fill="#ECCEC8" transform="translate(50,284)"/>
<path d="M0 0 C1.1171875 1.734375 1.1171875 1.734375 2 4 C1.3203125 6.140625 1.3203125 6.140625 0.125 8.25 C-0.26429687 8.95640625 -0.65359375 9.6628125 -1.0546875 10.390625 C-1.36664063 10.92171875 -1.67859375 11.4528125 -2 12 C-4 9 -4 9 -3.8125 5.4375 C-3 2 -3 2 0 0 Z " fill="#ECDEDC" transform="translate(53,192)"/>
<path d="M0 0 C0.33 0 0.66 0 1 0 C1 2.64 1 5.28 1 8 C1.66 8 2.32 8 3 8 C2.39773952 12.21582339 1.42902856 12.57097144 -2 16 C-1.34 10.72 -0.68 5.44 0 0 Z " fill="#FAF4F3" transform="translate(31,168)"/>
<path d="M0 0 C1.33333333 0 2.66666667 0 4 0 C4 3.63 4 7.26 4 11 C0.88776687 6.85035583 0.47996422 4.99162787 0 0 Z " fill="#E8CDCC" transform="translate(116,122)"/>
<path d="M0 0 C0.33 0 0.66 0 1 0 C1.33 6.27 1.66 12.54 2 19 C-0.97 19 -3.94 19 -7 19 C-7 18.67 -7 18.34 -7 18 C-5.02 17.67 -3.04 17.34 -1 17 C-0.67 11.39 -0.34 5.78 0 0 Z " fill="#F7E9E7" transform="translate(67,45)"/>
<path d="M0 0 C0.33 0.66 0.66 1.32 1 2 C0.22265625 3.7265625 0.22265625 3.7265625 -0.9375 5.625 C-1.618125 6.73875 -2.29875 7.8525 -3 9 C-3.66 9 -4.32 9 -5 9 C-5.3125 6.75 -5.3125 6.75 -5 4 C-2.5 1.6875 -2.5 1.6875 0 0 Z " fill="#FBF3F2" transform="translate(46,291)"/>
<path d="M0 0 C0.99 0 1.98 0 3 0 C4.60725635 3.21451269 4.05748185 6.43612536 4 10 C1.2027092 7.93243723 0.97307727 6.85559629 0.3125 3.3125 C0.209375 2.219375 0.10625 1.12625 0 0 Z " fill="#F4F1ED" transform="translate(99,253)"/>
<path d="M0 0 C1.52299523 2.93720508 2.80100302 5.9168649 4 9 C2.02 9.33 0.04 9.66 -2 10 C-2.25 3.375 -2.25 3.375 0 0 Z " fill="#C2696B" transform="translate(94,239)"/>
<path d="M0 0 C0.66 0 1.32 0 2 0 C2 2.97 2 5.94 2 9 C0.68 9 -0.64 9 -2 9 C-1.34 6.03 -0.68 3.06 0 0 Z " fill="#F0D8D2" transform="translate(99,220)"/>
<path d="M0 0 C0.66 0.33 1.32 0.66 2 1 C2 4.96 2 8.92 2 13 C1.01 13 0.02 13 -1 13 C-0.67 8.71 -0.34 4.42 0 0 Z " fill="#971C25" transform="translate(78,96)"/>
<path d="M0 0 C1.65 0 3.3 0 5 0 C5.25 6.625 5.25 6.625 3 10 C2.01 6.7 1.02 3.4 0 0 Z " fill="#F9F4EE" transform="translate(86,77)"/>
<path d="M0 0 C-0.33 0.99 -0.66 1.98 -1 3 C-1.99 3 -2.98 3 -4 3 C-4.33 3.99 -4.66 4.98 -5 6 C-5 5.01 -5 4.02 -5 3 C-6.32 3.33 -7.64 3.66 -9 4 C-9 3.01 -9 2.02 -9 1 C-6.04335481 -0.4783226 -3.25770263 -0.06032783 0 0 Z " fill="#A43D43" transform="translate(83,71)"/>
<path d="M0 0 C2.61109045 3.82959933 1.86230768 6.8261539 1.125 11.25 C0.92132813 12.51328125 0.71765625 13.7765625 0.5078125 15.078125 C0.34023437 16.04234375 0.17265625 17.0065625 0 18 C-0.33 18 -0.66 18 -1 18 C-0.98839844 17.09636719 -0.97679688 16.19273438 -0.96484375 15.26171875 C-0.95582031 14.08222656 -0.94679688 12.90273438 -0.9375 11.6875 C-0.92589844 10.51574219 -0.91429688 9.34398437 -0.90234375 8.13671875 C-0.85100102 4.96940805 -0.85100102 4.96940805 -2 2 C-1.34 2 -0.68 2 0 2 C0 1.34 0 0.68 0 0 Z " fill="#F7EAEC" transform="translate(85,30)"/>
<path d="M0 0 C0.33 0 0.66 0 1 0 C1 3.96 1 7.92 1 12 C0.67 10.68 0.34 9.36 0 8 C-0.66 8 -1.32 8 -2 8 C-2.33 8.66 -2.66 9.32 -3 10 C-2.49287967 6.28111761 -1.88391785 3.26545761 0 0 Z " fill="#E8C9CA" transform="translate(31,136)"/>
<path d="M0 0 C0.33 0 0.66 0 1 0 C0.67 3.63 0.34 7.26 0 11 C-0.66 10.67 -1.32 10.34 -2 10 C-2.66 10.99 -3.32 11.98 -4 13 C-3.50269348 8.02693484 -2.44697666 4.36200187 0 0 Z " fill="#F4D3D0" transform="translate(37,127)"/>
<path d="M0 0 C0.99 0.33 1.98 0.66 3 1 C2.67 7.93 2.34 14.86 2 22 C1.67 22 1.34 22 1 22 C0.67 14.74 0.34 7.48 0 0 Z " fill="#1D85CB" transform="translate(75,108)"/>
<path d="M0 0 C0.33 0 0.66 0 1 0 C1.27429625 5.39449293 1.36055646 8.51925805 -2 13 C-3.18771723 9.57056481 -2.80226223 7.62215325 -1.5625 4.25 C-1.27503906 3.45078125 -0.98757812 2.6515625 -0.69140625 1.828125 C-0.46324219 1.22484375 -0.23507813 0.6215625 0 0 Z " fill="#F3EDE7" transform="translate(41,102)"/>
<path d="M0 0 C0.99 0.99 1.98 1.98 3 3 C3.66 2.34 4.32 1.68 5 1 C5.33 3.31 5.66 5.62 6 8 C3.50638429 6.79618552 1.31856917 5.54571278 -1 4 C-0.67 2.68 -0.34 1.36 0 0 Z " fill="#D27266" transform="translate(84,84)"/>
<path d="M0 0 C2 3 2 3 4 8 C-0.95 7.67 -5.9 7.34 -11 7 C-11 6.67 -11 6.34 -11 6 C-7.37 6 -3.74 6 0 6 C0 4.02 0 2.04 0 0 Z " fill="#CE555C" transform="translate(69,58)"/>
<path d="M0 0 C0.99 0.33 1.98 0.66 3 1 C3.6875 3.0625 3.6875 3.0625 4 5 C3.38125 5.12375 2.7625 5.2475 2.125 5.375 C-0.19120832 5.87197356 -0.19120832 5.87197356 -2 8 C-2 7.34 -2 6.68 -2 6 C-2.66 5.67 -3.32 5.34 -4 5 C-2.68 3.35 -1.36 1.7 0 0 Z " fill="#EBD3D4" transform="translate(48,298)"/>
<path d="M0 0 C0.66 0 1.32 0 2 0 C2.33 3.96 2.66 7.92 3 12 C2.34 12 1.68 12 1 12 C1 10.35 1 8.7 1 7 C0.34 7 -0.32 7 -1 7 C-0.67 4.69 -0.34 2.38 0 0 Z " fill="#F0DCD8" transform="translate(50,220)"/>
<path d="M0 0 C0.33 0 0.66 0 1 0 C2.42857143 8.57142857 2.42857143 8.57142857 0 12 C-1.33333333 9.33333333 -2.66666667 6.66666667 -4 4 C-3.01 4 -2.02 4 -1 4 C-0.67 2.68 -0.34 1.36 0 0 Z " fill="#EBCCC7" transform="translate(89,196)"/>
<path d="M0 0 C0.12375 0.639375 0.2475 1.27875 0.375 1.9375 C0.58125 2.618125 0.7875 3.29875 1 4 C1.66 4.33 2.32 4.66 3 5 C2.67 8.63 2.34 12.26 2 16 C1.67 16 1.34 16 1 16 C-1.48063781 5.62642369 -1.48063781 5.62642369 0 0 Z " fill="#DDB0B5" transform="translate(118,160)"/>
<path d="M0 0 C2 1.625 2 1.625 4 4 C4.25 7.25 4.25 7.25 4 10 C3.34 10 2.68 10 2 10 C-0.09350689 6.5980513 -0.17942163 3.94727588 0 0 Z " fill="#FAE9E8" transform="translate(48,272)"/>
<path d="M0 0 C3.08089673 2.77280706 4.68775452 5.06326356 6 9 C4.68 9.33 3.36 9.66 2 10 C1.34 6.7 0.68 3.4 0 0 Z " fill="#FAF2EF" transform="translate(98,196)"/>
<path d="M0 0 C3.16115776 1.36983503 3.9927092 1.9890638 6 5 C5 8 5 8 3 9 C3 8.01 3 7.02 3 6 C2.34 6 1.68 6 1 6 C0.67 4.02 0.34 2.04 0 0 Z " fill="#DEA0A0" transform="translate(106,76)"/>
<path d="M0 0 C-0.61468882 3.99547736 -2.65459376 6.77506642 -5 10 C-5.33 10 -5.66 10 -6 10 C-5.38909774 3.52443609 -5.38909774 3.52443609 -3.5625 1.0625 C-2 0 -2 0 0 0 Z " fill="#F9F5F5" transform="translate(46,73)"/>
<path d="M0 0 C0.66 0.33 1.32 0.66 2 1 C2 1.66 2 2.32 2 3 C2.66 3 3.32 3 4 3 C4 3.66 4 4.32 4 5 C4.99 5.33 5.98 5.66 7 6 C6.67 7.32 6.34 8.64 6 10 C3.03595495 7.19195732 0.55500981 4.81684226 -1 1 C-0.67 0.67 -0.34 0.34 0 0 Z " fill="#FAF0EE" transform="translate(113,91)"/>
<path d="M0 0 C-3.17320782 3.53586014 -5.16743695 5.58578031 -10 6 C-10 5.34 -10 4.68 -10 4 C-6.68165449 0.77646436 -4.65842688 -0.53239164 0 0 Z " fill="#AA1F23" transform="translate(84,66)"/>
<path d="M0 0 C1.65 0.99 3.3 1.98 5 3 C4.34 4.65 3.68 6.3 3 8 C0.4345406 5.4345406 0.45953913 3.52313332 0 0 Z " fill="#F3E6E7" transform="translate(118,299)"/>
<path d="M0 0 C1.9375 0.5 1.9375 0.5 4 2 C4.68790422 4.69658452 4.81946464 7.2017019 5 10 C4.34 10 3.68 10 3 10 C0 3.375 0 3.375 0 0 Z " fill="#F5F2E7" transform="translate(99,207)"/>
<path d="M0 0 C1.32 0.33 2.64 0.66 4 1 C4.66 3.31 5.32 5.62 6 8 C5.34 7.67 4.68 7.34 4 7 C4 6.34 4 5.68 4 5 C3.01 5.33 2.02 5.66 1 6 C0.67 4.02 0.34 2.04 0 0 Z " fill="#E8CDCD" transform="translate(67,181)"/>
<path d="M0 0 C0.66 0.33 1.32 0.66 2 1 C2 2.65 2 4.3 2 6 C1.34 6 0.68 6 0 6 C-0.33 8.64 -0.66 11.28 -1 14 C-1.33 14 -1.66 14 -2 14 C-2.05410687 12.22950311 -2.09284119 10.45853151 -2.125 8.6875 C-2.14820312 7.70136719 -2.17140625 6.71523437 -2.1953125 5.69921875 C-2 3 -2 3 0 0 Z " fill="#B47A7D" transform="translate(91,162)"/>
<path d="M0 0 C-0.495 0.33 -0.99 0.66 -1.5 1 C-3.88179561 4.17572747 -3.19168226 7.10246066 -3 11 C-5.56616632 7.15075052 -5.55097676 4.5650696 -6 0 C-2.25 -1.125 -2.25 -1.125 0 0 Z " fill="#B35B6A" transform="translate(92,147)"/>
<path d="M0 0 C2.14208427 3.2131264 2.59687808 5.21065397 3 9 C2.67 9.66 2.34 10.32 2 11 C1.34 11 0.68 11 0 11 C0 7.37 0 3.74 0 0 Z " fill="#FCECE7" transform="translate(121,139)"/>
<path d="M0 0 C2.31 0.33 4.62 0.66 7 1 C6.34 2.98 5.68 4.96 5 7 C4.01 6.67 3.02 6.34 2 6 C0.8125 2.9375 0.8125 2.9375 0 0 Z " fill="#F2E5E5" transform="translate(113,101)"/>
<path d="M0 0 C1.21236328 0.01353516 1.21236328 0.01353516 2.44921875 0.02734375 C3.37154297 0.04474609 3.37154297 0.04474609 4.3125 0.0625 C4.3125 0.3925 4.3125 0.7225 4.3125 1.0625 C1.6725 1.3925 -0.9675 1.7225 -3.6875 2.0625 C-3.6875 2.7225 -3.6875 3.3825 -3.6875 4.0625 C-5.0075 4.0625 -6.3275 4.0625 -7.6875 4.0625 C-7.6875 3.0725 -7.6875 2.0825 -7.6875 1.0625 C-4.80538698 0.10179566 -2.98899956 -0.04331883 0 0 Z " fill="#357199" transform="translate(86.6875,72.9375)"/>
<path d="M0 0 C2.49310643 3.73965964 2.0603261 5.29070641 1.625 9.6875 C1.51414063 10.86699219 1.40328125 12.04648437 1.2890625 13.26171875 C1.19367187 14.16535156 1.09828125 15.06898438 1 16 C0.67 16 0.34 16 0 16 C-0.19441368 13.7089095 -0.38033135 11.41709663 -0.5625 9.125 C-0.71912109 7.21074219 -0.71912109 7.21074219 -0.87890625 5.2578125 C-1 2 -1 2 0 0 Z " fill="#D18786" transform="translate(54,261)"/>
<path d="M0 0 C4.875 2.625 4.875 2.625 6 6 C5.01 6 4.02 6 3 6 C2.67 6.66 2.34 7.32 2 8 C1.34 5.36 0.68 2.72 0 0 Z " fill="#E8C7C1" transform="translate(96,247)"/>
<path d="M0 0 C2.91517292 1.07401108 4.77810176 1.77810176 7 4 C7 4.99 7 5.98 7 7 C4.13302508 5.71480435 2.02392288 4.42870746 0 2 C0 1.34 0 0.68 0 0 Z " fill="#F9E7E9" transform="translate(92,165)"/>
<path d="M0 0 C0 0.99 0 1.98 0 3 C-4.55384615 3.36923077 -4.55384615 3.36923077 -6.8125 1.5 C-7.4003125 0.7575 -7.4003125 0.7575 -8 0 C-5.13822943 -1.43088528 -3.06624227 -0.59991697 0 0 Z " fill="#EAF5FA" transform="translate(74,105)"/>
<path d="M0 0 C0.66 0.33 1.32 0.66 2 1 C2.33333333 3 2.66666667 5 3 7 C3.66 7.33 4.32 7.66 5 8 C3.35 7.67 1.7 7.34 0 7 C-0.38133299 5.0085944 -0.71325582 3.00720923 -1 1 C-0.67 0.67 -0.34 0.34 0 0 Z " fill="#F8F4F1" transform="translate(99,288)"/>
<path d="M0 0 C2.24252893 4.48505786 2.09665978 9.07035139 2 14 C1.67 14 1.34 14 1 14 C0.31974363 12.00458132 -0.34490497 10.00382009 -1 8 C-1.2475 7.29875 -1.495 6.5975 -1.75 5.875 C-2.08222075 3.38334438 -1.27995689 2.10816429 0 0 Z " fill="#DCB6B1" transform="translate(51,267)"/>
<path d="M0 0 C0.99 0 1.98 0 3 0 C2.67 3.63 2.34 7.26 2 11 C1.67 11 1.34 11 1 11 C0.67 7.37 0.34 3.74 0 0 Z " fill="#F5E7E0" transform="translate(57,208)"/>
<path d="M0 0 C0.66 0 1.32 0 2 0 C2.99 1.98 3.98 3.96 5 6 C4.34 6 3.68 6 3 6 C2.34 7.32 1.68 8.64 1 10 C0.67 6.7 0.34 3.4 0 0 Z " fill="#FBF1F1" transform="translate(69,186)"/>
<path d="M0 0 C1.32 1.32 2.64 2.64 4 4 C2.625 5.5 2.625 5.5 1 7 C0.34 7 -0.32 7 -1 7 C-0.67 4.69 -0.34 2.38 0 0 Z " fill="#F7F5F2" transform="translate(82,175)"/>
<path d="M0 0 C0.33 0.99 0.66 1.98 1 3 C1.66 3 2.32 3 3 3 C3 3.99 3 4.98 3 6 C0.69 6.33 -1.62 6.66 -4 7 C-4 6.34 -4 5.68 -4 5 C-3.01 4.34 -2.02 3.68 -1 3 C-0.67 2.01 -0.34 1.02 0 0 Z " fill="#BD6D68" transform="translate(74,90)"/>
<path d="M0 0 C0.33 0 0.66 0 1 0 C1 4.62 1 9.24 1 14 C0.67 14 0.34 14 0 14 C0 11.03 0 8.06 0 5 C-0.99 4.67 -1.98 4.34 -3 4 C-2.02727325 2.64664105 -1.0260734 1.31337396 0 0 Z " fill="#F9F9E9" transform="translate(86,163)"/>
<path d="M0 0 C0.66 1.32 1.32 2.64 2 4 C2.66 4 3.32 4 4 4 C4 4.66 4 5.32 4 6 C2.02 6 0.04 6 -2 6 C-1.34 4.02 -0.68 2.04 0 0 Z " fill="#DEEFF3" transform="translate(69,146)"/>
<path d="M0 0 C3.14958831 3.42346555 3.56179109 6.44262737 4 11 C1.29727467 8.12835434 0.05208163 6.69008159 -0.25 2.6875 C-0.1675 1.800625 -0.085 0.91375 0 0 Z " fill="#B43D3C" transform="translate(82,138)"/>
<path d="M0 0 C0.66 0 1.32 0 2 0 C2.80967438 2.91482778 3.21845993 4.46113217 2.0625 7.3125 C1.5365625 8.1478125 1.5365625 8.1478125 1 9 C0.63877119 7.68942607 0.28619689 6.37646376 -0.0625 5.0625 C-0.35833984 3.96615234 -0.35833984 3.96615234 -0.66015625 2.84765625 C-0.77230469 2.23792969 -0.88445312 1.62820312 -1 1 C-0.67 0.67 -0.34 0.34 0 0 Z " fill="#F8E6E2" transform="translate(114,112)"/>
<path d="M0 0 C0.66 0.66 1.32 1.32 2 2 C2.66 1.34 3.32 0.68 4 0 C4.33 2.31 4.66 4.62 5 7 C2.525 6.01 2.525 6.01 0 5 C0 3.35 0 1.7 0 0 Z " fill="#F4EBEB" transform="translate(119,176)"/>
<path d="M0 0 C0.33 0.66 0.66 1.32 1 2 C1.66 2 2.32 2 3 2 C2.67 3.32 2.34 4.64 2 6 C1.01 6 0.02 6 -1 6 C-1.33 4.35 -1.66 2.7 -2 1 C-1.34 0.67 -0.68 0.34 0 0 Z " fill="#FAFBFC" transform="translate(91,150)"/>
<path d="M0 0 C0.4125 0.495 0.825 0.99 1.25 1.5 C3.12202338 3.43386092 3.12202338 3.43386092 7 3 C6.67 3.99 6.34 4.98 6 6 C4.02 6 2.04 6 0 6 C0 4 0 2 0 0 Z " fill="#F2E5E0" transform="translate(105,298)"/>
<path d="M0 0 C0.99 0.33 1.98 0.66 3 1 C3.8125 2.9375 3.8125 2.9375 4 5 C3.34 5.66 2.68 6.32 2 7 C1.34 6.67 0.68 6.34 0 6 C0 4.02 0 2.04 0 0 Z " fill="#F0DDDB" transform="translate(104,258)"/>
<path d="M0 0 C0.99 0.33 1.98 0.66 3 1 C3 3.31 3 5.62 3 8 C1.68 7.67 0.36 7.34 -1 7 C-0.67 4.69 -0.34 2.38 0 0 Z " fill="#F8E7E5" transform="translate(61,244)"/>
<path d="M0 0 C0 2.31 0 4.62 0 7 C-0.99 7 -1.98 7 -3 7 C-3.33 5.35 -3.66 3.7 -4 2 C-1 0 -1 0 0 0 Z " fill="#FBF4EE" transform="translate(85,193)"/>
<path d="M0 0 C2.475 0.99 2.475 0.99 5 2 C4.34 3.65 3.68 5.3 3 7 C2.34 7 1.68 7 1 7 C0.67 4.69 0.34 2.38 0 0 Z " fill="#D2DEEB" transform="translate(57,159)"/>
<path d="M0 0 C0.33 0 0.66 0 1 0 C1 2.64 1 5.28 1 8 C-1 8 -1 8 -2.625 6.625 C-4 5 -4 5 -4 3 C-3.01 3 -2.02 3 -1 3 C-0.67 2.01 -0.34 1.02 0 0 Z " fill="#4C86AC" transform="translate(72,142)"/>
<path d="M0 0 C0.99 0.33 1.98 0.66 3 1 C3.33 1.99 3.66 2.98 4 4 C3.01 4.33 2.02 4.66 1 5 C0.67 5.99 0.34 6.98 0 8 C0 5.36 0 2.72 0 0 Z " fill="#F2F9F6" transform="translate(73,142)"/>
<path d="M0 0 C1.65 0 3.3 0 5 0 C4.67 2.31 4.34 4.62 4 7 C3.01 6.67 2.02 6.34 1 6 C0.67 4.02 0.34 2.04 0 0 Z " fill="#D5E8EF" transform="translate(64,112)"/>
<path d="M0 0 C1.65 0.99 3.3 1.98 5 3 C4.01 3.495 4.01 3.495 3 4 C2.34786708 6.02463255 2.34786708 6.02463255 2 8 C1.34 7.67 0.68 7.34 0 7 C0.33 6.01 0.66 5.02 1 4 C0.61067144 1.85744207 0.61067144 1.85744207 0 0 Z " fill="#F6E8E4" transform="translate(109,291)"/>
<path d="M0 0 C2.475 0.495 2.475 0.495 5 1 C4.67 2.98 4.34 4.96 4 7 C2.10786631 4.61426621 0.97608217 2.92824652 0 0 Z " fill="#E5C6C5" transform="translate(100,197)"/>
<path d="M0 0 C2 3.75 2 3.75 2 6 C1.01 6.33 0.02 6.66 -1 7 C-1.33 5.02 -1.66 3.04 -2 1 C-1.34 0.67 -0.68 0.34 0 0 Z " fill="#EBD8D8" transform="translate(105,182)"/>
<path d="M0 0 C0.33 0.99 0.66 1.98 1 3 C1.66 3 2.32 3 3 3 C2.67 4.65 2.34 6.3 2 8 C1.01 7.67 0.02 7.34 -1 7 C-0.67 4.69 -0.34 2.38 0 0 Z " fill="#236697" transform="translate(82,147)"/>
<path d="M0 0 C0.33 0 0.66 0 1 0 C1 3.3 1 6.6 1 10 C0.01 10.33 -0.98 10.66 -2 11 C-1.34 7.37 -0.68 3.74 0 0 Z " fill="#F4E3DF" transform="translate(37,138)"/>
<path d="M0 0 C0.66 0 1.32 0 2 0 C2.33 1.32 2.66 2.64 3 4 C2.01 4 1.02 4 0 4 C0 5.65 0 7.3 0 9 C-0.33 9 -0.66 9 -1 9 C-1.125 2.25 -1.125 2.25 0 0 Z " fill="#7E2127" transform="translate(71,75)"/>
<path d="M0 0 C1.485 0.99 1.485 0.99 3 2 C5.15274948 1.69159401 5.15274948 1.69159401 7 1 C6.01 2.485 6.01 2.485 5 4 C1.875 4.1875 1.875 4.1875 -1 4 C-0.67 2.68 -0.34 1.36 0 0 Z " fill="#FCF5F1" transform="translate(47,76)"/>
<path d="M0 0 C2.31 0 4.62 0 7 0 C7.33 0.66 7.66 1.32 8 2 C5.69 2.33 3.38 2.66 1 3 C0.67 2.01 0.34 1.02 0 0 Z " fill="#F8F8F6" transform="translate(62,68)"/>
<path d="M0 0 C3 1 3 1 5 4 C3.68 4.33 2.36 4.66 1 5 C0.67 4.01 0.34 3.02 0 2 C-0.66 1.67 -1.32 1.34 -2 1 C-1.34 0.67 -0.68 0.34 0 0 Z " fill="#E9E2DE" transform="translate(84,66)"/>
</svg>
