<?xml version="1.0" encoding="UTF-8"?>
<svg version="1.1" xmlns="http://www.w3.org/2000/svg" width="150" height="148">
<path d="M0 0 C49.5 0 99 0 150 0 C150 48.84 150 97.68 150 148 C100.5 148 51 148 0 148 C0 99.16 0 50.32 0 0 Z " fill="#FEFEFE" transform="translate(0,0)"/>
<path d="M0 0 C0.99 0 1.98 0 3 0 C3 1.32 3 2.64 3 4 C3.99 4 4.98 4 6 4 C6.33 3.01 6.66 2.02 7 1 C7.66 1 8.32 1 9 1 C9 2.65 9 4.3 9 6 C9.99 6.495 9.99 6.495 11 7 C11 7.66 11 8.32 11 9 C11.9590625 9.37125 11.9590625 9.37125 12.9375 9.75 C15 11 15 11 15.875 13 C15.91625 13.66 15.9575 14.32 16 15 C15.34 15.66 14.68 16.32 14 17 C13.01 17 12.02 17 11 17 C11 16.34 11 15.68 11 15 C7.5233662 12.85663839 4.78770805 12.78722374 0.75 12.875 C-0.86648437 12.90207031 -0.86648437 12.90207031 -2.515625 12.9296875 C-3.33546875 12.95289063 -4.1553125 12.97609375 -5 13 C-5.144375 13.598125 -5.28875 14.19625 -5.4375 14.8125 C-5.8872439 16.56150404 -6.42892341 18.28677023 -7 20 C-6.34 20 -5.68 20 -5 20 C-5 20.66 -5 21.32 -5 22 C-4.38125 22.2475 -3.7625 22.495 -3.125 22.75 C-0.64931313 24.20628639 -0.04874998 25.37812506 1 28 C1.66 28 2.32 28 3 28 C2.505 29.485 2.505 29.485 2 31 C3.98 31.33 5.96 31.66 8 32 C8.268125 31.195625 8.53625 30.39125 8.8125 29.5625 C9.4003125 28.2940625 9.4003125 28.2940625 10 27 C10.99 26.67 11.98 26.34 13 26 C12.505 28.475 12.505 28.475 12 31 C12.63808594 30.91621094 13.27617188 30.83242188 13.93359375 30.74609375 C15.17302734 30.59333984 15.17302734 30.59333984 16.4375 30.4375 C17.67306641 30.28087891 17.67306641 30.28087891 18.93359375 30.12109375 C19.61550781 30.08113281 20.29742187 30.04117188 21 30 C22 31 22 31 22.0625 34.0625 C22.041875 35.031875 22.02125 36.00125 22 37 C19.69 38.32 17.38 39.64 15 41 C16.485 41.495 16.485 41.495 18 42 C18 44.31 18 46.62 18 49 C16.68 49.33 15.36 49.66 14 50 C14 50.66 14 51.32 14 52 C14.99 52 15.98 52 17 52 C17.125 54.875 17.125 54.875 17 58 C15 60 15 60 12.375 60.125 C11.59125 60.08375 10.8075 60.0425 10 60 C9.78085938 61.12535156 9.56171875 62.25070313 9.3359375 63.41015625 C6.09973363 79.35702263 1.57196411 95.42803589 -10.296875 107.296875 C-15.60943981 110.64409792 -21.98369758 109.68846347 -28 109 C-36.56402219 106.66542409 -42.19773069 100.39895658 -48 94 C-48.56203125 93.40445313 -49.1240625 92.80890625 -49.703125 92.1953125 C-52.34466234 89.26533143 -53.65097247 86.9556453 -54 83 C-54.66 83 -55.32 83 -56 83 C-57.52616703 78.88421977 -59.01599459 74.7561502 -60.5 70.625 C-60.92925781 69.46871094 -61.35851563 68.31242187 -61.80078125 67.12109375 C-64.74308496 58.85462142 -66.48112087 51.85478508 -63.875 43.3125 C-61.70055533 39.47098109 -59.26817734 35.99507059 -56 33 C-55.34 33 -54.68 33 -54 33 C-54 32.34 -54 31.68 -54 31 C-52.68 31 -51.36 31 -50 31 C-49.62875 29.9171875 -49.62875 29.9171875 -49.25 28.8125 C-47.87730408 25.72393418 -46.27646704 23.48988582 -44 21 C-43.34 21 -42.68 21 -42 21 C-40.50178941 17.62902617 -40 15.79557881 -40 12 C-37.11424181 12.39803561 -36.17810487 12.79009069 -34.25 15.0625 C-33.8375 15.701875 -33.425 16.34125 -33 17 C-30.12688428 17.05175552 -30.12688428 17.05175552 -27 16 C-25.23488701 13.77488786 -24.22702224 11.59562397 -23 9 C-22.34 9 -21.68 9 -21 9 C-21 7.68 -21 6.36 -21 5 C-19.68 4.67 -18.36 4.34 -17 4 C-15.875 7.75 -15.875 7.75 -17 10 C-17.039992 11.99960012 -17.04346799 14.00047242 -17 16 C-15.25602495 14.41456814 -14.10955414 13.28301486 -13.25 11.0625 C-11.34132484 7.91318599 -8.38675225 6.34326882 -5 5 C-3.68 5 -2.36 5 -1 5 C-0.67 3.35 -0.34 1.7 0 0 Z " fill="#F2786E" transform="translate(101,23)"/>
<path d="M0 0 C0.99 0 1.98 0 3 0 C3 1.32 3 2.64 3 4 C3.99 4 4.98 4 6 4 C6.33 3.01 6.66 2.02 7 1 C7.66 1 8.32 1 9 1 C9 2.65 9 4.3 9 6 C9.99 6.495 9.99 6.495 11 7 C11 7.66 11 8.32 11 9 C11.9590625 9.37125 11.9590625 9.37125 12.9375 9.75 C15 11 15 11 15.875 13 C15.91625 13.66 15.9575 14.32 16 15 C15.34 15.66 14.68 16.32 14 17 C13.01 17 12.02 17 11 17 C11 16.34 11 15.68 11 15 C7.5233662 12.85663839 4.78770805 12.78722374 0.75 12.875 C-0.86648437 12.90207031 -0.86648437 12.90207031 -2.515625 12.9296875 C-3.33546875 12.95289063 -4.1553125 12.97609375 -5 13 C-5.144375 13.598125 -5.28875 14.19625 -5.4375 14.8125 C-5.8872439 16.56150404 -6.42892341 18.28677023 -7 20 C-6.34 20 -5.68 20 -5 20 C-5 20.66 -5 21.32 -5 22 C-4.38125 22.2475 -3.7625 22.495 -3.125 22.75 C-0.64931313 24.20628639 -0.04874998 25.37812506 1 28 C1.66 28 2.32 28 3 28 C2.505 29.485 2.505 29.485 2 31 C3.98 31.33 5.96 31.66 8 32 C8.268125 31.195625 8.53625 30.39125 8.8125 29.5625 C9.4003125 28.2940625 9.4003125 28.2940625 10 27 C10.99 26.67 11.98 26.34 13 26 C12.505 28.475 12.505 28.475 12 31 C12.63808594 30.91621094 13.27617188 30.83242188 13.93359375 30.74609375 C15.17302734 30.59333984 15.17302734 30.59333984 16.4375 30.4375 C17.67306641 30.28087891 17.67306641 30.28087891 18.93359375 30.12109375 C19.61550781 30.08113281 20.29742187 30.04117188 21 30 C22 31 22 31 22.0625 34.0625 C22.041875 35.031875 22.02125 36.00125 22 37 C19.69 38.32 17.38 39.64 15 41 C16.485 41.495 16.485 41.495 18 42 C18 44.31 18 46.62 18 49 C16.68 49.33 15.36 49.66 14 50 C14 50.66 14 51.32 14 52 C14.99 52 15.98 52 17 52 C17.125 54.875 17.125 54.875 17 58 C16.01 58.99 16.01 58.99 15 60 C12.375 59.625 12.375 59.625 10 59 C9.87882812 58.25234375 9.75765625 57.5046875 9.6328125 56.734375 C9.46523437 55.74953125 9.29765625 54.7646875 9.125 53.75 C8.96257812 52.77546875 8.80015625 51.8009375 8.6328125 50.796875 C8.05144152 48.22735883 7.29159735 46.27928944 6 44 C0.24264471 43.58876034 -3.20958026 44.1814866 -8.23828125 47.02734375 C-10 48 -10 48 -13 49 C-13 50.65 -13 52.3 -13 54 C-15.76617563 55.38308781 -18.01018 55.11210196 -21.1015625 55.09765625 C-22.91914062 55.09282227 -22.91914062 55.09282227 -24.7734375 55.08789062 C-26.04445313 55.07951172 -27.31546875 55.07113281 -28.625 55.0625 C-29.90375 55.05798828 -31.1825 55.05347656 -32.5 55.04882812 C-35.66671292 55.03701203 -38.83333356 55.02053815 -42 55 C-41.6875 53.0625 -41.6875 53.0625 -41 51 C-39.515 50.505 -39.515 50.505 -38 50 C-37.87625 48.783125 -37.7525 47.56625 -37.625 46.3125 C-37.21108694 42.93520941 -36.45426549 40.10243305 -35 37 C-36.36125 36.566875 -36.36125 36.566875 -37.75 36.125 C-41 35 -41 35 -42.90625 33.9375 C-45.35807818 32.83966649 -47.07881332 32.79643569 -49.75 32.875 C-50.54921875 32.89304688 -51.3484375 32.91109375 -52.171875 32.9296875 C-52.77515625 32.95289063 -53.3784375 32.97609375 -54 33 C-54 32.34 -54 31.68 -54 31 C-52.68 31 -51.36 31 -50 31 C-49.7525 30.278125 -49.505 29.55625 -49.25 28.8125 C-47.87730408 25.72393418 -46.27646704 23.48988582 -44 21 C-43.34 21 -42.68 21 -42 21 C-40.50178941 17.62902617 -40 15.79557881 -40 12 C-37.11424181 12.39803561 -36.17810487 12.79009069 -34.25 15.0625 C-33.8375 15.701875 -33.425 16.34125 -33 17 C-30.12688428 17.05175552 -30.12688428 17.05175552 -27 16 C-25.23488701 13.77488786 -24.22702224 11.59562397 -23 9 C-22.34 9 -21.68 9 -21 9 C-21 7.68 -21 6.36 -21 5 C-19.68 4.67 -18.36 4.34 -17 4 C-15.875 7.75 -15.875 7.75 -17 10 C-17.039992 11.99960012 -17.04346799 14.00047242 -17 16 C-15.25602495 14.41456814 -14.10955414 13.28301486 -13.25 11.0625 C-11.34132484 7.91318599 -8.38675225 6.34326882 -5 5 C-3.68 5 -2.36 5 -1 5 C-0.67 3.35 -0.34 1.7 0 0 Z " fill="#F5BFC0" transform="translate(101,23)"/>
<path d="M0 0 C1.8871875 0.0309375 1.8871875 0.0309375 3.8125 0.0625 C8.90202385 8.81011913 8.43259617 15.99825099 6.1875 25.6875 C6.00928711 26.4623877 5.83107422 27.23727539 5.64746094 28.03564453 C2.40242587 41.45229965 -2.96578081 58.36211045 -15.1875 66.0625 C-23.48079445 67.43681737 -30.99333723 66.50996084 -38.4296875 62.64453125 C-40.69761344 60.6033979 -40.87731502 59.03927519 -41.1875 56.0625 C-40.1975 55.5675 -40.1975 55.5675 -39.1875 55.0625 C-39.1875 55.7225 -39.1875 56.3825 -39.1875 57.0625 C-30.96689597 55.61404736 -23.35382642 54.0424026 -17.1875 48.0625 C-15.54056451 44.89643036 -15.54056451 44.89643036 -15.1875 42.0625 C-16.01894531 42.60390625 -16.01894531 42.60390625 -16.8671875 43.15625 C-17.59164062 43.6203125 -18.31609375 44.084375 -19.0625 44.5625 C-19.78179687 45.0265625 -20.50109375 45.490625 -21.2421875 45.96875 C-23.1875 47.0625 -23.1875 47.0625 -25.1875 47.0625 C-25.1875 46.4025 -25.1875 45.7425 -25.1875 45.0625 C-24.1975 45.0625 -23.2075 45.0625 -22.1875 45.0625 C-22.1875 44.4025 -22.1875 43.7425 -22.1875 43.0625 C-20.7953125 42.44375 -20.7953125 42.44375 -19.375 41.8125 C-16.16092615 40.04791043 -14.83632487 39.27336948 -13.1875 36.0625 C-11.97113807 31.23759766 -11.78979406 27.57582882 -14.1875 23.0625 C-13.1975 23.0625 -12.2075 23.0625 -11.1875 23.0625 C-11.8475 17.1225 -12.5075 11.1825 -13.1875 5.0625 C-5.4595 -0.0895 -5.4595 -0.0895 0 0 Z " fill="#E34742" transform="translate(103.1875,65.9375)"/>
<path d="M0 0 C0.66 0 1.32 0 2 0 C1.67 1.65 1.34 3.3 1 5 C1.63808594 4.91621094 2.27617188 4.83242188 2.93359375 4.74609375 C4.17302734 4.59333984 4.17302734 4.59333984 5.4375 4.4375 C6.67306641 4.28087891 6.67306641 4.28087891 7.93359375 4.12109375 C8.95646484 4.06115234 8.95646484 4.06115234 10 4 C11 5 11 5 11.0625 8.0625 C11.041875 9.031875 11.02125 10.00125 11 11 C7.535 12.98 7.535 12.98 4 15 C4.99 15.33 5.98 15.66 7 16 C7 18.31 7 20.62 7 23 C5.68 23.33 4.36 23.66 3 24 C3 24.66 3 25.32 3 26 C3.99 26 4.98 26 6 26 C6.125 28.875 6.125 28.875 6 32 C5.34 32.66 4.68 33.32 4 34 C1.375 33.625 1.375 33.625 -1 33 C-1.12117188 32.25234375 -1.24234375 31.5046875 -1.3671875 30.734375 C-1.61855469 29.25710937 -1.61855469 29.25710937 -1.875 27.75 C-2.03742188 26.77546875 -2.19984375 25.8009375 -2.3671875 24.796875 C-2.94855848 22.22735883 -3.70840265 20.27928944 -5 18 C-10.75735529 17.58876034 -14.20958026 18.1814866 -19.23828125 21.02734375 C-21 22 -21 22 -24 23 C-24 24.65 -24 26.3 -24 28 C-26.76617563 29.38308781 -29.01018 29.11210196 -32.1015625 29.09765625 C-33.31328125 29.09443359 -34.525 29.09121094 -35.7734375 29.08789062 C-37.04445313 29.07951172 -38.31546875 29.07113281 -39.625 29.0625 C-40.90375 29.05798828 -42.1825 29.05347656 -43.5 29.04882812 C-46.66671292 29.03701203 -49.83333356 29.02053815 -53 29 C-52.21777344 25.17675781 -52.21777344 25.17675781 -50.2578125 23.5859375 C-49.55398437 23.18632813 -48.85015625 22.78671875 -48.125 22.375 C-47.42632812 21.97023438 -46.72765625 21.56546875 -46.0078125 21.1484375 C-45.34523438 20.76945312 -44.68265625 20.39046875 -44 20 C-43.01 19.34 -42.02 18.68 -41 18 C-40.52753201 15.21105493 -40.52753201 15.21105493 -40.5 12.0625 C-40.33703168 6.47404455 -40.33703168 6.47404455 -38.68359375 4.1484375 C-35.79969569 2.18123093 -33.36392241 2.58688672 -30 3 C-27.5625 4.875 -27.5625 4.875 -26 7 C-26 7.66 -26 8.32 -26 9 C-24.92621094 8.7834375 -23.85242188 8.566875 -22.74609375 8.34375 C-21.30996328 8.06215579 -19.87376149 7.78092516 -18.4375 7.5 C-17.73302734 7.35691406 -17.02855469 7.21382812 -16.30273438 7.06640625 C-11.78109762 6.19125075 -7.60512972 5.85476595 -3 6 C-2.690625 5.195625 -2.38125 4.39125 -2.0625 3.5625 C-1 1 -1 1 0 0 Z " fill="#7EA6D9" transform="translate(112,49)"/>
<path d="M0 0 C2.45784216 1.23415053 4.86862919 2.51421091 7.25390625 3.8828125 C7.10566406 4.62273438 6.95742187 5.36265625 6.8046875 6.125 C6.47950324 7.75322758 6.16139157 9.38294137 5.859375 11.015625 C4.71215252 16.48369478 4.71215252 16.48369478 2.31640625 18.5703125 C1.63578125 19.0034375 0.95515625 19.4365625 0.25390625 19.8828125 C-0.77622652 21.53102494 -1.77724003 23.19784952 -2.74609375 24.8828125 C-5.6097334 28.389485 -8.37985633 28.54477858 -12.6875 29.16015625 C-14.93693191 29.7076202 -14.93693191 29.7076202 -16.0234375 31.94921875 C-16.26191406 32.58730469 -16.50039063 33.22539063 -16.74609375 33.8828125 C-17.40609375 33.8828125 -18.06609375 33.8828125 -18.74609375 33.8828125 C-22.62562491 25.7427248 -24.30094697 18.97927585 -21.62109375 10.1953125 C-16.66107852 1.43261893 -10.48421301 -4.26527016 0 0 Z " fill="#BF3542" transform="translate(58.74609375,56.1171875)"/>
<path d="M0 0 C0.99 0.33 1.98 0.66 3 1 C-0.75 4 -0.75 4 -3 4 C-3 5.32 -3 6.64 -3 8 C-0.03 8.495 -0.03 8.495 3 9 C3 9.33 3 9.66 3 10 C-3.0546875 10.1953125 -3.0546875 10.1953125 -5 10 C-5.66 9.34 -6.32 8.68 -7 8 C-9.93453261 8.36681658 -10.86437246 8.86437246 -13 11 C-13.64767793 13.57061311 -13.64767793 13.57061311 -14 16 C-12.02 16 -10.04 16 -8 16 C-8 16.66 -8 17.32 -8 18 C-9.32 18 -10.64 18 -12 18 C-11.57316368 19.27445454 -11.13302798 20.54445882 -10.6875 21.8125 C-10.32205078 22.87404297 -10.32205078 22.87404297 -9.94921875 23.95703125 C-8.93081271 26.14890927 -7.71034576 27.32798132 -6 29 C-6 29.66 -6 30.32 -6 31 C-5.030625 31.144375 -4.06125 31.28875 -3.0625 31.4375 C0 32 0 32 1 33 C4.47256915 33.30867281 6.3872288 33.38701339 9.375 31.5 C9.91125 31.005 10.4475 30.51 11 30 C11 30.66 11 31.32 11 32 C11.62648437 31.65066406 12.25296875 31.30132812 12.8984375 30.94140625 C13.71570313 30.48636719 14.53296875 30.03132813 15.375 29.5625 C16.18710938 29.11003906 16.99921875 28.65757813 17.8359375 28.19140625 C19.20996622 27.4349464 20.59709261 26.70145369 22 26 C20.84547892 31.45773602 19.69516317 33.94268445 15 37 C14.236875 37.53625 13.47375 38.0725 12.6875 38.625 C7.64153589 41.20665606 2.65346501 42.17131712 -3 42 C-3.33 42.33 -3.66 42.66 -4 43 C-7 43 -7 43 -8.6484375 41.6796875 C-10.4474253 39.79929753 -12.23868949 37.91581143 -14 36 C-14.5053125 35.46375 -15.010625 34.9275 -15.53125 34.375 C-18.23085709 31.36148511 -19.64192643 29.05816711 -20 25 C-20.66 25 -21.32 25 -22 25 C-23.65 19.72 -25.3 14.44 -27 9 C-26.34 9 -25.68 9 -25 9 C-24.7834375 7.824375 -24.7834375 7.824375 -24.5625 6.625 C-23 4 -23 4 -20.93359375 3.2578125 C-19.32734839 2.92264092 -17.7133897 2.62230352 -16.09375 2.359375 C-13.94937541 2.09529587 -13.94937541 2.09529587 -12 1 C-12 2.32 -12 3.64 -12 5 C-10.186287 4.35758106 -8.37405876 3.71096881 -6.5625 3.0625 C-5.04849609 2.52302734 -5.04849609 2.52302734 -3.50390625 1.97265625 C-1.09686255 1.23122361 -1.09686255 1.23122361 0 0 Z " fill="#F0655F" transform="translate(67,81)"/>
<path d="M0 0 C5.08952385 8.74761913 4.62009617 15.93575099 2.375 25.625 C2.19678711 26.3998877 2.01857422 27.17477539 1.83496094 27.97314453 C-1.49493245 41.74064792 -6.88221174 57.65175174 -19 66 C-21.3125 65.75 -21.3125 65.75 -23 65 C-22.2575 64.46375 -21.515 63.9275 -20.75 63.375 C-17.79900828 60.82641624 -16.05867181 58.2938749 -14 55 C-13.46375 54.401875 -12.9275 53.80375 -12.375 53.1875 C-10.22016033 49.75934597 -9.71688255 45.94707096 -9 42 C-8.34 42 -7.68 42 -7 42 C-6.87625 40.783125 -6.7525 39.56625 -6.625 38.3125 C-5.94891304 32.17872556 -4.96998113 26.09298824 -4 20 C-4.6084375 19.88140625 -5.216875 19.7628125 -5.84375 19.640625 C-9.13263675 18.66349198 -10.72125748 16.50661677 -13 14 C-13.78375 13.175 -14.5675 12.35 -15.375 11.5 C-17 9 -17 9 -17.25 6.4375 C-15.56204294 3.14598373 -13.59344865 2.20799044 -10.27734375 0.71484375 C-6.72573887 -0.39998248 -3.69864844 -0.26418917 0 0 Z " fill="#A51E24" transform="translate(107,66)"/>
<path d="M0 0 C2.79828356 0.38597015 3.8205884 0.80136573 5.75 2.9375 C7 5 7 5 7 7 C7.66 7.33 8.32 7.66 9 8 C8.67 8.66 8.34 9.32 8 10 C7.34 10 6.68 10 6 10 C4.38935371 13.65079826 3.55105909 17.0507432 3 21 C3.51949219 20.51789062 4.03898437 20.03578125 4.57421875 19.5390625 C5.27160156 18.90742187 5.96898438 18.27578125 6.6875 17.625 C7.37199219 16.99851562 8.05648437 16.37203125 8.76171875 15.7265625 C14.37533591 11.39633775 20.16441949 11.34851505 27 12 C30.49440887 13.22610838 32.28500188 13.96000273 34.375 17 C35 19 35 19 35 22 C31.64617772 22.64644284 28.42086924 23.15179768 25 23 C22.8125 20.5625 22.8125 20.5625 21 18 C17.41538144 17.41630557 17.41538144 17.41630557 14 18 C11.32814514 20.67185486 11.80498057 22.09672988 11.75 25.8125 C11.38579781 31.43065595 11.38579781 31.43065595 9.7109375 33.90234375 C7.10127705 36.11991236 5.44569037 37 2 37 C2.50797009 32.6822542 3.19682779 28.96697886 5 25 C3.63875 24.566875 3.63875 24.566875 2.25 24.125 C-1 23 -1 23 -2.90625 21.9375 C-5.35807818 20.83966649 -7.07881332 20.79643569 -9.75 20.875 C-10.94882812 20.90207031 -10.94882812 20.90207031 -12.171875 20.9296875 C-12.77515625 20.95289062 -13.3784375 20.97609375 -14 21 C-14 20.34 -14 19.68 -14 19 C-12.68 19 -11.36 19 -10 19 C-9.7525 18.278125 -9.505 17.55625 -9.25 16.8125 C-7.87730408 13.72393418 -6.27646704 11.48988582 -4 9 C-3.34 9 -2.68 9 -2 9 C-0.50178941 5.62902617 0 3.79557881 0 0 Z " fill="#F6A7AA" transform="translate(61,35)"/>
<path d="M0 0 C1.32 0 2.64 0 4 0 C4 1.98 4 3.96 4 6 C0.535 7.98 0.535 7.98 -3 10 C-2.01 10.33 -1.02 10.66 0 11 C0 13.31 0 15.62 0 18 C-1.32 18.33 -2.64 18.66 -4 19 C-4 19.66 -4 20.32 -4 21 C-3.01 21 -2.02 21 -1 21 C-0.875 23.875 -0.875 23.875 -1 27 C-1.66 27.66 -2.32 28.32 -3 29 C-5.625 28.625 -5.625 28.625 -8 28 C-8.12117188 27.25234375 -8.24234375 26.5046875 -8.3671875 25.734375 C-8.61855469 24.25710937 -8.61855469 24.25710937 -8.875 22.75 C-9.03742188 21.77546875 -9.19984375 20.8009375 -9.3671875 19.796875 C-9.94855848 17.22735883 -10.70840265 15.27928944 -12 13 C-17.75735529 12.58876034 -21.20958026 13.1814866 -26.23828125 16.02734375 C-28 17 -28 17 -31 18 C-31 19.65 -31 21.3 -31 23 C-33.62315032 24.31157516 -35.23033436 23.89649988 -38.125 23.5625 C-39.03507812 23.46066406 -39.94515625 23.35882813 -40.8828125 23.25390625 C-41.58148438 23.17011719 -42.28015625 23.08632812 -43 23 C-42.67 22.34 -42.34 21.68 -42 21 C-41.01 21 -40.02 21 -39 21 C-39 20.34 -39 19.68 -39 19 C-38.34 19 -37.68 19 -37 19 C-36.7525 18.360625 -36.505 17.72125 -36.25 17.0625 C-35 15 -35 15 -32.875 14.25 C-31.946875 14.12625 -31.946875 14.12625 -31 14 C-31 13.34 -31 12.68 -31 12 C-29.68 12 -28.36 12 -27 12 C-27 11.34 -27 10.68 -27 10 C-18.91038514 8.04170706 -11.34525522 6.48082514 -3 7 C-3 6.34 -3 5.68 -3 5 C-2.34 5 -1.68 5 -1 5 C-0.67 3.35 -0.34 1.7 0 0 Z " fill="#658AC5" transform="translate(119,54)"/>
<path d="M0 0 C1.32 0.99 2.64 1.98 4 3 C4 3.66 4 4.32 4 5 C4.86625 5.433125 4.86625 5.433125 5.75 5.875 C8.875 7.4375 8.875 7.4375 12 9 C12.46530864 16.78961124 11.15721701 23.52678392 9 31 C8.34 31 7.68 31 7 31 C7 32.65 7 34.3 7 36 C6.67 36 6.34 36 6 36 C5.34 32.37 4.68 28.74 4 25 C3.34 25 2.68 25 2 25 C1.81824219 25.56847656 1.63648437 26.13695313 1.44921875 26.72265625 C-0.9148838 33.98469434 -3.35950321 40.86256876 -8 47 C-8.66 47 -9.32 47 -10 47 C-10.99 49.475 -10.99 49.475 -12 52 C-12.99 51.67 -13.98 51.34 -15 51 C-14.67 50.01 -14.34 49.02 -14 48 C-13.01 48 -12.02 48 -11 48 C-10.731875 47.278125 -10.46375 46.55625 -10.1875 45.8125 C-9 43 -9 43 -7.5625 40.625 C-5.70706129 37.50786297 -4.38066758 34.35304984 -3 31 C-3.55429688 31.3609375 -4.10859375 31.721875 -4.6796875 32.09375 C-5.40414062 32.5578125 -6.12859375 33.021875 -6.875 33.5 C-7.59429687 33.9640625 -8.31359375 34.428125 -9.0546875 34.90625 C-11 36 -11 36 -13 36 C-13 35.34 -13 34.68 -13 34 C-12.01 34 -11.02 34 -10 34 C-10 33.34 -10 32.68 -10 32 C-9.071875 31.5875 -8.14375 31.175 -7.1875 30.75 C-3.97342615 28.98541043 -2.64882487 28.21086948 -1 25 C0.21636193 20.17509766 0.39770594 16.51332882 -2 12 C-1.01 12 -0.02 12 1 12 C0.67 8.04 0.34 4.08 0 0 Z " fill="#CD3839" transform="translate(91,77)"/>
<path d="M0 0 C0.66 0 1.32 0 2 0 C4.01167675 5.78357065 4.22084624 10.90218999 4 17 C3.01 17 2.02 17 1 17 C1.7734375 17.99 1.7734375 17.99 2.5625 19 C4.43386488 22.90545714 4.29222454 25.96573802 3 30 C1.06624752 33.45100443 -0.93753856 35.66945644 -4.8125 36.875 C-5.534375 36.91625 -6.25625 36.9575 -7 37 C-7 37.66 -7 38.32 -7 39 C-7.99 39 -8.98 39 -10 39 C-10 37.68 -10 36.36 -10 35 C-9.34 35 -8.68 35 -8 35 C-8.04125 33.948125 -8.0825 32.89625 -8.125 31.8125 C-8 28 -8 28 -6.97265625 25.60546875 C-5.84593372 22.58730037 -5.94172568 20.68061823 -6.3125 17.5 C-6.46138672 16.12328125 -6.46138672 16.12328125 -6.61328125 14.71875 C-6.98293996 12.11993728 -7.45581795 9.567423 -8 7 C-6.02 7 -4.04 7 -2 7 C-2 6.34 -2 5.68 -2 5 C-1.34 5 -0.68 5 0 5 C0 3.35 0 1.7 0 0 Z " fill="#F06560" transform="translate(88,72)"/>
<path d="M0 0 C0.99 0 1.98 0 3 0 C3 1.32 3 2.64 3 4 C3.99 4 4.98 4 6 4 C6.33 3.01 6.66 2.02 7 1 C7.66 1 8.32 1 9 1 C9 2.65 9 4.3 9 6 C9.66 6.33 10.32 6.66 11 7 C11 7.66 11 8.32 11 9 C11.9590625 9.37125 11.9590625 9.37125 12.9375 9.75 C15 11 15 11 15.875 13 C15.91625 13.66 15.9575 14.32 16 15 C15.34 15.66 14.68 16.32 14 17 C13.01 17 12.02 17 11 17 C11 16.34 11 15.68 11 15 C7.5233662 12.85663839 4.78770805 12.78722374 0.75 12.875 C-0.86648437 12.90207031 -0.86648437 12.90207031 -2.515625 12.9296875 C-3.74539062 12.96449219 -3.74539062 12.96449219 -5 13 C-5.13277344 13.61359375 -5.26554687 14.2271875 -5.40234375 14.859375 C-6.11352993 17.40663006 -7.33399563 18.97182076 -9 21 C-10.98 20.34 -12.96 19.68 -15 19 C-14.01015228 11.74111675 -14.01015228 11.74111675 -12 9 C-8.21425385 6.22761014 -5.77938902 5 -1 5 C-0.67 3.35 -0.34 1.7 0 0 Z " fill="#F1A5A5" transform="translate(101,23)"/>
<path d="M0 0 C0.66 0 1.32 0 2 0 C1.67 1.65 1.34 3.3 1 5 C5.455 4.505 5.455 4.505 10 4 C9.01 4.33 8.02 4.66 7 5 C7 6.98 7 8.96 7 11 C6.01 10.67 5.02 10.34 4 10 C4 10.66 4 11.32 4 12 C-2.69613196 12.797837 -9.25766581 13.12910853 -16 13 C-16 12.34 -16 11.68 -16 11 C-19.63 11 -23.26 11 -27 11 C-27.33 10.01 -27.66 9.02 -28 8 C-30.01508358 7.26676204 -30.01508358 7.26676204 -32 7 C-32.33 5.68 -32.66 4.36 -33 3 C-29.75728494 3.5590888 -28.06942576 4.4132178 -26 7 C-26 7.66 -26 8.32 -26 9 C-24.92621094 8.7834375 -23.85242188 8.566875 -22.74609375 8.34375 C-21.30996328 8.06215579 -19.87376149 7.78092516 -18.4375 7.5 C-17.73302734 7.35691406 -17.02855469 7.21382812 -16.30273438 7.06640625 C-11.78109762 6.19125075 -7.60512972 5.85476595 -3 6 C-2.690625 5.195625 -2.38125 4.39125 -2.0625 3.5625 C-1 1 -1 1 0 0 Z " fill="#85AAD9" transform="translate(112,49)"/>
<path d="M0 0 C2.97 0.495 2.97 0.495 6 1 C5.94146362 13.17556781 0.87806151 24.63142552 -5.5625 34.75 C-5.92601563 35.32202148 -6.28953125 35.89404297 -6.6640625 36.48339844 C-9.01887647 39.99662896 -11.48865608 42.63592687 -15 45 C-17.3125 44.75 -17.3125 44.75 -19 44 C-18.2575 43.46375 -17.515 42.9275 -16.75 42.375 C-13.79900828 39.82641624 -12.05867181 37.2938749 -10 34 C-9.46375 33.401875 -8.9275 32.80375 -8.375 32.1875 C-6.22016033 28.75934597 -5.71688255 24.94707096 -5 21 C-4.34 21 -3.68 21 -3 21 C-2.87625 19.7625 -2.7525 18.525 -2.625 17.25 C-1.98787403 11.46046401 -0.99971644 5.73623704 0 0 Z " fill="#C92B2C" transform="translate(103,87)"/>
<path d="M0 0 C0.99 0 1.98 0 3 0 C3 1.98 3 3.96 3 6 C3.66 6 4.32 6 5 6 C5.33 4.68 5.66 3.36 6 2 C6.99 2 7.98 2 9 2 C9.33 3.65 9.66 5.3 10 7 C10.66 4.69 11.32 2.38 12 0 C13.32 0 14.64 0 16 0 C16.33 3.63 16.66 7.26 17 11 C8.54563758 14.23255034 8.54563758 14.23255034 5.8828125 13.09765625 C5.26148438 12.73542969 4.64015625 12.37320313 4 12 C-0.13472662 11.73034392 -3.93914924 12.22650462 -8 13 C-8 11.68 -8 10.36 -8 9 C-2.88888889 5 -2.88888889 5 0 5 C0 3.35 0 1.7 0 0 Z " fill="#658ECA" transform="translate(46,23)"/>
<path d="M0 0 C0.33 0 0.66 0 1 0 C1.1875 2.3125 1.1875 2.3125 1 5 C-0.3125 6.5 -0.3125 6.5 -2 8 C-2.495 8.825 -2.99 9.65 -3.5 10.5 C-5.35063985 13.58439975 -6.62233448 15.6291845 -10.19140625 16.58984375 C-11.77431368 16.82193397 -13.35765356 17.05109337 -14.94140625 17.27734375 C-17.19083816 17.8248077 -17.19083816 17.8248077 -18.27734375 20.06640625 C-18.51582031 20.70449219 -18.75429688 21.34257813 -19 22 C-19.66 22 -20.32 22 -21 22 C-24.09866202 15.37384327 -25.47266289 10.32627475 -25 3 C-24.01 3.33 -23.02 3.66 -22 4 C-21.26953125 5.84765625 -21.26953125 5.84765625 -20.8125 8.0625 C-20.65394531 8.79597656 -20.49539062 9.52945313 -20.33203125 10.28515625 C-20.16767578 11.13400391 -20.16767578 11.13400391 -20 12 C-19.43539062 11.6803125 -18.87078125 11.360625 -18.2890625 11.03125 C-15.20300013 9.64094204 -12.36679297 9.56589987 -9.0234375 9.34375 C-6.77713524 9.16292808 -6.77713524 9.16292808 -5 7 C-4.67 6.01 -4.34 5.02 -4 4 C-1.9375 3.3125 -1.9375 3.3125 0 3 C0 2.01 0 1.02 0 0 Z " fill="#B22733" transform="translate(61,68)"/>
<path d="M0 0 C-0.99 0 -1.98 0 -3 0 C-2.67 2.31 -2.34 4.62 -2 7 C-2.66 7 -3.32 7 -4 7 C-4.33 7.66 -4.66 8.32 -5 9 C-5.66 9 -6.32 9 -7 9 C-7.2475 9.53625 -7.495 10.0725 -7.75 10.625 C-9.32341984 13.6144977 -10.93100487 16.32247689 -13 19 C-14.32 19 -15.64 19 -17 19 C-17 19.66 -17 20.32 -17 21 C-18.47695491 22.28430862 -19.95806138 23.56580708 -21.4921875 24.78125 C-23.13813095 26.06784671 -23.13813095 26.06784671 -25 28 C-24.67 26.35 -24.34 24.7 -24 23 C-23.34 23 -22.68 23 -22 23 C-21.67 21.02 -21.34 19.04 -21 17 C-20.34 17 -19.68 17 -19 17 C-18.67 15.68 -18.34 14.36 -18 13 C-17.34 13 -16.68 13 -16 13 C-15.9175 12.443125 -15.835 11.88625 -15.75 11.3125 C-14.10752255 6.24819452 -10.17140253 3.07366503 -6 0 C-3.50907189 -1.24546405 -2.58919267 -0.7767578 0 0 Z " fill="#ADC8E8" transform="translate(64,35)"/>
<path d="M0 0 C0 2.31 0 4.62 0 7 C-1.32 7.33 -2.64 7.66 -4 8 C-4 8.66 -4 9.32 -4 10 C-3.01 10 -2.02 10 -1 10 C-0.875 12.875 -0.875 12.875 -1 16 C-1.66 16.66 -2.32 17.32 -3 18 C-5.625 17.625 -5.625 17.625 -8 17 C-8.12117188 16.25234375 -8.24234375 15.5046875 -8.3671875 14.734375 C-8.53476563 13.74953125 -8.70234375 12.7646875 -8.875 11.75 C-9.11863281 10.28820312 -9.11863281 10.28820312 -9.3671875 8.796875 C-10.21948256 5.02994126 -11.26949405 2.73050595 -14 0 C-8.48727081 -1.71084699 -5.46809845 -2.4606443 0 0 Z " fill="#EF868A" transform="translate(119,65)"/>
<path d="M0 0 C0 0.66 0 1.32 0 2 C1.32 1.67 2.64 1.34 4 1 C5.4606285 3.64738916 6 4.89448334 6 8 C1.32392638 7.36809816 1.32392638 7.36809816 -0.375 5.4375 C-2.08621271 3.63668362 -2.08621271 3.63668362 -5.5625 3.6875 C-9.06268472 3.63589512 -9.06268472 3.63589512 -11 6 C-11.14851844 7.93359586 -11.22130833 9.87342097 -11.25 11.8125 C-11.61420219 17.43065595 -11.61420219 17.43065595 -13.2890625 19.90234375 C-15.89872295 22.11991236 -17.55430963 23 -21 23 C-20.67 20.69 -20.34 18.38 -20 16 C-19.01 15.67 -18.02 15.34 -17 15 C-17 15.66 -17 16.32 -17 17 C-16.34 17 -15.68 17 -15 17 C-15.33 16.01 -15.66 15.02 -16 14 C-15.60363771 9.77990744 -14.73477861 6.06134688 -12.3125 2.5625 C-8.31957377 -0.13542313 -4.64651953 -1.54883984 0 0 Z " fill="#F49999" transform="translate(84,49)"/>
<path d="M0 0 C0.33 0.33 0.66 0.66 1 1 C0.71352467 3.33954855 0.36950465 5.67212073 0 8 C-0.19317546 9.47843617 -0.3808052 10.95760903 -0.5625 12.4375 C-0.7790625 14.2009375 -0.7790625 14.2009375 -1 16 C-1.66 15.01 -2.32 14.02 -3 13 C-4.32 13.33 -5.64 13.66 -7 14 C-8.76462683 10.91190305 -9 9.76687864 -9 6 C-9.66 6 -10.32 6 -11 6 C-11 5.34 -11 4.68 -11 4 C-12.98 4.66 -14.96 5.32 -17 6 C-11.83610794 0.26234216 -7.4165817 -0.37082908 0 0 Z " fill="#C53644" transform="translate(107,66)"/>
<path d="M0 0 C1.8125 0.1875 1.8125 0.1875 4 1 C5.875 3.3125 5.875 3.3125 7 6 C6.4375 8.25 6.4375 8.25 5 10 C4.34 10.144375 3.68 10.28875 3 10.4375 C2.34 10.623125 1.68 10.80875 1 11 C-0.13545562 13.29534258 -0.13545562 13.29534258 -1 16 C-2 18.8125 -2 18.8125 -4 21 C-7.36955222 21.43548332 -10.62141116 21.28524671 -14 21 C-14 20.34 -14 19.68 -14 19 C-12.68 19 -11.36 19 -10 19 C-9.7525 18.278125 -9.505 17.55625 -9.25 16.8125 C-7.87730408 13.72393418 -6.27646704 11.48988582 -4 9 C-3.34 9 -2.68 9 -2 9 C-0.50178941 5.62902617 0 3.79557881 0 0 Z " fill="#8EA4CD" transform="translate(61,35)"/>
<path d="M0 0 C0.66 0 1.32 0 2 0 C4.01167675 5.78357065 4.22084624 10.90218999 4 17 C-0.15771494 18.31538327 -2.8879297 17.34433068 -7 16 C-7.33 13.03 -7.66 10.06 -8 7 C-6.02 7 -4.04 7 -2 7 C-2 6.34 -2 5.68 -2 5 C-1.34 5 -0.68 5 0 5 C0 3.35 0 1.7 0 0 Z " fill="#E85E5A" transform="translate(88,72)"/>
<path d="M0 0 C0.33 0.66 0.66 1.32 1 2 C2.84971696 3.05021103 2.84971696 3.05021103 5 4 C6.33479424 4.66373681 7.66834591 5.32998536 9 6 C9.02698189 7.62490954 9.04638757 9.24994633 9.0625 10.875 C9.07410156 11.77992187 9.08570312 12.68484375 9.09765625 13.6171875 C9 16 9 16 8 18 C4 17 4 17 0 16 C0 10.72 0 5.44 0 0 Z " fill="#E1443E" transform="translate(94,80)"/>
<path d="M0 0 C0.99 0.33 1.98 0.66 3 1 C-0.75 4 -0.75 4 -3 4 C-3 5.32 -3 6.64 -3 8 C-0.03 8.495 -0.03 8.495 3 9 C3 9.33 3 9.66 3 10 C-3.0546875 10.1953125 -3.0546875 10.1953125 -5 10 C-5.66 9.34 -6.32 8.68 -7 8 C-9.93453261 8.36681658 -10.86437246 8.86437246 -13 11 C-13.40047444 13.32275177 -13.7397104 15.65739357 -14 18 C-14.33 18 -14.66 18 -15 18 C-15.33 19.65 -15.66 21.3 -16 23 C-16.33 23 -16.66 23 -17 23 C-16.67 16.73 -16.34 10.46 -16 4 C-17.32 3.67 -18.64 3.34 -20 3 C-17.36 2.34 -14.72 1.68 -12 1 C-12 2.32 -12 3.64 -12 5 C-10.186287 4.35758106 -8.37405876 3.71096881 -6.5625 3.0625 C-5.55316406 2.70285156 -4.54382813 2.34320313 -3.50390625 1.97265625 C-1.09686255 1.23122361 -1.09686255 1.23122361 0 0 Z " fill="#E35B55" transform="translate(67,81)"/>
<path d="M0 0 C0.495 1.485 0.495 1.485 1 3 C-0.47343043 5.79230522 -1.40407454 6.81532022 -4.4453125 7.7578125 C-5.32960938 7.87898438 -6.21390625 8.00015625 -7.125 8.125 C-9.74645582 8.46024415 -9.74645582 8.46024415 -12 9 C-12.33 9.66 -12.66 10.32 -13 11 C-11.68 11.33 -10.36 11.66 -9 12 C-10.98 12 -12.96 12 -15 12 C-15 11.34 -15 10.68 -15 10 C-18.63 10 -22.26 10 -26 10 C-26.33 9.01 -26.66 8.02 -27 7 C-29.01508358 6.26676204 -29.01508358 6.26676204 -31 6 C-31.33 4.68 -31.66 3.36 -32 2 C-28.75728494 2.5590888 -27.06942576 3.4132178 -25 6 C-25 6.66 -25 7.32 -25 8 C-23.92621094 7.7834375 -22.85242188 7.566875 -21.74609375 7.34375 C-20.30996328 7.06215579 -18.87376149 6.78092516 -17.4375 6.5 C-16.73302734 6.35691406 -16.02855469 6.21382812 -15.30273438 6.06640625 C-10.78109762 5.19125075 -6.60512972 4.85476595 -2 5 C-1.34 3.35 -0.68 1.7 0 0 Z " fill="#9CBEE4" transform="translate(111,50)"/>
<path d="M0 0 C0.99 0.33 1.98 0.66 3 1 C3.33 2.65 3.66 4.3 4 6 C0.04504575 8.61537297 -4.16827373 8.44264274 -8.75 8.625 C-9.93916016 8.68300781 -9.93916016 8.68300781 -11.15234375 8.7421875 C-13.10119416 8.836108 -15.05056451 8.91912822 -17 9 C-16.23095703 5.15820312 -16.23095703 5.15820312 -14.15234375 3.734375 C-13.42144531 3.40953125 -12.69054688 3.0846875 -11.9375 2.75 C-11.20402344 2.41484375 -10.47054687 2.0796875 -9.71484375 1.734375 C-9.14894531 1.49203125 -8.58304688 1.2496875 -8 1 C-8 1.99 -8 2.98 -8 4 C-6.68 4.33 -5.36 4.66 -4 5 C-4 4.34 -4 3.68 -4 3 C-3.34 3 -2.68 3 -2 3 C-2 2.34 -2 1.68 -2 1 C-1.34 0.67 -0.68 0.34 0 0 Z " fill="#8B9EC8" transform="translate(76,69)"/>
<path d="M0 0 C0.99 0.66 1.98 1.32 3 2 C2.67 2.66 2.34 3.32 2 4 C1.34 4 0.68 4 0 4 C-2.25495121 8.50990242 -2.2430836 12.05730019 -2 17 C-1.67 17.66 -1.34 18.32 -1 19 C-4.86848614 17.88243734 -7.28922757 16.97126708 -10 14 C-9.26420788 12.53444684 -8.51074874 11.07775513 -7.75 9.625 C-7.33234375 8.81289063 -6.9146875 8.00078125 -6.484375 7.1640625 C-4.83045183 4.75281661 -3.5803501 4.22619943 -1 3 C-0.67 2.01 -0.34 1.02 0 0 Z " fill="#F0898A" transform="translate(67,41)"/>
<path d="M0 0 C1.32 0 2.64 0 4 0 C4.33 3.63 4.66 7.26 5 11 C0 12 0 12 -2 11 C-2 10.34 -2 9.68 -2 9 C-2.66 9 -3.32 9 -4 9 C-4 6.69 -4 4.38 -4 2 C-3.67 2 -3.34 2 -3 2 C-2.67 3.65 -2.34 5.3 -2 7 C-1.34 4.69 -0.68 2.38 0 0 Z " fill="#789BCE" transform="translate(58,23)"/>
<path d="M0 0 C2.30436237 2.30436237 2.93312794 3.91431244 3.1328125 7.15625 C3.13023438 7.9296875 3.12765625 8.703125 3.125 9.5 C3.12757812 10.2734375 3.13015625 11.046875 3.1328125 11.84375 C3 14 3 14 2 17 C0.68 16.67 -0.64 16.34 -2 16 C-2.05449838 14.27119018 -2.09301688 12.54187288 -2.125 10.8125 C-2.14820312 9.84957031 -2.17140625 8.88664062 -2.1953125 7.89453125 C-1.9913544 4.87187222 -1.26874632 2.73230015 0 0 Z " fill="#AC212E" transform="translate(108,69)"/>
<path d="M0 0 C2.91517292 1.07401108 4.77810176 1.77810176 7 4 C6.625 6.125 6.625 6.125 6 8 C4.68 8.33 3.36 8.66 2 9 C2 8.34 2 7.68 2 7 C-1.21182149 5.09391902 -3.53882603 4.77733753 -7.25 4.875 C-8.58804688 4.90207031 -8.58804688 4.90207031 -9.953125 4.9296875 C-10.62859375 4.95289063 -11.3040625 4.97609375 -12 5 C-8.96474514 2.97649676 -7.80573798 2.67875982 -4.3125 2.375 C-3.50425781 2.30023438 -2.69601563 2.22546875 -1.86328125 2.1484375 C-1.24839844 2.09945312 -0.63351563 2.05046875 0 2 C0 1.34 0 0.68 0 0 Z " fill="#F5AAAC" transform="translate(110,31)"/>
<path d="M0 0 C1.32 0.33 2.64 0.66 4 1 C4 1.66 4 2.32 4 3 C4.99 3 5.98 3 7 3 C7.125 5.875 7.125 5.875 7 9 C6.34 9.66 5.68 10.32 5 11 C2.375 10.625 2.375 10.625 0 10 C0 6.7 0 3.4 0 0 Z " fill="#F7ABB0" transform="translate(111,72)"/>
<path d="M0 0 C2.64 0 5.28 0 8 0 C7.67 0.66 7.34 1.32 7 2 C7.33 2.66 7.66 3.32 8 4 C8.04022391 6.3329866 8.04320247 8.66706666 8 11 C7.34 10.01 6.68 9.02 6 8 C4.68 8.33 3.36 8.66 2 9 C0.14223235 5.86501708 -0.20140476 3.62528568 0 0 Z " fill="#BD313F" transform="translate(98,71)"/>
<path d="M0 0 C3 2 3 2 3.43237305 4.06298828 C3.45855713 4.89040527 3.48474121 5.71782227 3.51171875 6.5703125 C3.54716797 7.46621094 3.58261719 8.36210938 3.61914062 9.28515625 C3.64169922 10.22230469 3.66425781 11.15945312 3.6875 12.125 C3.72166016 13.06988281 3.75582031 14.01476562 3.79101562 14.98828125 C3.87364112 17.32540253 3.94273988 19.66214191 4 22 C3.34 22.33 2.68 22.66 2 23 C1.32880451 21.5437455 0.66318193 20.08492133 0 18.625 C-0.37125 17.81289062 -0.7425 17.00078125 -1.125 16.1640625 C-2 14 -2 14 -2 12 C-1.01 12 -0.02 12 1 12 C0.67 8.04 0.34 4.08 0 0 Z " fill="#BD323B" transform="translate(91,77)"/>
<path d="M0 0 C1.32 0 2.64 0 4 0 C4.05423638 1.91635217 4.09289963 3.83314925 4.125 5.75 C4.14820313 6.81734375 4.17140625 7.8846875 4.1953125 8.984375 C4.00487687 11.92470106 3.52670104 13.52361878 2 16 C2 15.01 2 14.02 2 13 C1.34 13 0.68 13 0 13 C0.020625 12.2575 0.04125 11.515 0.0625 10.75 C0.11253087 8.08608477 0.11253087 8.08608477 -0.5625 5.9375 C-1.08042477 3.64383315 -0.7116378 2.21398425 0 0 Z " fill="#F4786E" transform="translate(47,85)"/>
<path d="M0 0 C0.66 0 1.32 0 2 0 C2 0.66 2 1.32 2 2 C1.34 2 0.68 2 0 2 C0.01160156 3.02480469 0.02320312 4.04960938 0.03515625 5.10546875 C0.04454022 6.466144 0.05363977 7.82682124 0.0625 9.1875 C0.07087891 9.86103516 0.07925781 10.53457031 0.08789062 11.22851562 C0.10606538 14.95434131 -0.10700608 18.3788042 -1 22 C-1.33 21.34 -1.66 20.68 -2 20 C-2.99 20.33 -3.98 20.66 -5 21 C-4.36036805 17.6862709 -3.71226081 14.37425665 -3.0625 11.0625 C-2.78889648 9.64420898 -2.78889648 9.64420898 -2.50976562 8.19726562 C-2.33251953 7.29814453 -2.15527344 6.39902344 -1.97265625 5.47265625 C-1.72914429 4.22367554 -1.72914429 4.22367554 -1.48071289 2.94946289 C-1 1 -1 1 0 0 Z " fill="#F2E0D8" transform="translate(111,82)"/>
<path d="M0 0 C0.66 0.33 1.32 0.66 2 1 C2 1.66 2 2.32 2 3 C3.32 3.66 4.64 4.32 6 5 C3.04868199 5 0.51287402 4.83774921 -2.375 4.4375 C-6.12025327 3.99178391 -9.29524335 4.14505616 -13 5 C-13 4.34 -13 3.68 -13 3 C-8.45298292 0.33833147 -5.25905171 -0.40454244 0 0 Z " fill="#5375B9" transform="translate(51,31)"/>
<path d="M0 0 C1.51553092 3.97450493 0.49888623 7.20481149 -0.4375 11.25 C-0.72496094 12.51328125 -1.01242188 13.7765625 -1.30859375 15.078125 C-1.53675781 16.04234375 -1.76492187 17.0065625 -2 18 C-2.66 18 -3.32 18 -4 18 C-4 17.01 -4 16.02 -4 15 C-4.99 15 -5.98 15 -7 15 C-5.63408831 11.45756548 -4.09068516 8.07372071 -2.375 4.6875 C-1.70597656 3.36298828 -1.70597656 3.36298828 -1.0234375 2.01171875 C-0.68570313 1.34785156 -0.34796875 0.68398437 0 0 Z " fill="#F6EAE7" transform="translate(103,109)"/>
<path d="M0 0 C0.99 0.33 1.98 0.66 3 1 C2.34 4.96 1.68 8.92 1 13 C0.01 12.67 -0.98 12.34 -2 12 C-3.35111663 4.19354839 -3.35111663 4.19354839 -2 1 C-1.34 0.67 -0.68 0.34 0 0 Z " fill="#F3ABB0" transform="translate(82,27)"/>
<path d="M0 0 C0.66 0 1.32 0 2 0 C1.98839844 0.80824219 1.97679687 1.61648437 1.96484375 2.44921875 C1.95582031 3.51785156 1.94679687 4.58648437 1.9375 5.6875 C1.92589844 6.74324219 1.91429687 7.79898438 1.90234375 8.88671875 C1.99134575 11.72410262 2.35060162 14.2438919 3 17 C1.35 17.33 -0.3 17.66 -2 18 C-2.3690205 5.33029613 -2.3690205 5.33029613 0 0 Z " fill="#F7F1EF" transform="translate(35,68)"/>
<path d="M0 0 C0.99 0 1.98 0 3 0 C1.50079488 3.11373372 -0.08152136 6.12228205 -2 9 C-2.66 9 -3.32 9 -4 9 C-4.268125 9.639375 -4.53625 10.27875 -4.8125 10.9375 C-6 13 -6 13 -9 14 C-9.33 14.66 -9.66 15.32 -10 16 C-10 15.01 -10 14.02 -10 13 C-9.34 13 -8.68 13 -8 13 C-7.67 11.68 -7.34 10.36 -7 9 C-6.34 9 -5.68 9 -5 9 C-4.9175 8.443125 -4.835 7.88625 -4.75 7.3125 C-3.75290104 4.23811154 -2.20770546 2.33757048 0 0 Z " fill="#D3E4F1" transform="translate(53,39)"/>
<path d="M0 0 C-0.99 2.97 -1.98 5.94 -3 9 C-7.455 9.495 -7.455 9.495 -12 10 C-12 9.34 -12 8.68 -12 8 C-10.68 8 -9.36 8 -8 8 C-7.731875 7.236875 -7.46375 6.47375 -7.1875 5.6875 C-5.44418366 1.74209986 -4.44526451 0 0 0 Z " fill="#85A3D6" transform="translate(59,46)"/>
<path d="M0 0 C0 2.31 0 4.62 0 7 C-0.33 5.68 -0.66 4.36 -1 3 C-2.216875 2.855625 -3.43375 2.71125 -4.6875 2.5625 C-7.82670377 2.17219047 -10.9075134 1.67648144 -14 1 C-8.52308975 -1.93405906 -5.94035055 -2.29513544 0 0 Z " fill="#F1AAAE" transform="translate(119,65)"/>
<path d="M0 0 C1.32 0.33 2.64 0.66 4 1 C4.33 2.98 4.66 4.96 5 7 C5.99 7 6.98 7 8 7 C8 9.31 8 11.62 8 14 C5 12 5 12 4.3125 9.375 C4.209375 8.59125 4.10625 7.8075 4 7 C3.34 7 2.68 7 2 7 C1.34 4.69 0.68 2.38 0 0 Z " fill="#ED746E" transform="translate(43,99)"/>
<path d="M0 0 C0.33 0 0.66 0 1 0 C1 1.65 1 3.3 1 5 C1.99 4.34 2.98 3.68 4 3 C4.99 3.33 5.98 3.66 7 4 C5.824375 4.37125 5.824375 4.37125 4.625 4.75 C1.59062001 6.19494285 1.32970275 7.05565819 0 10 C-0.99 10.33 -1.98 10.66 -3 11 C-3.32434322 6.35108046 -2.776422 3.77593392 0 0 Z " fill="#F8B6B6" transform="translate(67,45)"/>
<path d="M0 0 C0.66 0.66 1.32 1.32 2 2 C1.99609375 4.38671875 1.99609375 4.38671875 1 7 C-1.65234375 9.01953125 -1.65234375 9.01953125 -4.9375 10.8125 C-6.01902344 11.41707031 -7.10054688 12.02164063 -8.21484375 12.64453125 C-11 14 -11 14 -13 14 C-13 13.34 -13 12.68 -13 12 C-12.01 12 -11.02 12 -10 12 C-10 11.34 -10 10.68 -10 10 C-9.071875 9.5875 -8.14375 9.175 -7.1875 8.75 C-2.97809685 6.43895513 -1.50099423 4.50298268 0 0 Z " fill="#C73B41" transform="translate(91,99)"/>
<path d="M0 0 C4.29 0 8.58 0 13 0 C11 4 11 4 8.5625 4.875 C6 5 6 5 3 3 C3.33 2.34 3.66 1.68 4 1 C2.68 0.67 1.36 0.34 0 0 Z " fill="#EB6C61" transform="translate(64,77)"/>
<path d="M0 0 C1.98 0.495 1.98 0.495 4 1 C4 2.32 4 3.64 4 5 C4.99 3.35 5.98 1.7 7 0 C7.66 0.66 8.32 1.32 9 2 C6.375 6.875 6.375 6.875 3 8 C0.8125 7.0625 0.8125 7.0625 -1 6 C-0.34 5.01 0.32 4.02 1 3 C0.34 3 -0.32 3 -1 3 C-0.67 2.01 -0.34 1.02 0 0 Z " fill="#F1F3F6" transform="translate(103,48)"/>
<path d="M0 0 C0.66 0.33 1.32 0.66 2 1 C2 1.66 2 2.32 2 3 C-1 5.5 -1 5.5 -4 8 C-4 8.66 -4 9.32 -4 10 C-8.95 9.67 -13.9 9.34 -19 9 C-19 8.67 -19 8.34 -19 8 C-18.19175781 7.97421875 -17.38351563 7.9484375 -16.55078125 7.921875 C-9.90035093 7.65100295 -9.90035093 7.65100295 -3.875 5.125 C-1.86441328 2.94240113 -1.86441328 2.94240113 0 0 Z " fill="#EDCECC" transform="translate(95,124)"/>
<path d="M0 0 C1.7074998 1.28062485 3.37373596 2.61767557 5 4 C5 4.66 5 5.32 5 6 C5.99 6 6.98 6 8 6 C8 7.32 8 8.64 8 10 C8.66 10 9.32 10 10 10 C9.67 10.99 9.34 11.98 9 13 C8.67 12.34 8.34 11.68 8 11 C5.97536745 10.34786708 5.97536745 10.34786708 4 10 C4 8.68 4 7.36 4 6 C3.34 6 2.68 6 2 6 C0 3 0 3 0 0 Z " fill="#E95753" transform="translate(56,106)"/>
<path d="M0 0 C1.90318884 2.85478326 2.4619099 4.41941308 3.125 7.6875 C3.29257812 8.49574219 3.46015625 9.30398437 3.6328125 10.13671875 C3.75398438 10.75160156 3.87515625 11.36648437 4 12 C4.66 12 5.32 12 6 12 C6.33 13.32 6.66 14.64 7 16 C5.68 16.33 4.36 16.66 3 17 C1.25314692 13.17254549 0.65113667 9.87557277 0.375 5.6875 C0.26285156 4.08455078 0.26285156 4.08455078 0.1484375 2.44921875 C0.09945312 1.64097656 0.05046875 0.83273438 0 0 Z " fill="#F8EBE8" transform="translate(41,94)"/>
<path d="M0 0 C0.33 0.66 0.66 1.32 1 2 C2.32 1.67 3.64 1.34 5 1 C6.4606285 3.64738916 7 4.89448334 7 8 C3.32579134 7.69381595 2.21864487 7.24228216 -0.3125 4.4375 C-0.869375 3.633125 -1.42625 2.82875 -2 2 C-1.34 1.34 -0.68 0.68 0 0 Z " fill="#EF8A8C" transform="translate(83,49)"/>
<path d="M0 0 C0.33 0.66 0.66 1.32 1 2 C-2.63 2.66 -6.26 3.32 -10 4 C-10 4.66 -10 5.32 -10 6 C-10.99 6 -11.98 6 -13 6 C-12.67 4.35 -12.34 2.7 -12 1 C-7.9472484 0.01751476 -4.16138263 -0.08159574 0 0 Z " fill="#F29293" transform="translate(106,32)"/>
<path d="M0 0 C8.35010941 0.35010941 8.35010941 0.35010941 11.0625 3.0625 C11.371875 3.701875 11.68125 4.34125 12 5 C9.75 6.1875 9.75 6.1875 7 7 C4.6875 5.625 4.6875 5.625 3 4 C3.66 3.34 4.32 2.68 5 2 C3.35 1.67 1.7 1.34 0 1 C0 0.67 0 0.34 0 0 Z " fill="#EDF4F9" transform="translate(44,34)"/>
<path d="M0 0 C0.66 0 1.32 0 2 0 C2 0.66 2 1.32 2 2 C2.66 2 3.32 2 4 2 C3.42655063 4.86724686 3.1385485 5.8614515 1 8 C0.01 8 -0.98 8 -2 8 C-1.125 1.125 -1.125 1.125 0 0 Z " fill="#EE8384" transform="translate(65,64)"/>
<path d="M0 0 C3.02419525 0.58803797 6.01758453 1.22678118 9 2 C9.33 3.32 9.66 4.64 10 6 C9.01 6.33 8.02 6.66 7 7 C5.17578125 5.8203125 5.17578125 5.8203125 3.3125 4.125 C2.68988281 3.57070312 2.06726563 3.01640625 1.42578125 2.4453125 C0 1 0 1 0 0 Z " fill="#93181D" transform="translate(99,82)"/>
<path d="M0 0 C1.65 0.33 3.3 0.66 5 1 C4.01 3.31 3.02 5.62 2 8 C1.01 8 0.02 8 -1 8 C-1.125 2.25 -1.125 2.25 0 0 Z " fill="#F9F1F1" transform="translate(84,31)"/>
<path d="M0 0 C0.33 0.66 0.66 1.32 1 2 C1.66 2.33 2.32 2.66 3 3 C2.01 3 1.02 3 0 3 C0 3.66 0 4.32 0 5 C-1.47695491 6.28430862 -2.95806138 7.56580708 -4.4921875 8.78125 C-6.13813095 10.06784671 -6.13813095 10.06784671 -8 12 C-7.67 10.35 -7.34 8.7 -7 7 C-6.34 7 -5.68 7 -5 7 C-5 6.01 -5 5.02 -5 4 C-4.34 4 -3.68 4 -3 4 C-3 3.34 -3 2.68 -3 2 C-2.01 1.34 -1.02 0.68 0 0 Z " fill="#C0CEE2" transform="translate(47,51)"/>
<path d="M0 0 C2.31 0.66 4.62 1.32 7 2 C7 2.99 7 3.98 7 5 C3.7 5.33 0.4 5.66 -3 6 C-1.68 5.67 -0.36 5.34 1 5 C0.67 3.35 0.34 1.7 0 0 Z " fill="#DC9BA6" transform="translate(89,52)"/>
<path d="M0 0 C3.875 0.875 3.875 0.875 5 2 C5.04080783 3.99958364 5.04254356 6.00045254 5 8 C3.0625 7.375 3.0625 7.375 1 6 C0.25 2.875 0.25 2.875 0 0 Z " fill="#6F5A6C" transform="translate(61,35)"/>
<path d="M0 0 C0.33 0 0.66 0 1 0 C1.33 3.96 1.66 7.92 2 12 C1.01 12.495 1.01 12.495 0 13 C-0.33 12.01 -0.66 11.02 -1 10 C-1.66 9.67 -2.32 9.34 -3 9 C-2.01 6.03 -1.02 3.06 0 0 Z " fill="#D8403D" transform="translate(89,111)"/>
<path d="M0 0 C1.32 0 2.64 0 4 0 C4 0.66 4 1.32 4 2 C4.66 2.33 5.32 2.66 6 3 C6 3.66 6 4.32 6 5 C2.7 4.67 -0.6 4.34 -4 4 C-3.67 3.34 -3.34 2.68 -3 2 C-2.01 2 -1.02 2 0 2 C0 1.34 0 0.68 0 0 Z " fill="#6386B9" transform="translate(80,73)"/>
<path d="M0 0 C1.9375 0.75 1.9375 0.75 4 2 C4.875 4 4.875 4 5 6 C4.34 6.66 3.68 7.32 3 8 C2.01 8 1.02 8 0 8 C-0.33 6.68 -0.66 5.36 -1 4 C-0.34 3.67 0.32 3.34 1 3 C0.67 2.01 0.34 1.02 0 0 Z " fill="#EB9E9B" transform="translate(112,32)"/>
<path d="M0 0 C0.99 0 1.98 0 3 0 C3 1.98 3 3.96 3 6 C1.02253397 6.73080266 -0.98072489 7.39421747 -3 8 C-3.66 7.67 -4.32 7.34 -5 7 C-3.35 6.34 -1.7 5.68 0 5 C0 3.35 0 1.7 0 0 Z " fill="#7FA0CC" transform="translate(46,23)"/>
<path d="M0 0 C0 0.66 0 1.32 0 2 C-6.28571429 4.42857143 -6.28571429 4.42857143 -10 3 C-9.34 3 -8.68 3 -8 3 C-7.67 2.01 -7.34 1.02 -7 0 C-4.05610218 -1.17755913 -3.10046087 -1.03348696 0 0 Z " fill="#EBEEF3" transform="translate(45,36)"/>
<path d="M0 0 C0.66 0.33 1.32 0.66 2 1 C2 1.99 2 2.98 2 4 C2.66 4.33 3.32 4.66 4 5 C3.34 6.65 2.68 8.3 2 10 C0.68 8.68 -0.64 7.36 -2 6 C-1.34 4.02 -0.68 2.04 0 0 Z " fill="#ED6B64" transform="translate(53,108)"/>
<path d="M0 0 C0.99 0.33 1.98 0.66 3 1 C2.2884375 1.495 2.2884375 1.495 1.5625 2 C-0.85791615 5.09813267 -0.68198917 8.12026792 -1 12 C-1.66 12 -2.32 12 -3 12 C-3.08131463 10.56344146 -3.13933559 9.1255517 -3.1875 7.6875 C-3.22230469 6.88699219 -3.25710937 6.08648437 -3.29296875 5.26171875 C-2.93801608 2.52148416 -2.10633718 1.70828921 0 0 Z " fill="#7D8BB8" transform="translate(75,52)"/>
<path d="M0 0 C0.99 0.33 1.98 0.66 3 1 C2.34 2.65 1.68 4.3 1 6 C1.66 6.33 2.32 6.66 3 7 C1.68 7.33 0.36 7.66 -1 8 C-1.33 7.34 -1.66 6.68 -2 6 C-1.67 5.34 -1.34 4.68 -1 4 C-1.66 3.67 -2.32 3.34 -3 3 C-2.34 3 -1.68 3 -1 3 C-0.67 2.01 -0.34 1.02 0 0 Z " fill="#DB3E3A" transform="translate(84,121)"/>
<path d="M0 0 C1.32 0 2.64 0 4 0 C4 1.98 4 3.96 4 6 C3.01 6.33 2.02 6.66 1 7 C0.67 4.69 0.34 2.38 0 0 Z " fill="#6477A8" transform="translate(119,54)"/>
<path d="M0 0 C0.99 0.66 1.98 1.32 3 2 C2.67 2.66 2.34 3.32 2 4 C1.34 4 0.68 4 0 4 C-0.66 5.65 -1.32 7.3 -2 9 C-2.99 8.34 -3.98 7.68 -5 7 C-5 6.34 -5 5.68 -5 5 C-4.360625 4.731875 -3.72125 4.46375 -3.0625 4.1875 C-0.66868314 3.11332248 -0.66868314 3.11332248 0 0 Z " fill="#DD9295" transform="translate(67,41)"/>
<path d="M0 0 C0.33 0 0.66 0 1 0 C0.67 3.3 0.34 6.6 0 10 C-0.33 9.34 -0.66 8.68 -1 8 C-1.99 8.33 -2.98 8.66 -4 9 C-3.67 7.35 -3.34 5.7 -3 4 C-2.34 4 -1.68 4 -1 4 C-0.67 2.68 -0.34 1.36 0 0 Z " fill="#F5E7E9" transform="translate(110,94)"/>
<path d="M0 0 C2.5330499 0.52383185 5.018854 1.11732422 7.5078125 1.8203125 C7.5078125 2.1503125 7.5078125 2.4803125 7.5078125 2.8203125 C4.8678125 3.1503125 2.2278125 3.4803125 -0.4921875 3.8203125 C-0.4921875 3.1603125 -0.4921875 2.5003125 -0.4921875 1.8203125 C-2.4721875 2.4803125 -4.4521875 3.1403125 -6.4921875 3.8203125 C-4.6389259 0.95618093 -3.49631518 -0.25208542 0 0 Z " fill="#AB3C4B" transform="translate(96.4921875,68.1796875)"/>
<path d="M0 0 C-1.52708963 3.43595166 -3.59927045 6.11912454 -6 9 C-6.36521739 3.52173913 -6.36521739 3.52173913 -4.6875 1.125 C-3 0 -3 0 0 0 Z " fill="#C8DAF0" transform="translate(56,39)"/>
<path d="M0 0 C0.66 0.99 1.32 1.98 2 3 C0.515 5.475 0.515 5.475 -1 8 C-1.99 7.67 -2.98 7.34 -4 7 C-2.68 4.69 -1.36 2.38 0 0 Z " fill="#CC2628" transform="translate(96,117)"/>
<path d="M0 0 C1.32 0.33 2.64 0.66 4 1 C4 1.66 4 2.32 4 3 C4.99 3 5.98 3 7 3 C7 4.98 7 6.96 7 9 C6.01 9.495 6.01 9.495 5 10 C4.67 9.01 4.34 8.02 4 7 C4.66 7 5.32 7 6 7 C6 6.01 6 5.02 6 4 C5.071875 3.7834375 5.071875 3.7834375 4.125 3.5625 C2 3 2 3 0 2 C0 1.34 0 0.68 0 0 Z " fill="#EEBAB9" transform="translate(111,72)"/>
<path d="M0 0 C0.99 0 1.98 0 3 0 C4.125 5.75 4.125 5.75 3 8 C2.01 8 1.02 8 0 8 C0 5.33333333 0 2.66666667 0 0 Z " fill="#EDF3F4" transform="translate(123,56)"/>
<path d="M0 0 C3.24271506 0.5590888 4.93057424 1.4132178 7 4 C7 4.66 7 5.32 7 6 C4.0625 5.25 4.0625 5.25 1 4 C0.125 1.875 0.125 1.875 0 0 Z " fill="#ECE3E9" transform="translate(79,52)"/>
<path d="M0 0 C0.99 0 1.98 0 3 0 C4.35439668 2.70879335 4.06501451 5.00933268 4 8 C3.34 8 2.68 8 2 8 C1.34 5.36 0.68 2.72 0 0 Z " fill="#E24644" transform="translate(96,99)"/>
<path d="M0 0 C0.33 0.66 0.66 1.32 1 2 C3.02463255 2.65213292 3.02463255 2.65213292 5 3 C5 3.99 5 4.98 5 6 C3.35 5.67 1.7 5.34 0 5 C0 3.35 0 1.7 0 0 Z " fill="#E9848A" transform="translate(111,77)"/>
<path d="M0 0 C0.33 0 0.66 0 1 0 C1 3.63 1 7.26 1 11 C0.01 11.33 -0.98 11.66 -2 12 C-2 10.68 -2 9.36 -2 8 C-1.34 8 -0.68 8 0 8 C0 5.36 0 2.72 0 0 Z " fill="#E4909D" transform="translate(71,56)"/>
<path d="M0 0 C2.97 0 5.94 0 9 0 C5.55549263 2.29633824 3.06187717 2.54016485 -1 3 C-0.67 2.01 -0.34 1.02 0 0 Z " fill="#6887C0" transform="translate(107,62)"/>
<path d="M0 0 C2.31 0 4.62 0 7 0 C7 0.66 7 1.32 7 2 C5.68 2 4.36 2 3 2 C2.67 3.32 2.34 4.64 2 6 C1.34 6 0.68 6 0 6 C0 4.02 0 2.04 0 0 Z " fill="#E0ECF4" transform="translate(49,23)"/>
<path d="M0 0 C1.7074998 1.28062485 3.37373596 2.61767557 5 4 C5 4.66 5 5.32 5 6 C5.66 6.33 6.32 6.66 7 7 C4.625 6.6875 4.625 6.6875 2 6 C0 3 0 3 0 0 Z " fill="#DF4D4A" transform="translate(56,106)"/>
<path d="M0 0 C0.66 0.33 1.32 0.66 2 1 C2 1.66 2 2.32 2 3 C4.97 3.495 4.97 3.495 8 4 C8 4.33 8 4.66 8 5 C6.72125 5.061875 5.4425 5.12375 4.125 5.1875 C3.40570313 5.22230469 2.68640625 5.25710937 1.9453125 5.29296875 C1.30335937 5.19628906 0.66140625 5.09960938 0 5 C-0.66 4.01 -1.32 3.02 -2 2 C-1.34 1.34 -0.68 0.68 0 0 Z " fill="#E6665D" transform="translate(62,86)"/>
<path d="M0 0 C0.66 0 1.32 0 2 0 C1.67 2.64 1.34 5.28 1 8 C0.34 8 -0.32 8 -1 8 C-0.67 5.36 -0.34 2.72 0 0 Z " fill="#A9202D" transform="translate(109,78)"/>
<path d="M0 0 C0.9075 0.37125 1.815 0.7425 2.75 1.125 C2.42 1.785 2.09 2.445 1.75 3.125 C-2.705 2.135 -2.705 2.135 -7.25 1.125 C-3.25 -0.875 -3.25 -0.875 0 0 Z " fill="#E3BDC2" transform="translate(116.25,63.875)"/>
<path d="M0 0 C5.75 1.875 5.75 1.875 8 3 C8 3.66 8 4.32 8 5 C4.75791433 4.64950425 3.38472296 4.43778819 1.1875 1.9375 C0.795625 1.298125 0.40375 0.65875 0 0 Z " fill="#BE3E4D" transform="translate(82,52)"/>
<path d="M0 0 C-0.33 1.65 -0.66 3.3 -1 5 C-2.32 4.67 -3.64 4.34 -5 4 C-5 3.01 -5 2.02 -5 1 C-3 0 -3 0 0 0 Z " fill="#F19B9E" transform="translate(94,39)"/>
<path d="M0 0 C2.31 0.33 4.62 0.66 7 1 C6.34 1.66 5.68 2.32 5 3 C5.99 4.485 5.99 4.485 7 6 C4.50638429 4.79618552 2.31856917 3.54571278 0 2 C0 1.34 0 0.68 0 0 Z " fill="#B12626" transform="translate(95,80)"/>
<path d="M0 0 C0.99 0 1.98 0 3 0 C3 0.66 3 1.32 3 2 C2.34 2 1.68 2 1 2 C0.67 2.99 0.34 3.98 0 5 C-0.99 5 -1.98 5 -3 5 C-1.125 1.125 -1.125 1.125 0 0 Z " fill="#7490CA" transform="translate(85,68)"/>
<path d="M0 0 C-0.33 0.99 -0.66 1.98 -1 3 C-3.64 2.67 -6.28 2.34 -9 2 C-5.5647952 -0.29013653 -4.014669 -0.17842973 0 0 Z " fill="#B13F55" transform="translate(105,66)"/>
<path d="M0 0 C1.32 0.66 2.64 1.32 4 2 C3.67 2.99 3.34 3.98 3 5 C1.68 4.67 0.36 4.34 -1 4 C-0.67 2.68 -0.34 1.36 0 0 Z " fill="#A8C2E1" transform="translate(58,37)"/>
<path d="M0 0 C5.41538462 -0.36923077 5.41538462 -0.36923077 8.375 1.5 C8.91125 1.995 9.4475 2.49 10 3 C6.09567131 3 3.61973402 2.31626692 0 1 C0 0.67 0 0.34 0 0 Z " fill="#637FB2" transform="translate(47,33)"/>
<path d="M0 0 C3.27642756 0.25866533 4.60820723 0.55416685 6.8125 3.0625 C7.204375 3.701875 7.59625 4.34125 8 5 C6.68 5 5.36 5 4 5 C3.67 4.01 3.34 3.02 3 2 C0.98491642 1.26676204 0.98491642 1.26676204 -1 1 C-0.67 0.67 -0.34 0.34 0 0 Z " fill="#FBEFEE" transform="translate(81,26)"/>
</svg>
