<?xml version="1.0" encoding="UTF-8"?>
<svg version="1.1" xmlns="http://www.w3.org/2000/svg" width="612" height="612">
<path d="M0 0 C201.96 0 403.92 0 612 0 C612 201.96 612 403.92 612 612 C410.04 612 208.08 612 0 612 C0 410.04 0 208.08 0 0 Z " fill="#FEFEFE" transform="translate(0,0)"/>
<path d="M0 0 C2.39269352 1.89218521 2.39269352 1.89218521 4.75367737 4.0791626 C5.62172564 4.88235176 6.4897739 5.68554092 7.38412666 6.51306915 C11.45858207 10.38668516 15.46703923 14.31955277 19.44116211 18.29589844 C20.32537842 19.17675613 21.20959473 20.05761383 22.12060547 20.96516418 C24.51256866 23.34933355 26.90230257 25.73568871 29.29069209 28.12343502 C30.78674403 29.61877078 32.28350801 31.11339008 33.78051949 32.6077652 C39.01252362 37.83056426 44.24198636 43.05589207 49.46899414 48.28369141 C54.32923328 53.1445337 59.19505179 57.99974156 64.06345361 62.85240722 C68.26002265 67.0358974 72.45272394 71.22323728 76.64243895 75.41359162 C79.13785685 77.90926391 81.63478742 80.4033742 84.13563347 82.89360809 C86.91756188 85.66404764 89.69142943 88.44247196 92.46459961 91.22167969 C93.28902054 92.04048111 94.11344147 92.85928253 94.96284485 93.70289612 C95.71820526 94.46245102 96.47356567 95.22200592 97.2518158 96.00457764 C97.90712752 96.6593446 98.56243925 97.31411156 99.23760891 97.98871994 C105.53572382 105.17626929 106.28462415 113.17765515 106.2734375 122.3203125 C106.29371145 124.08985025 106.31456193 125.85938147 106.3359375 127.62890625 C106.35857268 130.38498516 106.37503341 133.14080484 106.38085938 135.89697266 C106.3903964 138.5802136 106.42416275 141.26232571 106.4609375 143.9453125 C106.45336929 145.17364304 106.45336929 145.17364304 106.44564819 146.42678833 C106.53669495 151.74379463 107.49192457 154.77111489 111 159 C116.22259857 163.05630398 121.65340142 162.77397544 128 162 C132.589114 159.82620916 134.85201292 157.55377843 137 153 C137.42691502 150.03630058 137.41729791 147.10367502 137.40625 144.11328125 C137.42250427 142.82770576 137.42250427 142.82770576 137.43908691 141.51615906 C137.47326299 138.78152953 137.48891129 136.04731459 137.5 133.3125 C137.61037574 106.35442471 137.61037574 106.35442471 144 99 C144.66 99 145.32 99 146 99 C146.226875 98.46375 146.45375 97.9275 146.6875 97.375 C149.79341003 91.75478185 154.06923568 88.00624601 159 84 C161.68720976 81.44387364 164.09748464 78.8800189 166.4375 76 C169.06751232 72.92096119 171.8625034 70.54921599 175 68 C177.68720976 65.44387364 180.09748464 62.8800189 182.4375 60 C185.06751232 56.92096119 187.8625034 54.54921599 191 52 C193.68720976 49.44387364 196.09748464 46.8800189 198.4375 44 C201.06751232 40.92096119 203.8625034 38.54921599 207 36 C209.68720976 33.44387364 212.09748464 30.8800189 214.4375 28 C217.06751232 24.92096119 219.8625034 22.54921599 223 20 C225.64508971 17.48393905 228.02346899 14.97082234 230.3125 12.125 C236.90189832 4.19331684 245.44423957 -2.50169057 255.7578125 -4.546875 C264.23048032 -4.9915048 272.5951576 -2.15330781 279.4609375 2.76171875 C285.47491792 8.27267107 288.49188899 14.3476086 289.375 22.43359375 C289.63101968 29.86616504 288.89820656 35.63038144 285 42 C284.43925781 42.93585938 284.43925781 42.93585938 283.8671875 43.890625 C281.3048044 47.79359263 278.27509961 50.71960303 274.6484375 53.640625 C272.99204433 55.0065606 271.49444799 56.46026571 270 58 C271.2734962 62.97821242 272.95954825 65.78600429 277 69 C279.79132298 70.17300184 279.79132298 70.17300184 283 70 C285.4416228 68.16312248 287.26628537 66.50681433 289.31640625 64.296875 C289.89535141 63.70328186 290.47429657 63.10968872 291.07078552 62.49810791 C292.91861145 60.59789641 294.74110776 58.67553364 296.5625 56.75 C298.39151616 54.84319948 300.22548142 52.94148045 302.06492615 51.04473877 C303.20728116 49.86397849 304.34294801 48.67669965 305.47084045 47.4821167 C310.71235025 42.01170165 315.17482997 39.34608116 322.83203125 38.796875 C332.73237983 38.64116834 338.90072111 40.22706849 346.23828125 47.03125 C351.17433815 52.54737568 353.37172885 59.29113254 353.2890625 66.6484375 C352.28784841 74.79344945 348.67856636 82.85130429 342.41088867 88.14160156 C337.92382204 92.01491432 333.73748585 96.13510706 329.5625 100.33984375 C328.79695801 101.10680069 328.03141602 101.87375763 327.24267578 102.66395569 C324.82606803 105.08610881 322.41298274 107.51173612 320 109.9375 C318.35049314 111.59202893 316.70075571 113.24632802 315.05078125 114.90039062 C311.03118629 118.93094202 307.01446831 122.96434272 303 127 C301.68073949 124.40529703 300.56531914 121.87958196 299.625 119.125 C297.83747298 114.29238925 295.40938647 110.40938647 291.75 106.75 C290.88375 105.88375 290.88375 105.88375 290 105 C290 104.34 290 103.68 290 103 C289.40445312 102.72800781 288.80890625 102.45601563 288.1953125 102.17578125 C286.05332541 101.0285604 284.62459823 99.8535747 282.875 98.1875 C278.25043078 94.13103519 272.62600997 90.41018212 266.41015625 89.70703125 C263.60757141 90.04770202 262.62128502 90.67157755 260.5625 92.5625 C259.97210938 93.10261719 259.38171875 93.64273438 258.7734375 94.19921875 C256.44069964 96.56792393 254.32190995 99.07199343 252.26171875 101.6796875 C251.84535156 102.11539063 251.42898438 102.55109375 251 103 C250.34 103 249.68 103 249 103 C248.67 102.113125 248.34 101.22625 248 100.3125 C244.95847755 95.27497844 240.51687089 92.83895696 235 91 C234.6596875 91.8353125 234.6596875 91.8353125 234.3125 92.6875 C232.63569499 95.64187072 230.42675648 97.63102343 228 100 C227.38125 100.804375 226.7625 101.60875 226.125 102.4375 C223.86842716 105.15866136 221.43782796 107.26868968 218.734375 109.52734375 C214.66447738 112.98309015 211.29841516 116.82200746 208 121 C207.52046875 121.43183594 207.0409375 121.86367187 206.546875 122.30859375 C204.55192128 124.48994466 203.5689156 126.73837178 202.375 129.4375 C201.94960938 130.38496094 201.52421875 131.33242188 201.0859375 132.30859375 C199.09457847 137.24401236 198.85826311 141.62093883 198.87542725 146.91711426 C198.8740171 147.72060853 198.87260695 148.52410281 198.87115407 149.3519454 C198.86750049 152.04779886 198.87083792 154.74359973 198.87402344 157.43945312 C198.87262861 159.37128745 198.87072926 161.30312146 198.86836243 163.23495483 C198.86386416 167.39828232 198.86200931 171.56159995 198.86190033 175.72492981 C198.86075969 182.31513972 198.84791807 188.90529365 198.83233643 195.4954834 C198.82976357 196.60808989 198.82719072 197.72069638 198.8245399 198.86701822 C198.81927316 201.14241541 198.81398768 203.41781255 198.80868387 205.69320965 C198.77359401 221.03539051 198.7470188 236.37750223 198.74951172 251.71972656 C198.75110283 262.06826639 198.73500378 272.41661554 198.69880509 282.76509428 C198.68038204 288.23839672 198.67097021 293.71138098 198.68328094 299.18470764 C198.69476226 304.3394848 198.68290961 309.49369369 198.65364647 314.64839554 C198.64703482 316.53326518 198.64882275 318.41818731 198.65994453 320.30303574 C198.72817177 332.91950546 197.97150085 344.80105494 188.80859375 354.53515625 C181.11532388 360.76620636 172.66996538 362.75479848 163 362 C153.83319404 360.3539014 147.83673671 354.92069581 142.625 347.4375 C137.89340289 340.23437032 137.70145138 333.54746889 137.69702148 325.16723633 C137.68858215 323.98124344 137.68014282 322.79525055 137.67144775 321.57331848 C137.65012884 318.33389033 137.63740015 315.0945626 137.6282146 311.8550818 C137.61626853 308.46117564 137.59241637 305.06735508 137.56959534 301.67350769 C137.52801998 295.2493094 137.49556812 288.82510339 137.46712118 282.40083474 C137.41605902 270.88725122 137.35397974 259.37373414 137.28178078 247.860264 C137.26095325 244.48274976 137.24264748 241.10525589 137.22979546 237.72770119 C137.21516188 233.96662741 137.19488437 230.20562107 137.17358398 226.44458008 C137.16966393 224.76371307 137.16966393 224.76371307 137.16566467 223.04888916 C137.15531693 221.51591942 137.15531693 221.51591942 137.14476013 219.95198059 C137.14090522 219.06286893 137.1370503 218.17375727 137.13307858 217.25770283 C136.90208753 213.33889662 136.13020102 212.11862759 133.1875 209.4375 C128.88177596 206.05806647 125.87957981 204.46752034 120.16015625 204.6171875 C115.35039467 205.46955031 111.52820326 208.19592506 108.41394043 211.87237549 C106.23163762 216.69961122 106.58618703 221.38608059 106.61523438 226.62402344 C106.6098616 227.80023254 106.60448883 228.97644165 106.59895325 230.18829346 C106.58662068 233.40760344 106.58724848 236.62661623 106.59268379 239.84593487 C106.59447247 243.2236965 106.57703863 246.60134948 106.56091309 249.97906494 C106.52308805 258.56936143 106.51027183 267.15963304 106.5 275.75 C106.48891258 285.01158497 106.47342077 294.27303899 106.42928743 303.53453469 C106.40807834 308.19236056 106.40977462 312.84986526 106.41540527 317.50775146 C106.40606125 319.95797059 106.39589158 322.40818675 106.38476562 324.85839844 C106.39398796 326.50926453 106.39398796 326.50926453 106.40339661 328.19348145 C106.35192967 334.66662559 105.49683531 340.010076 103 346 C102.34 346 101.68 346 101 346 C100.6596875 347.0828125 100.6596875 347.0828125 100.3125 348.1875 C97.46029748 354.29936254 91.8715876 358.01188512 86 361 C76.90256209 363.46388943 67.82137633 362.02141865 59.4375 358 C53.02673998 354.24005597 49.00142255 348.41401237 46.92842865 341.34683895 C45.90527226 337.07595223 45.71529297 333.03416379 45.73498535 328.65760803 C45.72841345 327.45631568 45.72841345 327.45631568 45.72170877 326.23075479 C45.70946322 323.56792233 45.71119178 320.90528886 45.71289062 318.24243164 C45.70686166 316.32484142 45.69993621 314.40725383 45.69218445 312.4896698 C45.67732834 308.37005402 45.66855449 304.25048643 45.66447449 300.13084602 C45.65774465 293.61252658 45.63597128 287.09430999 45.61193848 280.57603455 C45.56302708 266.73821383 45.53066844 252.90037136 45.5 239.0625 C45.46688979 224.12559678 45.43092537 209.18873397 45.37586927 194.25189298 C45.35256722 187.77648558 45.33879136 181.30114987 45.33237457 174.82570469 C45.32642298 170.79254224 45.31231539 166.7594377 45.29603004 162.72630501 C45.29017003 160.86113235 45.2876785 158.99594549 45.28886986 157.13076401 C45.29003576 154.57684563 45.27895896 152.02324996 45.26501465 149.46937561 C45.26831362 148.73842228 45.2716126 148.00746894 45.27501154 147.2543655 C45.08936249 126.52909221 31.38331275 115.20890343 17.57299805 101.55688477 C15.37340951 99.3798281 13.1863967 97.19029402 11 95 C10.401875 94.401875 9.80375 93.80375 9.1875 93.1875 C8.795625 92.795625 8.40375 92.40375 8 92 C3.00354754 93.27816226 0.27312765 94.99951065 -3 99 C-4.33563611 102.16701423 -4.33563611 102.16701423 -5 105 C-5.33 104.34 -5.66 103.68 -6 103 C-6.66 103 -7.32 103 -8 103 C-8 102.34 -8 101.68 -8 101 C-8.66 101 -9.32 101 -10 101 C-10 100.34 -10 99.68 -10 99 C-10.66 99 -11.32 99 -12 99 C-13.69140625 97.28515625 -13.69140625 97.28515625 -15.5625 95.0625 C-16.49255859 93.96615234 -16.49255859 93.96615234 -17.44140625 92.84765625 C-17.95574219 92.23792969 -18.47007812 91.62820312 -19 91 C-20.05985767 89.7497875 -20.05985767 89.7497875 -22.4375 89.5625 C-31.21087036 90.63993145 -37.82605157 97.35219502 -43.96875 103.2421875 C-46 105 -46 105 -48 105 C-48.2475 105.721875 -48.495 106.44375 -48.75 107.1875 C-50 110 -50 110 -51.875 112.0625 C-55.13423856 116.56791801 -56.41449379 121.71216812 -58 127 C-62.77400006 123.69212686 -66.86035971 120.36927493 -70.48046875 115.80859375 C-72.51260899 113.3898767 -74.75869147 111.22668271 -77 109 C-85.33333333 100.66666667 -93.66666667 92.33333333 -102 84 C-102.75563232 83.27393555 -103.51126465 82.54787109 -104.28979492 81.79980469 C-108.32788163 77.55015797 -109.11576814 70.25573394 -109.5625 64.5625 C-109.23666875 56.67171719 -104.7186702 49.167323 -99.0625 43.875 C-92.70892012 38.96650126 -86.35628648 38.74409646 -78.57421875 38.44140625 C-65.8690242 40.42702682 -58.31302476 50.32712257 -50.01171875 59.24169922 C-48.32991562 61.03786876 -46.62738509 62.81230914 -44.921875 64.5859375 C-44.415495 65.14413177 -43.90911499 65.70232605 -43.38739014 66.2774353 C-41.7700182 68.02931762 -41.7700182 68.02931762 -39 70 C-35.29101301 69.86821712 -32.04612554 69.17580395 -29 67 C-27.73854232 64.63813861 -27.73854232 64.63813861 -27 62 C-26.75636719 61.36578125 -26.51273437 60.7315625 -26.26171875 60.078125 C-25.76985643 57.92263176 -25.76985643 57.92263176 -27.1875 56.0703125 C-27.785625 55.42835938 -28.38375 54.78640625 -29 54.125 C-29.64582031 53.42632812 -30.29164063 52.72765625 -30.95703125 52.0078125 C-32.79416377 50.20229412 -34.67247512 48.59978114 -36.6875 47 C-41.24833356 43.25909157 -43.17063512 38.48809464 -45 33 C-45.79538137 22.97297915 -45.32778462 14.68358436 -39.1171875 6.52734375 C-28.47283795 -5.20433182 -13.88678568 -7.16852168 0 0 Z " fill="#D54542" transform="translate(184,127)"/>
<path d="M0 0 C7.32967795 2.7076989 14.98912319 8.04465918 20.2734375 13.83984375 C21.5234375 16.65234375 21.5234375 16.65234375 22.2734375 18.83984375 C23.7584375 19.33484375 23.7584375 19.33484375 25.2734375 19.83984375 C26.84375 21.80859375 26.84375 21.80859375 28.3984375 24.33984375 C28.91664063 25.15453125 29.43484375 25.96921875 29.96875 26.80859375 C31.73984468 30.92347241 32.90436607 34.32682481 32.2734375 38.83984375 C29.94880913 42.61205274 26.8744025 45.49821385 23.68359375 48.546875 C22.79111435 49.43469162 21.89863495 50.32250824 20.97911072 51.23722839 C19.08701942 53.10984132 17.18869392 54.97012859 15.27124023 56.81616211 C12.82986612 59.16725022 10.41984328 61.54751891 8.01950932 63.9404192 C5.71096195 66.23790506 3.3847967 68.51728684 1.05859375 70.796875 C0.19992203 71.64482132 -0.65874969 72.49276764 -1.54344177 73.3664093 C-6.34496993 77.98149828 -10.59535682 81.22003532 -16.7265625 83.83984375 C-17.5309375 84.25234375 -18.3353125 84.66484375 -19.1640625 85.08984375 C-26.12454519 87.1270582 -33.29940199 86.07621535 -39.7265625 82.83984375 C-45.74405737 78.61479416 -51.34098229 73.31941102 -52.7265625 65.83984375 C-52.89613684 63.42688436 -52.99255359 61.00830719 -53.0390625 58.58984375 C-53.07644531 57.3265625 -53.11382812 56.06328125 -53.15234375 54.76171875 C-52.29123445 46.83003305 -48.07609687 41.59847252 -42.46484375 36.22265625 C-41.57795113 35.34781082 -41.57795113 35.34781082 -40.67314148 34.45529175 C-38.8044468 32.61532769 -36.92253742 30.78966374 -35.0390625 28.96484375 C-33.1476484 27.11597385 -31.25911164 25.26425004 -29.37284851 23.41012573 C-28.20342148 22.26236569 -27.03052497 21.11812768 -25.85383606 19.97781372 C-22.91933312 17.19473919 -22.91933312 17.19473919 -20.7265625 13.83984375 C-20.0665625 13.83984375 -19.4065625 13.83984375 -18.7265625 13.83984375 C-18.4584375 13.20046875 -18.1903125 12.56109375 -17.9140625 11.90234375 C-16.7265625 9.83984375 -16.7265625 9.83984375 -13.7265625 8.83984375 C-13.4584375 8.26234375 -13.1903125 7.68484375 -12.9140625 7.08984375 C-10.05522656 1.67310197 -6.20652997 -1.24843994 0 0 Z " fill="#01AECF" transform="translate(453.7265625,216.16015625)"/>
<path d="M0 0 C3.00370275 2.37162861 5.6251238 4.99825293 8 8 C8 8.66 8 9.32 8 10 C8.66 10 9.32 10 10 10 C10 10.66 10 11.32 10 12 C10.66 12 11.32 12 12 12 C12 12.66 12 13.32 12 14 C12.66 14 13.32 14 14 14 C14 14.66 14 15.32 14 16 C14.54205078 16.21897949 15.08410156 16.43795898 15.64257812 16.66357422 C18.78878981 18.44716605 21.17574559 20.85082691 23.71875 23.3828125 C24.25850464 23.91591034 24.79825928 24.44900818 25.35437012 24.9982605 C26.49326975 26.12705386 27.62948675 27.25855948 28.76318359 28.39257812 C30.48379638 30.10883737 32.21972391 31.80847639 33.95703125 33.5078125 C35.06608526 34.61099373 36.17418905 35.71513122 37.28125 36.8203125 C37.79490112 37.31959259 38.30855225 37.81887268 38.83776855 38.33328247 C43.52336144 43.07804079 46.62890668 48.14521125 47.49609375 54.81640625 C47.34268777 64.6241616 46.55217059 70.91918658 39.8828125 78.359375 C33.39541463 84.0122943 25.43239028 86.425946 16.98828125 86.34765625 C9.31018559 85.4543876 4.2560941 81.33470162 -1 76 C-2.62007842 74.40131418 -4.24119475 72.80367956 -5.86328125 71.20703125 C-7.67982007 69.40898809 -9.49622257 67.6108072 -11.3125 65.8125 C-12.24384766 64.89791016 -13.17519531 63.98332031 -14.13476562 63.04101562 C-15.01455078 62.16767578 -15.89433594 61.29433594 -16.80078125 60.39453125 C-17.60684814 59.59893799 -18.41291504 58.80334473 -19.2434082 57.98364258 C-21 56 -21 56 -21 54 C-21.5775 53.7525 -22.155 53.505 -22.75 53.25 C-25.32939979 51.81700012 -27.06121592 50.21575324 -29 48 C-29 47.34 -29 46.68 -29 46 C-29.556875 45.773125 -30.11375 45.54625 -30.6875 45.3125 C-33.8355962 43.5257427 -35.79525985 41.89765848 -38 39 C-38.10140708 32.81416812 -36.11701084 28.25530155 -33 23 C-32.67386719 22.42507812 -32.34773437 21.85015625 -32.01171875 21.2578125 C-26.51090839 12.57653361 -11.04212656 -1.84035443 0 0 Z " fill="#02AECF" transform="translate(164,216)"/>
<path d="M0 0 C4.75139724 3.99842769 9.00821288 8.53421832 13.3125 13 C14.47602359 14.18866595 15.64073019 15.37617511 16.80664062 16.5625 C18.94660379 18.74295416 21.07947362 20.92984054 23.2043457 23.125 C25.77524596 25.77798972 28.38366181 28.39177058 31 31 C32.175625 32.2065625 32.175625 32.2065625 33.375 33.4375 C35.9855624 35.98590615 38.70651304 38.28567353 41.546875 40.5703125 C43 42 43 42 44 45 C43.443125 45.14695313 42.88625 45.29390625 42.3125 45.4453125 C33.37277766 48.07286603 27.42041283 53.46169178 20.6640625 59.6796875 C19 61 19 61 17 61 C16.7525 61.721875 16.505 62.44375 16.25 63.1875 C15 66 15 66 13.125 68.0625 C9.86576144 72.56791801 8.58550621 77.71216812 7 83 C2.22599994 79.69212686 -1.86035971 76.36927493 -5.48046875 71.80859375 C-7.51260899 69.3898767 -9.75869147 67.22668271 -12 65 C-20.33333333 56.66666667 -28.66666667 48.33333333 -37 40 C-37.75563232 39.27393555 -38.51126465 38.54787109 -39.28979492 37.79980469 C-43.32788163 33.55015797 -44.11576814 26.25573394 -44.5625 20.5625 C-44.23666875 12.67171719 -39.7186702 5.167323 -34.0625 -0.125 C-23.93248856 -7.95100508 -10.25343126 -6.93158528 0 0 Z " fill="#D54542" transform="translate(119,171)"/>
<path d="M0 0 C0.66 0 1.32 0 2 0 C2.928125 1.175625 2.928125 1.175625 3.875 2.375 C6.6229545 5.76953203 8.46641133 6.81631111 12.8046875 7.3359375 C19.19335037 7.4172182 23.2093508 7.41244005 28 3 C28.66 2.01 29.32 1.02 30 0 C30.66 0 31.32 0 32 0 C32 19.14 32 38.28 32 58 C28.36066873 56.18033437 26.77865751 54.77865751 24 52 C20.95392471 49.82423194 17.87527073 49.52308112 14.15625 49.61328125 C8.24185248 50.67401559 4.09760107 54.90239893 0 59 C0 39.53 0 20.06 0 0 Z " fill="#333A46" transform="translate(290,282)"/>
<path d="M0 0 C7.1032794 3.77189642 11.77072781 9.15230542 14.3984375 16.765625 C16.42229139 25.9615111 15.85016496 34.46036617 11.0234375 42.60546875 C10.0334375 41.28546875 9.0434375 39.96546875 8.0234375 38.60546875 C7.0334375 39.10046875 7.0334375 39.10046875 6.0234375 39.60546875 C6.0234375 36.63546875 6.0234375 33.66546875 6.0234375 30.60546875 C4.8478125 30.66734375 4.8478125 30.66734375 3.6484375 30.73046875 C1.0234375 30.60546875 1.0234375 30.60546875 -0.9765625 28.60546875 C-1.57421875 26.765625 -1.57421875 26.765625 -2.0390625 24.66796875 C-2.58837792 22.23917741 -3.18616037 19.97667513 -3.9765625 17.60546875 C-5.89322917 16.43880208 -5.89322917 16.43880208 -7.9765625 15.60546875 C-8.6365625 15.27546875 -9.2965625 14.94546875 -9.9765625 14.60546875 C-12.01711255 14.53481258 -14.05990507 14.52124899 -16.1015625 14.54296875 C-17.19726562 14.55199219 -18.29296875 14.56101563 -19.421875 14.5703125 C-20.68644531 14.58771484 -20.68644531 14.58771484 -21.9765625 14.60546875 C-21.9765625 15.26546875 -21.9765625 15.92546875 -21.9765625 16.60546875 C-24.77526277 18.00481888 -26.88155042 17.8581228 -29.9765625 17.60546875 C-32.53605796 15.752041 -32.95575048 14.66790482 -33.9765625 11.60546875 C-34.7396875 12.40984375 -35.5028125 13.21421875 -36.2890625 14.04296875 C-38.9765625 16.60546875 -38.9765625 16.60546875 -41.9765625 17.60546875 C-42.69384028 19.25098837 -43.35981478 20.91969164 -43.9765625 22.60546875 C-46.44392134 25.07282759 -48.69827771 25.51270715 -51.9765625 26.60546875 C-52.6365625 27.26546875 -53.2965625 27.92546875 -53.9765625 28.60546875 C-54.6365625 28.60546875 -55.2965625 28.60546875 -55.9765625 28.60546875 C-56.6365625 29.26546875 -57.2965625 29.92546875 -57.9765625 30.60546875 C-57.75873211 26.793437 -57.11383612 25.73026295 -54.2265625 23.10546875 C-53.68644531 22.69167969 -53.14632813 22.27789062 -52.58984375 21.8515625 C-49.1712134 19.21102235 -46.36277149 16.08562047 -43.6640625 12.73046875 C-31.8066065 -1.54239496 -17.50310154 -7.42114875 0 0 Z M8.0234375 22.60546875 C7.6934375 24.91546875 7.3634375 27.22546875 7.0234375 29.60546875 C7.6834375 29.27546875 8.3434375 28.94546875 9.0234375 28.60546875 C9.0234375 26.62546875 9.0234375 24.64546875 9.0234375 22.60546875 C8.6934375 22.60546875 8.3634375 22.60546875 8.0234375 22.60546875 Z " fill="#D74B49" transform="translate(457.9765625,126.39453125)"/>
<path d="M0 0 C1.909008 1.72719771 3.06337195 3.12357531 4.25 5.4375 C6.64888482 8.95015277 9.23076034 10.07982131 13 12 C12.67 12.99 12.34 13.98 12 15 C11.34 15 10.68 15 10 15 C9.74041504 15.58483154 9.48083008 16.16966309 9.21337891 16.7722168 C7.91356092 19.15870354 6.51043278 20.73302211 4.5859375 22.64453125 C3.90660156 23.32193359 3.22726562 23.99933594 2.52734375 24.69726562 C1.81707031 25.39529297 1.10679687 26.09332031 0.375 26.8125 C-0.31207031 27.49892578 -0.99914062 28.18535156 -1.70703125 28.89257812 C-5.81220581 32.96309361 -10.02691521 36.8342281 -14.44677734 40.5612793 C-16.11560336 41.93764331 -16.11560336 41.93764331 -17 44 C-17.66 44 -18.32 44 -19 44 C-19.309375 43.13375 -19.61875 42.2675 -19.9375 41.375 C-22.73731951 36.79347716 -26.44666445 34.69190907 -31 32 C-30.67 31.34 -30.34 30.68 -30 30 C-29.34 30 -28.68 30 -28 30 C-27.7525 29.4225 -27.505 28.845 -27.25 28.25 C-25.81700012 25.67060021 -24.21575324 23.93878408 -22 22 C-21.34 22 -20.68 22 -20 22 C-19.7525 21.4225 -19.505 20.845 -19.25 20.25 C-17.81700012 17.67060021 -16.21575324 15.93878408 -14 14 C-13.34 14 -12.68 14 -12 14 C-11.7525 13.4225 -11.505 12.845 -11.25 12.25 C-9.81700012 9.67060021 -8.21575324 7.93878408 -6 6 C-5.34 6 -4.68 6 -4 6 C-3.566875 5.071875 -3.566875 5.071875 -3.125 4.125 C-2 2 -2 2 0 0 Z " fill="#353A46" transform="translate(452,186)"/>
<path d="M0 0 C4.30844552 3.4798983 8.0659865 7.0851645 11.60546875 11.34375 C14.61727074 14.92079214 17.98466816 18.00832359 21.5625 21 C24.43926514 23.42023502 26.69932791 26.0176473 29 29 C29.66 29.33 30.32 29.66 31 30 C31 30.99 31 31.98 31 33 C29.906875 33.556875 28.81375 34.11375 27.6875 34.6875 C24.28940335 36.62633337 22.70422828 38.412151 21 42 C20.608125 42.763125 20.21625 43.52625 19.8125 44.3125 C19.544375 44.869375 19.27625 45.42625 19 46 C19 45.34 19 44.68 19 44 C18.34 44 17.68 44 17 44 C17 43.34 17 42.68 17 42 C16.34 42 15.68 42 15 42 C15 41.34 15 40.68 15 40 C14.34 40 13.68 40 13 40 C11.37890625 38.35546875 11.37890625 38.35546875 9.5625 36.1875 C7.02660668 33.17536735 7.02660668 33.17536735 4.27734375 30.36328125 C3 29 3 29 3 27 C2.4225 26.7525 1.845 26.505 1.25 26.25 C-1.32939979 24.81700012 -3.06121592 23.21575324 -5 21 C-5 20.34 -5 19.68 -5 19 C-5.598125 18.731875 -6.19625 18.46375 -6.8125 18.1875 C-8.97224808 17.01506533 -10.35790256 15.80630718 -12 14 C-10.74874616 10.24623848 -9.4347596 9.75926711 -6 8 C-5.34 8 -4.68 8 -4 8 C-3.71125 7.236875 -3.4225 6.47375 -3.125 5.6875 C-2 3 -2 3 0 0 Z " fill="#343A46" transform="translate(159,186)"/>
<path d="M0 0 C1.32342458 3.97027374 0.36639254 6.11656858 -1 10 C-1.99 10.495 -1.99 10.495 -3 11 C-1.081875 11.185625 -1.081875 11.185625 0.875 11.375 C4.75 11.75 4.75 11.75 7 14 C6.75916418 18.45546267 4.98016358 20.79059307 2 24 C0.71855702 25.13663172 -0.57411797 26.26066893 -1.875 27.375 C-8.12112503 32.78209331 -12.35182376 36.7803873 -13.67578125 45.1796875 C-14 47 -14 47 -15 48 C-17.4375 48.1875 -17.4375 48.1875 -20 48 C-20.66 47.34 -21.32 46.68 -22 46 C-21.9765625 43.1796875 -21.9765625 43.1796875 -21.625 39.875 C-21.51414062 38.77929688 -21.40328125 37.68359375 -21.2890625 36.5546875 C-21.14597656 35.29011719 -21.14597656 35.29011719 -21 34 C-21.99 34 -22.98 34 -24 34 C-25.63676257 35.9600281 -25.63676257 35.9600281 -27 38 C-27.33 38 -27.66 38 -28 38 C-28.33 51.53 -28.66 65.06 -29 79 C-29.66 79 -30.32 79 -31 79 C-31.07473651 73.62893641 -31.12887661 68.25818247 -31.16479492 62.88671875 C-31.17978489 61.06342285 -31.20018384 59.2401624 -31.22631836 57.41699219 C-31.55957862 33.55294343 -31.55957862 33.55294343 -25 26 C-24.34 26 -23.68 26 -23 26 C-22.6596875 25.195625 -22.6596875 25.195625 -22.3125 24.375 C-19.20658997 18.75478185 -14.93076432 15.00624601 -10 11 C-6.36406486 7.54142755 -3.16195698 3.88469 0 0 Z " fill="#D84846" transform="translate(353,200)"/>
<path d="M0 0 C0 0.66 0 1.32 0 2 C1.32 2.66 2.64 3.32 4 4 C2.87980469 4.03738281 1.75960937 4.07476562 0.60546875 4.11328125 C-0.8672209 4.17894257 -2.33987566 4.24538986 -3.8125 4.3125 C-4.55048828 4.33505859 -5.28847656 4.35761719 -6.04882812 4.38085938 C-10.28911464 4.5687303 -10.28911464 4.5687303 -14.01171875 6.41796875 C-15.17660356 7.971814 -15.17660356 7.971814 -15 10 C-14.34 9.835 -13.68 9.67 -13 9.5 C-9.24365885 8.87394314 -5.80886246 8.87303792 -2 9 C-1 10 -1 10 -0.8125 12.4375 C-1 15 -1 15 -3 17 C-4.446822 17.32679184 -5.90839253 17.59080352 -7.375 17.8125 C-10.58756925 18.49208196 -11.83612111 18.85768412 -14.375 21.0625 C-16.49252777 24.89033867 -17.79400706 28.80643364 -19 33 C-22.153368 33.70074844 -24.72724974 34 -28 34 C-29.47075246 38.41225737 -30.36884358 41.48281619 -29 46 C-32.94731717 42.77037686 -33.83323534 38.63662058 -34.3359375 33.703125 C-34.45452366 23.22010837 -33.09118307 16.00943565 -25.9375 8.125 C-18.3880264 1.13245478 -10.07976441 -0.78713995 0 0 Z " fill="#D54B49" transform="translate(173,123)"/>
<path d="M0 0 C6.60539829 0.08724111 12.54394117 3.80161428 17.1875 8.3125 C20.45993416 13.16472997 20.77856487 17.62918392 20.1875 23.3125 C19.8575 23.9725 19.5275 24.6325 19.1875 25.3125 C17.5375 24.9825 15.8875 24.6525 14.1875 24.3125 C12.85416667 20.3125 11.52083333 16.3125 10.1875 12.3125 C8.27083333 11.14583333 8.27083333 11.14583333 6.1875 10.3125 C5.5275 9.9825 4.8675 9.6525 4.1875 9.3125 C2.14694995 9.24184383 0.10415743 9.22828024 -1.9375 9.25 C-3.03320312 9.25902344 -4.12890625 9.26804688 -5.2578125 9.27734375 C-6.10085938 9.28894531 -6.94390625 9.30054688 -7.8125 9.3125 C-7.8125 9.9725 -7.8125 10.6325 -7.8125 11.3125 C-10.1225 11.6425 -12.4325 11.9725 -14.8125 12.3125 C-15.1425 10.3325 -15.4725 8.3525 -15.8125 6.3125 C-10.38559754 2.07419866 -6.91520313 0.56681993 0 0 Z " fill="#F2C5C2" transform="translate(443.8125,131.6875)"/>
<path d="M0 0 C2.475 0.495 2.475 0.495 5 1 C5.8125 3.125 5.8125 3.125 6 6 C3.46235355 9.76553989 0.49299101 12.48859715 -2.9375 15.4375 C-9.16527741 20.81764041 -13.35710331 24.8138812 -14.67578125 33.1796875 C-15 35 -15 35 -16 36 C-18.4375 36.1875 -18.4375 36.1875 -21 36 C-23 34 -23 34 -23.01171875 31.94140625 C-22.90472656 31.15636719 -22.79773438 30.37132812 -22.6875 29.5625 C-22.58824219 28.78003906 -22.48898437 27.99757812 -22.38671875 27.19140625 C-22 25 -22 25 -21 22 C-20.34 22 -19.68 22 -19 22 C-18.773125 21.278125 -18.54625 20.55625 -18.3125 19.8125 C-16.73664872 16.43567583 -14.79123384 14.44232961 -12 12 C-11.34 12 -10.68 12 -10 12 C-9.7525 11.4225 -9.505 10.845 -9.25 10.25 C-7.81700012 7.67060021 -6.21575324 5.93878408 -4 4 C-3.34 4 -2.68 4 -2 4 C-1.34 2.68 -0.68 1.36 0 0 Z " fill="#F3C7C6" transform="translate(354,212)"/>
<path d="M0 0 C3.52575052 1.36222179 4.96290258 3.32712612 7.28515625 6.234375 C9.79459268 9.36615166 12.72649398 12.07967727 15.6171875 14.85546875 C16.25914062 15.48066406 16.90109375 16.10585937 17.5625 16.75 C18.16707031 17.33136719 18.77164062 17.91273438 19.39453125 18.51171875 C20.75 20.0625 20.75 20.0625 20.75 22.0625 C21.41 22.0625 22.07 22.0625 22.75 22.0625 C25.22120419 29.93946335 25.22120419 29.93946335 24.75 34.0625 C24.09 34.7225 23.43 35.3825 22.75 36.0625 C20.125 35.6875 20.125 35.6875 17.75 35.0625 C17.481875 34.010625 17.21375 32.95875 16.9375 31.875 C15.03258164 25.75920947 12.7202355 22.96768503 7.75 19.0625 C6.53916812 17.59675614 5.32942883 16.12969887 4.15234375 14.63671875 C2.56096255 12.85029361 0.81994189 11.47338007 -1.0625 10 C-4.17675555 7.42058399 -4.17675555 7.42058399 -4.8125 4.3125 C-4.04488649 1.24204597 -3.24977123 0.09027142 0 0 Z " fill="#F3C4C0" transform="translate(256.25,211.9375)"/>
<path d="M0 0 C1 1 1 1 1.1875 3.4375 C1 6 1 6 -1 8 C-2.446822 8.32679184 -3.90839253 8.59080352 -5.375 8.8125 C-8.58756925 9.49208196 -9.83612111 9.85768412 -12.375 12.0625 C-14.49252777 15.89033867 -15.79400706 19.80643364 -17 24 C-18.65614657 24.38218767 -20.32457024 24.71395102 -22 25 C-23.61342975 23.38657025 -23.28653648 21.66610017 -23.375 19.4375 C-23.30244008 13.79395078 -21.7383327 10.19513644 -18 6 C-12.15215927 0.85594754 -7.54337208 -0.24333458 0 0 Z " fill="#F3C2BF" transform="translate(171,132)"/>
<path d="M0 0 C1 1 1 1 1.125 3.5 C1 6 1 6 0 7 C-1.99958364 7.04080783 -4.00045254 7.04254356 -6 7 C-6 7.66 -6 8.32 -6 9 C-7.65 9.66 -9.3 10.32 -11 11 C-11.06058594 11.84304687 -11.12117188 12.68609375 -11.18359375 13.5546875 C-11.26738281 14.65039062 -11.35117188 15.74609375 -11.4375 16.875 C-11.51871094 17.96554688 -11.59992188 19.05609375 -11.68359375 20.1796875 C-12 23 -12 23 -13 25 C-15.375 25.1875 -15.375 25.1875 -18 25 C-20.51218391 21.23172413 -20.58870545 18.35491083 -20 14 C-18.63916823 8.82367154 -16.69758761 5.03680318 -12.25 1.9375 C-8.0196596 -0.372123 -4.74859497 -0.4998521 0 0 Z " fill="#F2C4C2" transform="translate(104,175)"/>
<path d="M0 0 C3.50269708 5.25404562 3.14903692 10.9832979 3.15148926 17.12879944 C3.15572167 17.93077442 3.15995408 18.7327494 3.16431475 19.55902666 C3.17729633 22.23735112 3.18335515 24.91564584 3.18945312 27.59399414 C3.19739898 29.51777832 3.20578721 31.44156071 3.21458435 33.36534119 C3.23261865 37.50354048 3.24764226 41.6417359 3.26036072 45.77995491 C3.28060333 52.3221959 3.30825203 58.86439273 3.33703613 65.40660095 C3.4021949 80.47325043 3.45765869 95.5399327 3.51302338 110.60662079 C3.56387337 124.41880588 3.61676138 138.23097493 3.67754889 152.04312032 C3.70589603 158.54805282 3.72949243 165.05298012 3.74947357 171.55794346 C3.76285919 175.60182368 3.78027141 179.64567927 3.79878426 183.68953896 C3.80654039 185.56606676 3.81260994 187.4426024 3.81687737 189.31914139 C3.82292618 191.87886428 3.83497567 194.43849155 3.84851074 196.9981842 C3.84880673 197.74215314 3.84910272 198.48612208 3.84940767 199.25263554 C3.87553274 202.95809683 4.11607601 206.39626375 5 210 C3 209 3 209 2 206 C1.90638602 203.39036579 1.86966281 200.80786686 1.87974548 198.19831848 C1.87889106 197.39537894 1.87803663 196.59243941 1.87715632 195.76516837 C1.8755049 193.06583523 1.88101739 190.36656378 1.88647461 187.66723633 C1.88675658 185.73578391 1.88659855 183.80433138 1.8860321 181.87287903 C1.88574451 176.62114871 1.89163507 171.3694411 1.89860606 166.11771607 C1.90484597 160.63240819 1.90544391 155.14709982 1.90663147 149.66178894 C1.9097429 139.27083901 1.91795377 128.87989956 1.92798096 118.48895425 C1.93914792 106.66081609 1.94465402 94.83267743 1.94967639 83.00453532 C1.96013652 58.66968439 1.97773234 34.33484278 2 10 C1.01 10.33 0.02 10.66 -1 11 C-0.67 7.37 -0.34 3.74 0 0 Z " fill="#FEF5EE" transform="translate(227,259)"/>
<path d="M0 0 C2.4375 1.625 2.4375 1.625 4.4375 3.625 C4.5625 6.75 4.5625 6.75 4.4375 9.625 C-1.1875 9.875 -1.1875 9.875 -4.5625 7.625 C-7.00794278 7.30856727 -7.00794278 7.30856727 -9.625 7.375 C-10.50285156 7.36984375 -11.38070313 7.3646875 -12.28515625 7.359375 C-14.76052328 7.40940648 -14.76052328 7.40940648 -16.5625 9.625 C-19.1875 9.25 -19.1875 9.25 -21.5625 8.625 C-21.8925 6.975 -22.2225 5.325 -22.5625 3.625 C-15.80164864 -2.03949709 -8.35740973 -3.22566691 0 0 Z " fill="#F2C9C7" transform="translate(518.5625,176.375)"/>
<path d="M0 0 C-0.33 0.99 -0.66 1.98 -1 3 C-1.04278083 4.37433431 -1.04057273 5.75059873 -1 7.125 C-1 8.40375 -1 9.6825 -1 11 C-2 12 -2 12 -5.5625 12.0625 C-6.696875 12.041875 -7.83125 12.02125 -9 12 C-9 11.67 -9 11.34 -9 11 C-7.02 10.67 -5.04 10.34 -3 10 C-3 8.35 -3 6.7 -3 5 C-9.21090389 4.5716618 -11.89729158 5.11222216 -17 9 C-17.66 9 -18.32 9 -19 9 C-19.19335938 9.61488281 -19.38671875 10.22976562 -19.5859375 10.86328125 C-19.84632812 11.67152344 -20.10671875 12.47976562 -20.375 13.3125 C-20.63023438 14.11300781 -20.88546875 14.91351563 -21.1484375 15.73828125 C-22 18 -22 18 -24 21 C-23.67 17.7 -23.34 14.4 -23 11 C-23.268125 12.093125 -23.53625 13.18625 -23.8125 14.3125 C-24.87663739 17.61692663 -25.34654664 18.94960422 -28 21 C-28.33 19.68 -28.66 18.36 -29 17 C-29.66 19.64 -30.32 22.28 -31 25 C-31.33 25 -31.66 25 -32 25 C-32.82050814 16.79491863 -30.5049256 10.88137718 -26 4 C-23.796875 2.1484375 -23.796875 2.1484375 -22 1 C-21.34 1.33 -20.68 1.66 -20 2 C-20 2.66 -20 3.32 -20 4 C-19.01 3.67 -18.02 3.34 -17 3 C-14.60509014 2.93029948 -12.20832309 2.91551997 -9.8125 2.9375 C-8.54019531 2.94652344 -7.26789063 2.95554688 -5.95703125 2.96484375 C-4.49330078 2.98224609 -4.49330078 2.98224609 -3 3 C-3 2.34 -3 1.68 -3 1 C-3.99 0.67 -4.98 0.34 -6 0 C-3 -1 -3 -1 0 0 Z " fill="#D64E4D" transform="translate(107,171)"/>
<path d="M0 0 C5.39755795 0.33734737 9.13365986 3.48881427 13 7 C14.57415581 8.94248196 15.75415264 10.81976713 17 13 C16.34 13.66 15.68 14.32 15 15 C15 14.01 15 13.02 15 12 C14.01 12.33 13.02 12.66 12 13 C11.505 11.02 11.505 11.02 11 9 C10.34 9 9.68 9 9 9 C9 9.66 9 10.32 9 11 C8.34 11 7.68 11 7 11 C7 12.98 7 14.96 7 17 C6.7525 16.401875 6.505 15.80375 6.25 15.1875 C4.22423998 11.64241996 1.82005844 10.27335281 -2 9 C-8.34124904 8.48234702 -13.49731886 8.43069331 -19 12 C-19 11.01 -19 10.02 -19 9 C-19.66 9 -20.32 9 -21 9 C-21 8.34 -21 7.68 -21 7 C-14.73 6.67 -8.46 6.34 -2 6 C-1.34 4.02 -0.68 2.04 0 0 Z " fill="#D54C49" transform="translate(517,167)"/>
<path d="M0 0 C2.91672884 -0.02700675 5.83320677 -0.04684237 8.75 -0.0625 C9.575 -0.07087891 10.4 -0.07925781 11.25 -0.08789062 C12.04921875 -0.09111328 12.8484375 -0.09433594 13.671875 -0.09765625 C14.4050293 -0.10289307 15.13818359 -0.10812988 15.89355469 -0.11352539 C18.0461849 0.0024891 19.9314135 0.40926729 22 1 C22 2.32 22 3.64 22 5 C20.58847656 5.07347656 20.58847656 5.07347656 19.1484375 5.1484375 C17.28058594 5.26058594 17.28058594 5.26058594 15.375 5.375 C14.14523437 5.44460937 12.91546875 5.51421875 11.6484375 5.5859375 C7.3692933 6.07157913 3.72113501 7.06119909 -0.0625 9.125 C-2.47387354 10.2140074 -4.38432839 10.14531509 -7 10 C-7.33 8.02 -7.66 6.04 -8 4 C-4.535 3.505 -4.535 3.505 -1 3 C-0.67 2.01 -0.34 1.02 0 0 Z " fill="#D44A49" transform="translate(432,127)"/>
<path d="M0 0 C0.99 0.33 1.98 0.66 3 1 C1.66666667 3.66666667 0.33333333 6.33333333 -1 9 C-1.928125 8.9175 -2.85625 8.835 -3.8125 8.75 C-7.09063294 8.64031614 -7.09063294 8.64031614 -8.8125 11 C-9.204375 11.66 -9.59625 12.32 -10 13 C-10.33 13 -10.66 13 -11 13 C-11.33 26.53 -11.66 40.06 -12 54 C-12.66 54 -13.32 54 -14 54 C-14.07473651 48.62893641 -14.12887661 43.25818247 -14.16479492 37.88671875 C-14.17978489 36.06342285 -14.20018384 34.2401624 -14.22631836 32.41699219 C-14.55518899 8.86727541 -14.55518899 8.86727541 -9.39526367 3.25439453 C-8.93482666 2.84044434 -8.47438965 2.42649414 -8 2 C-8 2.66 -8 3.32 -8 4 C-6.35 4.33 -4.7 4.66 -3 5 C-2.690625 4.360625 -2.38125 3.72125 -2.0625 3.0625 C-1 1 -1 1 0 0 Z " fill="#DA595B" transform="translate(336,225)"/>
<path d="M0 0 C2.97 0.495 2.97 0.495 6 1 C6.33 2.98 6.66 4.96 7 7 C7.99 6.67 8.98 6.34 10 6 C15.55555556 7.55555556 15.55555556 7.55555556 17 9 C17.26865672 17.19402985 17.26865672 17.19402985 16 21 C17.32 21.33 18.64 21.66 20 22 C20 20.68 20 19.36 20 18 C20.66 18 21.32 18 22 18 C22 17.01 22 16.02 22 15 C23.32 15 24.64 15 26 15 C25.45015228 18.87511727 23.72444669 20.59576506 20.9375 23.25 C20.20402344 23.95640625 19.47054688 24.6628125 18.71484375 25.390625 C18.14894531 25.92171875 17.58304687 26.4528125 17 27 C15.65748256 24.41823569 14.56438345 21.87684093 13.625 19.125 C11.83747298 14.29238925 9.40938647 10.40938647 5.75 6.75 C5.1725 6.1725 4.595 5.595 4 5 C4 4.34 4 3.68 4 3 C2.68 2.34 1.36 1.68 0 1 C0 0.67 0 0.34 0 0 Z " fill="#C25251" transform="translate(470,227)"/>
<path d="M0 0 C0.5534764 2.07553648 1 3.84365964 1 6 C0.34 6 -0.32 6 -1 6 C-1.05382106 8.62527189 -1.09358313 11.24944713 -1.125 13.875 C-1.14175781 14.62136719 -1.15851563 15.36773437 -1.17578125 16.13671875 C-1.1933959 18.09194461 -1.10320189 20.04742021 -1 22 C-0.34 22.66 0.32 23.32 1 24 C1.30131609 26.30722032 1.37791545 28.58163271 1.4609375 30.90625 C1.79496712 33.19697511 1.79496712 33.19697511 4.0390625 34.28125 C4.68617188 34.5184375 5.33328125 34.755625 6 35 C5.67 36.32 5.34 37.64 5 39 C3.69667017 37.63605018 2.40782147 36.25825589 1.125 34.875 C0.04605469 33.72644531 0.04605469 33.72644531 -1.0546875 32.5546875 C-6.27981162 25.69277751 -5.74833856 17.24052817 -5 9 C-3.92224414 5.60580054 -2.57049248 2.57049248 0 0 Z " fill="#12B4CE" transform="translate(406,258)"/>
<path d="M0 0 C0.99 0.33 1.98 0.66 3 1 C-2.52650334 7.74080425 -8.69449559 13.8071129 -14.875 19.9375 C-15.95596274 21.01343727 -17.03669383 22.08960731 -18.1171875 23.16601562 C-20.74212641 25.78003292 -23.37018628 28.39088596 -26 31 C-26.33 29.68 -26.66 28.36 -27 27 C-26.34 27 -25.68 27 -25 27 C-24.67 25.35 -24.34 23.7 -24 22 C-22.35 22 -20.7 22 -19 22 C-18.01 18.535 -18.01 18.535 -17 15 C-15.02 14.67 -13.04 14.34 -11 14 C-10.34 11.69 -9.68 9.38 -9 7 C-7.02 6.67 -5.04 6.34 -3 6 C-3 5.01 -3 4.02 -3 3 C-2.34 3 -1.68 3 -1 3 C-0.67 2.01 -0.34 1.02 0 0 Z " fill="#D55551" transform="translate(525,211)"/>
<path d="M0 0 C0 0.66 0 1.32 0 2 C-6.2586761 4.83411748 -12.11596716 6.09032818 -19 5 C-21.328125 3.4765625 -21.328125 3.4765625 -23 2 C-22.67 1.34 -22.34 0.68 -22 0 C-20.83984375 0.01740234 -20.83984375 0.01740234 -19.65625 0.03515625 C-12.49506654 0.10015754 -12.49506654 0.10015754 -5.375 -0.5625 C-2 -1 -2 -1 0 0 Z " fill="#16B3D1" transform="translate(197,297)"/>
<path d="M0 0 C1.13199353 0.9080162 2.25532363 1.82683826 3.375 2.75 C4.00148438 3.26046875 4.62796875 3.7709375 5.2734375 4.296875 C7.08312318 6.08199481 8.00117455 7.67949644 9 10 C7 10 7 10 5.375 8.5 C4.92125 8.005 4.4675 7.51 4 7 C4 7.66 4 8.32 4 9 C3.34 9 2.68 9 2 9 C2 9.66 2 10.32 2 11 C1.01 11.33 0.02 11.66 -1 12 C-3.31 9.69 -5.62 7.38 -8 5 C-7.34 4.67 -6.68 4.34 -6 4 C-5.01 4.33 -4.02 4.66 -3 5 C-3.33 4.01 -3.66 3.02 -4 2 C-2.68 1.34 -1.36 0.68 0 0 Z " fill="#D44E4B" transform="translate(277,220)"/>
<path d="M0 0 C4.8084187 0.44729476 7.68898791 1.39683978 11 5 C11.3125 8.25 11.3125 8.25 11 11 C5.375 11.25 5.375 11.25 2 9 C-0.0492094 8.54860541 -0.0492094 8.54860541 -2.1875 8.375 C-3.445625 8.25125 -4.70375 8.1275 -6 8 C-6 7.67 -6 7.34 -6 7 C-2.7 6.67 0.6 6.34 4 6 C4 5.34 4 4.68 4 4 C2.68 3.67 1.36 3.34 0 3 C0 2.01 0 1.02 0 0 Z " fill="#F1B9B6" transform="translate(512,175)"/>
<path d="M0 0 C1.65 0.33 3.3 0.66 5 1 C5.8125 3.125 5.8125 3.125 6 6 C4.58633421 8.41454116 3.01224447 9.98775553 1 12 C0.34 12 -0.32 12 -1 12 C-1.33 10.35 -1.66 8.7 -2 7 C-2.66 7.66 -3.32 8.32 -4 9 C-6.125 8.625 -6.125 8.625 -8 8 C-6.71034824 6.62437146 -5.37310707 5.29233607 -4 4 C-3.34 4 -2.68 4 -2 4 C-1.34 2.68 -0.68 1.36 0 0 Z " fill="#F0B8B2" transform="translate(354,212)"/>
<path d="M0 0 C0 2 0 4 0 6 C-0.64324219 5.79503906 -1.28648437 5.59007813 -1.94921875 5.37890625 C-9.29976664 3.18737343 -16.35057967 2.35267598 -24 2 C-24 1.34 -24 0.68 -24 0 C-7.1070615 -1.33257403 -7.1070615 -1.33257403 0 0 Z " fill="#F8F5F4" transform="translate(184,121)"/>
<path d="M0 0 C0 15.51 0 31.02 0 47 C-0.66 47 -1.32 47 -2 47 C-1.67 47.99 -1.34 48.98 -1 50 C-1.66 50 -2.32 50 -3 50 C-4.38232443 48.37373596 -5.71937515 46.7074998 -7 45 C-6.67 44.34 -6.34 43.68 -6 43 C-4.68 43 -3.36 43 -2 43 C-1.67 29.47 -1.34 15.94 -1 2 C-1.66 1.67 -2.32 1.34 -3 1 C-1 0 -1 0 0 0 Z " fill="#2E394C" transform="translate(321,288)"/>
<path d="M0 0 C1 1 1 1 1.1875 3.4375 C1 6 1 6 -1 8 C-3.625 8.125 -3.625 8.125 -6 8 C-5.34 7.67 -4.68 7.34 -4 7 C-6.39509338 4.10067643 -8.31245243 3.49831724 -12 3 C-11.67 3.99 -11.34 4.98 -11 6 C-12.32 5.34 -13.64 4.68 -15 4 C-9.92935241 -0.02154809 -6.28154144 -0.20263037 0 0 Z " fill="#F0B9B6" transform="translate(171,132)"/>
<path d="M0 0 C2.4375 0.0625 2.4375 0.0625 5 1 C6.8125 3.5625 6.8125 3.5625 8 6 C6.68 6.99 5.36 7.98 4 9 C4.33 9.99 4.66 10.98 5 12 C3 12 3 12 0.375 9.8125 C-2 7 -2 7 -2.4375 4.3125 C-2 2 -2 2 0 0 Z " fill="#F2B8B6" transform="translate(254,212)"/>
<path d="M0 0 C0.33 0 0.66 0 1 0 C1 17.16 1 34.32 1 52 C0.01 51.01 -0.98 50.02 -2 49 C-2 48.34 -2 47.68 -2 47 C-1.34 47 -0.68 47 0 47 C0 31.49 0 15.98 0 0 Z " fill="#38383A" transform="translate(321,288)"/>
<path d="M0 0 C-0.99 0.495 -0.99 0.495 -2 1 C-1.34 1.33 -0.68 1.66 0 2 C0 2.99 0 3.98 0 5 C-8.57142857 6.28571429 -8.57142857 6.28571429 -12 5 C-11.67 4.01 -11.34 3.02 -11 2 C-11.66 1.34 -12.32 0.68 -13 0 C-11.39679026 -0.19551338 -9.79237014 -0.38111983 -8.1875 -0.5625 C-7.29417969 -0.66691406 -6.40085937 -0.77132813 -5.48046875 -0.87890625 C-3 -1 -3 -1 0 0 Z " fill="#FAF7F4" transform="translate(360,489)"/>
<path d="M0 0 C0.66 0 1.32 0 2 0 C2.4375 3.125 2.4375 3.125 2 7 C0.35585719 8.8675776 -1.37092804 10.26341158 -3.37109375 11.73828125 C-5.14105662 12.92106765 -5.14105662 12.92106765 -6 15 C-6.66 15 -7.32 15 -8 15 C-7.3605547 11.29121726 -7.3605547 11.29121726 -5.375 9.6875 C-3.5797574 7.88334311 -3.5797574 7.88334311 -4.3125 4.3125 C-4.539375 3.219375 -4.76625 2.12625 -5 1 C-4.34 1 -3.68 1 -3 1 C-3 1.66 -3 2.32 -3 3 C-2.01 2.34 -1.02 1.68 0 1 C0 0.67 0 0.34 0 0 Z " fill="#DA4B47" transform="translate(398,233)"/>
<path d="M0 0 C0 0.33 0 0.66 0 1 C-0.96421875 1.19335938 -1.9284375 1.38671875 -2.921875 1.5859375 C-4.81679687 1.97652344 -4.81679687 1.97652344 -6.75 2.375 C-8.00296875 2.63023437 -9.2559375 2.88546875 -10.546875 3.1484375 C-13.3969783 3.85129103 -15.43749809 4.67299008 -18 6 C-21.25 6.125 -21.25 6.125 -24 6 C-17.73320088 -1.52015895 -8.9813354 -0.24310382 0 0 Z " fill="#D05050" transform="translate(109,166)"/>
<path d="M0 0 C3.65102192 3.38094633 4.75219825 6.81934463 5.3125 11.75 C5.209375 12.4925 5.10625 13.235 5 14 C4.01 14.66 3.02 15.32 2 16 C0.24836544 12.22777911 -0.22490027 9.333361 -0.125 5.1875 C-0.10695313 4.21167969 -0.08890625 3.23585937 -0.0703125 2.23046875 C-0.04710937 1.49441406 -0.02390625 0.75835937 0 0 Z " fill="#0FABC9" transform="translate(481,241)"/>
<path d="M0 0 C1.65 1.65 3.3 3.3 5 5 C4.01 5.33 3.02 5.66 2 6 C2 6.66 2 7.32 2 8 C0.68 7.67 -0.64 7.34 -2 7 C-2.309375 7.639375 -2.61875 8.27875 -2.9375 8.9375 C-4 11 -4 11 -5 12 C-6.99958364 12.04080783 -9.00045254 12.04254356 -11 12 C-6.25 8 -6.25 8 -4 8 C-3.566875 6.8553125 -3.566875 6.8553125 -3.125 5.6875 C-2 3 -2 3 0 0 Z " fill="#344249" transform="translate(159,186)"/>
<path d="M0 0 C1.60294922 0.01353516 1.60294922 0.01353516 3.23828125 0.02734375 C4.04652344 0.03894531 4.85476563 0.05054688 5.6875 0.0625 C5.6875 1.0525 5.6875 2.0425 5.6875 3.0625 C3.37552845 3.25640729 1.0628971 3.44246367 -1.25 3.625 C-2.53777344 3.72941406 -3.82554687 3.83382812 -5.15234375 3.94140625 C-6.19519531 3.98136719 -7.23804688 4.02132812 -8.3125 4.0625 C-8.6425 3.7325 -8.9725 3.4025 -9.3125 3.0625 C-10.98792976 3.34854898 -12.65635343 3.68031233 -14.3125 4.0625 C-10.52797189 -0.51877087 -5.58649249 -0.06139003 0 0 Z " fill="#D5504D" transform="translate(510.3125,165.9375)"/>
<path d="M0 0 C1 2 1 2 0.5625 3.625 C-0.17076368 6.23298413 -0.17076368 6.23298413 0.1875 9.9375 C0.25786186 14.15139381 -1.09064597 15.91950749 -4 19 C-4.70885894 20.31138904 -5.39456452 21.63777017 -6 23 C-7 22 -7 22 -7.09765625 20.15234375 C-7.06510417 18.1015625 -7.03255208 16.05078125 -7 14 C-6.34 14.66 -5.68 15.32 -5 16 C-4.67 15.34 -4.34 14.68 -4 14 C-3.34 14 -2.68 14 -2 14 C-2.02320313 13.15695313 -2.04640625 12.31390625 -2.0703125 11.4453125 C-2.09738281 9.80175781 -2.09738281 9.80175781 -2.125 8.125 C-2.14820313 7.03445312 -2.17140625 5.94390625 -2.1953125 4.8203125 C-2 2 -2 2 0 0 Z " fill="#DA423F" transform="translate(147,138)"/>
<path d="M0 0 C1.32 0.66 2.64 1.32 4 2 C3 5 3 5 1 6 C0.67 6.99 0.34 7.98 0 9 C-0.556875 8.79375 -1.11375 8.5875 -1.6875 8.375 C-4.659538 7.89304789 -6.31979941 8.73434972 -9 10 C-7.61811547 6.78956118 -6.07578097 4.95063635 -3.375 2.75 C-2.74335938 2.22921875 -2.11171875 1.7084375 -1.4609375 1.171875 C-0.73777344 0.59179688 -0.73777344 0.59179688 0 0 Z " fill="#11A7C6" transform="translate(143,226)"/>
<path d="M0 0 C0.99 0.66 1.98 1.32 3 2 C3 2.99 3 3.98 3 5 C2.28714844 4.84015625 1.57429687 4.6803125 0.83984375 4.515625 C-6.19464585 3.23838617 -12.83233366 2.99935157 -19 7 C-19 6.01 -19 5.02 -19 4 C-19.66 4 -20.32 4 -21 4 C-21 3.34 -21 2.68 -21 2 C-20.39937744 1.97494385 -19.79875488 1.9498877 -19.17993164 1.92407227 C-16.47388563 1.8084472 -13.76821717 1.68557064 -11.0625 1.5625 C-10.11697266 1.52318359 -9.17144531 1.48386719 -8.19726562 1.44335938 C-7.29814453 1.40146484 -6.39902344 1.35957031 -5.47265625 1.31640625 C-4.64000244 1.27974854 -3.80734863 1.24309082 -2.94946289 1.20532227 C-0.99661142 1.20632897 -0.99661142 1.20632897 0 0 Z " fill="#D95554" transform="translate(517,172)"/>
<path d="M0 0 C8.57142857 -0.28571429 8.57142857 -0.28571429 12 2 C12 2.66 12 3.32 12 4 C9.29816945 5.35091528 6.88191794 5.33858058 3.875 5.5625 C2.77929688 5.64628906 1.68359375 5.73007813 0.5546875 5.81640625 C-0.28835937 5.87699219 -1.13140625 5.93757812 -2 6 C-1.67 5.195625 -1.34 4.39125 -1 3.5625 C0.06059041 1.30318875 0.06059041 1.30318875 0 0 Z " fill="#F6EDEA" transform="translate(96,161)"/>
<path d="M0 0 C-0.33 0.99 -0.66 1.98 -1 3 C-1.04278083 4.37433431 -1.04057273 5.75059873 -1 7.125 C-1 8.40375 -1 9.6825 -1 11 C-2 12 -2 12 -5.5625 12.0625 C-6.696875 12.041875 -7.83125 12.02125 -9 12 C-9 11.67 -9 11.34 -9 11 C-7.02 10.67 -5.04 10.34 -3 10 C-3 8.35 -3 6.7 -3 5 C-4.8871875 4.9690625 -4.8871875 4.9690625 -6.8125 4.9375 C-7.52019531 4.92589844 -8.22789063 4.91429687 -8.95703125 4.90234375 C-11.20305461 4.91736783 -11.20305461 4.91736783 -14 6 C-14 5.01 -14 4.02 -14 3 C-10.37 3 -6.74 3 -3 3 C-3 2.34 -3 1.68 -3 1 C-3.99 0.67 -4.98 0.34 -6 0 C-3 -1 -3 -1 0 0 Z " fill="#D9615D" transform="translate(107,171)"/>
<path d="M0 0 C2 4 2 4 2 6 C3.32 6.33 4.64 6.66 6 7 C6 8.98 6 10.96 6 13 C2.9789286 10.9859524 1.39332574 9.36720387 0 6 C-0.99 6.66 -1.98 7.32 -3 8 C-4.32 7.34 -5.64 6.68 -7 6 C-4.69 4.02 -2.38 2.04 0 0 Z " fill="#D75654" transform="translate(423,131)"/>
<path d="M0 0 C6.52470449 4.19445289 11.94494303 8.29355962 16 15 C14.65686601 14.35330586 13.32608822 13.68096422 12 13 C10.7315625 12.3503125 10.7315625 12.3503125 9.4375 11.6875 C6.65567668 9.76162232 5.69831999 7.87975999 4 5 C1.93299345 3.67206394 1.93299345 3.67206394 0 3 C0 2.01 0 1.02 0 0 Z " fill="#2A3E40" transform="translate(172,201)"/>
<path d="M0 0 C1.8871875 0.0309375 1.8871875 0.0309375 3.8125 0.0625 C3.4825 1.3825 3.1525 2.7025 2.8125 4.0625 C-3.6225 4.5575 -3.6225 4.5575 -10.1875 5.0625 C-6.78191094 0.52171459 -5.33187265 -0.08740775 0 0 Z " fill="#FDFAFB" transform="translate(511.1875,161.9375)"/>
<path d="M0 0 C0.99 0.33 1.98 0.66 3 1 C3 1.66 3 2.32 3 3 C3.66 3 4.32 3 5 3 C4.67 4.98 4.34 6.96 4 9 C3.67 7.68 3.34 6.36 3 5 C2.34 5 1.68 5 1 5 C1.33 6.32 1.66 7.64 2 9 C1.01 9.495 1.01 9.495 0 10 C-0.33 9.01 -0.66 8.02 -1 7 C-2.49985609 5.33289654 -2.49985609 5.33289654 -4 4 C-3.34 4 -2.68 4 -2 4 C-2 3.34 -2 2.68 -2 2 C-1.34 2 -0.68 2 0 2 C0 1.34 0 0.68 0 0 Z " fill="#D94341" transform="translate(281,227)"/>
<path d="M0 0 C0.66 0.99 1.32 1.98 2 3 C2.66 3.33 3.32 3.66 4 4 C3.36191406 4.19335938 2.72382813 4.38671875 2.06640625 4.5859375 C1.24011719 4.84632813 0.41382813 5.10671875 -0.4375 5.375 C-1.67306641 5.75785156 -1.67306641 5.75785156 -2.93359375 6.1484375 C-5.17798016 6.80882227 -5.17798016 6.80882227 -6 9 C-6.66 8.67 -7.32 8.34 -8 8 C-8 5 -8 5 -6.125 2.875 C-2.86666667 0 -2.86666667 0 0 0 Z " fill="#14A6C8" transform="translate(156,218)"/>
<path d="M0 0 C0 1.32 0 2.64 0 4 C0.66 4 1.32 4 2 4 C2.33 5.65 2.66 7.3 3 9 C0.53199953 7.84826645 -1.04783565 6.95216435 -3 5 C-3.99 5 -4.98 5 -6 5 C-6.33 4.01 -6.66 3.02 -7 2 C-4 0 -4 0 0 0 Z " fill="#EEC9C4" transform="translate(264,218)"/>
<path d="M0 0 C1.1875 1.5625 1.1875 1.5625 2 4 C0.625 7.75 0.625 7.75 -1 11 C-1.66 10.67 -2.32 10.34 -3 10 C-2.67 9.01 -2.34 8.02 -2 7 C-3.32 6.67 -4.64 6.34 -6 6 C-4 4 -2 2 0 0 Z " fill="#D5514D" transform="translate(340,214)"/>
<path d="M0 0 C0.33 0 0.66 0 1 0 C1.66 1.98 2.32 3.96 3 6 C3 5.34 3 4.68 3 4 C3.66 4 4.32 4 5 4 C5.33 3.01 5.66 2.02 6 1 C6.33 2.32 6.66 3.64 7 5 C6.34 5 5.68 5 5 5 C5 6.32 5 7.64 5 9 C5.66 9 6.32 9 7 9 C7 9.66 7 10.32 7 11 C4.625 11.1875 4.625 11.1875 2 11 C-0.67927341 6.98108988 -0.15601248 4.75838077 0 0 Z " fill="#F1B6B4" transform="translate(84,189)"/>
<path d="M0 0 C1.32 0.99 2.64 1.98 4 3 C2.81323934 7.10801767 2.10551666 8.89448334 -1 12 C-1.66 9.03 -2.32 6.06 -3 3 C-2.01 3.495 -2.01 3.495 -1 4 C-0.67 2.68 -0.34 1.36 0 0 Z " fill="#F4EEEE" transform="translate(155,182)"/>
<path d="M0 0 C0.66 1.32 1.32 2.64 2 4 C0.02 4.99 0.02 4.99 -2 6 C-2 6.66 -2 7.32 -2 8 C-2.66 8 -3.32 8 -4 8 C-4.33 8.66 -4.66 9.32 -5 10 C-5.66 9.67 -6.32 9.34 -7 9 C-7 10.32 -7 11.64 -7 13 C-7.66 13 -8.32 13 -9 13 C-8.58682778 8.17965738 -6.61980085 6.09007389 -3 3 C-2.34 3 -1.68 3 -1 3 C-0.67 2.01 -0.34 1.02 0 0 Z " fill="#EEB8B1" transform="translate(345,221)"/>
<path d="M0 0 C2.97 0.495 2.97 0.495 6 1 C6 1.99 6 2.98 6 4 C3.5 6.1875 3.5 6.1875 1 8 C0.34 7.34 -0.32 6.68 -1 6 C-0.625 2.875 -0.625 2.875 0 0 Z " fill="#F8F0F0" transform="translate(345,200)"/>
<path d="M0 0 C0.33 0 0.66 0 1 0 C1.1875 2.375 1.1875 2.375 1 5 C0.01 5.66 -0.98 6.32 -2 7 C-3.65027447 11.37322734 -4.36824115 14.48480419 -3 19 C-5.36089842 17.15234037 -6.00382455 15.98716045 -6.875 13.0625 C-7 10 -7 10 -5.6875 7.8125 C-4.8521875 6.9153125 -4.8521875 6.9153125 -4 6 C-3.34 5.01 -2.68 4.02 -2 3 C-1.34 2.01 -0.68 1.02 0 0 Z " fill="#D35353" transform="translate(147,150)"/>
<path d="M0 0 C2.79224073 -0.08071788 5.58216566 -0.14035408 8.375 -0.1875 C9.1690625 -0.21263672 9.963125 -0.23777344 10.78125 -0.26367188 C12.85586148 -0.29004405 14.93100865 -0.15486462 17 0 C17.66 0.99 18.32 1.98 19 3 C13.06 2.67 7.12 2.34 1 2 C0.67 1.34 0.34 0.68 0 0 Z " fill="#DC4241" transform="translate(435,129)"/>
<path d="M0 0 C0.66 0 1.32 0 2 0 C2.66 1.32 3.32 2.64 4 4 C1.42215154 6.64752004 -0.91648098 8.94432065 -4 11 C-3.38297872 4.45957447 -3.38297872 4.45957447 -1.4375 2.125 C-0.963125 1.75375 -0.48875 1.3825 0 1 C0 0.67 0 0.34 0 0 Z " fill="#D84E4B" transform="translate(414,217)"/>
<path d="M0 0 C0.68835938 0.59748047 0.68835938 0.59748047 1.390625 1.20703125 C4.52271585 3.91142062 7.63877459 6.57991771 11 9 C10.67 9.66 10.34 10.32 10 11 C5.71360431 10.32320068 4.21769426 9.40503184 1.375 6.125 C0 4 0 4 0 0 Z " fill="#D04F4C" transform="translate(136,189)"/>
<path d="M0 0 C-0.66 1.32 -1.32 2.64 -2 4 C-1.34 4.66 -0.68 5.32 0 6 C-1 7 -1 7 -3.5625 7.0625 C-4.7690625 7.0315625 -4.7690625 7.0315625 -6 7 C-6.33 5.02 -6.66 3.04 -7 1 C-4.53721199 -0.231394 -2.7204945 -0.07159196 0 0 Z " fill="#D5433E" transform="translate(431,130)"/>
<path d="M0 0 C0.33 0.66 0.66 1.32 1 2 C1.66 2 2.32 2 3 2 C2.01906046 4.45234885 1.31296172 5.7809268 -0.875 7.3125 C-3 8 -3 8 -7 7 C-4.69 4.69 -2.38 2.38 0 0 Z " fill="#EAFAFA" transform="translate(484,256)"/>
<path d="M0 0 C1.32 0 2.64 0 4 0 C3.42110619 3.28754511 2.45171589 4.93672495 0.0625 7.25 C-0.46214844 7.77078125 -0.98679687 8.2915625 -1.52734375 8.828125 C-3 10 -3 10 -5 10 C-4.67 8.68 -4.34 7.36 -4 6 C-3.34 6.33 -2.68 6.66 -2 7 C-2 5.68 -2 4.36 -2 3 C-1.34 3 -0.68 3 0 3 C0 2.01 0 1.02 0 0 Z " fill="#D6504D" transform="translate(492,242)"/>
<path d="M0 0 C2.475 0.99 2.475 0.99 5 2 C3.35 3.98 1.7 5.96 0 8 C-0.99 7.34 -1.98 6.68 -3 6 C-2.42655063 3.13275314 -2.1385485 2.1385485 0 0 Z " fill="#F8F0EF" transform="translate(339,208)"/>
<path d="M0 0 C2.475 0.99 2.475 0.99 5 2 C3.35 3.98 1.7 5.96 0 8 C-0.99 7.34 -1.98 6.68 -3 6 C-2.42655063 3.13275314 -2.1385485 2.1385485 0 0 Z " fill="#F8F0EF" transform="translate(363,184)"/>
<path d="M0 0 C1 3 1 3 -0.25 6.0625 C-2 9 -2 9 -5 11 C-5.66 11 -6.32 11 -7 11 C-7.66 11.66 -8.32 12.32 -9 13 C-8.77429903 9.05023297 -8.09405894 8.08405267 -5.0625 5.375 C-4.051875 4.59125 -3.04125 3.8075 -2 3 C-1.34 2.01 -0.68 1.02 0 0 Z " fill="#D85958" transform="translate(409,144)"/>
<path d="M0 0 C1.65 0.33 3.3 0.66 5 1 C5.042721 2.66611905 5.04063832 4.33382885 5 6 C4 7 4 7 0.9375 7.0625 C-0.5165625 7.0315625 -0.5165625 7.0315625 -2 7 C-2 6.34 -2 5.68 -2 5 C-1.34 4.67 -0.68 4.34 0 4 C0 2.68 0 1.36 0 0 Z " fill="#F6CAC7" transform="translate(100,175)"/>
<path d="M0 0 C0.66 0.66 1.32 1.32 2 2 C1.9765625 5.0390625 1.9765625 5.0390625 1.625 8.625 C1.51414063 9.81351562 1.40328125 11.00203125 1.2890625 12.2265625 C1.19367188 13.14179688 1.09828125 14.05703125 1 15 C0.67 14.34 0.34 13.68 0 13 C-0.66 13 -1.32 13 -2 13 C-2 10.36 -2 7.72 -2 5 C-1.34 5 -0.68 5 0 5 C0 3.35 0 1.7 0 0 Z " fill="#E0F7F3" transform="translate(213,267)"/>
<path d="M0 0 C1.32 0.66 2.64 1.32 4 2 C4 3.65 4 5.3 4 7 C3.34 7 2.68 7 2 7 C2 7.66 2 8.32 2 9 C1.01 8.67 0.02 8.34 -1 8 C-1.04241723 5.66705225 -1.04092937 3.33297433 -1 1 C-0.67 0.67 -0.34 0.34 0 0 Z " fill="#F1CAC8" transform="translate(150,147)"/>
<path d="M0 0 C1.60031344 3.20062687 0.03173691 5.72271806 -1 9 C-3.64 7.02 -6.28 5.04 -9 3 C-8.67 2.34 -8.34 1.68 -8 1 C-5.83125748 1.50603992 -4.00032373 1.99983813 -2 3 C-1.34 2.01 -0.68 1.02 0 0 Z " fill="#C36063" transform="translate(127,245)"/>
<path d="M0 0 C1.4540625 0.0309375 1.4540625 0.0309375 2.9375 0.0625 C2.58700425 3.30458567 2.37528819 4.67777704 -0.125 6.875 C-0.764375 7.266875 -1.40375 7.65875 -2.0625 8.0625 C-3.1875 4.3125 -3.1875 4.3125 -2.0625 2.0625 C-2.7225 1.7325 -3.3825 1.4025 -4.0625 1.0625 C-3.0625 0.0625 -3.0625 0.0625 0 0 Z " fill="#12B0D2" transform="translate(461.0625,272.9375)"/>
<path d="M0 0 C0.5534764 2.07553648 1 3.84365964 1 6 C0.34 6 -0.32 6 -1 6 C-1.33 8.64 -1.66 11.28 -2 14 C-2.99 13.01 -3.98 12.02 -5 11 C-3.92289822 6.69159287 -2.96052484 3.36423277 0 0 Z " fill="#23B5D4" transform="translate(406,258)"/>
<path d="M0 0 C0.99 0.99 1.98 1.98 3 3 C2.01 5.64 1.02 8.28 0 11 C-0.33 10.34 -0.66 9.68 -1 9 C-1.66 9 -2.32 9 -3 9 C-3 8.34 -3 7.68 -3 7 C-3.66 7 -4.32 7 -5 7 C-5 6.34 -5 5.68 -5 5 C-3.68 5 -2.36 5 -1 5 C-0.67 3.35 -0.34 1.7 0 0 Z " fill="#334F5E" transform="translate(179,221)"/>
<path d="M0 0 C-0.33 1.32 -0.66 2.64 -1 4 C-1.99 4 -2.98 4 -4 4 C-4 5.65 -4 7.3 -4 9 C-3.01 9.33 -2.02 9.66 -1 10 C-2.65 9.67 -4.3 9.34 -6 9 C-6.33 7.35 -6.66 5.7 -7 4 C-2.25 0 -2.25 0 0 0 Z " fill="#F4BBB8" transform="translate(503,176)"/>
<path d="M0 0 C-0.33 0.66 -0.66 1.32 -1 2 C-4.0625 2.625 -4.0625 2.625 -7 3 C-7 3.66 -7 4.32 -7 5 C-8.32 5 -9.64 5 -11 5 C-11.33 4.01 -11.66 3.02 -12 2 C-8.09971775 -0.60018816 -4.52565431 -0.15085514 0 0 Z " fill="#D2443C" transform="translate(169,128)"/>
<path d="M0 0 C0 4.07300169 -1.58452534 5.77936711 -4 9 C-6.25 10.875 -6.25 10.875 -8 12 C-8 11.34 -8 10.68 -8 10 C-8.66 9.67 -9.32 9.34 -10 9 C-8.63875 8.1646875 -8.63875 8.1646875 -7.25 7.3125 C-4.15546609 5.1106201 -2.20718532 3.05610275 0 0 Z " fill="#CDEDF4" transform="translate(207,289)"/>
<path d="M0 0 C4.15568659 6.23352988 3.1053216 13.76791678 3 21 C2.67 21 2.34 21 2 21 C2 17.37 2 13.74 2 10 C1.01 10.33 0.02 10.66 -1 11 C-0.67 7.37 -0.34 3.74 0 0 Z " fill="#FCEAE6" transform="translate(227,259)"/>
<path d="M0 0 C0.99 0 1.98 0 3 0 C3.33 2.31 3.66 4.62 4 7 C1.125 6.8125 1.125 6.8125 -2 6 C-3.375 3.4375 -3.375 3.4375 -4 1 C-0.125 2.875 -0.125 2.875 1 4 C1.33 3.34 1.66 2.68 2 2 C1.34 2 0.68 2 0 2 C0 1.34 0 0.68 0 0 Z " fill="#DF444A" transform="translate(119,240)"/>
<path d="M0 0 C3.26954202 0.56371414 4.82575883 1.49962266 7 4 C6.67 4.66 6.34 5.32 6 6 C2.37 5.01 -1.26 4.02 -5 3 C-5 2.67 -5 2.34 -5 2 C-3.35 2 -1.7 2 0 2 C0 1.34 0 0.68 0 0 Z " fill="#F7E1E0" transform="translate(453,121)"/>
<path d="M0 0 C3.63 0.33 7.26 0.66 11 1 C11 1.99 11 2.98 11 4 C8.36 4 5.72 4 3 4 C3 3.34 3 2.68 3 2 C2.01 2 1.02 2 0 2 C0 1.34 0 0.68 0 0 Z " fill="#F9F3F2" transform="translate(253,488)"/>
<path d="M0 0 C2.32636321 4.07113563 2 7.34448212 2 12 C0.68 12 -0.64 12 -2 12 C-1.85904936 10.3745692 -1.71207913 8.74965949 -1.5625 7.125 C-1.48128906 6.22007812 -1.40007812 5.31515625 -1.31640625 4.3828125 C-1 2 -1 2 0 0 Z " fill="#F2CAC9" transform="translate(277,236)"/>
<path d="M0 0 C3.79588866 0.54226981 5.47211993 2.20127563 8 5 C7.67 5.66 7.34 6.32 7 7 C4 7 4 7 1.8125 5.1875 C0 3 0 3 0 0 Z " fill="#D85451" transform="translate(264,232)"/>
<path d="M0 0 C0.99 0.33 1.98 0.66 3 1 C1.68 4.3 0.36 7.6 -1 11 C-1.33 10.01 -1.66 9.02 -2 8 C-2.66 8 -3.32 8 -4 8 C-3.40072174 4.64404172 -2.15377564 2.62198774 0 0 Z " fill="#F8F0ED" transform="translate(77,176)"/>
<path d="M0 0 C0.99 0.33 1.98 0.66 3 1 C3 2.65 3 4.3 3 6 C1.02 6.33 -0.96 6.66 -3 7 C-3.33 5.68 -3.66 4.36 -4 3 C-2.68 2.34 -1.36 1.68 0 1 C0 0.67 0 0.34 0 0 Z " fill="#F5CBCD" transform="translate(350,218)"/>
<path d="M0 0 C4.75 0.75 4.75 0.75 7 3 C5.75 4.5625 5.75 4.5625 4 6 C1.875 5.875 1.875 5.875 0 5 C-0.33 4.01 -0.66 3.02 -1 2 C-0.67 1.34 -0.34 0.68 0 0 Z " fill="#EFEBE9" transform="translate(419,218)"/>
<path d="M0 0 C1 3 1 3 0.1875 5.125 C-1 7 -1 7 -3 8 C-3.99 9.485 -3.99 9.485 -5 11 C-6.32 10.34 -7.64 9.68 -9 9 C-8.51789063 8.60167969 -8.03578125 8.20335937 -7.5390625 7.79296875 C-6.90742188 7.26316406 -6.27578125 6.73335937 -5.625 6.1875 C-4.99851562 5.66542969 -4.37203125 5.14335937 -3.7265625 4.60546875 C-1.7778952 2.91774261 -1.7778952 2.91774261 0 0 Z " fill="#D95D5D" transform="translate(369,184)"/>
<path d="M0 0 C0.99 0.99 1.98 1.98 3 3 C1.7260411 5.03833424 0.38938077 7.03852126 -1 9 C-1.66 9 -2.32 9 -3 9 C-3.93423645 5.98968256 -4.04449911 5.13349732 -3 2 C-2.34 2 -1.68 2 -1 2 C-0.67 1.34 -0.34 0.68 0 0 Z " fill="#DA4F4D" transform="translate(465,167)"/>
<path d="M0 0 C1.32 0 2.64 0 4 0 C3.67 2.97 3.34 5.94 3 9 C2.01 8.67 1.02 8.34 0 8 C0 5.36 0 2.72 0 0 Z " fill="#D74C4B" transform="translate(284,464)"/>
<path d="M0 0 C0.99 0.33 1.98 0.66 3 1 C3 1.99 3 2.98 3 4 C3.33 3.67 3.66 3.34 4 3 C4.99 3.33 5.98 3.66 7 4 C6.34 5.32 5.68 6.64 5 8 C4.01 7.67 3.02 7.34 2 7 C2 6.34 2 5.68 2 5 C1.01 5 0.02 5 -1 5 C-0.67 3.35 -0.34 1.7 0 0 Z " fill="#DB4B4A" transform="translate(369,472)"/>
<path d="M0 0 C1.17539996 0.92652701 2.34010577 1.86663387 3.5 2.8125 C4.1496875 3.33457031 4.799375 3.85664063 5.46875 4.39453125 C7 6 7 6 7 9 C6.01 9.495 6.01 9.495 5 10 C5 9.01 5 8.02 5 7 C4.34 7 3.68 7 3 7 C3 6.34 3 5.68 3 5 C2.01 4.67 1.02 4.34 0 4 C0 2.68 0 1.36 0 0 Z " fill="#D54C4D" transform="translate(265,208)"/>
<path d="M0 0 C0.99 0.99 1.98 1.98 3 3 C0.03 5.475 0.03 5.475 -3 8 C-3.75 6.25 -3.75 6.25 -4 4 C-2.0625 1.75 -2.0625 1.75 0 0 Z " fill="#F6EEEE" transform="translate(357,192)"/>
<path d="M0 0 C0.99 0.99 1.98 1.98 3 3 C0.03 5.475 0.03 5.475 -3 8 C-3.75 6.25 -3.75 6.25 -4 4 C-2.0625 1.75 -2.0625 1.75 0 0 Z " fill="#F6EEEE" transform="translate(373,176)"/>
<path d="M0 0 C0.99 0.99 1.98 1.98 3 3 C0.03 5.475 0.03 5.475 -3 8 C-3.75 6.25 -3.75 6.25 -4 4 C-2.0625 1.75 -2.0625 1.75 0 0 Z " fill="#F6EEEE" transform="translate(381,168)"/>
<path d="M0 0 C0.99 0.99 1.98 1.98 3 3 C0.03 5.475 0.03 5.475 -3 8 C-3.75 6.25 -3.75 6.25 -4 4 C-2.0625 1.75 -2.0625 1.75 0 0 Z " fill="#F6EEEE" transform="translate(389,160)"/>
<path d="M0 0 C0.99 0.99 1.98 1.98 3 3 C0.03 5.475 0.03 5.475 -3 8 C-3.75 6.25 -3.75 6.25 -4 4 C-2.0625 1.75 -2.0625 1.75 0 0 Z " fill="#F6EEEE" transform="translate(397,152)"/>
<path d="M0 0 C1.98 0 3.96 0 6 0 C4.60667426 3.36720387 3.0210714 4.9859524 0 7 C0 4.69 0 2.38 0 0 Z " fill="#F3EDEA" transform="translate(144,128)"/>
<path d="M0 0 C1.32 0.33 2.64 0.66 4 1 C1.69 2.65 -0.62 4.3 -3 6 C-4.32 5.34 -5.64 4.68 -7 4 C-6.030625 3.525625 -5.06125 3.05125 -4.0625 2.5625 C-1.19522563 1.29806053 -1.19522563 1.29806053 0 0 Z " fill="#DB5357" transform="translate(369,480)"/>
<path d="M0 0 C4.29 0 8.58 0 13 0 C9.31035266 2.45976489 7.72571521 3.12465307 3.375 3.0625 C2.14910156 3.04896484 2.14910156 3.04896484 0.8984375 3.03515625 C-0.04128906 3.01775391 -0.04128906 3.01775391 -1 3 C-0.67 2.01 -0.34 1.02 0 0 Z " fill="#26B6D3" transform="translate(424,299)"/>
<path d="M0 0 C0 2.92828926 -0.13970066 5.20402714 -1 8 C-3.0625 9.3125 -3.0625 9.3125 -5 10 C-5 9.34 -5 8.68 -5 8 C-5.33 7.67 -5.66 7.34 -6 7 C-4.02 4.69 -2.04 2.38 0 0 Z " fill="#E5F9FA" transform="translate(471,269)"/>
<path d="M0 0 C-2 3 -4 6 -6 9 C-6 6.03 -6 3.06 -6 0 C-3 -1 -3 -1 0 0 Z " fill="#EBF7F9" transform="translate(407,258)"/>
<path d="M0 0 C-1 2 -1 2 -3 4 C-5.75372909 4.36933645 -8.20365661 4.18336678 -11 4 C-7.65667474 -0.27945633 -5.29105716 -0.4070044 0 0 Z " fill="#D75555" transform="translate(96,168)"/>
<path d="M0 0 C0.33 0.99 0.66 1.98 1 3 C3.97 3.495 3.97 3.495 7 4 C7 4.99 7 5.98 7 7 C1.46153846 6.38461538 1.46153846 6.38461538 -0.875 4.4375 C-1.24625 3.963125 -1.6175 3.48875 -2 3 C-1.34 3 -0.68 3 0 3 C0 2.01 0 1.02 0 0 Z " fill="#23BAD6" transform="translate(415,294)"/>
<path d="M0 0 C5.94 0.99 5.94 0.99 12 2 C12 2.33 12 2.66 12 3 C9.03 3 6.06 3 3 3 C2.67 4.32 2.34 5.64 2 7 C0 5 0 5 -1 3 C-0.67 2.01 -0.34 1.02 0 0 Z " fill="#535763" transform="translate(297,288)"/>
<path d="M0 0 C0.33 0.66 0.66 1.32 1 2 C1.66 2 2.32 2 3 2 C2.1875 3.9375 2.1875 3.9375 1 6 C0.01 6.33 -0.98 6.66 -2 7 C-2 6.34 -2 5.68 -2 5 C-2.66 4.67 -3.32 4.34 -4 4 C-2.68 2.68 -1.36 1.36 0 0 Z " fill="#EBFAFA" transform="translate(476,264)"/>
<path d="M0 0 C1.17539996 0.92652701 2.34010577 1.86663387 3.5 2.8125 C4.1496875 3.33457031 4.799375 3.85664063 5.46875 4.39453125 C7 6 7 6 7 9 C6.34 9 5.68 9 5 9 C5 8.34 5 7.68 5 7 C4.34 7 3.68 7 3 7 C1.375 5.75 1.375 5.75 0 4 C0 2.68 0 1.36 0 0 Z " fill="#D54D4E" transform="translate(257,200)"/>
<path d="M0 0 C2.475 0.99 2.475 0.99 5 2 C4.67 3.32 4.34 4.64 4 6 C1.69 5.67 -0.62 5.34 -3 5 C-2.67 4.01 -2.34 3.02 -2 2 C-1.34 2 -0.68 2 0 2 C0 1.34 0 0.68 0 0 Z " fill="#EBF7F9" transform="translate(171,298)"/>
<path d="M0 0 C2.02350324 3.03525486 2.32124018 4.19426202 2.625 7.6875 C2.69976562 8.49574219 2.77453125 9.30398437 2.8515625 10.13671875 C2.90054687 10.75160156 2.94953125 11.36648437 3 12 C2.01 12.495 2.01 12.495 1 13 C1 12.01 1 11.02 1 10 C0.34 9.67 -0.32 9.34 -1 9 C-0.67 8.01 -0.34 7.02 0 6 C0.03920815 4.00038436 0.04443347 1.99950636 0 0 Z " fill="#F5B2B0" transform="translate(278,234)"/>
<path d="M0 0 C0.99 0 1.98 0 3 0 C3.33 0.99 3.66 1.98 4 3 C2.35 4.32 0.7 5.64 -1 7 C-1.625 4.625 -1.625 4.625 -2 2 C-1.34 1.34 -0.68 0.68 0 0 Z " fill="#E5F6F8" transform="translate(418,240)"/>
<path d="M0 0 C2.97 0.495 2.97 0.495 6 1 C6.33 2.98 6.66 4.96 7 7 C7.99 6.67 8.98 6.34 10 6 C9.67 6.99 9.34 7.98 9 9 C8.01 8.67 7.02 8.34 6 8 C5.690625 7.195625 5.38125 6.39125 5.0625 5.5625 C4.23391841 2.85842507 4.23391841 2.85842507 1.875 1.6875 C1.25625 1.460625 0.6375 1.23375 0 1 C0 0.67 0 0.34 0 0 Z " fill="#BD5354" transform="translate(470,227)"/>
<path d="M0 0 C0.33 0.66 0.66 1.32 1 2 C1.66 2 2.32 2 3 2 C3 2.66 3 3.32 3 4 C3.66 4 4.32 4 5 4 C4.34 5.32 3.68 6.64 3 8 C2.67 7.01 2.34 6.02 2 5 C-0.00016466 3.79117904 -0.00016466 3.79117904 -2 3 C-2 2.34 -2 1.68 -2 1 C-1.34 0.67 -0.68 0.34 0 0 Z " fill="#D85757" transform="translate(262,213)"/>
<path d="M0 0 C0.33 1.98 0.66 3.96 1 6 C0.01 6 -0.98 6 -2 6 C-4.1875 3.5 -4.1875 3.5 -6 1 C-3.92446352 0.4465236 -2.15634036 0 0 0 Z " fill="#F9ECEC" transform="translate(216,151)"/>
<path d="M0 0 C2.475 0.495 2.475 0.495 5 1 C5 2.32 5 3.64 5 5 C3.35 5 1.7 5 0 5 C0 3.35 0 1.7 0 0 Z " fill="#F3CBC8" transform="translate(429,139)"/>
<path d="M0 0 C0.0270043 1.45823212 0.04639787 2.91660675 0.0625 4.375 C0.07410156 5.18710938 0.08570313 5.99921875 0.09765625 6.8359375 C0 9 0 9 -1 11 C-1.66 11 -2.32 11 -3 11 C-2.34 9.35 -1.68 7.7 -1 6 C-1.66 6 -2.32 6 -3 6 C-3 4.35 -3 2.7 -3 1 C-1 0 -1 0 0 0 Z " fill="#DC4A4A" transform="translate(175,132)"/>
<path d="M0 0 C0.99 0.66 1.98 1.32 3 2 C0.02819057 3.89865603 -2.51460083 5.35455571 -6 6 C-6.33 5.34 -6.66 4.68 -7 4 C-4.69 2.68 -2.38 1.36 0 0 Z " fill="#F6F1ED" transform="translate(371,482)"/>
<path d="M0 0 C0.33 0 0.66 0 1 0 C1.04241723 2.33294775 1.04092937 4.66702567 1 7 C0 8 0 8 -2.5625 8.0625 C-3.366875 8.041875 -4.17125 8.02125 -5 8 C-5.33 7.34 -5.66 6.68 -6 6 C-5.34 6 -4.68 6 -4 6 C-3.34 4.68 -2.68 3.36 -2 2 C-1.67 3.32 -1.34 4.64 -1 6 C-0.67 4.02 -0.34 2.04 0 0 Z " fill="#F5B8B6" transform="translate(338,240)"/>
<path d="M0 0 C-1.75 4.875 -1.75 4.875 -4 6 C-5.32 4.02 -6.64 2.04 -8 0 C-4.71303767 -0.79953138 -3.28976808 -1.09658936 0 0 Z " fill="#274957" transform="translate(176,220)"/>
<path d="M0 0 C0.6875 1.8125 0.6875 1.8125 1 4 C-0.0625 5.75 -0.0625 5.75 -2 7 C-5.1875 7.1875 -5.1875 7.1875 -8 7 C-3.25 3 -3.25 3 -1 3 C-0.67 2.01 -0.34 1.02 0 0 Z " fill="#51555C" transform="translate(156,191)"/>
<path d="M0 0 C0.33 0 0.66 0 1 0 C1.0270043 1.45823212 1.04639787 2.91660675 1.0625 4.375 C1.07410156 5.18710938 1.08570313 5.99921875 1.09765625 6.8359375 C1 9 1 9 0 11 C-1.65 10.67 -3.3 10.34 -5 10 C-4.01 9.67 -3.02 9.34 -2 9 C-1.19436362 6.89415562 -1.19436362 6.89415562 -0.8125 4.4375 C-0.65394531 3.61121094 -0.49539063 2.78492188 -0.33203125 1.93359375 C-0.22246094 1.29550781 -0.11289062 0.65742188 0 0 Z " fill="#EFB8B3" transform="translate(463,146)"/>
<path d="M0 0 C1.65 0 3.3 0 5 0 C5.33 1.32 5.66 2.64 6 4 C5.34 4 4.68 4 4 4 C4.33 4.99 4.66 5.98 5 7 C4.34 7 3.68 7 3 7 C1.61767557 5.37373596 0.28062485 3.7074998 -1 2 C-0.67 1.34 -0.34 0.68 0 0 Z " fill="#4C525C" transform="translate(315,331)"/>
<path d="M0 0 C2.5 2.3125 2.5 2.3125 5 5 C5 5.99 5 6.98 5 8 C3.35 7.67 1.7 7.34 0 7 C0.66 6.67 1.32 6.34 2 6 C1.34 4.02 0.68 2.04 0 0 Z " fill="#1FB1C7" transform="translate(203,256)"/>
<path d="M0 0 C0.66 0.33 1.32 0.66 2 1 C0.68 4.63 -0.64 8.26 -2 12 C-2.33 12 -2.66 12 -3 12 C-3 9.03 -3 6.06 -3 3 C-2.01 2.67 -1.02 2.34 0 2 C0 1.34 0 0.68 0 0 Z " fill="#CF5855" transform="translate(385,254)"/>
<path d="M0 0 C0.66 0.99 1.32 1.98 2 3 C1.071875 3.598125 0.14375 4.19625 -0.8125 4.8125 C-3.20254718 6.45272845 -5.08470253 7.8718917 -7 10 C-7.66 9.67 -8.32 9.34 -9 9 C-6.03 6.03 -3.06 3.06 0 0 Z " fill="#FBE8E8" transform="translate(499,241)"/>
<path d="M0 0 C0.99 0.33 1.98 0.66 3 1 C2.04882866 2.1725131 1.08882991 3.33787015 0.125 4.5 C-0.40867187 5.1496875 -0.94234375 5.799375 -1.4921875 6.46875 C-1.98976563 6.9740625 -2.48734375 7.479375 -3 8 C-3.66 8 -4.32 8 -5 8 C-4.45773019 4.20411134 -2.79872437 2.52788007 0 0 Z " fill="#D6514E" transform="translate(395,240)"/>
<path d="M0 0 C0.66 0 1.32 0 2 0 C2.43200679 4.75207471 0.98489083 7.78210698 -1 12 C-1.33 12 -1.66 12 -2 12 C-1.85831863 10.56208484 -1.71148957 9.1246763 -1.5625 7.6875 C-1.48128906 6.88699219 -1.40007812 6.08648437 -1.31640625 5.26171875 C-1 3 -1 3 0 0 Z " fill="#F3AFAB" transform="translate(333,234)"/>
<path d="M0 0 C2.99324263 1.0975223 3.84610901 1.67682892 5.25 4.625 C5.4975 5.40875 5.745 6.1925 6 7 C5.01 7.495 5.01 7.495 4 8 C0 3.375 0 3.375 0 0 Z " fill="#DF5759" transform="translate(106,232)"/>
<path d="M0 0 C1.32 0.66 2.64 1.32 4 2 C2.35 3.65 0.7 5.3 -1 7 C-2 4 -2 4 -1.0625 1.8125 C-0.5365625 0.9153125 -0.5365625 0.9153125 0 0 Z " fill="#C44E4E" transform="translate(138,225)"/>
<path d="M0 0 C0.99 0.33 1.98 0.66 3 1 C1.68 2.65 0.36 4.3 -1 6 C-2.32 5.67 -3.64 5.34 -5 5 C-3.35 3.35 -1.7 1.7 0 0 Z " fill="#F1EAE8" transform="translate(468,192)"/>
<path d="M0 0 C1.5 1.375 1.5 1.375 3 3 C3 3.66 3 4.32 3 5 C0.69 5.33 -1.62 5.66 -4 6 C-2.84826645 3.53199953 -1.95216435 1.95216435 0 0 Z " fill="#4B434C" transform="translate(452,186)"/>
<path d="M0 0 C1.32 0.66 2.64 1.32 4 2 C2.35 3.65 0.7 5.3 -1 7 C-1.625 4.625 -1.625 4.625 -2 2 C-1.34 1.34 -0.68 0.68 0 0 Z " fill="#E2F6F9" transform="translate(426,232)"/>
<path d="M0 0 C0.99 0.33 1.98 0.66 3 1 C2.34 2.32 1.68 3.64 1 5 C-0.98 5 -2.96 5 -5 5 C-4.67 4.01 -4.34 3.02 -4 2 C-3.01 2 -2.02 2 -1 2 C-0.67 1.34 -0.34 0.68 0 0 Z " fill="#D0463D" transform="translate(332,225)"/>
<path d="M0 0 C0.99 0 1.98 0 3 0 C5 3 5 3 4.625 5.1875 C4.41875 5.785625 4.2125 6.38375 4 7 C2.35 5.02 0.7 3.04 -1 1 C-0.67 0.67 -0.34 0.34 0 0 Z " fill="#DB5153" transform="translate(91,217)"/>
<path d="M0 0 C3 0 3 0 4.6875 1.5 C5.120625 1.995 5.55375 2.49 6 3 C5.01 3.99 4.02 4.98 3 6 C1.68 4.35 0.36 2.7 -1 1 C-0.67 0.67 -0.34 0.34 0 0 Z " fill="#FAECE9" transform="translate(271,211)"/>
<path d="M0 0 C1.31223496 3.93670488 0.24296256 6.12488144 -1 10 C-1.99 8.68 -2.98 7.36 -4 6 C-2.68 4.02 -1.36 2.04 0 0 Z " fill="#DA5858" transform="translate(353,200)"/>
<path d="M0 0 C1.32 0 2.64 0 4 0 C4.33 1.65 4.66 3.3 5 5 C5.66 5 6.32 5 7 5 C7 5.66 7 6.32 7 7 C4.13302508 5.71480435 2.02392288 4.42870746 0 2 C0 1.34 0 0.68 0 0 Z " fill="#443C41" transform="translate(147,198)"/>
<path d="M0 0 C1.98 1.65 3.96 3.3 6 5 C4.68 5.99 3.36 6.98 2 8 C0 2.25 0 2.25 0 0 Z " fill="#D44F4C" transform="translate(128,181)"/>
<path d="M0 0 C1.98 1.65 3.96 3.3 6 5 C4.68 5.99 3.36 6.98 2 8 C0 2.25 0 2.25 0 0 Z " fill="#D44F4C" transform="translate(120,173)"/>
<path d="M0 0 C0.93423645 3.01031744 1.04449911 3.86650268 0 7 C-1.65 6.67 -3.3 6.34 -5 6 C-3.35 4.02 -1.7 2.04 0 0 Z " fill="#12AFCA" transform="translate(415,249)"/>
<path d="M0 0 C0.99 0.33 1.98 0.66 3 1 C2.67 3.31 2.34 5.62 2 8 C0.02 6.35 -1.96 4.7 -4 3 C-3.34 2.67 -2.68 2.34 -2 2 C-1.01 2.33 -0.02 2.66 1 3 C0.67 2.01 0.34 1.02 0 0 Z " fill="#D85F5D" transform="translate(273,222)"/>
<path d="M0 0 C0.33 1.32 0.66 2.64 1 4 C1.99 4 2.98 4 4 4 C4.33 5.32 4.66 6.64 5 8 C2.36 6.35 -0.28 4.7 -3 3 C-2.01 2.01 -1.02 1.02 0 0 Z " fill="#55545E" transform="translate(424,215)"/>
<path d="M0 0 C4.875 2.625 4.875 2.625 6 6 C4.02 6.33 2.04 6.66 0 7 C0 4.69 0 2.38 0 0 Z " fill="#C44647" transform="translate(157,210)"/>
<path d="M0 0 C3.82946843 1.45255699 5.12050295 3.42895561 7 7 C4.69 7 2.38 7 0 7 C0 6.34 0 5.68 0 5 C0.66 5 1.32 5 2 5 C1.34 3.35 0.68 1.7 0 0 Z " fill="#CB483F" transform="translate(144,201)"/>
<path d="M0 0 C0.99 0.33 1.98 0.66 3 1 C1.68 4.63 0.36 8.26 -1 12 C-1.33 12 -1.66 12 -2 12 C-1.44687265 7.97007218 -0.8441938 3.97977076 0 0 Z " fill="#D15352" transform="translate(85,180)"/>
<path d="M0 0 C4.875 4.625 4.875 4.625 6 8 C5.01 8.495 5.01 8.495 4 9 C4 8.01 4 7.02 4 6 C3.01 6.33 2.02 6.66 1 7 C0.67 4.69 0.34 2.38 0 0 Z " fill="#D55953" transform="translate(528,173)"/>
<path d="M0 0 C3.3 0.66 6.6 1.32 10 2 C10 2.33 10 2.66 10 3 C3.565 3.495 3.565 3.495 -3 4 C-2.01 2.68 -1.02 1.36 0 0 Z " fill="#F5D4D1" transform="translate(504,163)"/>
<path d="M0 0 C2 3 2 3 1.625 5.1875 C1.41875 5.785625 1.2125 6.38375 1 7 C-0.65 5.02 -2.3 3.04 -4 1 C-2.68 0.67 -1.36 0.34 0 0 Z " fill="#F9E9E9" transform="translate(222,159)"/>
<path d="M0 0 C0 0.99 0 1.98 0 3 C-3.75 4.125 -3.75 4.125 -6 3 C-6 2.34 -6 1.68 -6 1 C-4 0 -4 0 0 0 Z M-8 3 C-6 4 -6 4 -6 4 Z " fill="#F6CCCA" transform="translate(440,134)"/>
<path d="M0 0 C2.31 0.33 4.62 0.66 7 1 C5.875 2.5 5.875 2.5 4 4 C0.8125 4.1875 0.8125 4.1875 -2 4 C-1.34 2.68 -0.68 1.36 0 0 Z " fill="#DA5957" transform="translate(266,484)"/>
<path d="M0 0 C0.66 0 1.32 0 2 0 C2.33 1.98 2.66 3.96 3 6 C1.35 5.67 -0.3 5.34 -2 5 C-1.34 3.35 -0.68 1.7 0 0 Z " fill="#F5E8E5" transform="translate(285,473)"/>
<path d="M0 0 C0.33 0 0.66 0 1 0 C1 3.3 1 6.6 1 10 C0.34 9.67 -0.32 9.34 -1 9 C-1.66 9.66 -2.32 10.32 -3 11 C-2.67 9.02 -2.34 7.04 -2 5 C-1.67 5 -1.34 5 -1 5 C-0.67 3.35 -0.34 1.7 0 0 Z " fill="#F2EEED" transform="translate(291,459)"/>
<path d="M0 0 C0.66 0.66 1.32 1.32 2 2 C1.8125 4.5 1.8125 4.5 1 7 C0.01 7.66 -0.98 8.32 -2 9 C-1.125 2.25 -1.125 2.25 0 0 Z " fill="#F7E4E0" transform="translate(385,257)"/>
<path d="M0 0 C6.15234375 0.5859375 6.15234375 0.5859375 8 1 C8.33 1.66 8.66 2.32 9 3 C6.03 3 3.06 3 0 3 C0 2.01 0 1.02 0 0 Z " fill="#229EB8" transform="translate(448,216)"/>
<path d="M0 0 C1 3 1 3 0.375 5.125 C-1 7 -1 7 -3.625 7.75 C-4.800625 7.87375 -4.800625 7.87375 -6 8 C-4.02 5.36 -2.04 2.72 0 0 Z " fill="#D6595A" transform="translate(377,176)"/>
<path d="M0 0 C1 3 1 3 0.375 5.125 C-1 7 -1 7 -3.625 7.75 C-4.800625 7.87375 -4.800625 7.87375 -6 8 C-4.02 5.36 -2.04 2.72 0 0 Z " fill="#D65A5A" transform="translate(385,168)"/>
<path d="M0 0 C1 3 1 3 0.375 5.125 C-1 7 -1 7 -3.625 7.75 C-4.800625 7.87375 -4.800625 7.87375 -6 8 C-4.02 5.36 -2.04 2.72 0 0 Z " fill="#D6595A" transform="translate(393,160)"/>
<path d="M0 0 C1.32 0.66 2.64 1.32 4 2 C3.34 3.32 2.68 4.64 2 6 C0.68 4.68 -0.64 3.36 -2 2 C-1.34 2 -0.68 2 0 2 C0 1.34 0 0.68 0 0 Z " fill="#19B3D2" transform="translate(140,264)"/>
<path d="M0 0 C0.6875 1.8125 0.6875 1.8125 1 4 C-0.4375 5.75 -0.4375 5.75 -2 7 C-2.99 6.34 -3.98 5.68 -5 5 C-3.35 3.35 -1.7 1.7 0 0 Z " fill="#13B0CA" transform="translate(423,241)"/>
<path d="M0 0 C0 1.65 0 3.3 0 5 C-0.66 5 -1.32 5 -2 5 C-2.33 5.66 -2.66 6.32 -3 7 C-3.66 6.01 -4.32 5.02 -5 4 C-1.125 0 -1.125 0 0 0 Z " fill="#F6E9E8" transform="translate(399,240)"/>
<path d="M0 0 C3.67420866 0.30618405 4.78135513 0.75771784 7.3125 3.5625 C8.1478125 4.7690625 8.1478125 4.7690625 9 6 C8.01 6 7.02 6 6 6 C6 5.34 6 4.68 6 4 C5.38125 3.71125 4.7625 3.4225 4.125 3.125 C2 2 2 2 0 0 Z " fill="#14B1C9" transform="translate(185,241)"/>
<path d="M0 0 C1.32 0 2.64 0 4 0 C4.33 1.98 4.66 3.96 5 6 C4.01 6 3.02 6 2 6 C1.34 4.02 0.68 2.04 0 0 Z " fill="#DD4045" transform="translate(480,236)"/>
<path d="M0 0 C0.6875 1.75 0.6875 1.75 1 4 C-0.3125 6.25 -0.3125 6.25 -2 8 C-2.66 8 -3.32 8 -4 8 C-2.25 2.25 -2.25 2.25 0 0 Z " fill="#D8585A" transform="translate(343,234)"/>
<path d="M0 0 C0.66 0.99 1.32 1.98 2 3 C-3.625 7 -3.625 7 -7 7 C-4.69 4.69 -2.38 2.38 0 0 Z " fill="#FCE8E8" transform="translate(507,233)"/>
<path d="M0 0 C0.66 0.99 1.32 1.98 2 3 C-3.625 7 -3.625 7 -7 7 C-4.69 4.69 -2.38 2.38 0 0 Z " fill="#FCE8E8" transform="translate(515,225)"/>
<path d="M0 0 C1.98 1.65 3.96 3.3 6 5 C4.125 5.625 4.125 5.625 2 6 C1.34 5.34 0.68 4.68 0 4 C0 2.68 0 1.36 0 0 Z " fill="#0CA8C4" transform="translate(165,218)"/>
<path d="M0 0 C0.66 0.99 1.32 1.98 2 3 C-3.625 7 -3.625 7 -7 7 C-4.69 4.69 -2.38 2.38 0 0 Z " fill="#FCE8E8" transform="translate(523,217)"/>
<path d="M0 0 C0.33 1.32 0.66 2.64 1 4 C-0.65 5.32 -2.3 6.64 -4 8 C-4.33 7.34 -4.66 6.68 -5 6 C-4.34 5.34 -3.68 4.68 -3 4 C-2.67 3.01 -2.34 2.02 -2 1 C-1.34 0.67 -0.68 0.34 0 0 Z " fill="#B3575C" transform="translate(147,219)"/>
<path d="M0 0 C0.99 0.33 1.98 0.66 3 1 C1.35 2.65 -0.3 4.3 -2 6 C-2.33 4.68 -2.66 3.36 -3 2 C-2.01 1.34 -1.02 0.68 0 0 Z " fill="#C64545" transform="translate(440,195)"/>
<path d="M0 0 C0.66 0 1.32 0 2 0 C2.33 1.98 2.66 3.96 3 6 C1.68 6.33 0.36 6.66 -1 7 C-0.67 4.69 -0.34 2.38 0 0 Z " fill="#D0463C" transform="translate(465,137)"/>
<path d="M0 0 C0 0.33 0 0.66 0 1 C-4.84241633 2.33583899 -8.93437617 3.25328119 -14 3 C-13.67 2.34 -13.34 1.68 -13 1 C-8.71230214 -0.29930238 -4.43489655 -0.07516774 0 0 Z " fill="#F3B0AE" transform="translate(448,132)"/>
<path d="M0 0 C1.65 0 3.3 0 5 0 C3.35 1.65 1.7 3.3 0 5 C-0.33 4.01 -0.66 3.02 -1 2 C-0.67 1.34 -0.34 0.68 0 0 Z " fill="#1EB4D1" transform="translate(451,284)"/>
<path d="M0 0 C1.65 0 3.3 0 5 0 C3.35 1.65 1.7 3.3 0 5 C-0.33 4.01 -0.66 3.02 -1 2 C-0.67 1.34 -0.34 0.68 0 0 Z " fill="#1EB3D1" transform="translate(467,268)"/>
<path d="M0 0 C1.65 0 3.3 0 5 0 C3.35 1.65 1.7 3.3 0 5 C-0.33 4.01 -0.66 3.02 -1 2 C-0.67 1.34 -0.34 0.68 0 0 Z " fill="#1EB4D1" transform="translate(475,260)"/>
<path d="M0 0 C0 2.31 0 4.62 0 7 C-1.65 5.35 -3.3 3.7 -5 2 C-1.125 0 -1.125 0 0 0 Z " fill="#D44C4C" transform="translate(223,243)"/>
<path d="M0 0 C2.475 0.495 2.475 0.495 5 1 C5.33 2.65 5.66 4.3 6 6 C3.37812506 4.95125002 2.20628639 4.35068687 0.75 1.875 C0.5025 1.25625 0.255 0.6375 0 0 Z " fill="#F7CCCF" transform="translate(261,221)"/>
<path d="M0 0 C0.99 0 1.98 0 3 0 C3 0.99 3 1.98 3 3 C2.34 3 1.68 3 1 3 C0.67 3.99 0.34 4.98 0 6 C-0.66 5.34 -1.32 4.68 -2 4 C-1.34 2.68 -0.68 1.36 0 0 Z " fill="#F2CBC9" transform="translate(355,213)"/>
<path d="M0 0 C1.32 0 2.64 0 4 0 C4 0.66 4 1.32 4 2 C4.66 2 5.32 2 6 2 C5.67 3.32 5.34 4.64 5 6 C3.35 4.02 1.7 2.04 0 0 Z " fill="#F9E5E7" transform="translate(226,168)"/>
<path d="M0 0 C4.75 1.875 4.75 1.875 7 3 C7 4.65 7 6.3 7 8 C5.5 6.625 5.5 6.625 4 5 C4 4.34 4 3.68 4 3 C2.68 2.34 1.36 1.68 0 1 C0 0.67 0 0.34 0 0 Z " fill="#EFB1AC" transform="translate(450,141)"/>
</svg>
